  0
SECTION
  2
HEADER
  9
$ACADVER
  1
AC1009
  9
$INSBASE
 10
0.0
 20
0.0
 30
0.0
  9
$EXTMIN
 10
0.0
 20
0.0
 30
0.0
  9
$EXTMAX
 10
0.0
 20
0.0
 30
0.0
  0
ENDSEC
  0
SECTION
  2
TABLES
  0
TABLE
  2
VPORT
 70
0
  0
ENDTAB
  0
TABLE
  2
LTYPE
 70
1
  0
LTYPE
  2
CONTINUOUS
 70
0
  3
Solid line
 72
65
 73
0
 40
0.0
  0
ENDTAB
  0
TABLE
  2
LAYER
 70
1
  0
LAYER
  2
0
 70
64
 62
7
  6
continuous
  0
ENDTAB
  0
TABLE
  2
STYLE
 70
1
  0
STYLE
  2
STANDARD
 70
0
 40
0
 41
1.0
 50
0.0
 71
0
 42
1
 3
ARIAL.TTF
 4

  0
ENDTAB
  0
TABLE
  2
VIEW
 70
0
  0
ENDTAB
  0
ENDSEC
  0
SECTION
  2
BLOCKS
  0
BLOCK
  8
Views
  2
SHAPE2DVIEW004
 70
0
 10
0.0
 20
0.0
 30
0.0
  3
SHAPE2DVIEW004
  0
LINE
  8
Views
 62
0
 10
70.0
 20
-140.0
 30
0.0
 11
70.0
 21
-134.0
 31
0.0
  0
LINE
  8
Views
 62
0
 10
70.0
 20
-134.0
 30
0.0
 11
70.0
 21
-124.074074074
 31
0.0
  0
LINE
  8
Views
 62
0
 10
70.0
 20
-124.074074074
 30
0.0
 11
64.0
 21
-124.074074074
 31
0.0
  0
LINE
  8
Views
 62
0
 10
64.0
 20
-124.074074074
 30
0.0
 11
64.0
 21
-114.148148148
 31
0.0
  0
LINE
  8
Views
 62
0
 10
64.0
 20
-114.148148148
 30
0.0
 11
70.0
 21
-114.148148148
 31
0.0
  0
LINE
  8
Views
 62
0
 10
70.0
 20
-114.148148148
 30
0.0
 11
70.0
 21
-104.222222222
 31
0.0
  0
LINE
  8
Views
 62
0
 10
70.0
 20
-104.222222222
 30
0.0
 11
64.0
 21
-104.222222222
 31
0.0
  0
LINE
  8
Views
 62
0
 10
64.0
 20
-104.222222222
 30
0.0
 11
64.0
 21
-94.2962962963
 31
0.0
  0
LINE
  8
Views
 62
0
 10
64.0
 20
-94.2962962963
 30
0.0
 11
70.0
 21
-94.2962962963
 31
0.0
  0
LINE
  8
Views
 62
0
 10
70.0
 20
-94.2962962963
 30
0.0
 11
70.0
 21
-84.3703703704
 31
0.0
  0
LINE
  8
Views
 62
0
 10
70.0
 20
-84.3703703704
 30
0.0
 11
64.0
 21
-84.3703703704
 31
0.0
  0
LINE
  8
Views
 62
0
 10
64.0
 20
-84.3703703704
 30
0.0
 11
64.0
 21
-74.4444444444
 31
0.0
  0
LINE
  8
Views
 62
0
 10
64.0
 20
-74.4444444444
 30
0.0
 11
70.0
 21
-74.4444444444
 31
0.0
  0
LINE
  8
Views
 62
0
 10
70.0
 20
-74.4444444444
 30
0.0
 11
70.0
 21
-64.5185185185
 31
0.0
  0
LINE
  8
Views
 62
0
 10
70.0
 20
-64.5185185185
 30
0.0
 11
64.0
 21
-64.5185185185
 31
0.0
  0
LINE
  8
Views
 62
0
 10
64.0
 20
-64.5185185185
 30
0.0
 11
64.0
 21
-54.5925925926
 31
0.0
  0
LINE
  8
Views
 62
0
 10
64.0
 20
-54.5925925926
 30
0.0
 11
70.0
 21
-54.5925925926
 31
0.0
  0
LINE
  8
Views
 62
0
 10
70.0
 20
-54.5925925926
 30
0.0
 11
70.0
 21
-44.6666666667
 31
0.0
  0
LINE
  8
Views
 62
0
 10
70.0
 20
-44.6666666667
 30
0.0
 11
64.0
 21
-44.6666666667
 31
0.0
  0
LINE
  8
Views
 62
0
 10
64.0
 20
-44.6666666667
 30
0.0
 11
64.0
 21
-34.7407407407
 31
0.0
  0
LINE
  8
Views
 62
0
 10
64.0
 20
-34.7407407407
 30
0.0
 11
70.0
 21
-34.7407407407
 31
0.0
  0
LINE
  8
Views
 62
0
 10
70.0
 20
-34.7407407407
 30
0.0
 11
70.0
 21
-24.8148148148
 31
0.0
  0
LINE
  8
Views
 62
0
 10
70.0
 20
-24.8148148148
 30
0.0
 11
64.0
 21
-24.8148148148
 31
0.0
  0
LINE
  8
Views
 62
0
 10
64.0
 20
-24.8148148148
 30
0.0
 11
64.0
 21
-14.8888888889
 31
0.0
  0
LINE
  8
Views
 62
0
 10
64.0
 20
-14.8888888889
 30
0.0
 11
70.0
 21
-14.8888888889
 31
0.0
  0
LINE
  8
Views
 62
0
 10
70.0
 20
-14.8888888889
 30
0.0
 11
70.0
 21
-4.96296296296
 31
0.0
  0
LINE
  8
Views
 62
0
 10
70.0
 20
-4.96296296296
 30
0.0
 11
64.0
 21
-4.96296296296
 31
0.0
  0
LINE
  8
Views
 62
0
 10
64.0
 20
-4.96296296296
 30
0.0
 11
64.0
 21
4.96296296296
 31
0.0
  0
LINE
  8
Views
 62
0
 10
64.0
 20
4.96296296296
 30
0.0
 11
70.0
 21
4.96296296296
 31
0.0
  0
LINE
  8
Views
 62
0
 10
70.0
 20
4.96296296296
 30
0.0
 11
70.0
 21
14.8888888889
 31
0.0
  0
LINE
  8
Views
 62
0
 10
70.0
 20
14.8888888889
 30
0.0
 11
64.0
 21
14.8888888889
 31
0.0
  0
LINE
  8
Views
 62
0
 10
64.0
 20
14.8888888889
 30
0.0
 11
64.0
 21
24.8148148148
 31
0.0
  0
LINE
  8
Views
 62
0
 10
64.0
 20
24.8148148148
 30
0.0
 11
70.0
 21
24.8148148148
 31
0.0
  0
LINE
  8
Views
 62
0
 10
70.0
 20
24.8148148148
 30
0.0
 11
70.0
 21
34.7407407407
 31
0.0
  0
LINE
  8
Views
 62
0
 10
70.0
 20
34.7407407407
 30
0.0
 11
64.0
 21
34.7407407407
 31
0.0
  0
LINE
  8
Views
 62
0
 10
64.0
 20
34.7407407407
 30
0.0
 11
64.0
 21
44.6666666667
 31
0.0
  0
LINE
  8
Views
 62
0
 10
64.0
 20
44.6666666667
 30
0.0
 11
70.0
 21
44.6666666667
 31
0.0
  0
LINE
  8
Views
 62
0
 10
70.0
 20
44.6666666667
 30
0.0
 11
70.0
 21
54.5925925926
 31
0.0
  0
LINE
  8
Views
 62
0
 10
70.0
 20
54.5925925926
 30
0.0
 11
64.0
 21
54.5925925926
 31
0.0
  0
LINE
  8
Views
 62
0
 10
64.0
 20
54.5925925926
 30
0.0
 11
64.0
 21
64.5185185185
 31
0.0
  0
LINE
  8
Views
 62
0
 10
64.0
 20
64.5185185185
 30
0.0
 11
70.0
 21
64.5185185185
 31
0.0
  0
LINE
  8
Views
 62
0
 10
70.0
 20
64.5185185185
 30
0.0
 11
70.0
 21
74.4444444444
 31
0.0
  0
LINE
  8
Views
 62
0
 10
70.0
 20
74.4444444444
 30
0.0
 11
64.0
 21
74.4444444444
 31
0.0
  0
LINE
  8
Views
 62
0
 10
64.0
 20
74.4444444444
 30
0.0
 11
64.0
 21
84.3703703704
 31
0.0
  0
LINE
  8
Views
 62
0
 10
64.0
 20
84.3703703704
 30
0.0
 11
70.0
 21
84.3703703704
 31
0.0
  0
LINE
  8
Views
 62
0
 10
70.0
 20
84.3703703704
 30
0.0
 11
70.0
 21
94.2962962963
 31
0.0
  0
LINE
  8
Views
 62
0
 10
70.0
 20
94.2962962963
 30
0.0
 11
64.0
 21
94.2962962963
 31
0.0
  0
LINE
  8
Views
 62
0
 10
64.0
 20
94.2962962963
 30
0.0
 11
64.0
 21
104.222222222
 31
0.0
  0
LINE
  8
Views
 62
0
 10
64.0
 20
104.222222222
 30
0.0
 11
70.0
 21
104.222222222
 31
0.0
  0
LINE
  8
Views
 62
0
 10
70.0
 20
104.222222222
 30
0.0
 11
70.0
 21
114.148148148
 31
0.0
  0
LINE
  8
Views
 62
0
 10
70.0
 20
114.148148148
 30
0.0
 11
64.0
 21
114.148148148
 31
0.0
  0
LINE
  8
Views
 62
0
 10
64.0
 20
114.148148148
 30
0.0
 11
64.0
 21
124.074074074
 31
0.0
  0
LINE
  8
Views
 62
0
 10
64.0
 20
124.074074074
 30
0.0
 11
70.0
 21
124.074074074
 31
0.0
  0
LINE
  8
Views
 62
0
 10
70.0
 20
124.074074074
 30
0.0
 11
70.0
 21
134.0
 31
0.0
  0
LINE
  8
Views
 62
0
 10
70.0
 20
134.0
 30
0.0
 11
70.0
 21
140.0
 31
0.0
  0
LINE
  8
Views
 62
0
 10
70.0
 20
140.0
 30
0.0
 11
64.0
 21
140.0
 31
0.0
  0
LINE
  8
Views
 62
0
 10
64.0
 20
140.0
 30
0.0
 11
54.4
 21
140.0
 31
0.0
  0
LINE
  8
Views
 62
0
 10
54.4
 20
140.0
 30
0.0
 11
54.4
 21
134.0
 31
0.0
  0
LINE
  8
Views
 62
0
 10
54.4
 20
134.0
 30
0.0
 11
44.8
 21
134.0
 31
0.0
  0
LINE
  8
Views
 62
0
 10
44.8
 20
134.0
 30
0.0
 11
44.8
 21
140.0
 31
0.0
  0
LINE
  8
Views
 62
0
 10
44.8
 20
140.0
 30
0.0
 11
35.2
 21
140.0
 31
0.0
  0
LINE
  8
Views
 62
0
 10
35.2
 20
140.0
 30
0.0
 11
35.2
 21
134.0
 31
0.0
  0
LINE
  8
Views
 62
0
 10
35.2
 20
134.0
 30
0.0
 11
25.6
 21
134.0
 31
0.0
  0
LINE
  8
Views
 62
0
 10
25.6
 20
134.0
 30
0.0
 11
25.6
 21
140.0
 31
0.0
  0
LINE
  8
Views
 62
0
 10
25.6
 20
140.0
 30
0.0
 11
16.0
 21
140.0
 31
0.0
  0
LINE
  8
Views
 62
0
 10
16.0
 20
140.0
 30
0.0
 11
10.0
 21
140.0
 31
0.0
  0
LINE
  8
Views
 62
0
 10
10.0
 20
140.0
 30
0.0
 11
10.0
 21
134.0
 31
0.0
  0
LINE
  8
Views
 62
0
 10
10.0
 20
134.0
 30
0.0
 11
10.0
 21
124.074074074
 31
0.0
  0
LINE
  8
Views
 62
0
 10
10.0
 20
124.074074074
 30
0.0
 11
16.0
 21
124.074074074
 31
0.0
  0
LINE
  8
Views
 62
0
 10
16.0
 20
124.074074074
 30
0.0
 11
16.0
 21
114.148148148
 31
0.0
  0
LINE
  8
Views
 62
0
 10
16.0
 20
114.148148148
 30
0.0
 11
10.0
 21
114.148148148
 31
0.0
  0
LINE
  8
Views
 62
0
 10
10.0
 20
114.148148148
 30
0.0
 11
10.0
 21
104.222222222
 31
0.0
  0
LINE
  8
Views
 62
0
 10
10.0
 20
104.222222222
 30
0.0
 11
16.0
 21
104.222222222
 31
0.0
  0
LINE
  8
Views
 62
0
 10
16.0
 20
104.222222222
 30
0.0
 11
16.0
 21
94.2962962963
 31
0.0
  0
LINE
  8
Views
 62
0
 10
16.0
 20
94.2962962963
 30
0.0
 11
10.0
 21
94.2962962963
 31
0.0
  0
LINE
  8
Views
 62
0
 10
10.0
 20
94.2962962963
 30
0.0
 11
10.0
 21
84.3703703704
 31
0.0
  0
LINE
  8
Views
 62
0
 10
10.0
 20
84.3703703704
 30
0.0
 11
16.0
 21
84.3703703704
 31
0.0
  0
LINE
  8
Views
 62
0
 10
16.0
 20
84.3703703704
 30
0.0
 11
16.0
 21
74.4444444444
 31
0.0
  0
LINE
  8
Views
 62
0
 10
16.0
 20
74.4444444444
 30
0.0
 11
10.0
 21
74.4444444444
 31
0.0
  0
LINE
  8
Views
 62
0
 10
10.0
 20
74.4444444444
 30
0.0
 11
10.0
 21
64.5185185185
 31
0.0
  0
LINE
  8
Views
 62
0
 10
10.0
 20
64.5185185185
 30
0.0
 11
16.0
 21
64.5185185185
 31
0.0
  0
LINE
  8
Views
 62
0
 10
16.0
 20
64.5185185185
 30
0.0
 11
16.0
 21
54.5925925926
 31
0.0
  0
LINE
  8
Views
 62
0
 10
16.0
 20
54.5925925926
 30
0.0
 11
10.0
 21
54.5925925926
 31
0.0
  0
LINE
  8
Views
 62
0
 10
10.0
 20
54.5925925926
 30
0.0
 11
10.0
 21
44.6666666667
 31
0.0
  0
LINE
  8
Views
 62
0
 10
10.0
 20
44.6666666667
 30
0.0
 11
16.0
 21
44.6666666667
 31
0.0
  0
LINE
  8
Views
 62
0
 10
16.0
 20
44.6666666667
 30
0.0
 11
16.0
 21
34.7407407407
 31
0.0
  0
LINE
  8
Views
 62
0
 10
16.0
 20
34.7407407407
 30
0.0
 11
10.0
 21
34.7407407407
 31
0.0
  0
LINE
  8
Views
 62
0
 10
10.0
 20
34.7407407407
 30
0.0
 11
10.0
 21
24.8148148148
 31
0.0
  0
LINE
  8
Views
 62
0
 10
10.0
 20
24.8148148148
 30
0.0
 11
16.0
 21
24.8148148148
 31
0.0
  0
LINE
  8
Views
 62
0
 10
16.0
 20
24.8148148148
 30
0.0
 11
16.0
 21
14.8888888889
 31
0.0
  0
LINE
  8
Views
 62
0
 10
16.0
 20
14.8888888889
 30
0.0
 11
10.0
 21
14.8888888889
 31
0.0
  0
LINE
  8
Views
 62
0
 10
10.0
 20
14.8888888889
 30
0.0
 11
10.0
 21
4.96296296296
 31
0.0
  0
LINE
  8
Views
 62
0
 10
10.0
 20
4.96296296296
 30
0.0
 11
16.0
 21
4.96296296296
 31
0.0
  0
LINE
  8
Views
 62
0
 10
16.0
 20
4.96296296296
 30
0.0
 11
16.0
 21
-4.96296296296
 31
0.0
  0
LINE
  8
Views
 62
0
 10
16.0
 20
-4.96296296296
 30
0.0
 11
10.0
 21
-4.96296296296
 31
0.0
  0
LINE
  8
Views
 62
0
 10
10.0
 20
-4.96296296296
 30
0.0
 11
10.0
 21
-14.8888888889
 31
0.0
  0
LINE
  8
Views
 62
0
 10
10.0
 20
-14.8888888889
 30
0.0
 11
16.0
 21
-14.8888888889
 31
0.0
  0
LINE
  8
Views
 62
0
 10
16.0
 20
-14.8888888889
 30
0.0
 11
16.0
 21
-24.8148148148
 31
0.0
  0
LINE
  8
Views
 62
0
 10
16.0
 20
-24.8148148148
 30
0.0
 11
10.0
 21
-24.8148148148
 31
0.0
  0
LINE
  8
Views
 62
0
 10
10.0
 20
-24.8148148148
 30
0.0
 11
10.0
 21
-34.7407407407
 31
0.0
  0
LINE
  8
Views
 62
0
 10
10.0
 20
-34.7407407407
 30
0.0
 11
16.0
 21
-34.7407407407
 31
0.0
  0
LINE
  8
Views
 62
0
 10
16.0
 20
-34.7407407407
 30
0.0
 11
16.0
 21
-44.6666666667
 31
0.0
  0
LINE
  8
Views
 62
0
 10
16.0
 20
-44.6666666667
 30
0.0
 11
10.0
 21
-44.6666666667
 31
0.0
  0
LINE
  8
Views
 62
0
 10
10.0
 20
-44.6666666667
 30
0.0
 11
10.0
 21
-54.5925925926
 31
0.0
  0
LINE
  8
Views
 62
0
 10
10.0
 20
-54.5925925926
 30
0.0
 11
16.0
 21
-54.5925925926
 31
0.0
  0
LINE
  8
Views
 62
0
 10
16.0
 20
-54.5925925926
 30
0.0
 11
16.0
 21
-64.5185185185
 31
0.0
  0
LINE
  8
Views
 62
0
 10
16.0
 20
-64.5185185185
 30
0.0
 11
10.0
 21
-64.5185185185
 31
0.0
  0
LINE
  8
Views
 62
0
 10
10.0
 20
-64.5185185185
 30
0.0
 11
10.0
 21
-74.4444444444
 31
0.0
  0
LINE
  8
Views
 62
0
 10
10.0
 20
-74.4444444444
 30
0.0
 11
16.0
 21
-74.4444444444
 31
0.0
  0
LINE
  8
Views
 62
0
 10
16.0
 20
-74.4444444444
 30
0.0
 11
16.0
 21
-84.3703703704
 31
0.0
  0
LINE
  8
Views
 62
0
 10
16.0
 20
-84.3703703704
 30
0.0
 11
10.0
 21
-84.3703703704
 31
0.0
  0
LINE
  8
Views
 62
0
 10
10.0
 20
-84.3703703704
 30
0.0
 11
10.0
 21
-94.2962962963
 31
0.0
  0
LINE
  8
Views
 62
0
 10
10.0
 20
-94.2962962963
 30
0.0
 11
16.0
 21
-94.2962962963
 31
0.0
  0
LINE
  8
Views
 62
0
 10
16.0
 20
-94.2962962963
 30
0.0
 11
16.0
 21
-104.222222222
 31
0.0
  0
LINE
  8
Views
 62
0
 10
16.0
 20
-104.222222222
 30
0.0
 11
10.0
 21
-104.222222222
 31
0.0
  0
LINE
  8
Views
 62
0
 10
10.0
 20
-104.222222222
 30
0.0
 11
10.0
 21
-114.148148148
 31
0.0
  0
LINE
  8
Views
 62
0
 10
10.0
 20
-114.148148148
 30
0.0
 11
16.0
 21
-114.148148148
 31
0.0
  0
LINE
  8
Views
 62
0
 10
16.0
 20
-114.148148148
 30
0.0
 11
16.0
 21
-124.074074074
 31
0.0
  0
LINE
  8
Views
 62
0
 10
16.0
 20
-124.074074074
 30
0.0
 11
10.0
 21
-124.074074074
 31
0.0
  0
LINE
  8
Views
 62
0
 10
10.0
 20
-124.074074074
 30
0.0
 11
10.0
 21
-134.0
 31
0.0
  0
LINE
  8
Views
 62
0
 10
10.0
 20
-134.0
 30
0.0
 11
10.0
 21
-140.0
 31
0.0
  0
LINE
  8
Views
 62
0
 10
10.0
 20
-140.0
 30
0.0
 11
16.0
 21
-140.0
 31
0.0
  0
LINE
  8
Views
 62
0
 10
16.0
 20
-140.0
 30
0.0
 11
25.6
 21
-140.0
 31
0.0
  0
LINE
  8
Views
 62
0
 10
25.6
 20
-140.0
 30
0.0
 11
25.6
 21
-134.0
 31
0.0
  0
LINE
  8
Views
 62
0
 10
25.6
 20
-134.0
 30
0.0
 11
35.2
 21
-134.0
 31
0.0
  0
LINE
  8
Views
 62
0
 10
35.2
 20
-134.0
 30
0.0
 11
35.2
 21
-140.0
 31
0.0
  0
LINE
  8
Views
 62
0
 10
35.2
 20
-140.0
 30
0.0
 11
44.8
 21
-140.0
 31
0.0
  0
LINE
  8
Views
 62
0
 10
44.8
 20
-140.0
 30
0.0
 11
44.8
 21
-134.0
 31
0.0
  0
LINE
  8
Views
 62
0
 10
44.8
 20
-134.0
 30
0.0
 11
54.4
 21
-134.0
 31
0.0
  0
LINE
  8
Views
 62
0
 10
54.4
 20
-134.0
 30
0.0
 11
54.4
 21
-140.0
 31
0.0
  0
LINE
  8
Views
 62
0
 10
54.4
 20
-140.0
 30
0.0
 11
64.0
 21
-140.0
 31
0.0
  0
LINE
  8
Views
 62
0
 10
64.0
 20
-140.0
 30
0.0
 11
70.0
 21
-140.0
 31
0.0
  0
ENDBLK
  0
BLOCK
  8
Views
  2
SHAPE2DVIEW003
 70
0
 10
0.0
 20
0.0
 30
0.0
  3
SHAPE2DVIEW003
  0
LINE
  8
Views
 62
0
 10
140.0
 20
140.0
 30
0.0
 11
140.0
 21
134.0
 31
0.0
  0
LINE
  8
Views
 62
0
 10
134.0
 20
140.0
 30
0.0
 11
140.0
 21
140.0
 31
0.0
  0
LINE
  8
Views
 62
0
 10
140.0
 20
134.0
 30
0.0
 11
140.0
 21
124.074074074
 31
0.0
  0
LINE
  8
Views
 62
0
 10
124.4
 20
140.0
 30
0.0
 11
134.0
 21
140.0
 31
0.0
  0
LINE
  8
Views
 62
0
 10
140.0
 20
124.074074074
 30
0.0
 11
134.0
 21
124.074074074
 31
0.0
  0
LINE
  8
Views
 62
0
 10
124.4
 20
134.0
 30
0.0
 11
124.4
 21
140.0
 31
0.0
  0
LINE
  8
Views
 62
0
 10
134.0
 20
124.074074074
 30
0.0
 11
134.0
 21
114.148148148
 31
0.0
  0
LINE
  8
Views
 62
0
 10
114.8
 20
134.0
 30
0.0
 11
124.4
 21
134.0
 31
0.0
  0
LINE
  8
Views
 62
0
 10
134.0
 20
114.148148148
 30
0.0
 11
140.0
 21
114.148148148
 31
0.0
  0
LINE
  8
Views
 62
0
 10
114.8
 20
140.0
 30
0.0
 11
114.8
 21
134.0
 31
0.0
  0
LINE
  8
Views
 62
0
 10
140.0
 20
114.148148148
 30
0.0
 11
140.0
 21
104.222222222
 31
0.0
  0
LINE
  8
Views
 62
0
 10
105.2
 20
140.0
 30
0.0
 11
114.8
 21
140.0
 31
0.0
  0
LINE
  8
Views
 62
0
 10
140.0
 20
104.222222222
 30
0.0
 11
134.0
 21
104.222222222
 31
0.0
  0
LINE
  8
Views
 62
0
 10
105.2
 20
134.0
 30
0.0
 11
105.2
 21
140.0
 31
0.0
  0
LINE
  8
Views
 62
0
 10
134.0
 20
104.222222222
 30
0.0
 11
134.0
 21
94.2962962963
 31
0.0
  0
LINE
  8
Views
 62
0
 10
95.6
 20
134.0
 30
0.0
 11
105.2
 21
134.0
 31
0.0
  0
LINE
  8
Views
 62
0
 10
134.0
 20
94.2962962963
 30
0.0
 11
140.0
 21
94.2962962963
 31
0.0
  0
LINE
  8
Views
 62
0
 10
95.6
 20
140.0
 30
0.0
 11
95.6
 21
134.0
 31
0.0
  0
LINE
  8
Views
 62
0
 10
140.0
 20
94.2962962963
 30
0.0
 11
140.0
 21
84.3703703704
 31
0.0
  0
LINE
  8
Views
 62
0
 10
86.0
 20
140.0
 30
0.0
 11
95.6
 21
140.0
 31
0.0
  0
LINE
  8
Views
 62
0
 10
140.0
 20
84.3703703704
 30
0.0
 11
134.0
 21
84.3703703704
 31
0.0
  0
LINE
  8
Views
 62
0
 10
80.0
 20
140.0
 30
0.0
 11
86.0
 21
140.0
 31
0.0
  0
LINE
  8
Views
 62
0
 10
134.0
 20
84.3703703704
 30
0.0
 11
134.0
 21
74.4444444444
 31
0.0
  0
LINE
  8
Views
 62
0
 10
80.0
 20
134.0
 30
0.0
 11
80.0
 21
140.0
 31
0.0
  0
LINE
  8
Views
 62
0
 10
134.0
 20
74.4444444444
 30
0.0
 11
140.0
 21
74.4444444444
 31
0.0
  0
LINE
  8
Views
 62
0
 10
80.0
 20
124.074074074
 30
0.0
 11
80.0
 21
134.0
 31
0.0
  0
LINE
  8
Views
 62
0
 10
140.0
 20
74.4444444444
 30
0.0
 11
140.0
 21
64.5185185185
 31
0.0
  0
LINE
  8
Views
 62
0
 10
86.0
 20
124.074074074
 30
0.0
 11
80.0
 21
124.074074074
 31
0.0
  0
LINE
  8
Views
 62
0
 10
140.0
 20
64.5185185185
 30
0.0
 11
134.0
 21
64.5185185185
 31
0.0
  0
LINE
  8
Views
 62
0
 10
86.0
 20
114.148148148
 30
0.0
 11
86.0
 21
124.074074074
 31
0.0
  0
LINE
  8
Views
 62
0
 10
134.0
 20
64.5185185185
 30
0.0
 11
134.0
 21
54.5925925926
 31
0.0
  0
LINE
  8
Views
 62
0
 10
80.0
 20
114.148148148
 30
0.0
 11
86.0
 21
114.148148148
 31
0.0
  0
LINE
  8
Views
 62
0
 10
134.0
 20
54.5925925926
 30
0.0
 11
140.0
 21
54.5925925926
 31
0.0
  0
LINE
  8
Views
 62
0
 10
80.0
 20
104.222222222
 30
0.0
 11
80.0
 21
114.148148148
 31
0.0
  0
LINE
  8
Views
 62
0
 10
140.0
 20
54.5925925926
 30
0.0
 11
140.0
 21
44.6666666667
 31
0.0
  0
LINE
  8
Views
 62
0
 10
86.0
 20
104.222222222
 30
0.0
 11
80.0
 21
104.222222222
 31
0.0
  0
LINE
  8
Views
 62
0
 10
140.0
 20
44.6666666667
 30
0.0
 11
134.0
 21
44.6666666667
 31
0.0
  0
LINE
  8
Views
 62
0
 10
86.0
 20
94.2962962963
 30
0.0
 11
86.0
 21
104.222222222
 31
0.0
  0
LINE
  8
Views
 62
0
 10
134.0
 20
44.6666666667
 30
0.0
 11
134.0
 21
34.7407407407
 31
0.0
  0
LINE
  8
Views
 62
0
 10
80.0
 20
94.2962962963
 30
0.0
 11
86.0
 21
94.2962962963
 31
0.0
  0
LINE
  8
Views
 62
0
 10
134.0
 20
34.7407407407
 30
0.0
 11
140.0
 21
34.7407407407
 31
0.0
  0
LINE
  8
Views
 62
0
 10
80.0
 20
84.3703703704
 30
0.0
 11
80.0
 21
94.2962962963
 31
0.0
  0
LINE
  8
Views
 62
0
 10
140.0
 20
34.7407407407
 30
0.0
 11
140.0
 21
24.8148148148
 31
0.0
  0
LINE
  8
Views
 62
0
 10
86.0
 20
84.3703703704
 30
0.0
 11
80.0
 21
84.3703703704
 31
0.0
  0
LINE
  8
Views
 62
0
 10
140.0
 20
24.8148148148
 30
0.0
 11
134.0
 21
24.8148148148
 31
0.0
  0
LINE
  8
Views
 62
0
 10
86.0
 20
74.4444444444
 30
0.0
 11
86.0
 21
84.3703703704
 31
0.0
  0
LINE
  8
Views
 62
0
 10
134.0
 20
24.8148148148
 30
0.0
 11
134.0
 21
14.8888888889
 31
0.0
  0
LINE
  8
Views
 62
0
 10
80.0
 20
74.4444444444
 30
0.0
 11
86.0
 21
74.4444444444
 31
0.0
  0
LINE
  8
Views
 62
0
 10
134.0
 20
14.8888888889
 30
0.0
 11
140.0
 21
14.8888888889
 31
0.0
  0
LINE
  8
Views
 62
0
 10
80.0
 20
64.5185185185
 30
0.0
 11
80.0
 21
74.4444444444
 31
0.0
  0
LINE
  8
Views
 62
0
 10
140.0
 20
14.8888888889
 30
0.0
 11
140.0
 21
4.96296296296
 31
0.0
  0
LINE
  8
Views
 62
0
 10
86.0
 20
64.5185185185
 30
0.0
 11
80.0
 21
64.5185185185
 31
0.0
  0
LINE
  8
Views
 62
0
 10
140.0
 20
4.96296296296
 30
0.0
 11
134.0
 21
4.96296296296
 31
0.0
  0
LINE
  8
Views
 62
0
 10
86.0
 20
54.5925925926
 30
0.0
 11
86.0
 21
64.5185185185
 31
0.0
  0
LINE
  8
Views
 62
0
 10
134.0
 20
4.96296296296
 30
0.0
 11
134.0
 21
-4.96296296296
 31
0.0
  0
LINE
  8
Views
 62
0
 10
80.0
 20
54.5925925926
 30
0.0
 11
86.0
 21
54.5925925926
 31
0.0
  0
LINE
  8
Views
 62
0
 10
134.0
 20
-4.96296296296
 30
0.0
 11
140.0
 21
-4.96296296296
 31
0.0
  0
LINE
  8
Views
 62
0
 10
80.0
 20
44.6666666667
 30
0.0
 11
80.0
 21
54.5925925926
 31
0.0
  0
LINE
  8
Views
 62
0
 10
140.0
 20
-4.96296296296
 30
0.0
 11
140.0
 21
-14.8888888889
 31
0.0
  0
LINE
  8
Views
 62
0
 10
86.0
 20
44.6666666667
 30
0.0
 11
80.0
 21
44.6666666667
 31
0.0
  0
LINE
  8
Views
 62
0
 10
140.0
 20
-14.8888888889
 30
0.0
 11
134.0
 21
-14.8888888889
 31
0.0
  0
LINE
  8
Views
 62
0
 10
86.0
 20
34.7407407407
 30
0.0
 11
86.0
 21
44.6666666667
 31
0.0
  0
LINE
  8
Views
 62
0
 10
134.0
 20
-14.8888888889
 30
0.0
 11
134.0
 21
-24.8148148148
 31
0.0
  0
LINE
  8
Views
 62
0
 10
80.0
 20
34.7407407407
 30
0.0
 11
86.0
 21
34.7407407407
 31
0.0
  0
LINE
  8
Views
 62
0
 10
134.0
 20
-24.8148148148
 30
0.0
 11
140.0
 21
-24.8148148148
 31
0.0
  0
LINE
  8
Views
 62
0
 10
80.0
 20
24.8148148148
 30
0.0
 11
80.0
 21
34.7407407407
 31
0.0
  0
LINE
  8
Views
 62
0
 10
140.0
 20
-24.8148148148
 30
0.0
 11
140.0
 21
-34.7407407407
 31
0.0
  0
LINE
  8
Views
 62
0
 10
86.0
 20
24.8148148148
 30
0.0
 11
80.0
 21
24.8148148148
 31
0.0
  0
LINE
  8
Views
 62
0
 10
140.0
 20
-34.7407407407
 30
0.0
 11
134.0
 21
-34.7407407407
 31
0.0
  0
LINE
  8
Views
 62
0
 10
86.0
 20
14.8888888889
 30
0.0
 11
86.0
 21
24.8148148148
 31
0.0
  0
LINE
  8
Views
 62
0
 10
134.0
 20
-34.7407407407
 30
0.0
 11
134.0
 21
-44.6666666667
 31
0.0
  0
LINE
  8
Views
 62
0
 10
80.0
 20
14.8888888889
 30
0.0
 11
86.0
 21
14.8888888889
 31
0.0
  0
LINE
  8
Views
 62
0
 10
134.0
 20
-44.6666666667
 30
0.0
 11
140.0
 21
-44.6666666667
 31
0.0
  0
LINE
  8
Views
 62
0
 10
80.0
 20
4.96296296296
 30
0.0
 11
80.0
 21
14.8888888889
 31
0.0
  0
LINE
  8
Views
 62
0
 10
140.0
 20
-44.6666666667
 30
0.0
 11
140.0
 21
-54.5925925926
 31
0.0
  0
LINE
  8
Views
 62
0
 10
86.0
 20
4.96296296296
 30
0.0
 11
80.0
 21
4.96296296296
 31
0.0
  0
LINE
  8
Views
 62
0
 10
140.0
 20
-54.5925925926
 30
0.0
 11
134.0
 21
-54.5925925926
 31
0.0
  0
LINE
  8
Views
 62
0
 10
86.0
 20
-4.96296296296
 30
0.0
 11
86.0
 21
4.96296296296
 31
0.0
  0
LINE
  8
Views
 62
0
 10
134.0
 20
-54.5925925926
 30
0.0
 11
134.0
 21
-64.5185185185
 31
0.0
  0
LINE
  8
Views
 62
0
 10
80.0
 20
-4.96296296296
 30
0.0
 11
86.0
 21
-4.96296296296
 31
0.0
  0
LINE
  8
Views
 62
0
 10
134.0
 20
-64.5185185185
 30
0.0
 11
140.0
 21
-64.5185185185
 31
0.0
  0
LINE
  8
Views
 62
0
 10
80.0
 20
-14.8888888889
 30
0.0
 11
80.0
 21
-4.96296296296
 31
0.0
  0
LINE
  8
Views
 62
0
 10
140.0
 20
-64.5185185185
 30
0.0
 11
140.0
 21
-74.4444444444
 31
0.0
  0
LINE
  8
Views
 62
0
 10
86.0
 20
-14.8888888889
 30
0.0
 11
80.0
 21
-14.8888888889
 31
0.0
  0
LINE
  8
Views
 62
0
 10
140.0
 20
-74.4444444444
 30
0.0
 11
134.0
 21
-74.4444444444
 31
0.0
  0
LINE
  8
Views
 62
0
 10
86.0
 20
-24.8148148148
 30
0.0
 11
86.0
 21
-14.8888888889
 31
0.0
  0
LINE
  8
Views
 62
0
 10
134.0
 20
-74.4444444444
 30
0.0
 11
134.0
 21
-84.3703703704
 31
0.0
  0
LINE
  8
Views
 62
0
 10
80.0
 20
-24.8148148148
 30
0.0
 11
86.0
 21
-24.8148148148
 31
0.0
  0
LINE
  8
Views
 62
0
 10
134.0
 20
-84.3703703704
 30
0.0
 11
140.0
 21
-84.3703703704
 31
0.0
  0
LINE
  8
Views
 62
0
 10
80.0
 20
-34.7407407407
 30
0.0
 11
80.0
 21
-24.8148148148
 31
0.0
  0
LINE
  8
Views
 62
0
 10
140.0
 20
-84.3703703704
 30
0.0
 11
140.0
 21
-94.2962962963
 31
0.0
  0
LINE
  8
Views
 62
0
 10
86.0
 20
-34.7407407407
 30
0.0
 11
80.0
 21
-34.7407407407
 31
0.0
  0
LINE
  8
Views
 62
0
 10
140.0
 20
-94.2962962963
 30
0.0
 11
134.0
 21
-94.2962962963
 31
0.0
  0
LINE
  8
Views
 62
0
 10
86.0
 20
-44.6666666667
 30
0.0
 11
86.0
 21
-34.7407407407
 31
0.0
  0
LINE
  8
Views
 62
0
 10
134.0
 20
-94.2962962963
 30
0.0
 11
134.0
 21
-104.222222222
 31
0.0
  0
LINE
  8
Views
 62
0
 10
80.0
 20
-44.6666666667
 30
0.0
 11
86.0
 21
-44.6666666667
 31
0.0
  0
LINE
  8
Views
 62
0
 10
134.0
 20
-104.222222222
 30
0.0
 11
140.0
 21
-104.222222222
 31
0.0
  0
LINE
  8
Views
 62
0
 10
80.0
 20
-54.5925925926
 30
0.0
 11
80.0
 21
-44.6666666667
 31
0.0
  0
LINE
  8
Views
 62
0
 10
140.0
 20
-104.222222222
 30
0.0
 11
140.0
 21
-114.148148148
 31
0.0
  0
LINE
  8
Views
 62
0
 10
86.0
 20
-54.5925925926
 30
0.0
 11
80.0
 21
-54.5925925926
 31
0.0
  0
LINE
  8
Views
 62
0
 10
140.0
 20
-114.148148148
 30
0.0
 11
134.0
 21
-114.148148148
 31
0.0
  0
LINE
  8
Views
 62
0
 10
86.0
 20
-64.5185185185
 30
0.0
 11
86.0
 21
-54.5925925926
 31
0.0
  0
LINE
  8
Views
 62
0
 10
134.0
 20
-114.148148148
 30
0.0
 11
134.0
 21
-124.074074074
 31
0.0
  0
LINE
  8
Views
 62
0
 10
80.0
 20
-64.5185185185
 30
0.0
 11
86.0
 21
-64.5185185185
 31
0.0
  0
LINE
  8
Views
 62
0
 10
134.0
 20
-124.074074074
 30
0.0
 11
140.0
 21
-124.074074074
 31
0.0
  0
LINE
  8
Views
 62
0
 10
80.0
 20
-74.4444444444
 30
0.0
 11
80.0
 21
-64.5185185185
 31
0.0
  0
LINE
  8
Views
 62
0
 10
140.0
 20
-124.074074074
 30
0.0
 11
140.0
 21
-134.0
 31
0.0
  0
LINE
  8
Views
 62
0
 10
86.0
 20
-74.4444444444
 30
0.0
 11
80.0
 21
-74.4444444444
 31
0.0
  0
LINE
  8
Views
 62
0
 10
140.0
 20
-134.0
 30
0.0
 11
140.0
 21
-140.0
 31
0.0
  0
LINE
  8
Views
 62
0
 10
86.0
 20
-84.3703703704
 30
0.0
 11
86.0
 21
-74.4444444444
 31
0.0
  0
LINE
  8
Views
 62
0
 10
140.0
 20
-140.0
 30
0.0
 11
134.0
 21
-140.0
 31
0.0
  0
LINE
  8
Views
 62
0
 10
80.0
 20
-84.3703703704
 30
0.0
 11
86.0
 21
-84.3703703704
 31
0.0
  0
LINE
  8
Views
 62
0
 10
134.0
 20
-140.0
 30
0.0
 11
124.4
 21
-140.0
 31
0.0
  0
LINE
  8
Views
 62
0
 10
80.0
 20
-94.2962962963
 30
0.0
 11
80.0
 21
-84.3703703704
 31
0.0
  0
LINE
  8
Views
 62
0
 10
124.4
 20
-140.0
 30
0.0
 11
124.4
 21
-134.0
 31
0.0
  0
LINE
  8
Views
 62
0
 10
86.0
 20
-94.2962962963
 30
0.0
 11
80.0
 21
-94.2962962963
 31
0.0
  0
LINE
  8
Views
 62
0
 10
124.4
 20
-134.0
 30
0.0
 11
114.8
 21
-134.0
 31
0.0
  0
LINE
  8
Views
 62
0
 10
86.0
 20
-104.222222222
 30
0.0
 11
86.0
 21
-94.2962962963
 31
0.0
  0
LINE
  8
Views
 62
0
 10
114.8
 20
-134.0
 30
0.0
 11
114.8
 21
-140.0
 31
0.0
  0
LINE
  8
Views
 62
0
 10
80.0
 20
-104.222222222
 30
0.0
 11
86.0
 21
-104.222222222
 31
0.0
  0
LINE
  8
Views
 62
0
 10
114.8
 20
-140.0
 30
0.0
 11
105.2
 21
-140.0
 31
0.0
  0
LINE
  8
Views
 62
0
 10
80.0
 20
-114.148148148
 30
0.0
 11
80.0
 21
-104.222222222
 31
0.0
  0
LINE
  8
Views
 62
0
 10
105.2
 20
-140.0
 30
0.0
 11
105.2
 21
-134.0
 31
0.0
  0
LINE
  8
Views
 62
0
 10
86.0
 20
-114.148148148
 30
0.0
 11
80.0
 21
-114.148148148
 31
0.0
  0
LINE
  8
Views
 62
0
 10
105.2
 20
-134.0
 30
0.0
 11
95.6
 21
-134.0
 31
0.0
  0
LINE
  8
Views
 62
0
 10
86.0
 20
-124.074074074
 30
0.0
 11
86.0
 21
-114.148148148
 31
0.0
  0
LINE
  8
Views
 62
0
 10
95.6
 20
-134.0
 30
0.0
 11
95.6
 21
-140.0
 31
0.0
  0
LINE
  8
Views
 62
0
 10
80.0
 20
-124.074074074
 30
0.0
 11
86.0
 21
-124.074074074
 31
0.0
  0
LINE
  8
Views
 62
0
 10
95.6
 20
-140.0
 30
0.0
 11
86.0
 21
-140.0
 31
0.0
  0
LINE
  8
Views
 62
0
 10
80.0
 20
-134.0
 30
0.0
 11
80.0
 21
-124.074074074
 31
0.0
  0
LINE
  8
Views
 62
0
 10
86.0
 20
-140.0
 30
0.0
 11
80.0
 21
-140.0
 31
0.0
  0
LINE
  8
Views
 62
0
 10
80.0
 20
-140.0
 30
0.0
 11
80.0
 21
-134.0
 31
0.0
  0
ARC
  8
Views
 62
0
 10
99.722183
 20
-110.777817
 30
0.0
 40
0.777817
 50
-0.0
 51
90.0
  0
LINE
  8
Views
 62
0
 10
95.667818
 20
-110.0
 30
0.0
 11
99.722183
 21
-110.0
 31
0.0
  0
ARC
  8
Views
 62
0
 10
95.667818
 20
-110.667818
 30
0.0
 40
0.667818
 50
90.0
 51
-180.0
  0
LINE
  8
Views
 62
0
 10
95.0
 20
-124.332182
 30
0.0
 11
95.0
 21
-110.667818
 31
0.0
  0
ARC
  8
Views
 62
0
 10
95.667818
 20
-124.332182
 30
0.0
 40
0.667818
 50
-180.0
 51
-90.0
  0
LINE
  8
Views
 62
0
 10
99.722183
 20
-125.0
 30
0.0
 11
95.667818
 21
-125.0
 31
0.0
  0
ARC
  8
Views
 62
0
 10
99.722183
 20
-124.222183
 30
0.0
 40
0.777817
 50
-90.0
 51
-0.0
  0
LINE
  8
Views
 62
0
 10
100.5
 20
-110.777817
 30
0.0
 11
100.5
 21
-124.222183
 31
0.0
  0
ENDBLK
  0
BLOCK
  8
Views
  2
SHAPE2DVIEW005
 70
0
 10
0.0
 20
0.0
 30
0.0
  3
SHAPE2DVIEW005
  0
LINE
  8
Views
 62
0
 10
204.0
 20
44.0
 30
0.0
 11
204.0
 21
34.2222222222
 31
0.0
  0
LINE
  8
Views
 62
0
 10
204.0
 20
34.2222222222
 30
0.0
 11
210.0
 21
34.2222222222
 31
0.0
  0
LINE
  8
Views
 62
0
 10
210.0
 20
34.2222222222
 30
0.0
 11
210.0
 21
24.4444444444
 31
0.0
  0
LINE
  8
Views
 62
0
 10
210.0
 20
24.4444444444
 30
0.0
 11
204.0
 21
24.4444444444
 31
0.0
  0
LINE
  8
Views
 62
0
 10
204.0
 20
24.4444444444
 30
0.0
 11
204.0
 21
14.6666666667
 31
0.0
  0
LINE
  8
Views
 62
0
 10
204.0
 20
14.6666666667
 30
0.0
 11
210.0
 21
14.6666666667
 31
0.0
  0
LINE
  8
Views
 62
0
 10
210.0
 20
14.6666666667
 30
0.0
 11
210.0
 21
4.88888888889
 31
0.0
  0
LINE
  8
Views
 62
0
 10
210.0
 20
4.88888888889
 30
0.0
 11
204.0
 21
4.88888888889
 31
0.0
  0
LINE
  8
Views
 62
0
 10
204.0
 20
4.88888888889
 30
0.0
 11
204.0
 21
-4.88888888889
 31
0.0
  0
LINE
  8
Views
 62
0
 10
204.0
 20
-4.88888888889
 30
0.0
 11
210.0
 21
-4.88888888889
 31
0.0
  0
LINE
  8
Views
 62
0
 10
210.0
 20
-4.88888888889
 30
0.0
 11
210.0
 21
-14.6666666667
 31
0.0
  0
LINE
  8
Views
 62
0
 10
210.0
 20
-14.6666666667
 30
0.0
 11
204.0
 21
-14.6666666667
 31
0.0
  0
LINE
  8
Views
 62
0
 10
204.0
 20
-14.6666666667
 30
0.0
 11
204.0
 21
-24.4444444444
 31
0.0
  0
LINE
  8
Views
 62
0
 10
204.0
 20
-24.4444444444
 30
0.0
 11
210.0
 21
-24.4444444444
 31
0.0
  0
LINE
  8
Views
 62
0
 10
210.0
 20
-24.4444444444
 30
0.0
 11
210.0
 21
-34.2222222222
 31
0.0
  0
LINE
  8
Views
 62
0
 10
210.0
 20
-34.2222222222
 30
0.0
 11
204.0
 21
-34.2222222222
 31
0.0
  0
LINE
  8
Views
 62
0
 10
204.0
 20
-34.2222222222
 30
0.0
 11
204.0
 21
-44.0
 31
0.0
  0
LINE
  8
Views
 62
0
 10
204.0
 20
-44.0
 30
0.0
 11
194.4
 21
-44.0
 31
0.0
  0
LINE
  8
Views
 62
0
 10
194.4
 20
-44.0
 30
0.0
 11
194.4
 21
-50.0
 31
0.0
  0
LINE
  8
Views
 62
0
 10
194.4
 20
-50.0
 30
0.0
 11
184.8
 21
-50.0
 31
0.0
  0
LINE
  8
Views
 62
0
 10
184.8
 20
-50.0
 30
0.0
 11
184.8
 21
-44.0
 31
0.0
  0
LINE
  8
Views
 62
0
 10
184.8
 20
-44.0
 30
0.0
 11
175.2
 21
-44.0
 31
0.0
  0
LINE
  8
Views
 62
0
 10
175.2
 20
-44.0
 30
0.0
 11
175.2
 21
-50.0
 31
0.0
  0
LINE
  8
Views
 62
0
 10
175.2
 20
-50.0
 30
0.0
 11
165.6
 21
-50.0
 31
0.0
  0
LINE
  8
Views
 62
0
 10
165.6
 20
-50.0
 30
0.0
 11
165.6
 21
-44.0
 31
0.0
  0
LINE
  8
Views
 62
0
 10
165.6
 20
-44.0
 30
0.0
 11
156.0
 21
-44.0
 31
0.0
  0
LINE
  8
Views
 62
0
 10
156.0
 20
-44.0
 30
0.0
 11
156.0
 21
-34.2222222222
 31
0.0
  0
LINE
  8
Views
 62
0
 10
156.0
 20
-34.2222222222
 30
0.0
 11
150.0
 21
-34.2222222222
 31
0.0
  0
LINE
  8
Views
 62
0
 10
150.0
 20
-34.2222222222
 30
0.0
 11
150.0
 21
-24.4444444444
 31
0.0
  0
LINE
  8
Views
 62
0
 10
150.0
 20
-24.4444444444
 30
0.0
 11
156.0
 21
-24.4444444444
 31
0.0
  0
LINE
  8
Views
 62
0
 10
156.0
 20
-24.4444444444
 30
0.0
 11
156.0
 21
-14.6666666667
 31
0.0
  0
LINE
  8
Views
 62
0
 10
156.0
 20
-14.6666666667
 30
0.0
 11
150.0
 21
-14.6666666667
 31
0.0
  0
LINE
  8
Views
 62
0
 10
150.0
 20
-14.6666666667
 30
0.0
 11
150.0
 21
-4.88888888889
 31
0.0
  0
LINE
  8
Views
 62
0
 10
150.0
 20
-4.88888888889
 30
0.0
 11
156.0
 21
-4.88888888889
 31
0.0
  0
LINE
  8
Views
 62
0
 10
156.0
 20
-4.88888888889
 30
0.0
 11
156.0
 21
4.88888888889
 31
0.0
  0
LINE
  8
Views
 62
0
 10
156.0
 20
4.88888888889
 30
0.0
 11
150.0
 21
4.88888888889
 31
0.0
  0
LINE
  8
Views
 62
0
 10
150.0
 20
4.88888888889
 30
0.0
 11
150.0
 21
14.6666666667
 31
0.0
  0
LINE
  8
Views
 62
0
 10
150.0
 20
14.6666666667
 30
0.0
 11
156.0
 21
14.6666666667
 31
0.0
  0
LINE
  8
Views
 62
0
 10
156.0
 20
14.6666666667
 30
0.0
 11
156.0
 21
24.4444444444
 31
0.0
  0
LINE
  8
Views
 62
0
 10
156.0
 20
24.4444444444
 30
0.0
 11
150.0
 21
24.4444444444
 31
0.0
  0
LINE
  8
Views
 62
0
 10
150.0
 20
24.4444444444
 30
0.0
 11
150.0
 21
34.2222222222
 31
0.0
  0
LINE
  8
Views
 62
0
 10
150.0
 20
34.2222222222
 30
0.0
 11
156.0
 21
34.2222222222
 31
0.0
  0
LINE
  8
Views
 62
0
 10
156.0
 20
34.2222222222
 30
0.0
 11
156.0
 21
44.0
 31
0.0
  0
LINE
  8
Views
 62
0
 10
156.0
 20
44.0
 30
0.0
 11
165.6
 21
44.0
 31
0.0
  0
LINE
  8
Views
 62
0
 10
165.6
 20
44.0
 30
0.0
 11
165.6
 21
50.0
 31
0.0
  0
LINE
  8
Views
 62
0
 10
165.6
 20
50.0
 30
0.0
 11
175.2
 21
50.0
 31
0.0
  0
LINE
  8
Views
 62
0
 10
175.2
 20
50.0
 30
0.0
 11
175.2
 21
44.0
 31
0.0
  0
LINE
  8
Views
 62
0
 10
175.2
 20
44.0
 30
0.0
 11
184.8
 21
44.0
 31
0.0
  0
LINE
  8
Views
 62
0
 10
184.8
 20
44.0
 30
0.0
 11
184.8
 21
50.0
 31
0.0
  0
LINE
  8
Views
 62
0
 10
184.8
 20
50.0
 30
0.0
 11
194.4
 21
50.0
 31
0.0
  0
LINE
  8
Views
 62
0
 10
194.4
 20
50.0
 30
0.0
 11
194.4
 21
44.0
 31
0.0
  0
LINE
  8
Views
 62
0
 10
194.4
 20
44.0
 30
0.0
 11
204.0
 21
44.0
 31
0.0
  0
ENDBLK
  0
BLOCK
  8
Views
  2
SHAPE2DVIEW
 70
0
 10
0.0
 20
0.0
 30
0.0
  3
SHAPE2DVIEW
  0
LINE
  8
Views
 62
0
 10
274.0
 20
44.0
 30
0.0
 11
274.0
 21
34.2222222222
 31
0.0
  0
LINE
  8
Views
 62
0
 10
274.0
 20
34.2222222222
 30
0.0
 11
280.0
 21
34.2222222222
 31
0.0
  0
LINE
  8
Views
 62
0
 10
280.0
 20
34.2222222222
 30
0.0
 11
280.0
 21
24.4444444444
 31
0.0
  0
LINE
  8
Views
 62
0
 10
280.0
 20
24.4444444444
 30
0.0
 11
274.0
 21
24.4444444444
 31
0.0
  0
LINE
  8
Views
 62
0
 10
274.0
 20
24.4444444444
 30
0.0
 11
274.0
 21
14.6666666667
 31
0.0
  0
LINE
  8
Views
 62
0
 10
274.0
 20
14.6666666667
 30
0.0
 11
280.0
 21
14.6666666667
 31
0.0
  0
LINE
  8
Views
 62
0
 10
280.0
 20
14.6666666667
 30
0.0
 11
280.0
 21
4.88888888889
 31
0.0
  0
LINE
  8
Views
 62
0
 10
280.0
 20
4.88888888889
 30
0.0
 11
274.0
 21
4.88888888889
 31
0.0
  0
LINE
  8
Views
 62
0
 10
274.0
 20
4.88888888889
 30
0.0
 11
274.0
 21
-4.88888888889
 31
0.0
  0
LINE
  8
Views
 62
0
 10
274.0
 20
-4.88888888889
 30
0.0
 11
280.0
 21
-4.88888888889
 31
0.0
  0
LINE
  8
Views
 62
0
 10
280.0
 20
-4.88888888889
 30
0.0
 11
280.0
 21
-14.6666666667
 31
0.0
  0
LINE
  8
Views
 62
0
 10
280.0
 20
-14.6666666667
 30
0.0
 11
274.0
 21
-14.6666666667
 31
0.0
  0
LINE
  8
Views
 62
0
 10
274.0
 20
-14.6666666667
 30
0.0
 11
274.0
 21
-24.4444444444
 31
0.0
  0
LINE
  8
Views
 62
0
 10
274.0
 20
-24.4444444444
 30
0.0
 11
280.0
 21
-24.4444444444
 31
0.0
  0
LINE
  8
Views
 62
0
 10
280.0
 20
-24.4444444444
 30
0.0
 11
280.0
 21
-34.2222222222
 31
0.0
  0
LINE
  8
Views
 62
0
 10
280.0
 20
-34.2222222222
 30
0.0
 11
274.0
 21
-34.2222222222
 31
0.0
  0
LINE
  8
Views
 62
0
 10
274.0
 20
-34.2222222222
 30
0.0
 11
274.0
 21
-44.0
 31
0.0
  0
LINE
  8
Views
 62
0
 10
274.0
 20
-44.0
 30
0.0
 11
264.4
 21
-44.0
 31
0.0
  0
LINE
  8
Views
 62
0
 10
264.4
 20
-44.0
 30
0.0
 11
264.4
 21
-50.0
 31
0.0
  0
LINE
  8
Views
 62
0
 10
264.4
 20
-50.0
 30
0.0
 11
254.8
 21
-50.0
 31
0.0
  0
LINE
  8
Views
 62
0
 10
254.8
 20
-50.0
 30
0.0
 11
254.8
 21
-44.0
 31
0.0
  0
LINE
  8
Views
 62
0
 10
254.8
 20
-44.0
 30
0.0
 11
245.2
 21
-44.0
 31
0.0
  0
LINE
  8
Views
 62
0
 10
245.2
 20
-44.0
 30
0.0
 11
245.2
 21
-50.0
 31
0.0
  0
LINE
  8
Views
 62
0
 10
245.2
 20
-50.0
 30
0.0
 11
235.6
 21
-50.0
 31
0.0
  0
LINE
  8
Views
 62
0
 10
235.6
 20
-50.0
 30
0.0
 11
235.6
 21
-44.0
 31
0.0
  0
LINE
  8
Views
 62
0
 10
235.6
 20
-44.0
 30
0.0
 11
226.0
 21
-44.0
 31
0.0
  0
LINE
  8
Views
 62
0
 10
226.0
 20
-44.0
 30
0.0
 11
226.0
 21
-34.2222222222
 31
0.0
  0
LINE
  8
Views
 62
0
 10
226.0
 20
-34.2222222222
 30
0.0
 11
220.0
 21
-34.2222222222
 31
0.0
  0
LINE
  8
Views
 62
0
 10
220.0
 20
-34.2222222222
 30
0.0
 11
220.0
 21
-24.4444444444
 31
0.0
  0
LINE
  8
Views
 62
0
 10
220.0
 20
-24.4444444444
 30
0.0
 11
226.0
 21
-24.4444444444
 31
0.0
  0
LINE
  8
Views
 62
0
 10
226.0
 20
-24.4444444444
 30
0.0
 11
226.0
 21
-14.6666666667
 31
0.0
  0
LINE
  8
Views
 62
0
 10
226.0
 20
-14.6666666667
 30
0.0
 11
220.0
 21
-14.6666666667
 31
0.0
  0
LINE
  8
Views
 62
0
 10
220.0
 20
-14.6666666667
 30
0.0
 11
220.0
 21
-4.88888888889
 31
0.0
  0
LINE
  8
Views
 62
0
 10
220.0
 20
-4.88888888889
 30
0.0
 11
226.0
 21
-4.88888888889
 31
0.0
  0
LINE
  8
Views
 62
0
 10
226.0
 20
-4.88888888889
 30
0.0
 11
226.0
 21
4.88888888889
 31
0.0
  0
LINE
  8
Views
 62
0
 10
226.0
 20
4.88888888889
 30
0.0
 11
220.0
 21
4.88888888889
 31
0.0
  0
LINE
  8
Views
 62
0
 10
220.0
 20
4.88888888889
 30
0.0
 11
220.0
 21
14.6666666667
 31
0.0
  0
LINE
  8
Views
 62
0
 10
220.0
 20
14.6666666667
 30
0.0
 11
226.0
 21
14.6666666667
 31
0.0
  0
LINE
  8
Views
 62
0
 10
226.0
 20
14.6666666667
 30
0.0
 11
226.0
 21
24.4444444444
 31
0.0
  0
LINE
  8
Views
 62
0
 10
226.0
 20
24.4444444444
 30
0.0
 11
220.0
 21
24.4444444444
 31
0.0
  0
LINE
  8
Views
 62
0
 10
220.0
 20
24.4444444444
 30
0.0
 11
220.0
 21
34.2222222222
 31
0.0
  0
LINE
  8
Views
 62
0
 10
220.0
 20
34.2222222222
 30
0.0
 11
226.0
 21
34.2222222222
 31
0.0
  0
LINE
  8
Views
 62
0
 10
226.0
 20
34.2222222222
 30
0.0
 11
226.0
 21
44.0
 31
0.0
  0
LINE
  8
Views
 62
0
 10
226.0
 20
44.0
 30
0.0
 11
235.6
 21
44.0
 31
0.0
  0
LINE
  8
Views
 62
0
 10
235.6
 20
44.0
 30
0.0
 11
235.6
 21
50.0
 31
0.0
  0
LINE
  8
Views
 62
0
 10
235.6
 20
50.0
 30
0.0
 11
245.2
 21
50.0
 31
0.0
  0
LINE
  8
Views
 62
0
 10
245.2
 20
50.0
 30
0.0
 11
245.2
 21
44.0
 31
0.0
  0
LINE
  8
Views
 62
0
 10
245.2
 20
44.0
 30
0.0
 11
254.8
 21
44.0
 31
0.0
  0
LINE
  8
Views
 62
0
 10
254.8
 20
44.0
 30
0.0
 11
254.8
 21
50.0
 31
0.0
  0
LINE
  8
Views
 62
0
 10
254.8
 20
50.0
 30
0.0
 11
264.4
 21
50.0
 31
0.0
  0
LINE
  8
Views
 62
0
 10
264.4
 20
50.0
 30
0.0
 11
264.4
 21
44.0
 31
0.0
  0
LINE
  8
Views
 62
0
 10
264.4
 20
44.0
 30
0.0
 11
274.0
 21
44.0
 31
0.0
  0
ENDBLK
  0
BLOCK
  8
Views
  2
SHAPE2DVIEW002
 70
0
 10
0.0
 20
0.0
 30
0.0
  3
SHAPE2DVIEW002
  0
LINE
  8
Views
 62
0
 10
290.0
 20
44.0
 30
0.0
 11
296.0
 21
44.0
 31
0.0
  0
LINE
  8
Views
 62
0
 10
296.0
 20
44.0
 30
0.0
 11
305.925925926
 21
44.0
 31
0.0
  0
LINE
  8
Views
 62
0
 10
305.925925926
 20
44.0
 30
0.0
 11
305.925925926
 21
50.0
 31
0.0
  0
LINE
  8
Views
 62
0
 10
305.925925926
 20
50.0
 30
0.0
 11
315.851851852
 21
50.0
 31
0.0
  0
LINE
  8
Views
 62
0
 10
315.851851852
 20
50.0
 30
0.0
 11
315.851851852
 21
44.0
 31
0.0
  0
LINE
  8
Views
 62
0
 10
315.851851852
 20
44.0
 30
0.0
 11
325.777777778
 21
44.0
 31
0.0
  0
LINE
  8
Views
 62
0
 10
325.777777778
 20
44.0
 30
0.0
 11
325.777777778
 21
50.0
 31
0.0
  0
LINE
  8
Views
 62
0
 10
325.777777778
 20
50.0
 30
0.0
 11
335.703703704
 21
50.0
 31
0.0
  0
LINE
  8
Views
 62
0
 10
335.703703704
 20
50.0
 30
0.0
 11
335.703703704
 21
44.0
 31
0.0
  0
LINE
  8
Views
 62
0
 10
335.703703704
 20
44.0
 30
0.0
 11
345.62962963
 21
44.0
 31
0.0
  0
LINE
  8
Views
 62
0
 10
345.62962963
 20
44.0
 30
0.0
 11
345.62962963
 21
50.0
 31
0.0
  0
LINE
  8
Views
 62
0
 10
345.62962963
 20
50.0
 30
0.0
 11
355.555555556
 21
50.0
 31
0.0
  0
LINE
  8
Views
 62
0
 10
355.555555556
 20
50.0
 30
0.0
 11
355.555555556
 21
44.0
 31
0.0
  0
LINE
  8
Views
 62
0
 10
355.555555556
 20
44.0
 30
0.0
 11
365.481481481
 21
44.0
 31
0.0
  0
LINE
  8
Views
 62
0
 10
365.481481481
 20
44.0
 30
0.0
 11
365.481481481
 21
50.0
 31
0.0
  0
LINE
  8
Views
 62
0
 10
365.481481481
 20
50.0
 30
0.0
 11
375.407407407
 21
50.0
 31
0.0
  0
LINE
  8
Views
 62
0
 10
375.407407407
 20
50.0
 30
0.0
 11
375.407407407
 21
44.0
 31
0.0
  0
LINE
  8
Views
 62
0
 10
375.407407407
 20
44.0
 30
0.0
 11
385.333333333
 21
44.0
 31
0.0
  0
LINE
  8
Views
 62
0
 10
385.333333333
 20
44.0
 30
0.0
 11
385.333333333
 21
50.0
 31
0.0
  0
LINE
  8
Views
 62
0
 10
385.333333333
 20
50.0
 30
0.0
 11
395.259259259
 21
50.0
 31
0.0
  0
LINE
  8
Views
 62
0
 10
395.259259259
 20
50.0
 30
0.0
 11
395.259259259
 21
44.0
 31
0.0
  0
LINE
  8
Views
 62
0
 10
395.259259259
 20
44.0
 30
0.0
 11
405.185185185
 21
44.0
 31
0.0
  0
LINE
  8
Views
 62
0
 10
405.185185185
 20
44.0
 30
0.0
 11
405.185185185
 21
50.0
 31
0.0
  0
LINE
  8
Views
 62
0
 10
405.185185185
 20
50.0
 30
0.0
 11
415.111111111
 21
50.0
 31
0.0
  0
LINE
  8
Views
 62
0
 10
415.111111111
 20
50.0
 30
0.0
 11
415.111111111
 21
44.0
 31
0.0
  0
LINE
  8
Views
 62
0
 10
415.111111111
 20
44.0
 30
0.0
 11
425.037037037
 21
44.0
 31
0.0
  0
LINE
  8
Views
 62
0
 10
425.037037037
 20
44.0
 30
0.0
 11
425.037037037
 21
50.0
 31
0.0
  0
LINE
  8
Views
 62
0
 10
425.037037037
 20
50.0
 30
0.0
 11
434.962962963
 21
50.0
 31
0.0
  0
LINE
  8
Views
 62
0
 10
434.962962963
 20
50.0
 30
0.0
 11
434.962962963
 21
44.0
 31
0.0
  0
LINE
  8
Views
 62
0
 10
434.962962963
 20
44.0
 30
0.0
 11
444.888888889
 21
44.0
 31
0.0
  0
LINE
  8
Views
 62
0
 10
444.888888889
 20
44.0
 30
0.0
 11
444.888888889
 21
50.0
 31
0.0
  0
LINE
  8
Views
 62
0
 10
444.888888889
 20
50.0
 30
0.0
 11
454.814814815
 21
50.0
 31
0.0
  0
LINE
  8
Views
 62
0
 10
454.814814815
 20
50.0
 30
0.0
 11
454.814814815
 21
44.0
 31
0.0
  0
LINE
  8
Views
 62
0
 10
454.814814815
 20
44.0
 30
0.0
 11
464.740740741
 21
44.0
 31
0.0
  0
LINE
  8
Views
 62
0
 10
464.740740741
 20
44.0
 30
0.0
 11
464.740740741
 21
50.0
 31
0.0
  0
LINE
  8
Views
 62
0
 10
464.740740741
 20
50.0
 30
0.0
 11
474.666666667
 21
50.0
 31
0.0
  0
LINE
  8
Views
 62
0
 10
474.666666667
 20
50.0
 30
0.0
 11
474.666666667
 21
44.0
 31
0.0
  0
LINE
  8
Views
 62
0
 10
474.666666667
 20
44.0
 30
0.0
 11
484.592592593
 21
44.0
 31
0.0
  0
LINE
  8
Views
 62
0
 10
484.592592593
 20
44.0
 30
0.0
 11
484.592592593
 21
50.0
 31
0.0
  0
LINE
  8
Views
 62
0
 10
484.592592593
 20
50.0
 30
0.0
 11
494.518518519
 21
50.0
 31
0.0
  0
LINE
  8
Views
 62
0
 10
494.518518519
 20
50.0
 30
0.0
 11
494.518518519
 21
44.0
 31
0.0
  0
LINE
  8
Views
 62
0
 10
494.518518519
 20
44.0
 30
0.0
 11
504.444444444
 21
44.0
 31
0.0
  0
LINE
  8
Views
 62
0
 10
504.444444444
 20
44.0
 30
0.0
 11
504.444444444
 21
50.0
 31
0.0
  0
LINE
  8
Views
 62
0
 10
504.444444444
 20
50.0
 30
0.0
 11
514.37037037
 21
50.0
 31
0.0
  0
LINE
  8
Views
 62
0
 10
514.37037037
 20
50.0
 30
0.0
 11
514.37037037
 21
44.0
 31
0.0
  0
LINE
  8
Views
 62
0
 10
514.37037037
 20
44.0
 30
0.0
 11
524.296296296
 21
44.0
 31
0.0
  0
LINE
  8
Views
 62
0
 10
524.296296296
 20
44.0
 30
0.0
 11
524.296296296
 21
50.0
 31
0.0
  0
LINE
  8
Views
 62
0
 10
524.296296296
 20
50.0
 30
0.0
 11
534.222222222
 21
50.0
 31
0.0
  0
LINE
  8
Views
 62
0
 10
534.222222222
 20
50.0
 30
0.0
 11
534.222222222
 21
44.0
 31
0.0
  0
LINE
  8
Views
 62
0
 10
534.222222222
 20
44.0
 30
0.0
 11
544.148148148
 21
44.0
 31
0.0
  0
LINE
  8
Views
 62
0
 10
544.148148148
 20
44.0
 30
0.0
 11
544.148148148
 21
50.0
 31
0.0
  0
LINE
  8
Views
 62
0
 10
544.148148148
 20
50.0
 30
0.0
 11
554.074074074
 21
50.0
 31
0.0
  0
LINE
  8
Views
 62
0
 10
554.074074074
 20
50.0
 30
0.0
 11
554.074074074
 21
44.0
 31
0.0
  0
LINE
  8
Views
 62
0
 10
554.074074074
 20
44.0
 30
0.0
 11
564.0
 21
44.0
 31
0.0
  0
LINE
  8
Views
 62
0
 10
564.0
 20
44.0
 30
0.0
 11
570.0
 21
44.0
 31
0.0
  0
LINE
  8
Views
 62
0
 10
570.0
 20
44.0
 30
0.0
 11
570.0
 21
34.2222222222
 31
0.0
  0
LINE
  8
Views
 62
0
 10
570.0
 20
34.2222222222
 30
0.0
 11
564.0
 21
34.2222222222
 31
0.0
  0
LINE
  8
Views
 62
0
 10
564.0
 20
34.2222222222
 30
0.0
 11
564.0
 21
24.4444444444
 31
0.0
  0
LINE
  8
Views
 62
0
 10
564.0
 20
24.4444444444
 30
0.0
 11
570.0
 21
24.4444444444
 31
0.0
  0
LINE
  8
Views
 62
0
 10
570.0
 20
24.4444444444
 30
0.0
 11
570.0
 21
14.6666666667
 31
0.0
  0
LINE
  8
Views
 62
0
 10
570.0
 20
14.6666666667
 30
0.0
 11
564.0
 21
14.6666666667
 31
0.0
  0
LINE
  8
Views
 62
0
 10
564.0
 20
14.6666666667
 30
0.0
 11
564.0
 21
4.88888888889
 31
0.0
  0
LINE
  8
Views
 62
0
 10
564.0
 20
4.88888888889
 30
0.0
 11
570.0
 21
4.88888888889
 31
0.0
  0
LINE
  8
Views
 62
0
 10
570.0
 20
4.88888888889
 30
0.0
 11
570.0
 21
-4.88888888889
 31
0.0
  0
LINE
  8
Views
 62
0
 10
570.0
 20
-4.88888888889
 30
0.0
 11
564.0
 21
-4.88888888889
 31
0.0
  0
LINE
  8
Views
 62
0
 10
564.0
 20
-4.88888888889
 30
0.0
 11
564.0
 21
-14.6666666667
 31
0.0
  0
LINE
  8
Views
 62
0
 10
564.0
 20
-14.6666666667
 30
0.0
 11
570.0
 21
-14.6666666667
 31
0.0
  0
LINE
  8
Views
 62
0
 10
570.0
 20
-14.6666666667
 30
0.0
 11
570.0
 21
-24.4444444444
 31
0.0
  0
LINE
  8
Views
 62
0
 10
570.0
 20
-24.4444444444
 30
0.0
 11
564.0
 21
-24.4444444444
 31
0.0
  0
LINE
  8
Views
 62
0
 10
564.0
 20
-24.4444444444
 30
0.0
 11
564.0
 21
-34.2222222222
 31
0.0
  0
LINE
  8
Views
 62
0
 10
564.0
 20
-34.2222222222
 30
0.0
 11
570.0
 21
-34.2222222222
 31
0.0
  0
LINE
  8
Views
 62
0
 10
570.0
 20
-34.2222222222
 30
0.0
 11
570.0
 21
-44.0
 31
0.0
  0
LINE
  8
Views
 62
0
 10
570.0
 20
-44.0
 30
0.0
 11
564.0
 21
-44.0
 31
0.0
  0
LINE
  8
Views
 62
0
 10
564.0
 20
-44.0
 30
0.0
 11
554.074074074
 21
-44.0
 31
0.0
  0
LINE
  8
Views
 62
0
 10
554.074074074
 20
-44.0
 30
0.0
 11
554.074074074
 21
-50.0
 31
0.0
  0
LINE
  8
Views
 62
0
 10
554.074074074
 20
-50.0
 30
0.0
 11
544.148148148
 21
-50.0
 31
0.0
  0
LINE
  8
Views
 62
0
 10
544.148148148
 20
-50.0
 30
0.0
 11
544.148148148
 21
-44.0
 31
0.0
  0
LINE
  8
Views
 62
0
 10
544.148148148
 20
-44.0
 30
0.0
 11
534.222222222
 21
-44.0
 31
0.0
  0
LINE
  8
Views
 62
0
 10
534.222222222
 20
-44.0
 30
0.0
 11
534.222222222
 21
-50.0
 31
0.0
  0
LINE
  8
Views
 62
0
 10
534.222222222
 20
-50.0
 30
0.0
 11
524.296296296
 21
-50.0
 31
0.0
  0
LINE
  8
Views
 62
0
 10
524.296296296
 20
-50.0
 30
0.0
 11
524.296296296
 21
-44.0
 31
0.0
  0
LINE
  8
Views
 62
0
 10
524.296296296
 20
-44.0
 30
0.0
 11
514.37037037
 21
-44.0
 31
0.0
  0
LINE
  8
Views
 62
0
 10
514.37037037
 20
-44.0
 30
0.0
 11
514.37037037
 21
-50.0
 31
0.0
  0
LINE
  8
Views
 62
0
 10
514.37037037
 20
-50.0
 30
0.0
 11
504.444444444
 21
-50.0
 31
0.0
  0
LINE
  8
Views
 62
0
 10
504.444444444
 20
-50.0
 30
0.0
 11
504.444444444
 21
-44.0
 31
0.0
  0
LINE
  8
Views
 62
0
 10
504.444444444
 20
-44.0
 30
0.0
 11
494.518518519
 21
-44.0
 31
0.0
  0
LINE
  8
Views
 62
0
 10
494.518518519
 20
-44.0
 30
0.0
 11
494.518518519
 21
-50.0
 31
0.0
  0
LINE
  8
Views
 62
0
 10
494.518518519
 20
-50.0
 30
0.0
 11
484.592592593
 21
-50.0
 31
0.0
  0
LINE
  8
Views
 62
0
 10
484.592592593
 20
-50.0
 30
0.0
 11
484.592592593
 21
-44.0
 31
0.0
  0
LINE
  8
Views
 62
0
 10
484.592592593
 20
-44.0
 30
0.0
 11
474.666666667
 21
-44.0
 31
0.0
  0
LINE
  8
Views
 62
0
 10
474.666666667
 20
-44.0
 30
0.0
 11
474.666666667
 21
-50.0
 31
0.0
  0
LINE
  8
Views
 62
0
 10
474.666666667
 20
-50.0
 30
0.0
 11
464.740740741
 21
-50.0
 31
0.0
  0
LINE
  8
Views
 62
0
 10
464.740740741
 20
-50.0
 30
0.0
 11
464.740740741
 21
-44.0
 31
0.0
  0
LINE
  8
Views
 62
0
 10
464.740740741
 20
-44.0
 30
0.0
 11
454.814814815
 21
-44.0
 31
0.0
  0
LINE
  8
Views
 62
0
 10
454.814814815
 20
-44.0
 30
0.0
 11
454.814814815
 21
-50.0
 31
0.0
  0
LINE
  8
Views
 62
0
 10
454.814814815
 20
-50.0
 30
0.0
 11
444.888888889
 21
-50.0
 31
0.0
  0
LINE
  8
Views
 62
0
 10
444.888888889
 20
-50.0
 30
0.0
 11
444.888888889
 21
-44.0
 31
0.0
  0
LINE
  8
Views
 62
0
 10
444.888888889
 20
-44.0
 30
0.0
 11
434.962962963
 21
-44.0
 31
0.0
  0
LINE
  8
Views
 62
0
 10
434.962962963
 20
-44.0
 30
0.0
 11
434.962962963
 21
-50.0
 31
0.0
  0
LINE
  8
Views
 62
0
 10
434.962962963
 20
-50.0
 30
0.0
 11
425.037037037
 21
-50.0
 31
0.0
  0
LINE
  8
Views
 62
0
 10
425.037037037
 20
-50.0
 30
0.0
 11
425.037037037
 21
-44.0
 31
0.0
  0
LINE
  8
Views
 62
0
 10
425.037037037
 20
-44.0
 30
0.0
 11
415.111111111
 21
-44.0
 31
0.0
  0
LINE
  8
Views
 62
0
 10
415.111111111
 20
-44.0
 30
0.0
 11
415.111111111
 21
-50.0
 31
0.0
  0
LINE
  8
Views
 62
0
 10
415.111111111
 20
-50.0
 30
0.0
 11
405.185185185
 21
-50.0
 31
0.0
  0
LINE
  8
Views
 62
0
 10
405.185185185
 20
-50.0
 30
0.0
 11
405.185185185
 21
-44.0
 31
0.0
  0
LINE
  8
Views
 62
0
 10
405.185185185
 20
-44.0
 30
0.0
 11
395.259259259
 21
-44.0
 31
0.0
  0
LINE
  8
Views
 62
0
 10
395.259259259
 20
-44.0
 30
0.0
 11
395.259259259
 21
-50.0
 31
0.0
  0
LINE
  8
Views
 62
0
 10
395.259259259
 20
-50.0
 30
0.0
 11
385.333333333
 21
-50.0
 31
0.0
  0
LINE
  8
Views
 62
0
 10
385.333333333
 20
-50.0
 30
0.0
 11
385.333333333
 21
-44.0
 31
0.0
  0
LINE
  8
Views
 62
0
 10
385.333333333
 20
-44.0
 30
0.0
 11
375.407407407
 21
-44.0
 31
0.0
  0
LINE
  8
Views
 62
0
 10
375.407407407
 20
-44.0
 30
0.0
 11
375.407407407
 21
-50.0
 31
0.0
  0
LINE
  8
Views
 62
0
 10
375.407407407
 20
-50.0
 30
0.0
 11
365.481481481
 21
-50.0
 31
0.0
  0
LINE
  8
Views
 62
0
 10
365.481481481
 20
-50.0
 30
0.0
 11
365.481481481
 21
-44.0
 31
0.0
  0
LINE
  8
Views
 62
0
 10
365.481481481
 20
-44.0
 30
0.0
 11
355.555555556
 21
-44.0
 31
0.0
  0
LINE
  8
Views
 62
0
 10
355.555555556
 20
-44.0
 30
0.0
 11
355.555555556
 21
-50.0
 31
0.0
  0
LINE
  8
Views
 62
0
 10
355.555555556
 20
-50.0
 30
0.0
 11
345.62962963
 21
-50.0
 31
0.0
  0
LINE
  8
Views
 62
0
 10
345.62962963
 20
-50.0
 30
0.0
 11
345.62962963
 21
-44.0
 31
0.0
  0
LINE
  8
Views
 62
0
 10
345.62962963
 20
-44.0
 30
0.0
 11
335.703703704
 21
-44.0
 31
0.0
  0
LINE
  8
Views
 62
0
 10
335.703703704
 20
-44.0
 30
0.0
 11
335.703703704
 21
-50.0
 31
0.0
  0
LINE
  8
Views
 62
0
 10
335.703703704
 20
-50.0
 30
0.0
 11
325.777777778
 21
-50.0
 31
0.0
  0
LINE
  8
Views
 62
0
 10
325.777777778
 20
-50.0
 30
0.0
 11
325.777777778
 21
-44.0
 31
0.0
  0
LINE
  8
Views
 62
0
 10
325.777777778
 20
-44.0
 30
0.0
 11
315.851851852
 21
-44.0
 31
0.0
  0
LINE
  8
Views
 62
0
 10
315.851851852
 20
-44.0
 30
0.0
 11
315.851851852
 21
-50.0
 31
0.0
  0
LINE
  8
Views
 62
0
 10
315.851851852
 20
-50.0
 30
0.0
 11
305.925925926
 21
-50.0
 31
0.0
  0
LINE
  8
Views
 62
0
 10
305.925925926
 20
-50.0
 30
0.0
 11
305.925925926
 21
-44.0
 31
0.0
  0
LINE
  8
Views
 62
0
 10
305.925925926
 20
-44.0
 30
0.0
 11
296.0
 21
-44.0
 31
0.0
  0
LINE
  8
Views
 62
0
 10
296.0
 20
-44.0
 30
0.0
 11
290.0
 21
-44.0
 31
0.0
  0
LINE
  8
Views
 62
0
 10
290.0
 20
-44.0
 30
0.0
 11
290.0
 21
-34.2222222222
 31
0.0
  0
LINE
  8
Views
 62
0
 10
290.0
 20
-34.2222222222
 30
0.0
 11
296.0
 21
-34.2222222222
 31
0.0
  0
LINE
  8
Views
 62
0
 10
296.0
 20
-34.2222222222
 30
0.0
 11
296.0
 21
-24.4444444444
 31
0.0
  0
LINE
  8
Views
 62
0
 10
296.0
 20
-24.4444444444
 30
0.0
 11
290.0
 21
-24.4444444444
 31
0.0
  0
LINE
  8
Views
 62
0
 10
290.0
 20
-24.4444444444
 30
0.0
 11
290.0
 21
-14.6666666667
 31
0.0
  0
LINE
  8
Views
 62
0
 10
290.0
 20
-14.6666666667
 30
0.0
 11
296.0
 21
-14.6666666667
 31
0.0
  0
LINE
  8
Views
 62
0
 10
296.0
 20
-14.6666666667
 30
0.0
 11
296.0
 21
-4.88888888889
 31
0.0
  0
LINE
  8
Views
 62
0
 10
296.0
 20
-4.88888888889
 30
0.0
 11
290.0
 21
-4.88888888889
 31
0.0
  0
LINE
  8
Views
 62
0
 10
290.0
 20
-4.88888888889
 30
0.0
 11
290.0
 21
4.88888888889
 31
0.0
  0
LINE
  8
Views
 62
0
 10
290.0
 20
4.88888888889
 30
0.0
 11
296.0
 21
4.88888888889
 31
0.0
  0
LINE
  8
Views
 62
0
 10
296.0
 20
4.88888888889
 30
0.0
 11
296.0
 21
14.6666666667
 31
0.0
  0
LINE
  8
Views
 62
0
 10
296.0
 20
14.6666666667
 30
0.0
 11
290.0
 21
14.6666666667
 31
0.0
  0
LINE
  8
Views
 62
0
 10
290.0
 20
14.6666666667
 30
0.0
 11
290.0
 21
24.4444444444
 31
0.0
  0
LINE
  8
Views
 62
0
 10
290.0
 20
24.4444444444
 30
0.0
 11
296.0
 21
24.4444444444
 31
0.0
  0
LINE
  8
Views
 62
0
 10
296.0
 20
24.4444444444
 30
0.0
 11
296.0
 21
34.2222222222
 31
0.0
  0
LINE
  8
Views
 62
0
 10
296.0
 20
34.2222222222
 30
0.0
 11
290.0
 21
34.2222222222
 31
0.0
  0
LINE
  8
Views
 62
0
 10
290.0
 20
34.2222222222
 30
0.0
 11
290.0
 21
44.0
 31
0.0
  0
ENDBLK
  0
BLOCK
  8
Views
  2
SHAPE2DVIEW001
 70
0
 10
0.0
 20
0.0
 30
0.0
  3
SHAPE2DVIEW001
  0
LINE
  8
Views
 62
0
 10
580.0
 20
-44.0
 30
0.0
 11
586.0
 21
-44.0
 31
0.0
  0
LINE
  8
Views
 62
0
 10
580.0
 20
-34.2222222222
 30
0.0
 11
580.0
 21
-44.0
 31
0.0
  0
LINE
  8
Views
 62
0
 10
586.0
 20
-44.0
 30
0.0
 11
595.925925926
 21
-44.0
 31
0.0
  0
LINE
  8
Views
 62
0
 10
586.0
 20
-34.2222222222
 30
0.0
 11
580.0
 21
-34.2222222222
 31
0.0
  0
LINE
  8
Views
 62
0
 10
595.925925926
 20
-44.0
 30
0.0
 11
595.925925926
 21
-50.0
 31
0.0
  0
LINE
  8
Views
 62
0
 10
586.0
 20
-24.4444444444
 30
0.0
 11
586.0
 21
-34.2222222222
 31
0.0
  0
LINE
  8
Views
 62
0
 10
595.925925926
 20
-50.0
 30
0.0
 11
605.851851852
 21
-50.0
 31
0.0
  0
LINE
  8
Views
 62
0
 10
580.0
 20
-24.4444444444
 30
0.0
 11
586.0
 21
-24.4444444444
 31
0.0
  0
LINE
  8
Views
 62
0
 10
605.851851852
 20
-50.0
 30
0.0
 11
605.851851852
 21
-44.0
 31
0.0
  0
LINE
  8
Views
 62
0
 10
580.0
 20
-14.6666666667
 30
0.0
 11
580.0
 21
-24.4444444444
 31
0.0
  0
LINE
  8
Views
 62
0
 10
605.851851852
 20
-44.0
 30
0.0
 11
615.777777778
 21
-44.0
 31
0.0
  0
LINE
  8
Views
 62
0
 10
586.0
 20
-14.6666666667
 30
0.0
 11
580.0
 21
-14.6666666667
 31
0.0
  0
LINE
  8
Views
 62
0
 10
615.777777778
 20
-44.0
 30
0.0
 11
615.777777778
 21
-50.0
 31
0.0
  0
LINE
  8
Views
 62
0
 10
586.0
 20
-4.88888888889
 30
0.0
 11
586.0
 21
-14.6666666667
 31
0.0
  0
LINE
  8
Views
 62
0
 10
615.777777778
 20
-50.0
 30
0.0
 11
625.703703704
 21
-50.0
 31
0.0
  0
LINE
  8
Views
 62
0
 10
580.0
 20
-4.88888888889
 30
0.0
 11
586.0
 21
-4.88888888889
 31
0.0
  0
LINE
  8
Views
 62
0
 10
625.703703704
 20
-50.0
 30
0.0
 11
625.703703704
 21
-44.0
 31
0.0
  0
LINE
  8
Views
 62
0
 10
580.0
 20
4.88888888889
 30
0.0
 11
580.0
 21
-4.88888888889
 31
0.0
  0
LINE
  8
Views
 62
0
 10
625.703703704
 20
-44.0
 30
0.0
 11
635.62962963
 21
-44.0
 31
0.0
  0
LINE
  8
Views
 62
0
 10
586.0
 20
4.88888888889
 30
0.0
 11
580.0
 21
4.88888888889
 31
0.0
  0
LINE
  8
Views
 62
0
 10
635.62962963
 20
-44.0
 30
0.0
 11
635.62962963
 21
-50.0
 31
0.0
  0
LINE
  8
Views
 62
0
 10
586.0
 20
14.6666666667
 30
0.0
 11
586.0
 21
4.88888888889
 31
0.0
  0
LINE
  8
Views
 62
0
 10
635.62962963
 20
-50.0
 30
0.0
 11
645.555555556
 21
-50.0
 31
0.0
  0
LINE
  8
Views
 62
0
 10
580.0
 20
14.6666666667
 30
0.0
 11
586.0
 21
14.6666666667
 31
0.0
  0
LINE
  8
Views
 62
0
 10
645.555555556
 20
-50.0
 30
0.0
 11
645.555555556
 21
-44.0
 31
0.0
  0
LINE
  8
Views
 62
0
 10
580.0
 20
24.4444444444
 30
0.0
 11
580.0
 21
14.6666666667
 31
0.0
  0
LINE
  8
Views
 62
0
 10
645.555555556
 20
-44.0
 30
0.0
 11
655.481481481
 21
-44.0
 31
0.0
  0
LINE
  8
Views
 62
0
 10
586.0
 20
24.4444444444
 30
0.0
 11
580.0
 21
24.4444444444
 31
0.0
  0
LINE
  8
Views
 62
0
 10
655.481481481
 20
-44.0
 30
0.0
 11
655.481481481
 21
-50.0
 31
0.0
  0
LINE
  8
Views
 62
0
 10
586.0
 20
34.2222222222
 30
0.0
 11
586.0
 21
24.4444444444
 31
0.0
  0
LINE
  8
Views
 62
0
 10
655.481481481
 20
-50.0
 30
0.0
 11
665.407407407
 21
-50.0
 31
0.0
  0
LINE
  8
Views
 62
0
 10
580.0
 20
34.2222222222
 30
0.0
 11
586.0
 21
34.2222222222
 31
0.0
  0
LINE
  8
Views
 62
0
 10
665.407407407
 20
-50.0
 30
0.0
 11
665.407407407
 21
-44.0
 31
0.0
  0
LINE
  8
Views
 62
0
 10
580.0
 20
44.0
 30
0.0
 11
580.0
 21
34.2222222222
 31
0.0
  0
LINE
  8
Views
 62
0
 10
665.407407407
 20
-44.0
 30
0.0
 11
675.333333333
 21
-44.0
 31
0.0
  0
LINE
  8
Views
 62
0
 10
586.0
 20
44.0
 30
0.0
 11
580.0
 21
44.0
 31
0.0
  0
LINE
  8
Views
 62
0
 10
675.333333333
 20
-44.0
 30
0.0
 11
675.333333333
 21
-50.0
 31
0.0
  0
LINE
  8
Views
 62
0
 10
595.925925926
 20
44.0
 30
0.0
 11
586.0
 21
44.0
 31
0.0
  0
LINE
  8
Views
 62
0
 10
675.333333333
 20
-50.0
 30
0.0
 11
685.259259259
 21
-50.0
 31
0.0
  0
LINE
  8
Views
 62
0
 10
595.925925926
 20
50.0
 30
0.0
 11
595.925925926
 21
44.0
 31
0.0
  0
LINE
  8
Views
 62
0
 10
685.259259259
 20
-50.0
 30
0.0
 11
685.259259259
 21
-44.0
 31
0.0
  0
LINE
  8
Views
 62
0
 10
605.851851852
 20
50.0
 30
0.0
 11
595.925925926
 21
50.0
 31
0.0
  0
LINE
  8
Views
 62
0
 10
685.259259259
 20
-44.0
 30
0.0
 11
695.185185185
 21
-44.0
 31
0.0
  0
LINE
  8
Views
 62
0
 10
605.851851852
 20
44.0
 30
0.0
 11
605.851851852
 21
50.0
 31
0.0
  0
LINE
  8
Views
 62
0
 10
695.185185185
 20
-44.0
 30
0.0
 11
695.185185185
 21
-50.0
 31
0.0
  0
LINE
  8
Views
 62
0
 10
615.777777778
 20
44.0
 30
0.0
 11
605.851851852
 21
44.0
 31
0.0
  0
LINE
  8
Views
 62
0
 10
695.185185185
 20
-50.0
 30
0.0
 11
705.111111111
 21
-50.0
 31
0.0
  0
LINE
  8
Views
 62
0
 10
615.777777778
 20
50.0
 30
0.0
 11
615.777777778
 21
44.0
 31
0.0
  0
LINE
  8
Views
 62
0
 10
705.111111111
 20
-50.0
 30
0.0
 11
705.111111111
 21
-44.0
 31
0.0
  0
LINE
  8
Views
 62
0
 10
625.703703704
 20
50.0
 30
0.0
 11
615.777777778
 21
50.0
 31
0.0
  0
LINE
  8
Views
 62
0
 10
705.111111111
 20
-44.0
 30
0.0
 11
715.037037037
 21
-44.0
 31
0.0
  0
LINE
  8
Views
 62
0
 10
625.703703704
 20
44.0
 30
0.0
 11
625.703703704
 21
50.0
 31
0.0
  0
LINE
  8
Views
 62
0
 10
715.037037037
 20
-44.0
 30
0.0
 11
715.037037037
 21
-50.0
 31
0.0
  0
LINE
  8
Views
 62
0
 10
635.62962963
 20
44.0
 30
0.0
 11
625.703703704
 21
44.0
 31
0.0
  0
LINE
  8
Views
 62
0
 10
715.037037037
 20
-50.0
 30
0.0
 11
724.962962963
 21
-50.0
 31
0.0
  0
LINE
  8
Views
 62
0
 10
635.62962963
 20
50.0
 30
0.0
 11
635.62962963
 21
44.0
 31
0.0
  0
LINE
  8
Views
 62
0
 10
724.962962963
 20
-50.0
 30
0.0
 11
724.962962963
 21
-44.0
 31
0.0
  0
LINE
  8
Views
 62
0
 10
645.555555556
 20
50.0
 30
0.0
 11
635.62962963
 21
50.0
 31
0.0
  0
LINE
  8
Views
 62
0
 10
724.962962963
 20
-44.0
 30
0.0
 11
734.888888889
 21
-44.0
 31
0.0
  0
LINE
  8
Views
 62
0
 10
645.555555556
 20
44.0
 30
0.0
 11
645.555555556
 21
50.0
 31
0.0
  0
LINE
  8
Views
 62
0
 10
734.888888889
 20
-44.0
 30
0.0
 11
734.888888889
 21
-50.0
 31
0.0
  0
LINE
  8
Views
 62
0
 10
655.481481481
 20
44.0
 30
0.0
 11
645.555555556
 21
44.0
 31
0.0
  0
LINE
  8
Views
 62
0
 10
734.888888889
 20
-50.0
 30
0.0
 11
744.814814815
 21
-50.0
 31
0.0
  0
LINE
  8
Views
 62
0
 10
655.481481481
 20
50.0
 30
0.0
 11
655.481481481
 21
44.0
 31
0.0
  0
LINE
  8
Views
 62
0
 10
744.814814815
 20
-50.0
 30
0.0
 11
744.814814815
 21
-44.0
 31
0.0
  0
LINE
  8
Views
 62
0
 10
665.407407407
 20
50.0
 30
0.0
 11
655.481481481
 21
50.0
 31
0.0
  0
LINE
  8
Views
 62
0
 10
744.814814815
 20
-44.0
 30
0.0
 11
754.740740741
 21
-44.0
 31
0.0
  0
LINE
  8
Views
 62
0
 10
665.407407407
 20
44.0
 30
0.0
 11
665.407407407
 21
50.0
 31
0.0
  0
LINE
  8
Views
 62
0
 10
754.740740741
 20
-44.0
 30
0.0
 11
754.740740741
 21
-50.0
 31
0.0
  0
LINE
  8
Views
 62
0
 10
675.333333333
 20
44.0
 30
0.0
 11
665.407407407
 21
44.0
 31
0.0
  0
LINE
  8
Views
 62
0
 10
754.740740741
 20
-50.0
 30
0.0
 11
764.666666667
 21
-50.0
 31
0.0
  0
LINE
  8
Views
 62
0
 10
675.333333333
 20
50.0
 30
0.0
 11
675.333333333
 21
44.0
 31
0.0
  0
LINE
  8
Views
 62
0
 10
764.666666667
 20
-50.0
 30
0.0
 11
764.666666667
 21
-44.0
 31
0.0
  0
LINE
  8
Views
 62
0
 10
685.259259259
 20
50.0
 30
0.0
 11
675.333333333
 21
50.0
 31
0.0
  0
LINE
  8
Views
 62
0
 10
764.666666667
 20
-44.0
 30
0.0
 11
774.592592593
 21
-44.0
 31
0.0
  0
LINE
  8
Views
 62
0
 10
685.259259259
 20
44.0
 30
0.0
 11
685.259259259
 21
50.0
 31
0.0
  0
LINE
  8
Views
 62
0
 10
774.592592593
 20
-44.0
 30
0.0
 11
774.592592593
 21
-50.0
 31
0.0
  0
LINE
  8
Views
 62
0
 10
695.185185185
 20
44.0
 30
0.0
 11
685.259259259
 21
44.0
 31
0.0
  0
LINE
  8
Views
 62
0
 10
774.592592593
 20
-50.0
 30
0.0
 11
784.518518519
 21
-50.0
 31
0.0
  0
LINE
  8
Views
 62
0
 10
695.185185185
 20
50.0
 30
0.0
 11
695.185185185
 21
44.0
 31
0.0
  0
LINE
  8
Views
 62
0
 10
784.518518519
 20
-50.0
 30
0.0
 11
784.518518519
 21
-44.0
 31
0.0
  0
LINE
  8
Views
 62
0
 10
705.111111111
 20
50.0
 30
0.0
 11
695.185185185
 21
50.0
 31
0.0
  0
LINE
  8
Views
 62
0
 10
784.518518519
 20
-44.0
 30
0.0
 11
794.444444444
 21
-44.0
 31
0.0
  0
LINE
  8
Views
 62
0
 10
705.111111111
 20
44.0
 30
0.0
 11
705.111111111
 21
50.0
 31
0.0
  0
LINE
  8
Views
 62
0
 10
794.444444444
 20
-44.0
 30
0.0
 11
794.444444444
 21
-50.0
 31
0.0
  0
LINE
  8
Views
 62
0
 10
715.037037037
 20
44.0
 30
0.0
 11
705.111111111
 21
44.0
 31
0.0
  0
LINE
  8
Views
 62
0
 10
794.444444444
 20
-50.0
 30
0.0
 11
804.37037037
 21
-50.0
 31
0.0
  0
LINE
  8
Views
 62
0
 10
715.037037037
 20
50.0
 30
0.0
 11
715.037037037
 21
44.0
 31
0.0
  0
LINE
  8
Views
 62
0
 10
804.37037037
 20
-50.0
 30
0.0
 11
804.37037037
 21
-44.0
 31
0.0
  0
LINE
  8
Views
 62
0
 10
724.962962963
 20
50.0
 30
0.0
 11
715.037037037
 21
50.0
 31
0.0
  0
LINE
  8
Views
 62
0
 10
804.37037037
 20
-44.0
 30
0.0
 11
814.296296296
 21
-44.0
 31
0.0
  0
LINE
  8
Views
 62
0
 10
724.962962963
 20
44.0
 30
0.0
 11
724.962962963
 21
50.0
 31
0.0
  0
LINE
  8
Views
 62
0
 10
814.296296296
 20
-44.0
 30
0.0
 11
814.296296296
 21
-50.0
 31
0.0
  0
LINE
  8
Views
 62
0
 10
734.888888889
 20
44.0
 30
0.0
 11
724.962962963
 21
44.0
 31
0.0
  0
LINE
  8
Views
 62
0
 10
814.296296296
 20
-50.0
 30
0.0
 11
824.222222222
 21
-50.0
 31
0.0
  0
LINE
  8
Views
 62
0
 10
734.888888889
 20
50.0
 30
0.0
 11
734.888888889
 21
44.0
 31
0.0
  0
LINE
  8
Views
 62
0
 10
824.222222222
 20
-50.0
 30
0.0
 11
824.222222222
 21
-44.0
 31
0.0
  0
LINE
  8
Views
 62
0
 10
744.814814815
 20
50.0
 30
0.0
 11
734.888888889
 21
50.0
 31
0.0
  0
LINE
  8
Views
 62
0
 10
824.222222222
 20
-44.0
 30
0.0
 11
834.148148148
 21
-44.0
 31
0.0
  0
LINE
  8
Views
 62
0
 10
744.814814815
 20
44.0
 30
0.0
 11
744.814814815
 21
50.0
 31
0.0
  0
LINE
  8
Views
 62
0
 10
834.148148148
 20
-44.0
 30
0.0
 11
834.148148148
 21
-50.0
 31
0.0
  0
LINE
  8
Views
 62
0
 10
754.740740741
 20
44.0
 30
0.0
 11
744.814814815
 21
44.0
 31
0.0
  0
LINE
  8
Views
 62
0
 10
834.148148148
 20
-50.0
 30
0.0
 11
844.074074074
 21
-50.0
 31
0.0
  0
LINE
  8
Views
 62
0
 10
754.740740741
 20
50.0
 30
0.0
 11
754.740740741
 21
44.0
 31
0.0
  0
LINE
  8
Views
 62
0
 10
844.074074074
 20
-50.0
 30
0.0
 11
844.074074074
 21
-44.0
 31
0.0
  0
LINE
  8
Views
 62
0
 10
764.666666667
 20
50.0
 30
0.0
 11
754.740740741
 21
50.0
 31
0.0
  0
LINE
  8
Views
 62
0
 10
844.074074074
 20
-44.0
 30
0.0
 11
854.0
 21
-44.0
 31
0.0
  0
LINE
  8
Views
 62
0
 10
764.666666667
 20
44.0
 30
0.0
 11
764.666666667
 21
50.0
 31
0.0
  0
LINE
  8
Views
 62
0
 10
854.0
 20
-44.0
 30
0.0
 11
860.0
 21
-44.0
 31
0.0
  0
LINE
  8
Views
 62
0
 10
774.592592593
 20
44.0
 30
0.0
 11
764.666666667
 21
44.0
 31
0.0
  0
LINE
  8
Views
 62
0
 10
860.0
 20
-44.0
 30
0.0
 11
860.0
 21
-34.2222222222
 31
0.0
  0
LINE
  8
Views
 62
0
 10
774.592592593
 20
50.0
 30
0.0
 11
774.592592593
 21
44.0
 31
0.0
  0
LINE
  8
Views
 62
0
 10
860.0
 20
-34.2222222222
 30
0.0
 11
854.0
 21
-34.2222222222
 31
0.0
  0
LINE
  8
Views
 62
0
 10
784.518518519
 20
50.0
 30
0.0
 11
774.592592593
 21
50.0
 31
0.0
  0
LINE
  8
Views
 62
0
 10
854.0
 20
-34.2222222222
 30
0.0
 11
854.0
 21
-24.4444444444
 31
0.0
  0
LINE
  8
Views
 62
0
 10
784.518518519
 20
44.0
 30
0.0
 11
784.518518519
 21
50.0
 31
0.0
  0
LINE
  8
Views
 62
0
 10
854.0
 20
-24.4444444444
 30
0.0
 11
860.0
 21
-24.4444444444
 31
0.0
  0
LINE
  8
Views
 62
0
 10
794.444444444
 20
44.0
 30
0.0
 11
784.518518519
 21
44.0
 31
0.0
  0
LINE
  8
Views
 62
0
 10
860.0
 20
-24.4444444444
 30
0.0
 11
860.0
 21
-14.6666666667
 31
0.0
  0
LINE
  8
Views
 62
0
 10
794.444444444
 20
50.0
 30
0.0
 11
794.444444444
 21
44.0
 31
0.0
  0
LINE
  8
Views
 62
0
 10
860.0
 20
-14.6666666667
 30
0.0
 11
854.0
 21
-14.6666666667
 31
0.0
  0
LINE
  8
Views
 62
0
 10
804.37037037
 20
50.0
 30
0.0
 11
794.444444444
 21
50.0
 31
0.0
  0
LINE
  8
Views
 62
0
 10
854.0
 20
-14.6666666667
 30
0.0
 11
854.0
 21
-4.88888888889
 31
0.0
  0
LINE
  8
Views
 62
0
 10
804.37037037
 20
44.0
 30
0.0
 11
804.37037037
 21
50.0
 31
0.0
  0
LINE
  8
Views
 62
0
 10
854.0
 20
-4.88888888889
 30
0.0
 11
860.0
 21
-4.88888888889
 31
0.0
  0
LINE
  8
Views
 62
0
 10
814.296296296
 20
44.0
 30
0.0
 11
804.37037037
 21
44.0
 31
0.0
  0
LINE
  8
Views
 62
0
 10
860.0
 20
-4.88888888889
 30
0.0
 11
860.0
 21
4.88888888889
 31
0.0
  0
LINE
  8
Views
 62
0
 10
814.296296296
 20
50.0
 30
0.0
 11
814.296296296
 21
44.0
 31
0.0
  0
LINE
  8
Views
 62
0
 10
860.0
 20
4.88888888889
 30
0.0
 11
854.0
 21
4.88888888889
 31
0.0
  0
LINE
  8
Views
 62
0
 10
824.222222222
 20
50.0
 30
0.0
 11
814.296296296
 21
50.0
 31
0.0
  0
LINE
  8
Views
 62
0
 10
854.0
 20
4.88888888889
 30
0.0
 11
854.0
 21
14.6666666667
 31
0.0
  0
LINE
  8
Views
 62
0
 10
824.222222222
 20
44.0
 30
0.0
 11
824.222222222
 21
50.0
 31
0.0
  0
LINE
  8
Views
 62
0
 10
854.0
 20
14.6666666667
 30
0.0
 11
860.0
 21
14.6666666667
 31
0.0
  0
LINE
  8
Views
 62
0
 10
834.148148148
 20
44.0
 30
0.0
 11
824.222222222
 21
44.0
 31
0.0
  0
LINE
  8
Views
 62
0
 10
860.0
 20
14.6666666667
 30
0.0
 11
860.0
 21
24.4444444444
 31
0.0
  0
LINE
  8
Views
 62
0
 10
834.148148148
 20
50.0
 30
0.0
 11
834.148148148
 21
44.0
 31
0.0
  0
LINE
  8
Views
 62
0
 10
860.0
 20
24.4444444444
 30
0.0
 11
854.0
 21
24.4444444444
 31
0.0
  0
LINE
  8
Views
 62
0
 10
844.074074074
 20
50.0
 30
0.0
 11
834.148148148
 21
50.0
 31
0.0
  0
LINE
  8
Views
 62
0
 10
854.0
 20
24.4444444444
 30
0.0
 11
854.0
 21
34.2222222222
 31
0.0
  0
LINE
  8
Views
 62
0
 10
844.074074074
 20
44.0
 30
0.0
 11
844.074074074
 21
50.0
 31
0.0
  0
LINE
  8
Views
 62
0
 10
854.0
 20
34.2222222222
 30
0.0
 11
860.0
 21
34.2222222222
 31
0.0
  0
LINE
  8
Views
 62
0
 10
854.0
 20
44.0
 30
0.0
 11
844.074074074
 21
44.0
 31
0.0
  0
LINE
  8
Views
 62
0
 10
860.0
 20
34.2222222222
 30
0.0
 11
860.0
 21
44.0
 31
0.0
  0
LINE
  8
Views
 62
0
 10
860.0
 20
44.0
 30
0.0
 11
854.0
 21
44.0
 31
0.0
  0
CIRCLE
  8
Views
 62
0
 10
659.709483224
 20
-33.69
 30
0.0
 40
1.5
  0
CIRCLE
  8
Views
 62
0
 10
701.089483224
 20
-33.69
 30
0.0
 40
1.5
  0
CIRCLE
  8
Views
 62
0
 10
701.089483224
 20
33.69
 30
0.0
 40
1.5
  0
CIRCLE
  8
Views
 62
0
 10
659.709483224
 20
33.69
 30
0.0
 40
1.5
  0
ENDBLK
  0
BLOCK
  8
Views
  2
SHAPE2DVIEW006
 70
0
 10
0.0
 20
0.0
 30
0.0
  3
SHAPE2DVIEW006
  0
POLYLINE
  8
Views
 62
0
 70
0
 66
1
 10
0.0
 20
0.0
 30
0.0
  0
VERTEX
  8
Views
 10
25.0846666667
 20
-47.7252
 30
0.0
  0
VERTEX
  8
Views
 10
25.0846666667
 20
-50.443
 30
0.0
  0
VERTEX
  8
Views
 10
25.0846666667
 20
-53.1608
 30
0.0
  0
SEQEND
  8
Views
  0
POLYLINE
  8
Views
 62
0
 70
0
 66
1
 10
0.0
 20
0.0
 30
0.0
  0
VERTEX
  8
Views
 10
25.0846666667
 20
-47.7252
 30
0.0
  0
VERTEX
  8
Views
 10
25.0846666667
 20
-50.443
 30
0.0
  0
VERTEX
  8
Views
 10
25.0846666667
 20
-53.1608
 30
0.0
  0
SEQEND
  8
Views
  0
POLYLINE
  8
Views
 62
0
 70
0
 66
1
 10
0.0
 20
0.0
 30
0.0
  0
VERTEX
  8
Views
 10
26.8457333333
 20
-46.5568
 30
0.0
  0
VERTEX
  8
Views
 10
25.0846666667
 20
-47.7252
 30
0.0
  0
SEQEND
  8
Views
  0
POLYLINE
  8
Views
 62
0
 70
0
 66
1
 10
0.0
 20
0.0
 30
0.0
  0
VERTEX
  8
Views
 10
26.8457333333
 20
-46.5568
 30
0.0
  0
VERTEX
  8
Views
 10
25.0846666667
 20
-47.7252
 30
0.0
  0
SEQEND
  8
Views
  0
POLYLINE
  8
Views
 62
0
 70
0
 66
1
 10
0.0
 20
0.0
 30
0.0
  0
VERTEX
  8
Views
 10
25.0846666667
 20
-53.1608
 30
0.0
  0
VERTEX
  8
Views
 10
29.8048333333
 20
-53.1608
 30
0.0
  0
VERTEX
  8
Views
 10
34.525
 20
-53.1608
 30
0.0
  0
VERTEX
  8
Views
 10
39.2451666667
 20
-53.1608
 30
0.0
  0
VERTEX
  8
Views
 10
43.9653333333
 20
-53.1608
 30
0.0
  0
SEQEND
  8
Views
  0
POLYLINE
  8
Views
 62
0
 70
0
 66
1
 10
0.0
 20
0.0
 30
0.0
  0
VERTEX
  8
Views
 10
25.0846666667
 20
-53.1608
 30
0.0
  0
VERTEX
  8
Views
 10
29.8048333333
 20
-53.1608
 30
0.0
  0
VERTEX
  8
Views
 10
34.525
 20
-53.1608
 30
0.0
  0
VERTEX
  8
Views
 10
39.2451666667
 20
-53.1608
 30
0.0
  0
VERTEX
  8
Views
 10
43.9653333333
 20
-53.1608
 30
0.0
  0
SEQEND
  8
Views
  0
POLYLINE
  8
Views
 62
0
 70
0
 66
1
 10
0.0
 20
0.0
 30
0.0
  0
VERTEX
  8
Views
 10
44.1854666667
 20
-46.5568
 30
0.0
  0
VERTEX
  8
Views
 10
39.8505333333
 20
-46.5568
 30
0.0
  0
VERTEX
  8
Views
 10
35.5156
 20
-46.5568
 30
0.0
  0
VERTEX
  8
Views
 10
31.1806666667
 20
-46.5568
 30
0.0
  0
VERTEX
  8
Views
 10
26.8457333333
 20
-46.5568
 30
0.0
  0
SEQEND
  8
Views
  0
POLYLINE
  8
Views
 62
0
 70
0
 66
1
 10
0.0
 20
0.0
 30
0.0
  0
VERTEX
  8
Views
 10
44.1854666667
 20
-46.5568
 30
0.0
  0
VERTEX
  8
Views
 10
39.8505333333
 20
-46.5568
 30
0.0
  0
VERTEX
  8
Views
 10
35.5156
 20
-46.5568
 30
0.0
  0
VERTEX
  8
Views
 10
31.1806666667
 20
-46.5568
 30
0.0
  0
VERTEX
  8
Views
 10
26.8457333333
 20
-46.5568
 30
0.0
  0
SEQEND
  8
Views
  0
POLYLINE
  8
Views
 62
0
 70
0
 66
1
 10
0.0
 20
0.0
 30
0.0
  0
VERTEX
  8
Views
 10
43.9653333333
 20
-53.1608
 30
0.0
  0
VERTEX
  8
Views
 10
47.0810666667
 20
-53.6010666667
 30
0.0
  0
SEQEND
  8
Views
  0
POLYLINE
  8
Views
 62
0
 70
0
 66
1
 10
0.0
 20
0.0
 30
0.0
  0
VERTEX
  8
Views
 10
43.9653333333
 20
-53.1608
 30
0.0
  0
VERTEX
  8
Views
 10
47.0810666667
 20
-53.6010666667
 30
0.0
  0
SEQEND
  8
Views
  0
POLYLINE
  8
Views
 62
0
 70
0
 66
1
 10
0.0
 20
0.0
 30
0.0
  0
VERTEX
  8
Views
 10
52.2288
 20
-48.7581333333
 30
0.0
  0
VERTEX
  8
Views
 10
49.4263333333
 20
-46.9462666667
 30
0.0
  0
VERTEX
  8
Views
 10
44.1854666667
 20
-46.5568
 30
0.0
  0
SEQEND
  8
Views
  0
POLYLINE
  8
Views
 62
0
 70
0
 66
1
 10
0.0
 20
0.0
 30
0.0
  0
VERTEX
  8
Views
 10
52.2288
 20
-48.7581333333
 30
0.0
  0
VERTEX
  8
Views
 10
49.4263333333
 20
-46.9462666667
 30
0.0
  0
VERTEX
  8
Views
 10
44.1854666667
 20
-46.5568
 30
0.0
  0
SEQEND
  8
Views
  0
POLYLINE
  8
Views
 62
0
 70
0
 66
1
 10
0.0
 20
0.0
 30
0.0
  0
VERTEX
  8
Views
 10
47.0810666667
 20
-53.6010666667
 30
0.0
  0
VERTEX
  8
Views
 10
47.4705333333
 20
-55.5314666667
 30
0.0
  0
SEQEND
  8
Views
  0
POLYLINE
  8
Views
 62
0
 70
0
 66
1
 10
0.0
 20
0.0
 30
0.0
  0
VERTEX
  8
Views
 10
47.0810666667
 20
-53.6010666667
 30
0.0
  0
VERTEX
  8
Views
 10
47.4705333333
 20
-55.5314666667
 30
0.0
  0
SEQEND
  8
Views
  0
POLYLINE
  8
Views
 62
0
 70
0
 66
1
 10
0.0
 20
0.0
 30
0.0
  0
VERTEX
  8
Views
 10
53.5496
 20
-55.6669333333
 30
0.0
  0
VERTEX
  8
Views
 10
53.3337
 20
-51.7172333333
 30
0.0
  0
VERTEX
  8
Views
 10
52.2288
 20
-48.7581333333
 30
0.0
  0
SEQEND
  8
Views
  0
POLYLINE
  8
Views
 62
0
 70
0
 66
1
 10
0.0
 20
0.0
 30
0.0
  0
VERTEX
  8
Views
 10
53.5496
 20
-55.6669333333
 30
0.0
  0
VERTEX
  8
Views
 10
53.3337
 20
-51.7172333333
 30
0.0
  0
VERTEX
  8
Views
 10
52.2288
 20
-48.7581333333
 30
0.0
  0
SEQEND
  8
Views
  0
POLYLINE
  8
Views
 62
0
 70
0
 66
1
 10
0.0
 20
0.0
 30
0.0
  0
VERTEX
  8
Views
 10
47.4705333333
 20
-55.5314666667
 30
0.0
  0
VERTEX
  8
Views
 10
47.4705333333
 20
-58.3593333333
 30
0.0
  0
SEQEND
  8
Views
  0
POLYLINE
  8
Views
 62
0
 70
0
 66
1
 10
0.0
 20
0.0
 30
0.0
  0
VERTEX
  8
Views
 10
47.4705333333
 20
-55.5314666667
 30
0.0
  0
VERTEX
  8
Views
 10
47.4705333333
 20
-58.3593333333
 30
0.0
  0
SEQEND
  8
Views
  0
POLYLINE
  8
Views
 62
0
 70
0
 66
1
 10
0.0
 20
0.0
 30
0.0
  0
VERTEX
  8
Views
 10
53.5496
 20
-61.9153333333
 30
0.0
  0
VERTEX
  8
Views
 10
53.5496
 20
-58.7911333333
 30
0.0
  0
VERTEX
  8
Views
 10
53.5496
 20
-55.6669333333
 30
0.0
  0
SEQEND
  8
Views
  0
POLYLINE
  8
Views
 62
0
 70
0
 66
1
 10
0.0
 20
0.0
 30
0.0
  0
VERTEX
  8
Views
 10
53.5496
 20
-61.9153333333
 30
0.0
  0
VERTEX
  8
Views
 10
53.5496
 20
-58.7911333333
 30
0.0
  0
VERTEX
  8
Views
 10
53.5496
 20
-55.6669333333
 30
0.0
  0
SEQEND
  8
Views
  0
POLYLINE
  8
Views
 62
0
 70
0
 66
1
 10
0.0
 20
0.0
 30
0.0
  0
VERTEX
  8
Views
 10
47.4705333333
 20
-58.3593333333
 30
0.0
  0
VERTEX
  8
Views
 10
50.5100666667
 20
-60.1373333333
 30
0.0
  0
VERTEX
  8
Views
 10
53.5496
 20
-61.9153333333
 30
0.0
  0
SEQEND
  8
Views
  0
POLYLINE
  8
Views
 62
0
 70
0
 66
1
 10
0.0
 20
0.0
 30
0.0
  0
VERTEX
  8
Views
 10
47.4705333333
 20
-58.3593333333
 30
0.0
  0
VERTEX
  8
Views
 10
50.5100666667
 20
-60.1373333333
 30
0.0
  0
VERTEX
  8
Views
 10
53.5496
 20
-61.9153333333
 30
0.0
  0
SEQEND
  8
Views
  0
POLYLINE
  8
Views
 62
0
 70
0
 66
1
 10
0.0
 20
0.0
 30
0.0
  0
VERTEX
  8
Views
 10
47.4705333333
 20
38.3469333333
 30
0.0
  0
VERTEX
  8
Views
 10
47.4705333333
 20
34.9941333333
 30
0.0
  0
VERTEX
  8
Views
 10
47.4705333333
 20
31.6413333333
 30
0.0
  0
VERTEX
  8
Views
 10
47.4705333333
 20
28.2885333333
 30
0.0
  0
SEQEND
  8
Views
  0
POLYLINE
  8
Views
 62
0
 70
0
 66
1
 10
0.0
 20
0.0
 30
0.0
  0
VERTEX
  8
Views
 10
47.4705333333
 20
38.3469333333
 30
0.0
  0
VERTEX
  8
Views
 10
47.4705333333
 20
34.9941333333
 30
0.0
  0
VERTEX
  8
Views
 10
47.4705333333
 20
31.6413333333
 30
0.0
  0
VERTEX
  8
Views
 10
47.4705333333
 20
28.2885333333
 30
0.0
  0
SEQEND
  8
Views
  0
POLYLINE
  8
Views
 62
0
 70
0
 66
1
 10
0.0
 20
0.0
 30
0.0
  0
VERTEX
  8
Views
 10
53.5496
 20
42.2924
 30
0.0
  0
VERTEX
  8
Views
 10
50.5100666667
 20
40.3196666667
 30
0.0
  0
VERTEX
  8
Views
 10
47.4705333333
 20
38.3469333333
 30
0.0
  0
SEQEND
  8
Views
  0
POLYLINE
  8
Views
 62
0
 70
0
 66
1
 10
0.0
 20
0.0
 30
0.0
  0
VERTEX
  8
Views
 10
53.5496
 20
42.2924
 30
0.0
  0
VERTEX
  8
Views
 10
50.5100666667
 20
40.3196666667
 30
0.0
  0
VERTEX
  8
Views
 10
47.4705333333
 20
38.3469333333
 30
0.0
  0
SEQEND
  8
Views
  0
POLYLINE
  8
Views
 62
0
 70
0
 66
1
 10
0.0
 20
0.0
 30
0.0
  0
VERTEX
  8
Views
 10
47.4705333333
 20
28.2885333333
 30
0.0
  0
VERTEX
  8
Views
 10
43.7722933333
 20
30.74048
 30
0.0
  0
VERTEX
  8
Views
 10
40.0740533333
 20
33.1924266667
 30
0.0
  0
VERTEX
  8
Views
 10
36.3758133333
 20
35.6443733333
 30
0.0
  0
VERTEX
  8
Views
 10
32.6775733333
 20
38.09632
 30
0.0
  0
VERTEX
  8
Views
 10
28.9793333333
 20
40.5482666667
 30
0.0
  0
SEQEND
  8
Views
  0
POLYLINE
  8
Views
 62
0
 70
0
 66
1
 10
0.0
 20
0.0
 30
0.0
  0
VERTEX
  8
Views
 10
47.4705333333
 20
28.2885333333
 30
0.0
  0
VERTEX
  8
Views
 10
43.7722933333
 20
30.74048
 30
0.0
  0
VERTEX
  8
Views
 10
40.0740533333
 20
33.1924266667
 30
0.0
  0
VERTEX
  8
Views
 10
36.3758133333
 20
35.6443733333
 30
0.0
  0
VERTEX
  8
Views
 10
32.6775733333
 20
38.09632
 30
0.0
  0
VERTEX
  8
Views
 10
28.9793333333
 20
40.5482666667
 30
0.0
  0
SEQEND
  8
Views
  0
POLYLINE
  8
Views
 62
0
 70
0
 66
1
 10
0.0
 20
0.0
 30
0.0
  0
VERTEX
  8
Views
 10
53.5496
 20
19.4154666667
 30
0.0
  0
VERTEX
  8
Views
 10
53.5496
 20
23.9908533333
 30
0.0
  0
VERTEX
  8
Views
 10
53.5496
 20
28.56624
 30
0.0
  0
VERTEX
  8
Views
 10
53.5496
 20
33.1416266667
 30
0.0
  0
VERTEX
  8
Views
 10
53.5496
 20
37.7170133333
 30
0.0
  0
VERTEX
  8
Views
 10
53.5496
 20
42.2924
 30
0.0
  0
SEQEND
  8
Views
  0
POLYLINE
  8
Views
 62
0
 70
0
 66
1
 10
0.0
 20
0.0
 30
0.0
  0
VERTEX
  8
Views
 10
53.5496
 20
19.4154666667
 30
0.0
  0
VERTEX
  8
Views
 10
53.5496
 20
23.9908533333
 30
0.0
  0
VERTEX
  8
Views
 10
53.5496
 20
28.56624
 30
0.0
  0
VERTEX
  8
Views
 10
53.5496
 20
33.1416266667
 30
0.0
  0
VERTEX
  8
Views
 10
53.5496
 20
37.7170133333
 30
0.0
  0
VERTEX
  8
Views
 10
53.5496
 20
42.2924
 30
0.0
  0
SEQEND
  8
Views
  0
POLYLINE
  8
Views
 62
0
 70
0
 66
1
 10
0.0
 20
0.0
 30
0.0
  0
VERTEX
  8
Views
 10
28.9793333333
 20
40.5482666667
 30
0.0
  0
VERTEX
  8
Views
 10
25.0846666667
 20
40.5482666667
 30
0.0
  0
SEQEND
  8
Views
  0
POLYLINE
  8
Views
 62
0
 70
0
 66
1
 10
0.0
 20
0.0
 30
0.0
  0
VERTEX
  8
Views
 10
28.9793333333
 20
40.5482666667
 30
0.0
  0
VERTEX
  8
Views
 10
25.0846666667
 20
40.5482666667
 30
0.0
  0
SEQEND
  8
Views
  0
POLYLINE
  8
Views
 62
0
 70
0
 66
1
 10
0.0
 20
0.0
 30
0.0
  0
VERTEX
  8
Views
 10
49.638
 20
19.4154666667
 30
0.0
  0
VERTEX
  8
Views
 10
53.5496
 20
19.4154666667
 30
0.0
  0
SEQEND
  8
Views
  0
POLYLINE
  8
Views
 62
0
 70
0
 66
1
 10
0.0
 20
0.0
 30
0.0
  0
VERTEX
  8
Views
 10
49.638
 20
19.4154666667
 30
0.0
  0
VERTEX
  8
Views
 10
53.5496
 20
19.4154666667
 30
0.0
  0
SEQEND
  8
Views
  0
POLYLINE
  8
Views
 62
0
 70
0
 66
1
 10
0.0
 20
0.0
 30
0.0
  0
VERTEX
  8
Views
 10
25.0846666667
 20
40.5482666667
 30
0.0
  0
VERTEX
  8
Views
 10
25.0846666667
 20
35.5571666667
 30
0.0
  0
VERTEX
  8
Views
 10
25.0846666667
 20
30.5660666667
 30
0.0
  0
VERTEX
  8
Views
 10
25.0846666667
 20
25.5749666667
 30
0.0
  0
VERTEX
  8
Views
 10
25.0846666667
 20
20.5838666667
 30
0.0
  0
SEQEND
  8
Views
  0
POLYLINE
  8
Views
 62
0
 70
0
 66
1
 10
0.0
 20
0.0
 30
0.0
  0
VERTEX
  8
Views
 10
25.0846666667
 20
40.5482666667
 30
0.0
  0
VERTEX
  8
Views
 10
25.0846666667
 20
35.5571666667
 30
0.0
  0
VERTEX
  8
Views
 10
25.0846666667
 20
30.5660666667
 30
0.0
  0
VERTEX
  8
Views
 10
25.0846666667
 20
25.5749666667
 30
0.0
  0
VERTEX
  8
Views
 10
25.0846666667
 20
20.5838666667
 30
0.0
  0
SEQEND
  8
Views
  0
POLYLINE
  8
Views
 62
0
 70
0
 66
1
 10
0.0
 20
0.0
 30
0.0
  0
VERTEX
  8
Views
 10
30.5033333333
 20
32.1154666667
 30
0.0
  0
VERTEX
  8
Views
 10
34.3302666667
 20
29.5754666667
 30
0.0
  0
VERTEX
  8
Views
 10
38.1572
 20
27.0354666667
 30
0.0
  0
VERTEX
  8
Views
 10
41.9841333333
 20
24.4954666667
 30
0.0
  0
VERTEX
  8
Views
 10
45.8110666667
 20
21.9554666667
 30
0.0
  0
VERTEX
  8
Views
 10
49.638
 20
19.4154666667
 30
0.0
  0
SEQEND
  8
Views
  0
POLYLINE
  8
Views
 62
0
 70
0
 66
1
 10
0.0
 20
0.0
 30
0.0
  0
VERTEX
  8
Views
 10
30.5033333333
 20
32.1154666667
 30
0.0
  0
VERTEX
  8
Views
 10
34.3302666667
 20
29.5754666667
 30
0.0
  0
VERTEX
  8
Views
 10
38.1572
 20
27.0354666667
 30
0.0
  0
VERTEX
  8
Views
 10
41.9841333333
 20
24.4954666667
 30
0.0
  0
VERTEX
  8
Views
 10
45.8110666667
 20
21.9554666667
 30
0.0
  0
VERTEX
  8
Views
 10
49.638
 20
19.4154666667
 30
0.0
  0
SEQEND
  8
Views
  0
POLYLINE
  8
Views
 62
0
 70
0
 66
1
 10
0.0
 20
0.0
 30
0.0
  0
VERTEX
  8
Views
 10
25.0846666667
 20
20.5838666667
 30
0.0
  0
VERTEX
  8
Views
 10
28.7253333333
 20
20.5838666667
 30
0.0
  0
SEQEND
  8
Views
  0
POLYLINE
  8
Views
 62
0
 70
0
 66
1
 10
0.0
 20
0.0
 30
0.0
  0
VERTEX
  8
Views
 10
25.0846666667
 20
20.5838666667
 30
0.0
  0
VERTEX
  8
Views
 10
28.7253333333
 20
20.5838666667
 30
0.0
  0
SEQEND
  8
Views
  0
POLYLINE
  8
Views
 62
0
 70
0
 66
1
 10
0.0
 20
0.0
 30
0.0
  0
VERTEX
  8
Views
 10
30.5033333333
 20
21.7353333333
 30
0.0
  0
VERTEX
  8
Views
 10
30.5033333333
 20
25.1953777778
 30
0.0
  0
VERTEX
  8
Views
 10
30.5033333333
 20
28.6554222222
 30
0.0
  0
VERTEX
  8
Views
 10
30.5033333333
 20
32.1154666667
 30
0.0
  0
SEQEND
  8
Views
  0
POLYLINE
  8
Views
 62
0
 70
0
 66
1
 10
0.0
 20
0.0
 30
0.0
  0
VERTEX
  8
Views
 10
30.5033333333
 20
21.7353333333
 30
0.0
  0
VERTEX
  8
Views
 10
30.5033333333
 20
25.1953777778
 30
0.0
  0
VERTEX
  8
Views
 10
30.5033333333
 20
28.6554222222
 30
0.0
  0
VERTEX
  8
Views
 10
30.5033333333
 20
32.1154666667
 30
0.0
  0
SEQEND
  8
Views
  0
POLYLINE
  8
Views
 62
0
 70
0
 66
1
 10
0.0
 20
0.0
 30
0.0
  0
VERTEX
  8
Views
 10
28.7253333333
 20
20.5838666667
 30
0.0
  0
VERTEX
  8
Views
 10
30.5033333333
 20
21.7353333333
 30
0.0
  0
SEQEND
  8
Views
  0
POLYLINE
  8
Views
 62
0
 70
0
 66
1
 10
0.0
 20
0.0
 30
0.0
  0
VERTEX
  8
Views
 10
28.7253333333
 20
20.5838666667
 30
0.0
  0
VERTEX
  8
Views
 10
30.5033333333
 20
21.7353333333
 30
0.0
  0
SEQEND
  8
Views
  0
POLYLINE
  8
Views
 62
0
 70
0
 66
1
 10
0.0
 20
0.0
 30
0.0
  0
VERTEX
  8
Views
 10
31.5870666667
 20
78.4789333333
 30
0.0
  0
VERTEX
  8
Views
 10
32.2749833333
 20
74.7895833333
 30
0.0
  0
VERTEX
  8
Views
 10
33.8392
 20
72.9417333333
 30
0.0
  0
SEQEND
  8
Views
  0
POLYLINE
  8
Views
 62
0
 70
0
 66
1
 10
0.0
 20
0.0
 30
0.0
  0
VERTEX
  8
Views
 10
31.5870666667
 20
78.4789333333
 30
0.0
  0
VERTEX
  8
Views
 10
32.2749833333
 20
74.7895833333
 30
0.0
  0
VERTEX
  8
Views
 10
33.8392
 20
72.9417333333
 30
0.0
  0
SEQEND
  8
Views
  0
POLYLINE
  8
Views
 62
0
 70
0
 66
1
 10
0.0
 20
0.0
 30
0.0
  0
VERTEX
  8
Views
 10
39.6304
 20
86.5053333333
 30
0.0
  0
VERTEX
  8
Views
 10
35.5958765432
 20
85.3802074074
 30
0.0
  0
VERTEX
  8
Views
 10
32.6977679012
 20
82.471437037
 30
0.0
  0
VERTEX
  8
Views
 10
31.5870666667
 20
78.4789333333
 30
0.0
  0
SEQEND
  8
Views
  0
POLYLINE
  8
Views
 62
0
 70
0
 66
1
 10
0.0
 20
0.0
 30
0.0
  0
VERTEX
  8
Views
 10
39.6304
 20
86.5053333333
 30
0.0
  0
VERTEX
  8
Views
 10
35.5958765432
 20
85.3802074074
 30
0.0
  0
VERTEX
  8
Views
 10
32.6977679012
 20
82.471437037
 30
0.0
  0
VERTEX
  8
Views
 10
31.5870666667
 20
78.4789333333
 30
0.0
  0
SEQEND
  8
Views
  0
POLYLINE
  8
Views
 62
0
 70
0
 66
1
 10
0.0
 20
0.0
 30
0.0
  0
VERTEX
  8
Views
 10
33.8392
 20
72.9417333333
 30
0.0
  0
VERTEX
  8
Views
 10
33.8392
 20
72.7893333333
 30
0.0
  0
SEQEND
  8
Views
  0
POLYLINE
  8
Views
 62
0
 70
0
 66
1
 10
0.0
 20
0.0
 30
0.0
  0
VERTEX
  8
Views
 10
33.8392
 20
72.9417333333
 30
0.0
  0
VERTEX
  8
Views
 10
33.8392
 20
72.7893333333
 30
0.0
  0
SEQEND
  8
Views
  0
POLYLINE
  8
Views
 62
0
 70
0
 66
1
 10
0.0
 20
0.0
 30
0.0
  0
VERTEX
  8
Views
 10
53.5496
 20
86.5053333333
 30
0.0
  0
VERTEX
  8
Views
 10
48.9098666667
 20
86.5053333333
 30
0.0
  0
VERTEX
  8
Views
 10
44.2701333333
 20
86.5053333333
 30
0.0
  0
VERTEX
  8
Views
 10
39.6304
 20
86.5053333333
 30
0.0
  0
SEQEND
  8
Views
  0
POLYLINE
  8
Views
 62
0
 70
0
 66
1
 10
0.0
 20
0.0
 30
0.0
  0
VERTEX
  8
Views
 10
53.5496
 20
86.5053333333
 30
0.0
  0
VERTEX
  8
Views
 10
48.9098666667
 20
86.5053333333
 30
0.0
  0
VERTEX
  8
Views
 10
44.2701333333
 20
86.5053333333
 30
0.0
  0
VERTEX
  8
Views
 10
39.6304
 20
86.5053333333
 30
0.0
  0
SEQEND
  8
Views
  0
POLYLINE
  8
Views
 62
0
 70
0
 66
1
 10
0.0
 20
0.0
 30
0.0
  0
VERTEX
  8
Views
 10
33.8392
 20
72.7893333333
 30
0.0
  0
VERTEX
  8
Views
 10
32.1289333333
 20
71.6717333333
 30
0.0
  0
SEQEND
  8
Views
  0
POLYLINE
  8
Views
 62
0
 70
0
 66
1
 10
0.0
 20
0.0
 30
0.0
  0
VERTEX
  8
Views
 10
33.8392
 20
72.7893333333
 30
0.0
  0
VERTEX
  8
Views
 10
32.1289333333
 20
71.6717333333
 30
0.0
  0
SEQEND
  8
Views
  0
POLYLINE
  8
Views
 62
0
 70
0
 66
1
 10
0.0
 20
0.0
 30
0.0
  0
VERTEX
  8
Views
 10
53.5496
 20
79.9182666667
 30
0.0
  0
VERTEX
  8
Views
 10
53.5496
 20
83.2118
 30
0.0
  0
VERTEX
  8
Views
 10
53.5496
 20
86.5053333333
 30
0.0
  0
SEQEND
  8
Views
  0
POLYLINE
  8
Views
 62
0
 70
0
 66
1
 10
0.0
 20
0.0
 30
0.0
  0
VERTEX
  8
Views
 10
53.5496
 20
79.9182666667
 30
0.0
  0
VERTEX
  8
Views
 10
53.5496
 20
83.2118
 30
0.0
  0
VERTEX
  8
Views
 10
53.5496
 20
86.5053333333
 30
0.0
  0
SEQEND
  8
Views
  0
POLYLINE
  8
Views
 62
0
 70
0
 66
1
 10
0.0
 20
0.0
 30
0.0
  0
VERTEX
  8
Views
 10
32.1289333333
 20
71.6717333333
 30
0.0
  0
VERTEX
  8
Views
 10
32.1289333333
 20
67.7770666667
 30
0.0
  0
SEQEND
  8
Views
  0
POLYLINE
  8
Views
 62
0
 70
0
 66
1
 10
0.0
 20
0.0
 30
0.0
  0
VERTEX
  8
Views
 10
32.1289333333
 20
71.6717333333
 30
0.0
  0
VERTEX
  8
Views
 10
32.1289333333
 20
67.7770666667
 30
0.0
  0
SEQEND
  8
Views
  0
POLYLINE
  8
Views
 62
0
 70
0
 66
1
 10
0.0
 20
0.0
 30
0.0
  0
VERTEX
  8
Views
 10
40.0029333333
 20
79.9182666667
 30
0.0
  0
VERTEX
  8
Views
 10
44.5184888889
 20
79.9182666667
 30
0.0
  0
VERTEX
  8
Views
 10
49.0340444444
 20
79.9182666667
 30
0.0
  0
VERTEX
  8
Views
 10
53.5496
 20
79.9182666667
 30
0.0
  0
SEQEND
  8
Views
  0
POLYLINE
  8
Views
 62
0
 70
0
 66
1
 10
0.0
 20
0.0
 30
0.0
  0
VERTEX
  8
Views
 10
40.0029333333
 20
79.9182666667
 30
0.0
  0
VERTEX
  8
Views
 10
44.5184888889
 20
79.9182666667
 30
0.0
  0
VERTEX
  8
Views
 10
49.0340444444
 20
79.9182666667
 30
0.0
  0
VERTEX
  8
Views
 10
53.5496
 20
79.9182666667
 30
0.0
  0
SEQEND
  8
Views
  0
POLYLINE
  8
Views
 62
0
 70
0
 66
1
 10
0.0
 20
0.0
 30
0.0
  0
VERTEX
  8
Views
 10
32.1289333333
 20
67.7770666667
 30
0.0
  0
VERTEX
  8
Views
 10
36.4130666667
 20
67.7770666667
 30
0.0
  0
VERTEX
  8
Views
 10
40.6972
 20
67.7770666667
 30
0.0
  0
VERTEX
  8
Views
 10
44.9813333333
 20
67.7770666667
 30
0.0
  0
VERTEX
  8
Views
 10
49.2654666667
 20
67.7770666667
 30
0.0
  0
VERTEX
  8
Views
 10
53.5496
 20
67.7770666667
 30
0.0
  0
SEQEND
  8
Views
  0
POLYLINE
  8
Views
 62
0
 70
0
 66
1
 10
0.0
 20
0.0
 30
0.0
  0
VERTEX
  8
Views
 10
32.1289333333
 20
67.7770666667
 30
0.0
  0
VERTEX
  8
Views
 10
36.4130666667
 20
67.7770666667
 30
0.0
  0
VERTEX
  8
Views
 10
40.6972
 20
67.7770666667
 30
0.0
  0
VERTEX
  8
Views
 10
44.9813333333
 20
67.7770666667
 30
0.0
  0
VERTEX
  8
Views
 10
49.2654666667
 20
67.7770666667
 30
0.0
  0
VERTEX
  8
Views
 10
53.5496
 20
67.7770666667
 30
0.0
  0
SEQEND
  8
Views
  0
POLYLINE
  8
Views
 62
0
 70
0
 66
1
 10
0.0
 20
0.0
 30
0.0
  0
VERTEX
  8
Views
 10
37.2258666667
 20
77.1412
 30
0.0
  0
VERTEX
  8
Views
 10
40.0029333333
 20
79.9182666667
 30
0.0
  0
SEQEND
  8
Views
  0
POLYLINE
  8
Views
 62
0
 70
0
 66
1
 10
0.0
 20
0.0
 30
0.0
  0
VERTEX
  8
Views
 10
37.2258666667
 20
77.1412
 30
0.0
  0
VERTEX
  8
Views
 10
40.0029333333
 20
79.9182666667
 30
0.0
  0
SEQEND
  8
Views
  0
POLYLINE
  8
Views
 62
0
 70
0
 66
1
 10
0.0
 20
0.0
 30
0.0
  0
VERTEX
  8
Views
 10
53.5496
 20
67.7770666667
 30
0.0
  0
VERTEX
  8
Views
 10
53.5496
 20
71.0706
 30
0.0
  0
VERTEX
  8
Views
 10
53.5496
 20
74.3641333333
 30
0.0
  0
SEQEND
  8
Views
  0
POLYLINE
  8
Views
 62
0
 70
0
 66
1
 10
0.0
 20
0.0
 30
0.0
  0
VERTEX
  8
Views
 10
53.5496
 20
67.7770666667
 30
0.0
  0
VERTEX
  8
Views
 10
53.5496
 20
71.0706
 30
0.0
  0
VERTEX
  8
Views
 10
53.5496
 20
74.3641333333
 30
0.0
  0
SEQEND
  8
Views
  0
POLYLINE
  8
Views
 62
0
 70
0
 66
1
 10
0.0
 20
0.0
 30
0.0
  0
VERTEX
  8
Views
 10
40.0029333333
 20
74.3641333333
 30
0.0
  0
VERTEX
  8
Views
 10
37.2258666667
 20
77.1412
 30
0.0
  0
SEQEND
  8
Views
  0
POLYLINE
  8
Views
 62
0
 70
0
 66
1
 10
0.0
 20
0.0
 30
0.0
  0
VERTEX
  8
Views
 10
40.0029333333
 20
74.3641333333
 30
0.0
  0
VERTEX
  8
Views
 10
37.2258666667
 20
77.1412
 30
0.0
  0
SEQEND
  8
Views
  0
POLYLINE
  8
Views
 62
0
 70
0
 66
1
 10
0.0
 20
0.0
 30
0.0
  0
VERTEX
  8
Views
 10
53.5496
 20
74.3641333333
 30
0.0
  0
VERTEX
  8
Views
 10
49.0340444444
 20
74.3641333333
 30
0.0
  0
VERTEX
  8
Views
 10
44.5184888889
 20
74.3641333333
 30
0.0
  0
VERTEX
  8
Views
 10
40.0029333333
 20
74.3641333333
 30
0.0
  0
SEQEND
  8
Views
  0
POLYLINE
  8
Views
 62
0
 70
0
 66
1
 10
0.0
 20
0.0
 30
0.0
  0
VERTEX
  8
Views
 10
53.5496
 20
74.3641333333
 30
0.0
  0
VERTEX
  8
Views
 10
49.0340444444
 20
74.3641333333
 30
0.0
  0
VERTEX
  8
Views
 10
44.5184888889
 20
74.3641333333
 30
0.0
  0
VERTEX
  8
Views
 10
40.0029333333
 20
74.3641333333
 30
0.0
  0
SEQEND
  8
Views
  0
POLYLINE
  8
Views
 62
0
 70
0
 66
1
 10
0.0
 20
0.0
 30
0.0
  0
VERTEX
  8
Views
 10
37.3782666667
 20
97.1394666667
 30
0.0
  0
VERTEX
  8
Views
 10
36.0574666667
 20
99.8996
 30
0.0
  0
SEQEND
  8
Views
  0
POLYLINE
  8
Views
 62
0
 70
0
 66
1
 10
0.0
 20
0.0
 30
0.0
  0
VERTEX
  8
Views
 10
37.3782666667
 20
97.1394666667
 30
0.0
  0
VERTEX
  8
Views
 10
36.0574666667
 20
99.8996
 30
0.0
  0
SEQEND
  8
Views
  0
POLYLINE
  8
Views
 62
0
 70
0
 66
1
 10
0.0
 20
0.0
 30
0.0
  0
VERTEX
  8
Views
 10
40.6633333333
 20
95.734
 30
0.0
  0
VERTEX
  8
Views
 10
37.3782666667
 20
97.1394666667
 30
0.0
  0
SEQEND
  8
Views
  0
POLYLINE
  8
Views
 62
0
 70
0
 66
1
 10
0.0
 20
0.0
 30
0.0
  0
VERTEX
  8
Views
 10
40.6633333333
 20
95.734
 30
0.0
  0
VERTEX
  8
Views
 10
37.3782666667
 20
97.1394666667
 30
0.0
  0
SEQEND
  8
Views
  0
POLYLINE
  8
Views
 62
0
 70
0
 66
1
 10
0.0
 20
0.0
 30
0.0
  0
VERTEX
  8
Views
 10
36.0574666667
 20
99.8996
 30
0.0
  0
VERTEX
  8
Views
 10
37.21105
 20
102.695716667
 30
0.0
  0
VERTEX
  8
Views
 10
40.6633333333
 20
103.624933333
 30
0.0
  0
SEQEND
  8
Views
  0
POLYLINE
  8
Views
 62
0
 70
0
 66
1
 10
0.0
 20
0.0
 30
0.0
  0
VERTEX
  8
Views
 10
36.0574666667
 20
99.8996
 30
0.0
  0
VERTEX
  8
Views
 10
37.21105
 20
102.695716667
 30
0.0
  0
VERTEX
  8
Views
 10
40.6633333333
 20
103.624933333
 30
0.0
  0
SEQEND
  8
Views
  0
POLYLINE
  8
Views
 62
0
 70
0
 66
1
 10
0.0
 20
0.0
 30
0.0
  0
VERTEX
  8
Views
 10
40.6633333333
 20
103.624933333
 30
0.0
  0
VERTEX
  8
Views
 10
40.6633333333
 20
99.6794666667
 30
0.0
  0
VERTEX
  8
Views
 10
40.6633333333
 20
95.734
 30
0.0
  0
SEQEND
  8
Views
  0
POLYLINE
  8
Views
 62
0
 70
0
 66
1
 10
0.0
 20
0.0
 30
0.0
  0
VERTEX
  8
Views
 10
40.6633333333
 20
103.624933333
 30
0.0
  0
VERTEX
  8
Views
 10
40.6633333333
 20
99.6794666667
 30
0.0
  0
VERTEX
  8
Views
 10
40.6633333333
 20
95.734
 30
0.0
  0
SEQEND
  8
Views
  0
POLYLINE
  8
Views
 62
0
 70
0
 66
1
 10
0.0
 20
0.0
 30
0.0
  0
VERTEX
  8
Views
 10
48.2325333333
 20
9.23853333333
 30
0.0
  0
VERTEX
  8
Views
 10
49.5194666667
 20
6.19053333333
 30
0.0
  0
SEQEND
  8
Views
  0
POLYLINE
  8
Views
 62
0
 70
0
 66
1
 10
0.0
 20
0.0
 30
0.0
  0
VERTEX
  8
Views
 10
48.2325333333
 20
9.23853333333
 30
0.0
  0
VERTEX
  8
Views
 10
49.5194666667
 20
6.19053333333
 30
0.0
  0
SEQEND
  8
Views
  0
POLYLINE
  8
Views
 62
0
 70
0
 66
1
 10
0.0
 20
0.0
 30
0.0
  0
VERTEX
  8
Views
 10
44.9474666667
 20
10.4408
 30
0.0
  0
VERTEX
  8
Views
 10
48.2325333333
 20
9.23853333333
 30
0.0
  0
SEQEND
  8
Views
  0
POLYLINE
  8
Views
 62
0
 70
0
 66
1
 10
0.0
 20
0.0
 30
0.0
  0
VERTEX
  8
Views
 10
44.9474666667
 20
10.4408
 30
0.0
  0
VERTEX
  8
Views
 10
48.2325333333
 20
9.23853333333
 30
0.0
  0
SEQEND
  8
Views
  0
POLYLINE
  8
Views
 62
0
 70
0
 66
1
 10
0.0
 20
0.0
 30
0.0
  0
VERTEX
  8
Views
 10
49.5194666667
 20
6.19053333333
 30
0.0
  0
VERTEX
  8
Views
 10
48.7913333333
 20
4.02306666667
 30
0.0
  0
SEQEND
  8
Views
  0
POLYLINE
  8
Views
 62
0
 70
0
 66
1
 10
0.0
 20
0.0
 30
0.0
  0
VERTEX
  8
Views
 10
49.5194666667
 20
6.19053333333
 30
0.0
  0
VERTEX
  8
Views
 10
48.7913333333
 20
4.02306666667
 30
0.0
  0
SEQEND
  8
Views
  0
POLYLINE
  8
Views
 62
0
 70
0
 66
1
 10
0.0
 20
0.0
 30
0.0
  0
VERTEX
  8
Views
 10
43.4912
 20
10.4408
 30
0.0
  0
VERTEX
  8
Views
 10
44.9474666667
 20
10.4408
 30
0.0
  0
SEQEND
  8
Views
  0
POLYLINE
  8
Views
 62
0
 70
0
 66
1
 10
0.0
 20
0.0
 30
0.0
  0
VERTEX
  8
Views
 10
43.4912
 20
10.4408
 30
0.0
  0
VERTEX
  8
Views
 10
44.9474666667
 20
10.4408
 30
0.0
  0
SEQEND
  8
Views
  0
POLYLINE
  8
Views
 62
0
 70
0
 66
1
 10
0.0
 20
0.0
 30
0.0
  0
VERTEX
  8
Views
 10
48.7913333333
 20
4.02306666667
 30
0.0
  0
VERTEX
  8
Views
 10
46.9286666667
 20
3.26106666667
 30
0.0
  0
SEQEND
  8
Views
  0
POLYLINE
  8
Views
 62
0
 70
0
 66
1
 10
0.0
 20
0.0
 30
0.0
  0
VERTEX
  8
Views
 10
48.7913333333
 20
4.02306666667
 30
0.0
  0
VERTEX
  8
Views
 10
46.9286666667
 20
3.26106666667
 30
0.0
  0
SEQEND
  8
Views
  0
POLYLINE
  8
Views
 62
0
 70
0
 66
1
 10
0.0
 20
0.0
 30
0.0
  0
VERTEX
  8
Views
 10
43.9992
 20
6.51226666667
 30
0.0
  0
VERTEX
  8
Views
 10
43.4912
 20
10.4408
 30
0.0
  0
SEQEND
  8
Views
  0
POLYLINE
  8
Views
 62
0
 70
0
 66
1
 10
0.0
 20
0.0
 30
0.0
  0
VERTEX
  8
Views
 10
43.9992
 20
6.51226666667
 30
0.0
  0
VERTEX
  8
Views
 10
43.4912
 20
10.4408
 30
0.0
  0
SEQEND
  8
Views
  0
POLYLINE
  8
Views
 62
0
 70
0
 66
1
 10
0.0
 20
0.0
 30
0.0
  0
VERTEX
  8
Views
 10
46.9286666667
 20
3.26106666667
 30
0.0
  0
VERTEX
  8
Views
 10
43.9992
 20
6.51226666667
 30
0.0
  0
SEQEND
  8
Views
  0
POLYLINE
  8
Views
 62
0
 70
0
 66
1
 10
0.0
 20
0.0
 30
0.0
  0
VERTEX
  8
Views
 10
46.9286666667
 20
3.26106666667
 30
0.0
  0
VERTEX
  8
Views
 10
43.9992
 20
6.51226666667
 30
0.0
  0
SEQEND
  8
Views
  0
POLYLINE
  8
Views
 62
0
 70
0
 66
1
 10
0.0
 20
0.0
 30
0.0
  0
VERTEX
  8
Views
 10
48.7913333333
 20
105.504533333
 30
0.0
  0
VERTEX
  8
Views
 10
49.384
 20
101.643733333
 30
0.0
  0
SEQEND
  8
Views
  0
POLYLINE
  8
Views
 62
0
 70
0
 66
1
 10
0.0
 20
0.0
 30
0.0
  0
VERTEX
  8
Views
 10
48.7913333333
 20
105.504533333
 30
0.0
  0
VERTEX
  8
Views
 10
49.384
 20
101.643733333
 30
0.0
  0
SEQEND
  8
Views
  0
POLYLINE
  8
Views
 62
0
 70
0
 66
1
 10
0.0
 20
0.0
 30
0.0
  0
VERTEX
  8
Views
 10
52.432
 20
107.841333333
 30
0.0
  0
VERTEX
  8
Views
 10
48.7913333333
 20
105.504533333
 30
0.0
  0
SEQEND
  8
Views
  0
POLYLINE
  8
Views
 62
0
 70
0
 66
1
 10
0.0
 20
0.0
 30
0.0
  0
VERTEX
  8
Views
 10
52.432
 20
107.841333333
 30
0.0
  0
VERTEX
  8
Views
 10
48.7913333333
 20
105.504533333
 30
0.0
  0
SEQEND
  8
Views
  0
POLYLINE
  8
Views
 62
0
 70
0
 66
1
 10
0.0
 20
0.0
 30
0.0
  0
VERTEX
  8
Views
 10
49.384
 20
101.643733333
 30
0.0
  0
VERTEX
  8
Views
 10
48.2156
 20
97.40405
 30
0.0
  0
VERTEX
  8
Views
 10
44.7104
 20
95.7678666667
 30
0.0
  0
SEQEND
  8
Views
  0
POLYLINE
  8
Views
 62
0
 70
0
 66
1
 10
0.0
 20
0.0
 30
0.0
  0
VERTEX
  8
Views
 10
49.384
 20
101.643733333
 30
0.0
  0
VERTEX
  8
Views
 10
48.2156
 20
97.40405
 30
0.0
  0
VERTEX
  8
Views
 10
44.7104
 20
95.7678666667
 30
0.0
  0
SEQEND
  8
Views
  0
POLYLINE
  8
Views
 62
0
 70
0
 66
1
 10
0.0
 20
0.0
 30
0.0
  0
VERTEX
  8
Views
 10
52.4828
 20
107.841333333
 30
0.0
  0
VERTEX
  8
Views
 10
52.432
 20
107.841333333
 30
0.0
  0
SEQEND
  8
Views
  0
POLYLINE
  8
Views
 62
0
 70
0
 66
1
 10
0.0
 20
0.0
 30
0.0
  0
VERTEX
  8
Views
 10
52.4828
 20
107.841333333
 30
0.0
  0
VERTEX
  8
Views
 10
52.432
 20
107.841333333
 30
0.0
  0
SEQEND
  8
Views
  0
POLYLINE
  8
Views
 62
0
 70
0
 66
1
 10
0.0
 20
0.0
 30
0.0
  0
VERTEX
  8
Views
 10
44.7104
 20
95.7678666667
 30
0.0
  0
VERTEX
  8
Views
 10
44.7104
 20
100.424533333
 30
0.0
  0
VERTEX
  8
Views
 10
44.7104
 20
105.0812
 30
0.0
  0
VERTEX
  8
Views
 10
44.7104
 20
109.737866667
 30
0.0
  0
SEQEND
  8
Views
  0
POLYLINE
  8
Views
 62
0
 70
0
 66
1
 10
0.0
 20
0.0
 30
0.0
  0
VERTEX
  8
Views
 10
44.7104
 20
95.7678666667
 30
0.0
  0
VERTEX
  8
Views
 10
44.7104
 20
100.424533333
 30
0.0
  0
VERTEX
  8
Views
 10
44.7104
 20
105.0812
 30
0.0
  0
VERTEX
  8
Views
 10
44.7104
 20
109.737866667
 30
0.0
  0
SEQEND
  8
Views
  0
POLYLINE
  8
Views
 62
0
 70
0
 66
1
 10
0.0
 20
0.0
 30
0.0
  0
VERTEX
  8
Views
 10
54.0745333333
 20
100.119733333
 30
0.0
  0
VERTEX
  8
Views
 10
53.6787166667
 20
104.425033333
 30
0.0
  0
VERTEX
  8
Views
 10
52.4828
 20
107.841333333
 30
0.0
  0
SEQEND
  8
Views
  0
POLYLINE
  8
Views
 62
0
 70
0
 66
1
 10
0.0
 20
0.0
 30
0.0
  0
VERTEX
  8
Views
 10
54.0745333333
 20
100.119733333
 30
0.0
  0
VERTEX
  8
Views
 10
53.6787166667
 20
104.425033333
 30
0.0
  0
VERTEX
  8
Views
 10
52.4828
 20
107.841333333
 30
0.0
  0
SEQEND
  8
Views
  0
POLYLINE
  8
Views
 62
0
 70
0
 66
1
 10
0.0
 20
0.0
 30
0.0
  0
VERTEX
  8
Views
 10
44.7104
 20
109.737866667
 30
0.0
  0
VERTEX
  8
Views
 10
41.9333333333
 20
109.737866667
 30
0.0
  0
SEQEND
  8
Views
  0
POLYLINE
  8
Views
 62
0
 70
0
 66
1
 10
0.0
 20
0.0
 30
0.0
  0
VERTEX
  8
Views
 10
44.7104
 20
109.737866667
 30
0.0
  0
VERTEX
  8
Views
 10
41.9333333333
 20
109.737866667
 30
0.0
  0
SEQEND
  8
Views
  0
POLYLINE
  8
Views
 62
0
 70
0
 66
1
 10
0.0
 20
0.0
 30
0.0
  0
VERTEX
  8
Views
 10
51.2128
 20
92.0594666667
 30
0.0
  0
VERTEX
  8
Views
 10
53.3548666667
 20
95.5054
 30
0.0
  0
VERTEX
  8
Views
 10
54.0745333333
 20
100.119733333
 30
0.0
  0
SEQEND
  8
Views
  0
POLYLINE
  8
Views
 62
0
 70
0
 66
1
 10
0.0
 20
0.0
 30
0.0
  0
VERTEX
  8
Views
 10
51.2128
 20
92.0594666667
 30
0.0
  0
VERTEX
  8
Views
 10
53.3548666667
 20
95.5054
 30
0.0
  0
VERTEX
  8
Views
 10
54.0745333333
 20
100.119733333
 30
0.0
  0
SEQEND
  8
Views
  0
POLYLINE
  8
Views
 62
0
 70
0
 66
1
 10
0.0
 20
0.0
 30
0.0
  0
VERTEX
  8
Views
 10
41.9333333333
 20
109.737866667
 30
0.0
  0
VERTEX
  8
Views
 10
37.6343833333
 20
109.08805
 30
0.0
  0
VERTEX
  8
Views
 10
34.3641333333
 20
107.130133333
 30
0.0
  0
SEQEND
  8
Views
  0
POLYLINE
  8
Views
 62
0
 70
0
 66
1
 10
0.0
 20
0.0
 30
0.0
  0
VERTEX
  8
Views
 10
41.9333333333
 20
109.737866667
 30
0.0
  0
VERTEX
  8
Views
 10
37.6343833333
 20
109.08805
 30
0.0
  0
VERTEX
  8
Views
 10
34.3641333333
 20
107.130133333
 30
0.0
  0
SEQEND
  8
Views
  0
POLYLINE
  8
Views
 62
0
 70
0
 66
1
 10
0.0
 20
0.0
 30
0.0
  0
VERTEX
  8
Views
 10
43.1694666667
 20
89.1977333333
 30
0.0
  0
VERTEX
  8
Views
 10
47.7753333333
 20
89.91105
 30
0.0
  0
VERTEX
  8
Views
 10
51.2128
 20
92.0594666667
 30
0.0
  0
SEQEND
  8
Views
  0
POLYLINE
  8
Views
 62
0
 70
0
 66
1
 10
0.0
 20
0.0
 30
0.0
  0
VERTEX
  8
Views
 10
43.1694666667
 20
89.1977333333
 30
0.0
  0
VERTEX
  8
Views
 10
47.7753333333
 20
89.91105
 30
0.0
  0
VERTEX
  8
Views
 10
51.2128
 20
92.0594666667
 30
0.0
  0
SEQEND
  8
Views
  0
POLYLINE
  8
Views
 62
0
 70
0
 66
1
 10
0.0
 20
0.0
 30
0.0
  0
VERTEX
  8
Views
 10
34.3641333333
 20
107.130133333
 30
0.0
  0
VERTEX
  8
Views
 10
32.2919166667
 20
104.024983333
 30
0.0
  0
VERTEX
  8
Views
 10
31.604
 20
99.9165333333
 30
0.0
  0
SEQEND
  8
Views
  0
POLYLINE
  8
Views
 62
0
 70
0
 66
1
 10
0.0
 20
0.0
 30
0.0
  0
VERTEX
  8
Views
 10
34.3641333333
 20
107.130133333
 30
0.0
  0
VERTEX
  8
Views
 10
32.2919166667
 20
104.024983333
 30
0.0
  0
VERTEX
  8
Views
 10
31.604
 20
99.9165333333
 30
0.0
  0
SEQEND
  8
Views
  0
POLYLINE
  8
Views
 62
0
 70
0
 66
1
 10
0.0
 20
0.0
 30
0.0
  0
VERTEX
  8
Views
 10
37.2089333333
 20
90.5524
 30
0.0
  0
VERTEX
  8
Views
 10
40.01775
 20
89.5385166667
 30
0.0
  0
VERTEX
  8
Views
 10
43.1694666667
 20
89.1977333333
 30
0.0
  0
SEQEND
  8
Views
  0
POLYLINE
  8
Views
 62
0
 70
0
 66
1
 10
0.0
 20
0.0
 30
0.0
  0
VERTEX
  8
Views
 10
37.2089333333
 20
90.5524
 30
0.0
  0
VERTEX
  8
Views
 10
40.01775
 20
89.5385166667
 30
0.0
  0
VERTEX
  8
Views
 10
43.1694666667
 20
89.1977333333
 30
0.0
  0
SEQEND
  8
Views
  0
POLYLINE
  8
Views
 62
0
 70
0
 66
1
 10
0.0
 20
0.0
 30
0.0
  0
VERTEX
  8
Views
 10
31.604
 20
99.9165333333
 30
0.0
  0
VERTEX
  8
Views
 10
31.9744166667
 20
96.9807166667
 30
0.0
  0
VERTEX
  8
Views
 10
33.0941333333
 20
94.3624
 30
0.0
  0
SEQEND
  8
Views
  0
POLYLINE
  8
Views
 62
0
 70
0
 66
1
 10
0.0
 20
0.0
 30
0.0
  0
VERTEX
  8
Views
 10
31.604
 20
99.9165333333
 30
0.0
  0
VERTEX
  8
Views
 10
31.9744166667
 20
96.9807166667
 30
0.0
  0
VERTEX
  8
Views
 10
33.0941333333
 20
94.3624
 30
0.0
  0
SEQEND
  8
Views
  0
POLYLINE
  8
Views
 62
0
 70
0
 66
1
 10
0.0
 20
0.0
 30
0.0
  0
VERTEX
  8
Views
 10
33.0941333333
 20
94.3624
 30
0.0
  0
VERTEX
  8
Views
 10
34.8657833333
 20
92.178
 30
0.0
  0
VERTEX
  8
Views
 10
37.2089333333
 20
90.5524
 30
0.0
  0
SEQEND
  8
Views
  0
POLYLINE
  8
Views
 62
0
 70
0
 66
1
 10
0.0
 20
0.0
 30
0.0
  0
VERTEX
  8
Views
 10
33.0941333333
 20
94.3624
 30
0.0
  0
VERTEX
  8
Views
 10
34.8657833333
 20
92.178
 30
0.0
  0
VERTEX
  8
Views
 10
37.2089333333
 20
90.5524
 30
0.0
  0
SEQEND
  8
Views
  0
POLYLINE
  8
Views
 62
0
 70
0
 66
1
 10
0.0
 20
0.0
 30
0.0
  0
VERTEX
  8
Views
 10
53.5496
 20
-25.2885333333
 30
0.0
  0
VERTEX
  8
Views
 10
49.3049777778
 20
-25.2885333333
 30
0.0
  0
VERTEX
  8
Views
 10
45.0603555556
 20
-25.2885333333
 30
0.0
  0
VERTEX
  8
Views
 10
40.8157333333
 20
-25.2885333333
 30
0.0
  0
SEQEND
  8
Views
  0
POLYLINE
  8
Views
 62
0
 70
0
 66
1
 10
0.0
 20
0.0
 30
0.0
  0
VERTEX
  8
Views
 10
53.5496
 20
-25.2885333333
 30
0.0
  0
VERTEX
  8
Views
 10
49.3049777778
 20
-25.2885333333
 30
0.0
  0
VERTEX
  8
Views
 10
45.0603555556
 20
-25.2885333333
 30
0.0
  0
VERTEX
  8
Views
 10
40.8157333333
 20
-25.2885333333
 30
0.0
  0
SEQEND
  8
Views
  0
POLYLINE
  8
Views
 62
0
 70
0
 66
1
 10
0.0
 20
0.0
 30
0.0
  0
VERTEX
  8
Views
 10
53.5326666667
 20
-25.2885333333
 30
0.0
  0
VERTEX
  8
Views
 10
53.5496
 20
-25.2885333333
 30
0.0
  0
SEQEND
  8
Views
  0
POLYLINE
  8
Views
 62
0
 70
0
 66
1
 10
0.0
 20
0.0
 30
0.0
  0
VERTEX
  8
Views
 10
40.8157333333
 20
-25.2885333333
 30
0.0
  0
VERTEX
  8
Views
 10
35.6955950617
 20
-26.3158222222
 30
0.0
  0
VERTEX
  8
Views
 10
32.6262716049
 20
-29.3976888889
 30
0.0
  0
VERTEX
  8
Views
 10
31.604
 20
-34.5341333333
 30
0.0
  0
SEQEND
  8
Views
  0
POLYLINE
  8
Views
 62
0
 70
0
 66
1
 10
0.0
 20
0.0
 30
0.0
  0
VERTEX
  8
Views
 10
40.8157333333
 20
-25.2885333333
 30
0.0
  0
VERTEX
  8
Views
 10
35.6955950617
 20
-26.3158222222
 30
0.0
  0
VERTEX
  8
Views
 10
32.6262716049
 20
-29.3976888889
 30
0.0
  0
VERTEX
  8
Views
 10
31.604
 20
-34.5341333333
 30
0.0
  0
SEQEND
  8
Views
  0
POLYLINE
  8
Views
 62
0
 70
0
 66
1
 10
0.0
 20
0.0
 30
0.0
  0
VERTEX
  8
Views
 10
53.5326666667
 20
-29.9282666667
 30
0.0
  0
VERTEX
  8
Views
 10
53.5326666667
 20
-25.2885333333
 30
0.0
  0
SEQEND
  8
Views
  0
POLYLINE
  8
Views
 62
0
 70
0
 66
1
 10
0.0
 20
0.0
 30
0.0
  0
VERTEX
  8
Views
 10
53.5326666667
 20
-29.9282666667
 30
0.0
  0
VERTEX
  8
Views
 10
53.5326666667
 20
-25.2885333333
 30
0.0
  0
SEQEND
  8
Views
  0
POLYLINE
  8
Views
 62
0
 70
0
 66
1
 10
0.0
 20
0.0
 30
0.0
  0
VERTEX
  8
Views
 10
31.604
 20
-34.5341333333
 30
0.0
  0
VERTEX
  8
Views
 10
32.1797333333
 20
-38.9198666667
 30
0.0
  0
SEQEND
  8
Views
  0
POLYLINE
  8
Views
 62
0
 70
0
 66
1
 10
0.0
 20
0.0
 30
0.0
  0
VERTEX
  8
Views
 10
31.604
 20
-34.5341333333
 30
0.0
  0
VERTEX
  8
Views
 10
32.1797333333
 20
-38.9198666667
 30
0.0
  0
SEQEND
  8
Views
  0
POLYLINE
  8
Views
 62
0
 70
0
 66
1
 10
0.0
 20
0.0
 30
0.0
  0
VERTEX
  8
Views
 10
51.8562666667
 20
-31.012
 30
0.0
  0
VERTEX
  8
Views
 10
53.5326666667
 20
-29.9282666667
 30
0.0
  0
SEQEND
  8
Views
  0
POLYLINE
  8
Views
 62
0
 70
0
 66
1
 10
0.0
 20
0.0
 30
0.0
  0
VERTEX
  8
Views
 10
51.8562666667
 20
-31.012
 30
0.0
  0
VERTEX
  8
Views
 10
53.5326666667
 20
-29.9282666667
 30
0.0
  0
SEQEND
  8
Views
  0
POLYLINE
  8
Views
 62
0
 70
0
 66
1
 10
0.0
 20
0.0
 30
0.0
  0
VERTEX
  8
Views
 10
32.1797333333
 20
-38.9198666667
 30
0.0
  0
VERTEX
  8
Views
 10
32.6708
 20
-40.8333333333
 30
0.0
  0
SEQEND
  8
Views
  0
POLYLINE
  8
Views
 62
0
 70
0
 66
1
 10
0.0
 20
0.0
 30
0.0
  0
VERTEX
  8
Views
 10
32.1797333333
 20
-38.9198666667
 30
0.0
  0
VERTEX
  8
Views
 10
32.6708
 20
-40.8333333333
 30
0.0
  0
SEQEND
  8
Views
  0
POLYLINE
  8
Views
 62
0
 70
0
 66
1
 10
0.0
 20
0.0
 30
0.0
  0
VERTEX
  8
Views
 10
51.8562666667
 20
-31.0966666667
 30
0.0
  0
VERTEX
  8
Views
 10
51.8562666667
 20
-31.012
 30
0.0
  0
SEQEND
  8
Views
  0
POLYLINE
  8
Views
 62
0
 70
0
 66
1
 10
0.0
 20
0.0
 30
0.0
  0
VERTEX
  8
Views
 10
51.8562666667
 20
-31.0966666667
 30
0.0
  0
VERTEX
  8
Views
 10
51.8562666667
 20
-31.012
 30
0.0
  0
SEQEND
  8
Views
  0
POLYLINE
  8
Views
 62
0
 70
0
 66
1
 10
0.0
 20
0.0
 30
0.0
  0
VERTEX
  8
Views
 10
32.6708
 20
-40.8333333333
 30
0.0
  0
VERTEX
  8
Views
 10
35.668
 20
-40.8333333333
 30
0.0
  0
SEQEND
  8
Views
  0
POLYLINE
  8
Views
 62
0
 70
0
 66
1
 10
0.0
 20
0.0
 30
0.0
  0
VERTEX
  8
Views
 10
32.6708
 20
-40.8333333333
 30
0.0
  0
VERTEX
  8
Views
 10
35.668
 20
-40.8333333333
 30
0.0
  0
SEQEND
  8
Views
  0
POLYLINE
  8
Views
 62
0
 70
0
 66
1
 10
0.0
 20
0.0
 30
0.0
  0
VERTEX
  8
Views
 10
54.0406666667
 20
-37.0064
 30
0.0
  0
VERTEX
  8
Views
 10
53.7358666667
 20
-34.2928333333
 30
0.0
  0
VERTEX
  8
Views
 10
51.8562666667
 20
-31.0966666667
 30
0.0
  0
SEQEND
  8
Views
  0
POLYLINE
  8
Views
 62
0
 70
0
 66
1
 10
0.0
 20
0.0
 30
0.0
  0
VERTEX
  8
Views
 10
54.0406666667
 20
-37.0064
 30
0.0
  0
VERTEX
  8
Views
 10
53.7358666667
 20
-34.2928333333
 30
0.0
  0
VERTEX
  8
Views
 10
51.8562666667
 20
-31.0966666667
 30
0.0
  0
SEQEND
  8
Views
  0
POLYLINE
  8
Views
 62
0
 70
0
 66
1
 10
0.0
 20
0.0
 30
0.0
  0
VERTEX
  8
Views
 10
35.668
 20
-40.8333333333
 30
0.0
  0
VERTEX
  8
Views
 10
36.9718666667
 20
-39.9866666667
 30
0.0
  0
SEQEND
  8
Views
  0
POLYLINE
  8
Views
 62
0
 70
0
 66
1
 10
0.0
 20
0.0
 30
0.0
  0
VERTEX
  8
Views
 10
35.668
 20
-40.8333333333
 30
0.0
  0
VERTEX
  8
Views
 10
36.9718666667
 20
-39.9866666667
 30
0.0
  0
SEQEND
  8
Views
  0
POLYLINE
  8
Views
 62
0
 70
0
 66
1
 10
0.0
 20
0.0
 30
0.0
  0
VERTEX
  8
Views
 10
52.2626666667
 20
-41.934
 30
0.0
  0
VERTEX
  8
Views
 10
53.5961666667
 20
-39.7877
 30
0.0
  0
VERTEX
  8
Views
 10
54.0406666667
 20
-37.0064
 30
0.0
  0
SEQEND
  8
Views
  0
POLYLINE
  8
Views
 62
0
 70
0
 66
1
 10
0.0
 20
0.0
 30
0.0
  0
VERTEX
  8
Views
 10
52.2626666667
 20
-41.934
 30
0.0
  0
VERTEX
  8
Views
 10
53.5961666667
 20
-39.7877
 30
0.0
  0
VERTEX
  8
Views
 10
54.0406666667
 20
-37.0064
 30
0.0
  0
SEQEND
  8
Views
  0
POLYLINE
  8
Views
 62
0
 70
0
 66
1
 10
0.0
 20
0.0
 30
0.0
  0
VERTEX
  8
Views
 10
36.9718666667
 20
-39.9866666667
 30
0.0
  0
VERTEX
  8
Views
 10
36.1082666667
 20
-35.3977333333
 30
0.0
  0
SEQEND
  8
Views
  0
POLYLINE
  8
Views
 62
0
 70
0
 66
1
 10
0.0
 20
0.0
 30
0.0
  0
VERTEX
  8
Views
 10
36.9718666667
 20
-39.9866666667
 30
0.0
  0
VERTEX
  8
Views
 10
36.1082666667
 20
-35.3977333333
 30
0.0
  0
SEQEND
  8
Views
  0
POLYLINE
  8
Views
 62
0
 70
0
 66
1
 10
0.0
 20
0.0
 30
0.0
  0
VERTEX
  8
Views
 10
47.5044
 20
-43.7628
 30
0.0
  0
VERTEX
  8
Views
 10
50.1819833333
 20
-43.3056
 30
0.0
  0
VERTEX
  8
Views
 10
52.2626666667
 20
-41.934
 30
0.0
  0
SEQEND
  8
Views
  0
POLYLINE
  8
Views
 62
0
 70
0
 66
1
 10
0.0
 20
0.0
 30
0.0
  0
VERTEX
  8
Views
 10
47.5044
 20
-43.7628
 30
0.0
  0
VERTEX
  8
Views
 10
50.1819833333
 20
-43.3056
 30
0.0
  0
VERTEX
  8
Views
 10
52.2626666667
 20
-41.934
 30
0.0
  0
SEQEND
  8
Views
  0
POLYLINE
  8
Views
 62
0
 70
0
 66
1
 10
0.0
 20
0.0
 30
0.0
  0
VERTEX
  8
Views
 10
36.1082666667
 20
-35.3977333333
 30
0.0
  0
VERTEX
  8
Views
 10
36.99515
 20
-32.51695
 30
0.0
  0
VERTEX
  8
Views
 10
39.6473333333
 20
-31.5538666667
 30
0.0
  0
SEQEND
  8
Views
  0
POLYLINE
  8
Views
 62
0
 70
0
 66
1
 10
0.0
 20
0.0
 30
0.0
  0
VERTEX
  8
Views
 10
36.1082666667
 20
-35.3977333333
 30
0.0
  0
VERTEX
  8
Views
 10
36.99515
 20
-32.51695
 30
0.0
  0
VERTEX
  8
Views
 10
39.6473333333
 20
-31.5538666667
 30
0.0
  0
SEQEND
  8
Views
  0
POLYLINE
  8
Views
 62
0
 70
0
 66
1
 10
0.0
 20
0.0
 30
0.0
  0
VERTEX
  8
Views
 10
40.24
 20
-36.3121333333
 30
0.0
  0
VERTEX
  8
Views
 10
41.4874222222
 20
-40.4488839506
 30
0.0
  0
VERTEX
  8
Views
 10
43.9088888889
 20
-42.9336938272
 30
0.0
  0
VERTEX
  8
Views
 10
47.5044
 20
-43.7628
 30
0.0
  0
SEQEND
  8
Views
  0
POLYLINE
  8
Views
 62
0
 70
0
 66
1
 10
0.0
 20
0.0
 30
0.0
  0
VERTEX
  8
Views
 10
40.24
 20
-36.3121333333
 30
0.0
  0
VERTEX
  8
Views
 10
41.4874222222
 20
-40.4488839506
 30
0.0
  0
VERTEX
  8
Views
 10
43.9088888889
 20
-42.9336938272
 30
0.0
  0
VERTEX
  8
Views
 10
47.5044
 20
-43.7628
 30
0.0
  0
SEQEND
  8
Views
  0
POLYLINE
  8
Views
 62
0
 70
0
 66
1
 10
0.0
 20
0.0
 30
0.0
  0
VERTEX
  8
Views
 10
39.6473333333
 20
-31.5538666667
 30
0.0
  0
VERTEX
  8
Views
 10
40.24
 20
-36.3121333333
 30
0.0
  0
SEQEND
  8
Views
  0
POLYLINE
  8
Views
 62
0
 70
0
 66
1
 10
0.0
 20
0.0
 30
0.0
  0
VERTEX
  8
Views
 10
39.6473333333
 20
-31.5538666667
 30
0.0
  0
VERTEX
  8
Views
 10
40.24
 20
-36.3121333333
 30
0.0
  0
SEQEND
  8
Views
  0
POLYLINE
  8
Views
 62
0
 70
0
 66
1
 10
0.0
 20
0.0
 30
0.0
  0
VERTEX
  8
Views
 10
32.1289333333
 20
-7.35613333333
 30
0.0
  0
VERTEX
  8
Views
 10
36.7460888889
 20
-9.21315555556
 30
0.0
  0
VERTEX
  8
Views
 10
41.3632444444
 20
-11.0701777778
 30
0.0
  0
VERTEX
  8
Views
 10
45.9804
 20
-12.9272
 30
0.0
  0
SEQEND
  8
Views
  0
POLYLINE
  8
Views
 62
0
 70
0
 66
1
 10
0.0
 20
0.0
 30
0.0
  0
VERTEX
  8
Views
 10
32.1289333333
 20
-7.35613333333
 30
0.0
  0
VERTEX
  8
Views
 10
36.7460888889
 20
-9.21315555556
 30
0.0
  0
VERTEX
  8
Views
 10
41.3632444444
 20
-11.0701777778
 30
0.0
  0
VERTEX
  8
Views
 10
45.9804
 20
-12.9272
 30
0.0
  0
SEQEND
  8
Views
  0
POLYLINE
  8
Views
 62
0
 70
0
 66
1
 10
0.0
 20
0.0
 30
0.0
  0
VERTEX
  8
Views
 10
32.1289333333
 20
-2.63173333333
 30
0.0
  0
VERTEX
  8
Views
 10
32.1289333333
 20
-7.35613333333
 30
0.0
  0
SEQEND
  8
Views
  0
POLYLINE
  8
Views
 62
0
 70
0
 66
1
 10
0.0
 20
0.0
 30
0.0
  0
VERTEX
  8
Views
 10
32.1289333333
 20
-2.63173333333
 30
0.0
  0
VERTEX
  8
Views
 10
32.1289333333
 20
-7.35613333333
 30
0.0
  0
SEQEND
  8
Views
  0
POLYLINE
  8
Views
 62
0
 70
0
 66
1
 10
0.0
 20
0.0
 30
0.0
  0
VERTEX
  8
Views
 10
45.9804
 20
-12.9272
 30
0.0
  0
VERTEX
  8
Views
 10
45.9804
 20
-13.0965333333
 30
0.0
  0
SEQEND
  8
Views
  0
POLYLINE
  8
Views
 62
0
 70
0
 66
1
 10
0.0
 20
0.0
 30
0.0
  0
VERTEX
  8
Views
 10
45.9804
 20
-12.9272
 30
0.0
  0
VERTEX
  8
Views
 10
45.9804
 20
-13.0965333333
 30
0.0
  0
SEQEND
  8
Views
  0
POLYLINE
  8
Views
 62
0
 70
0
 66
1
 10
0.0
 20
0.0
 30
0.0
  0
VERTEX
  8
Views
 10
35.668
 20
-2.63173333333
 30
0.0
  0
VERTEX
  8
Views
 10
32.1289333333
 20
-2.63173333333
 30
0.0
  0
SEQEND
  8
Views
  0
POLYLINE
  8
Views
 62
0
 70
0
 66
1
 10
0.0
 20
0.0
 30
0.0
  0
VERTEX
  8
Views
 10
35.668
 20
-2.63173333333
 30
0.0
  0
VERTEX
  8
Views
 10
32.1289333333
 20
-2.63173333333
 30
0.0
  0
SEQEND
  8
Views
  0
POLYLINE
  8
Views
 62
0
 70
0
 66
1
 10
0.0
 20
0.0
 30
0.0
  0
VERTEX
  8
Views
 10
45.9804
 20
-13.0965333333
 30
0.0
  0
VERTEX
  8
Views
 10
41.3632444444
 20
-14.9592
 30
0.0
  0
VERTEX
  8
Views
 10
36.7460888889
 20
-16.8218666667
 30
0.0
  0
VERTEX
  8
Views
 10
32.1289333333
 20
-18.6845333333
 30
0.0
  0
SEQEND
  8
Views
  0
POLYLINE
  8
Views
 62
0
 70
0
 66
1
 10
0.0
 20
0.0
 30
0.0
  0
VERTEX
  8
Views
 10
45.9804
 20
-13.0965333333
 30
0.0
  0
VERTEX
  8
Views
 10
41.3632444444
 20
-14.9592
 30
0.0
  0
VERTEX
  8
Views
 10
36.7460888889
 20
-16.8218666667
 30
0.0
  0
VERTEX
  8
Views
 10
32.1289333333
 20
-18.6845333333
 30
0.0
  0
SEQEND
  8
Views
  0
POLYLINE
  8
Views
 62
0
 70
0
 66
1
 10
0.0
 20
0.0
 30
0.0
  0
VERTEX
  8
Views
 10
53.5496
 20
-9.8284
 30
0.0
  0
VERTEX
  8
Views
 10
49.0792
 20
-8.02923333333
 30
0.0
  0
VERTEX
  8
Views
 10
44.6088
 20
-6.23006666667
 30
0.0
  0
VERTEX
  8
Views
 10
40.1384
 20
-4.4309
 30
0.0
  0
VERTEX
  8
Views
 10
35.668
 20
-2.63173333333
 30
0.0
  0
SEQEND
  8
Views
  0
POLYLINE
  8
Views
 62
0
 70
0
 66
1
 10
0.0
 20
0.0
 30
0.0
  0
VERTEX
  8
Views
 10
53.5496
 20
-9.8284
 30
0.0
  0
VERTEX
  8
Views
 10
49.0792
 20
-8.02923333333
 30
0.0
  0
VERTEX
  8
Views
 10
44.6088
 20
-6.23006666667
 30
0.0
  0
VERTEX
  8
Views
 10
40.1384
 20
-4.4309
 30
0.0
  0
VERTEX
  8
Views
 10
35.668
 20
-2.63173333333
 30
0.0
  0
SEQEND
  8
Views
  0
POLYLINE
  8
Views
 62
0
 70
0
 66
1
 10
0.0
 20
0.0
 30
0.0
  0
VERTEX
  8
Views
 10
32.1289333333
 20
-18.6845333333
 30
0.0
  0
VERTEX
  8
Views
 10
32.1289333333
 20
-23.392
 30
0.0
  0
SEQEND
  8
Views
  0
POLYLINE
  8
Views
 62
0
 70
0
 66
1
 10
0.0
 20
0.0
 30
0.0
  0
VERTEX
  8
Views
 10
32.1289333333
 20
-18.6845333333
 30
0.0
  0
VERTEX
  8
Views
 10
32.1289333333
 20
-23.392
 30
0.0
  0
SEQEND
  8
Views
  0
POLYLINE
  8
Views
 62
0
 70
0
 66
1
 10
0.0
 20
0.0
 30
0.0
  0
VERTEX
  8
Views
 10
53.5496
 20
-16.1953333333
 30
0.0
  0
VERTEX
  8
Views
 10
53.5496
 20
-13.0118666667
 30
0.0
  0
VERTEX
  8
Views
 10
53.5496
 20
-9.8284
 30
0.0
  0
SEQEND
  8
Views
  0
POLYLINE
  8
Views
 62
0
 70
0
 66
1
 10
0.0
 20
0.0
 30
0.0
  0
VERTEX
  8
Views
 10
53.5496
 20
-16.1953333333
 30
0.0
  0
VERTEX
  8
Views
 10
53.5496
 20
-13.0118666667
 30
0.0
  0
VERTEX
  8
Views
 10
53.5496
 20
-9.8284
 30
0.0
  0
SEQEND
  8
Views
  0
POLYLINE
  8
Views
 62
0
 70
0
 66
1
 10
0.0
 20
0.0
 30
0.0
  0
VERTEX
  8
Views
 10
32.1289333333
 20
-23.392
 30
0.0
  0
VERTEX
  8
Views
 10
35.668
 20
-23.392
 30
0.0
  0
SEQEND
  8
Views
  0
POLYLINE
  8
Views
 62
0
 70
0
 66
1
 10
0.0
 20
0.0
 30
0.0
  0
VERTEX
  8
Views
 10
32.1289333333
 20
-23.392
 30
0.0
  0
VERTEX
  8
Views
 10
35.668
 20
-23.392
 30
0.0
  0
SEQEND
  8
Views
  0
POLYLINE
  8
Views
 62
0
 70
0
 66
1
 10
0.0
 20
0.0
 30
0.0
  0
VERTEX
  8
Views
 10
35.668
 20
-23.392
 30
0.0
  0
VERTEX
  8
Views
 10
40.1384
 20
-21.5928333333
 30
0.0
  0
VERTEX
  8
Views
 10
44.6088
 20
-19.7936666667
 30
0.0
  0
VERTEX
  8
Views
 10
49.0792
 20
-17.9945
 30
0.0
  0
VERTEX
  8
Views
 10
53.5496
 20
-16.1953333333
 30
0.0
  0
SEQEND
  8
Views
  0
POLYLINE
  8
Views
 62
0
 70
0
 66
1
 10
0.0
 20
0.0
 30
0.0
  0
VERTEX
  8
Views
 10
35.668
 20
-23.392
 30
0.0
  0
VERTEX
  8
Views
 10
40.1384
 20
-21.5928333333
 30
0.0
  0
VERTEX
  8
Views
 10
44.6088
 20
-19.7936666667
 30
0.0
  0
VERTEX
  8
Views
 10
49.0792
 20
-17.9945
 30
0.0
  0
VERTEX
  8
Views
 10
53.5496
 20
-16.1953333333
 30
0.0
  0
SEQEND
  8
Views
  0
POLYLINE
  8
Views
 62
0
 70
0
 66
1
 10
0.0
 20
0.0
 30
0.0
  0
VERTEX
  8
Views
 10
42.5429333333
 20
64.4581333333
 30
0.0
  0
VERTEX
  8
Views
 10
47.3033166667
 20
63.6707333333
 30
0.0
  0
VERTEX
  8
Views
 10
50.9588
 20
61.3085333333
 30
0.0
  0
SEQEND
  8
Views
  0
POLYLINE
  8
Views
 62
0
 70
0
 66
1
 10
0.0
 20
0.0
 30
0.0
  0
VERTEX
  8
Views
 10
42.5429333333
 20
64.4581333333
 30
0.0
  0
VERTEX
  8
Views
 10
47.3033166667
 20
63.6707333333
 30
0.0
  0
VERTEX
  8
Views
 10
50.9588
 20
61.3085333333
 30
0.0
  0
SEQEND
  8
Views
  0
POLYLINE
  8
Views
 62
0
 70
0
 66
1
 10
0.0
 20
0.0
 30
0.0
  0
VERTEX
  8
Views
 10
34.5842666667
 20
61.3932
 30
0.0
  0
VERTEX
  8
Views
 10
38.06195
 20
63.6940166667
 30
0.0
  0
VERTEX
  8
Views
 10
42.5429333333
 20
64.4581333333
 30
0.0
  0
SEQEND
  8
Views
  0
POLYLINE
  8
Views
 62
0
 70
0
 66
1
 10
0.0
 20
0.0
 30
0.0
  0
VERTEX
  8
Views
 10
34.5842666667
 20
61.3932
 30
0.0
  0
VERTEX
  8
Views
 10
38.06195
 20
63.6940166667
 30
0.0
  0
VERTEX
  8
Views
 10
42.5429333333
 20
64.4581333333
 30
0.0
  0
SEQEND
  8
Views
  0
POLYLINE
  8
Views
 62
0
 70
0
 66
1
 10
0.0
 20
0.0
 30
0.0
  0
VERTEX
  8
Views
 10
50.9588
 20
61.3085333333
 30
0.0
  0
VERTEX
  8
Views
 10
53.2829
 20
57.5980166667
 30
0.0
  0
VERTEX
  8
Views
 10
54.0576
 20
52.7572
 30
0.0
  0
SEQEND
  8
Views
  0
POLYLINE
  8
Views
 62
0
 70
0
 66
1
 10
0.0
 20
0.0
 30
0.0
  0
VERTEX
  8
Views
 10
50.9588
 20
61.3085333333
 30
0.0
  0
VERTEX
  8
Views
 10
53.2829
 20
57.5980166667
 30
0.0
  0
VERTEX
  8
Views
 10
54.0576
 20
52.7572
 30
0.0
  0
SEQEND
  8
Views
  0
POLYLINE
  8
Views
 62
0
 70
0
 66
1
 10
0.0
 20
0.0
 30
0.0
  0
VERTEX
  8
Views
 10
31.604
 20
53.062
 30
0.0
  0
VERTEX
  8
Views
 10
32.3511833333
 20
57.7864
 30
0.0
  0
VERTEX
  8
Views
 10
34.5842666667
 20
61.3932
 30
0.0
  0
SEQEND
  8
Views
  0
POLYLINE
  8
Views
 62
0
 70
0
 66
1
 10
0.0
 20
0.0
 30
0.0
  0
VERTEX
  8
Views
 10
31.604
 20
53.062
 30
0.0
  0
VERTEX
  8
Views
 10
32.3511833333
 20
57.7864
 30
0.0
  0
VERTEX
  8
Views
 10
34.5842666667
 20
61.3932
 30
0.0
  0
SEQEND
  8
Views
  0
POLYLINE
  8
Views
 62
0
 70
0
 66
1
 10
0.0
 20
0.0
 30
0.0
  0
VERTEX
  8
Views
 10
54.0576
 20
52.7572
 30
0.0
  0
VERTEX
  8
Views
 10
53.3188833333
 20
48.0201
 30
0.0
  0
VERTEX
  8
Views
 10
51.0942666667
 20
44.3752
 30
0.0
  0
SEQEND
  8
Views
  0
POLYLINE
  8
Views
 62
0
 70
0
 66
1
 10
0.0
 20
0.0
 30
0.0
  0
VERTEX
  8
Views
 10
54.0576
 20
52.7572
 30
0.0
  0
VERTEX
  8
Views
 10
53.3188833333
 20
48.0201
 30
0.0
  0
VERTEX
  8
Views
 10
51.0942666667
 20
44.3752
 30
0.0
  0
SEQEND
  8
Views
  0
POLYLINE
  8
Views
 62
0
 70
0
 66
1
 10
0.0
 20
0.0
 30
0.0
  0
VERTEX
  8
Views
 10
34.6012
 20
44.4598666667
 30
0.0
  0
VERTEX
  8
Views
 10
32.3533
 20
48.1957833333
 30
0.0
  0
VERTEX
  8
Views
 10
31.604
 20
53.062
 30
0.0
  0
SEQEND
  8
Views
  0
POLYLINE
  8
Views
 62
0
 70
0
 66
1
 10
0.0
 20
0.0
 30
0.0
  0
VERTEX
  8
Views
 10
34.6012
 20
44.4598666667
 30
0.0
  0
VERTEX
  8
Views
 10
32.3533
 20
48.1957833333
 30
0.0
  0
VERTEX
  8
Views
 10
31.604
 20
53.062
 30
0.0
  0
SEQEND
  8
Views
  0
POLYLINE
  8
Views
 62
0
 70
0
 66
1
 10
0.0
 20
0.0
 30
0.0
  0
VERTEX
  8
Views
 10
51.0942666667
 20
44.3752
 30
0.0
  0
VERTEX
  8
Views
 10
47.5636666667
 20
42.0511
 30
0.0
  0
VERTEX
  8
Views
 10
42.9154666667
 20
41.2764
 30
0.0
  0
SEQEND
  8
Views
  0
POLYLINE
  8
Views
 62
0
 70
0
 66
1
 10
0.0
 20
0.0
 30
0.0
  0
VERTEX
  8
Views
 10
51.0942666667
 20
44.3752
 30
0.0
  0
VERTEX
  8
Views
 10
47.5636666667
 20
42.0511
 30
0.0
  0
VERTEX
  8
Views
 10
42.9154666667
 20
41.2764
 30
0.0
  0
SEQEND
  8
Views
  0
POLYLINE
  8
Views
 62
0
 70
0
 66
1
 10
0.0
 20
0.0
 30
0.0
  0
VERTEX
  8
Views
 10
42.9154666667
 20
41.2764
 30
0.0
  0
VERTEX
  8
Views
 10
38.1804833333
 20
42.0743833333
 30
0.0
  0
VERTEX
  8
Views
 10
34.6012
 20
44.4598666667
 30
0.0
  0
SEQEND
  8
Views
  0
POLYLINE
  8
Views
 62
0
 70
0
 66
1
 10
0.0
 20
0.0
 30
0.0
  0
VERTEX
  8
Views
 10
42.9154666667
 20
41.2764
 30
0.0
  0
VERTEX
  8
Views
 10
38.1804833333
 20
42.0743833333
 30
0.0
  0
VERTEX
  8
Views
 10
34.6012
 20
44.4598666667
 30
0.0
  0
SEQEND
  8
Views
  0
POLYLINE
  8
Views
 62
0
 70
0
 66
1
 10
0.0
 20
0.0
 30
0.0
  0
VERTEX
  8
Views
 10
42.6614666667
 20
57.7356
 30
0.0
  0
VERTEX
  8
Views
 10
38.1572
 20
56.5396833333
 30
0.0
  0
VERTEX
  8
Views
 10
36.6501333333
 20
52.9434666667
 30
0.0
  0
SEQEND
  8
Views
  0
POLYLINE
  8
Views
 62
0
 70
0
 66
1
 10
0.0
 20
0.0
 30
0.0
  0
VERTEX
  8
Views
 10
42.6614666667
 20
57.7356
 30
0.0
  0
VERTEX
  8
Views
 10
38.1572
 20
56.5396833333
 30
0.0
  0
VERTEX
  8
Views
 10
36.6501333333
 20
52.9434666667
 30
0.0
  0
SEQEND
  8
Views
  0
POLYLINE
  8
Views
 62
0
 70
0
 66
1
 10
0.0
 20
0.0
 30
0.0
  0
VERTEX
  8
Views
 10
48.9776
 20
52.9773333333
 30
0.0
  0
VERTEX
  8
Views
 10
47.4133833333
 20
56.5439166667
 30
0.0
  0
VERTEX
  8
Views
 10
42.6614666667
 20
57.7356
 30
0.0
  0
SEQEND
  8
Views
  0
POLYLINE
  8
Views
 62
0
 70
0
 66
1
 10
0.0
 20
0.0
 30
0.0
  0
VERTEX
  8
Views
 10
48.9776
 20
52.9773333333
 30
0.0
  0
VERTEX
  8
Views
 10
47.4133833333
 20
56.5439166667
 30
0.0
  0
VERTEX
  8
Views
 10
42.6614666667
 20
57.7356
 30
0.0
  0
SEQEND
  8
Views
  0
POLYLINE
  8
Views
 62
0
 70
0
 66
1
 10
0.0
 20
0.0
 30
0.0
  0
VERTEX
  8
Views
 10
36.6501333333
 20
52.9434666667
 30
0.0
  0
VERTEX
  8
Views
 10
38.2588
 20
49.3028
 30
0.0
  0
SEQEND
  8
Views
  0
POLYLINE
  8
Views
 62
0
 70
0
 66
1
 10
0.0
 20
0.0
 30
0.0
  0
VERTEX
  8
Views
 10
36.6501333333
 20
52.9434666667
 30
0.0
  0
VERTEX
  8
Views
 10
38.2588
 20
49.3028
 30
0.0
  0
SEQEND
  8
Views
  0
POLYLINE
  8
Views
 62
0
 70
0
 66
1
 10
0.0
 20
0.0
 30
0.0
  0
VERTEX
  8
Views
 10
42.8138666667
 20
47.9989333333
 30
0.0
  0
VERTEX
  8
Views
 10
47.4387833333
 20
49.2435333333
 30
0.0
  0
VERTEX
  8
Views
 10
48.9776
 20
52.9773333333
 30
0.0
  0
SEQEND
  8
Views
  0
POLYLINE
  8
Views
 62
0
 70
0
 66
1
 10
0.0
 20
0.0
 30
0.0
  0
VERTEX
  8
Views
 10
42.8138666667
 20
47.9989333333
 30
0.0
  0
VERTEX
  8
Views
 10
47.4387833333
 20
49.2435333333
 30
0.0
  0
VERTEX
  8
Views
 10
48.9776
 20
52.9773333333
 30
0.0
  0
SEQEND
  8
Views
  0
POLYLINE
  8
Views
 62
0
 70
0
 66
1
 10
0.0
 20
0.0
 30
0.0
  0
VERTEX
  8
Views
 10
38.2588
 20
49.3028
 30
0.0
  0
VERTEX
  8
Views
 10
42.8138666667
 20
47.9989333333
 30
0.0
  0
SEQEND
  8
Views
  0
POLYLINE
  8
Views
 62
0
 70
0
 66
1
 10
0.0
 20
0.0
 30
0.0
  0
VERTEX
  8
Views
 10
38.2588
 20
49.3028
 30
0.0
  0
VERTEX
  8
Views
 10
42.8138666667
 20
47.9989333333
 30
0.0
  0
SEQEND
  8
Views
  0
POLYLINE
  8
Views
 62
0
 70
0
 66
1
 10
0.0
 20
0.0
 30
0.0
  0
VERTEX
  8
Views
 10
48.2325333333
 20
-32.1465333333
 30
0.0
  0
VERTEX
  8
Views
 10
49.5194666667
 20
-35.1945333333
 30
0.0
  0
SEQEND
  8
Views
  0
POLYLINE
  8
Views
 62
0
 70
0
 66
1
 10
0.0
 20
0.0
 30
0.0
  0
VERTEX
  8
Views
 10
48.2325333333
 20
-32.1465333333
 30
0.0
  0
VERTEX
  8
Views
 10
49.5194666667
 20
-35.1945333333
 30
0.0
  0
SEQEND
  8
Views
  0
POLYLINE
  8
Views
 62
0
 70
0
 66
1
 10
0.0
 20
0.0
 30
0.0
  0
VERTEX
  8
Views
 10
44.9474666667
 20
-30.9442666667
 30
0.0
  0
VERTEX
  8
Views
 10
48.2325333333
 20
-32.1465333333
 30
0.0
  0
SEQEND
  8
Views
  0
POLYLINE
  8
Views
 62
0
 70
0
 66
1
 10
0.0
 20
0.0
 30
0.0
  0
VERTEX
  8
Views
 10
44.9474666667
 20
-30.9442666667
 30
0.0
  0
VERTEX
  8
Views
 10
48.2325333333
 20
-32.1465333333
 30
0.0
  0
SEQEND
  8
Views
  0
POLYLINE
  8
Views
 62
0
 70
0
 66
1
 10
0.0
 20
0.0
 30
0.0
  0
VERTEX
  8
Views
 10
49.5194666667
 20
-35.1945333333
 30
0.0
  0
VERTEX
  8
Views
 10
48.7913333333
 20
-37.362
 30
0.0
  0
SEQEND
  8
Views
  0
POLYLINE
  8
Views
 62
0
 70
0
 66
1
 10
0.0
 20
0.0
 30
0.0
  0
VERTEX
  8
Views
 10
49.5194666667
 20
-35.1945333333
 30
0.0
  0
VERTEX
  8
Views
 10
48.7913333333
 20
-37.362
 30
0.0
  0
SEQEND
  8
Views
  0
POLYLINE
  8
Views
 62
0
 70
0
 66
1
 10
0.0
 20
0.0
 30
0.0
  0
VERTEX
  8
Views
 10
43.4912
 20
-30.9442666667
 30
0.0
  0
VERTEX
  8
Views
 10
44.9474666667
 20
-30.9442666667
 30
0.0
  0
SEQEND
  8
Views
  0
POLYLINE
  8
Views
 62
0
 70
0
 66
1
 10
0.0
 20
0.0
 30
0.0
  0
VERTEX
  8
Views
 10
43.4912
 20
-30.9442666667
 30
0.0
  0
VERTEX
  8
Views
 10
44.9474666667
 20
-30.9442666667
 30
0.0
  0
SEQEND
  8
Views
  0
POLYLINE
  8
Views
 62
0
 70
0
 66
1
 10
0.0
 20
0.0
 30
0.0
  0
VERTEX
  8
Views
 10
48.7913333333
 20
-37.362
 30
0.0
  0
VERTEX
  8
Views
 10
46.9286666667
 20
-38.124
 30
0.0
  0
SEQEND
  8
Views
  0
POLYLINE
  8
Views
 62
0
 70
0
 66
1
 10
0.0
 20
0.0
 30
0.0
  0
VERTEX
  8
Views
 10
48.7913333333
 20
-37.362
 30
0.0
  0
VERTEX
  8
Views
 10
46.9286666667
 20
-38.124
 30
0.0
  0
SEQEND
  8
Views
  0
POLYLINE
  8
Views
 62
0
 70
0
 66
1
 10
0.0
 20
0.0
 30
0.0
  0
VERTEX
  8
Views
 10
43.9992
 20
-34.8728
 30
0.0
  0
VERTEX
  8
Views
 10
43.4912
 20
-30.9442666667
 30
0.0
  0
SEQEND
  8
Views
  0
POLYLINE
  8
Views
 62
0
 70
0
 66
1
 10
0.0
 20
0.0
 30
0.0
  0
VERTEX
  8
Views
 10
43.9992
 20
-34.8728
 30
0.0
  0
VERTEX
  8
Views
 10
43.4912
 20
-30.9442666667
 30
0.0
  0
SEQEND
  8
Views
  0
POLYLINE
  8
Views
 62
0
 70
0
 66
1
 10
0.0
 20
0.0
 30
0.0
  0
VERTEX
  8
Views
 10
46.9286666667
 20
-38.124
 30
0.0
  0
VERTEX
  8
Views
 10
43.9992
 20
-34.8728
 30
0.0
  0
SEQEND
  8
Views
  0
POLYLINE
  8
Views
 62
0
 70
0
 66
1
 10
0.0
 20
0.0
 30
0.0
  0
VERTEX
  8
Views
 10
46.9286666667
 20
-38.124
 30
0.0
  0
VERTEX
  8
Views
 10
43.9992
 20
-34.8728
 30
0.0
  0
SEQEND
  8
Views
  0
POLYLINE
  8
Views
 62
0
 70
0
 66
1
 10
0.0
 20
0.0
 30
0.0
  0
VERTEX
  8
Views
 10
53.5496
 20
16.0965333333
 30
0.0
  0
VERTEX
  8
Views
 10
49.3049777778
 20
16.0965333333
 30
0.0
  0
VERTEX
  8
Views
 10
45.0603555556
 20
16.0965333333
 30
0.0
  0
VERTEX
  8
Views
 10
40.8157333333
 20
16.0965333333
 30
0.0
  0
SEQEND
  8
Views
  0
POLYLINE
  8
Views
 62
0
 70
0
 66
1
 10
0.0
 20
0.0
 30
0.0
  0
VERTEX
  8
Views
 10
53.5496
 20
16.0965333333
 30
0.0
  0
VERTEX
  8
Views
 10
49.3049777778
 20
16.0965333333
 30
0.0
  0
VERTEX
  8
Views
 10
45.0603555556
 20
16.0965333333
 30
0.0
  0
VERTEX
  8
Views
 10
40.8157333333
 20
16.0965333333
 30
0.0
  0
SEQEND
  8
Views
  0
POLYLINE
  8
Views
 62
0
 70
0
 66
1
 10
0.0
 20
0.0
 30
0.0
  0
VERTEX
  8
Views
 10
53.5326666667
 20
16.0965333333
 30
0.0
  0
VERTEX
  8
Views
 10
53.5496
 20
16.0965333333
 30
0.0
  0
SEQEND
  8
Views
  0
POLYLINE
  8
Views
 62
0
 70
0
 66
1
 10
0.0
 20
0.0
 30
0.0
  0
VERTEX
  8
Views
 10
40.8157333333
 20
16.0965333333
 30
0.0
  0
VERTEX
  8
Views
 10
35.6955950617
 20
15.0692444444
 30
0.0
  0
VERTEX
  8
Views
 10
32.6262716049
 20
11.9873777778
 30
0.0
  0
VERTEX
  8
Views
 10
31.604
 20
6.85093333333
 30
0.0
  0
SEQEND
  8
Views
  0
POLYLINE
  8
Views
 62
0
 70
0
 66
1
 10
0.0
 20
0.0
 30
0.0
  0
VERTEX
  8
Views
 10
40.8157333333
 20
16.0965333333
 30
0.0
  0
VERTEX
  8
Views
 10
35.6955950617
 20
15.0692444444
 30
0.0
  0
VERTEX
  8
Views
 10
32.6262716049
 20
11.9873777778
 30
0.0
  0
VERTEX
  8
Views
 10
31.604
 20
6.85093333333
 30
0.0
  0
SEQEND
  8
Views
  0
POLYLINE
  8
Views
 62
0
 70
0
 66
1
 10
0.0
 20
0.0
 30
0.0
  0
VERTEX
  8
Views
 10
53.5326666667
 20
11.4568
 30
0.0
  0
VERTEX
  8
Views
 10
53.5326666667
 20
16.0965333333
 30
0.0
  0
SEQEND
  8
Views
  0
POLYLINE
  8
Views
 62
0
 70
0
 66
1
 10
0.0
 20
0.0
 30
0.0
  0
VERTEX
  8
Views
 10
53.5326666667
 20
11.4568
 30
0.0
  0
VERTEX
  8
Views
 10
53.5326666667
 20
16.0965333333
 30
0.0
  0
SEQEND
  8
Views
  0
POLYLINE
  8
Views
 62
0
 70
0
 66
1
 10
0.0
 20
0.0
 30
0.0
  0
VERTEX
  8
Views
 10
31.604
 20
6.85093333333
 30
0.0
  0
VERTEX
  8
Views
 10
32.1797333333
 20
2.4652
 30
0.0
  0
SEQEND
  8
Views
  0
POLYLINE
  8
Views
 62
0
 70
0
 66
1
 10
0.0
 20
0.0
 30
0.0
  0
VERTEX
  8
Views
 10
31.604
 20
6.85093333333
 30
0.0
  0
VERTEX
  8
Views
 10
32.1797333333
 20
2.4652
 30
0.0
  0
SEQEND
  8
Views
  0
POLYLINE
  8
Views
 62
0
 70
0
 66
1
 10
0.0
 20
0.0
 30
0.0
  0
VERTEX
  8
Views
 10
51.8562666667
 20
10.3730666667
 30
0.0
  0
VERTEX
  8
Views
 10
53.5326666667
 20
11.4568
 30
0.0
  0
SEQEND
  8
Views
  0
POLYLINE
  8
Views
 62
0
 70
0
 66
1
 10
0.0
 20
0.0
 30
0.0
  0
VERTEX
  8
Views
 10
51.8562666667
 20
10.3730666667
 30
0.0
  0
VERTEX
  8
Views
 10
53.5326666667
 20
11.4568
 30
0.0
  0
SEQEND
  8
Views
  0
POLYLINE
  8
Views
 62
0
 70
0
 66
1
 10
0.0
 20
0.0
 30
0.0
  0
VERTEX
  8
Views
 10
32.1797333333
 20
2.4652
 30
0.0
  0
VERTEX
  8
Views
 10
32.6708
 20
0.551733333333
 30
0.0
  0
SEQEND
  8
Views
  0
POLYLINE
  8
Views
 62
0
 70
0
 66
1
 10
0.0
 20
0.0
 30
0.0
  0
VERTEX
  8
Views
 10
32.1797333333
 20
2.4652
 30
0.0
  0
VERTEX
  8
Views
 10
32.6708
 20
0.551733333333
 30
0.0
  0
SEQEND
  8
Views
  0
POLYLINE
  8
Views
 62
0
 70
0
 66
1
 10
0.0
 20
0.0
 30
0.0
  0
VERTEX
  8
Views
 10
51.8562666667
 20
10.2884
 30
0.0
  0
VERTEX
  8
Views
 10
51.8562666667
 20
10.3730666667
 30
0.0
  0
SEQEND
  8
Views
  0
POLYLINE
  8
Views
 62
0
 70
0
 66
1
 10
0.0
 20
0.0
 30
0.0
  0
VERTEX
  8
Views
 10
51.8562666667
 20
10.2884
 30
0.0
  0
VERTEX
  8
Views
 10
51.8562666667
 20
10.3730666667
 30
0.0
  0
SEQEND
  8
Views
  0
POLYLINE
  8
Views
 62
0
 70
0
 66
1
 10
0.0
 20
0.0
 30
0.0
  0
VERTEX
  8
Views
 10
32.6708
 20
0.551733333333
 30
0.0
  0
VERTEX
  8
Views
 10
35.668
 20
0.551733333333
 30
0.0
  0
SEQEND
  8
Views
  0
POLYLINE
  8
Views
 62
0
 70
0
 66
1
 10
0.0
 20
0.0
 30
0.0
  0
VERTEX
  8
Views
 10
32.6708
 20
0.551733333333
 30
0.0
  0
VERTEX
  8
Views
 10
35.668
 20
0.551733333333
 30
0.0
  0
SEQEND
  8
Views
  0
POLYLINE
  8
Views
 62
0
 70
0
 66
1
 10
0.0
 20
0.0
 30
0.0
  0
VERTEX
  8
Views
 10
54.0406666667
 20
4.37866666667
 30
0.0
  0
VERTEX
  8
Views
 10
53.7358666667
 20
7.09223333333
 30
0.0
  0
VERTEX
  8
Views
 10
51.8562666667
 20
10.2884
 30
0.0
  0
SEQEND
  8
Views
  0
POLYLINE
  8
Views
 62
0
 70
0
 66
1
 10
0.0
 20
0.0
 30
0.0
  0
VERTEX
  8
Views
 10
54.0406666667
 20
4.37866666667
 30
0.0
  0
VERTEX
  8
Views
 10
53.7358666667
 20
7.09223333333
 30
0.0
  0
VERTEX
  8
Views
 10
51.8562666667
 20
10.2884
 30
0.0
  0
SEQEND
  8
Views
  0
POLYLINE
  8
Views
 62
0
 70
0
 66
1
 10
0.0
 20
0.0
 30
0.0
  0
VERTEX
  8
Views
 10
35.668
 20
0.551733333333
 30
0.0
  0
VERTEX
  8
Views
 10
36.9718666667
 20
1.3984
 30
0.0
  0
SEQEND
  8
Views
  0
POLYLINE
  8
Views
 62
0
 70
0
 66
1
 10
0.0
 20
0.0
 30
0.0
  0
VERTEX
  8
Views
 10
35.668
 20
0.551733333333
 30
0.0
  0
VERTEX
  8
Views
 10
36.9718666667
 20
1.3984
 30
0.0
  0
SEQEND
  8
Views
  0
POLYLINE
  8
Views
 62
0
 70
0
 66
1
 10
0.0
 20
0.0
 30
0.0
  0
VERTEX
  8
Views
 10
52.2626666667
 20
-0.548933333333
 30
0.0
  0
VERTEX
  8
Views
 10
53.5961666667
 20
1.59736666667
 30
0.0
  0
VERTEX
  8
Views
 10
54.0406666667
 20
4.37866666667
 30
0.0
  0
SEQEND
  8
Views
  0
POLYLINE
  8
Views
 62
0
 70
0
 66
1
 10
0.0
 20
0.0
 30
0.0
  0
VERTEX
  8
Views
 10
52.2626666667
 20
-0.548933333333
 30
0.0
  0
VERTEX
  8
Views
 10
53.5961666667
 20
1.59736666667
 30
0.0
  0
VERTEX
  8
Views
 10
54.0406666667
 20
4.37866666667
 30
0.0
  0
SEQEND
  8
Views
  0
POLYLINE
  8
Views
 62
0
 70
0
 66
1
 10
0.0
 20
0.0
 30
0.0
  0
VERTEX
  8
Views
 10
36.9718666667
 20
1.3984
 30
0.0
  0
VERTEX
  8
Views
 10
36.1082666667
 20
5.98733333333
 30
0.0
  0
SEQEND
  8
Views
  0
POLYLINE
  8
Views
 62
0
 70
0
 66
1
 10
0.0
 20
0.0
 30
0.0
  0
VERTEX
  8
Views
 10
36.9718666667
 20
1.3984
 30
0.0
  0
VERTEX
  8
Views
 10
36.1082666667
 20
5.98733333333
 30
0.0
  0
SEQEND
  8
Views
  0
POLYLINE
  8
Views
 62
0
 70
0
 66
1
 10
0.0
 20
0.0
 30
0.0
  0
VERTEX
  8
Views
 10
47.5044
 20
-2.37773333333
 30
0.0
  0
VERTEX
  8
Views
 10
50.1819833333
 20
-1.92053333333
 30
0.0
  0
VERTEX
  8
Views
 10
52.2626666667
 20
-0.548933333333
 30
0.0
  0
SEQEND
  8
Views
  0
POLYLINE
  8
Views
 62
0
 70
0
 66
1
 10
0.0
 20
0.0
 30
0.0
  0
VERTEX
  8
Views
 10
47.5044
 20
-2.37773333333
 30
0.0
  0
VERTEX
  8
Views
 10
50.1819833333
 20
-1.92053333333
 30
0.0
  0
VERTEX
  8
Views
 10
52.2626666667
 20
-0.548933333333
 30
0.0
  0
SEQEND
  8
Views
  0
POLYLINE
  8
Views
 62
0
 70
0
 66
1
 10
0.0
 20
0.0
 30
0.0
  0
VERTEX
  8
Views
 10
36.1082666667
 20
5.98733333333
 30
0.0
  0
VERTEX
  8
Views
 10
36.99515
 20
8.86811666667
 30
0.0
  0
VERTEX
  8
Views
 10
39.6473333333
 20
9.8312
 30
0.0
  0
SEQEND
  8
Views
  0
POLYLINE
  8
Views
 62
0
 70
0
 66
1
 10
0.0
 20
0.0
 30
0.0
  0
VERTEX
  8
Views
 10
36.1082666667
 20
5.98733333333
 30
0.0
  0
VERTEX
  8
Views
 10
36.99515
 20
8.86811666667
 30
0.0
  0
VERTEX
  8
Views
 10
39.6473333333
 20
9.8312
 30
0.0
  0
SEQEND
  8
Views
  0
POLYLINE
  8
Views
 62
0
 70
0
 66
1
 10
0.0
 20
0.0
 30
0.0
  0
VERTEX
  8
Views
 10
40.24
 20
5.07293333333
 30
0.0
  0
VERTEX
  8
Views
 10
41.4874222222
 20
0.936182716049
 30
0.0
  0
VERTEX
  8
Views
 10
43.9088888889
 20
-1.54862716049
 30
0.0
  0
VERTEX
  8
Views
 10
47.5044
 20
-2.37773333333
 30
0.0
  0
SEQEND
  8
Views
  0
POLYLINE
  8
Views
 62
0
 70
0
 66
1
 10
0.0
 20
0.0
 30
0.0
  0
VERTEX
  8
Views
 10
40.24
 20
5.07293333333
 30
0.0
  0
VERTEX
  8
Views
 10
41.4874222222
 20
0.936182716049
 30
0.0
  0
VERTEX
  8
Views
 10
43.9088888889
 20
-1.54862716049
 30
0.0
  0
VERTEX
  8
Views
 10
47.5044
 20
-2.37773333333
 30
0.0
  0
SEQEND
  8
Views
  0
POLYLINE
  8
Views
 62
0
 70
0
 66
1
 10
0.0
 20
0.0
 30
0.0
  0
VERTEX
  8
Views
 10
39.6473333333
 20
9.8312
 30
0.0
  0
VERTEX
  8
Views
 10
40.24
 20
5.07293333333
 30
0.0
  0
SEQEND
  8
Views
  0
POLYLINE
  8
Views
 62
0
 70
0
 66
1
 10
0.0
 20
0.0
 30
0.0
  0
VERTEX
  8
Views
 10
39.6473333333
 20
9.8312
 30
0.0
  0
VERTEX
  8
Views
 10
40.24
 20
5.07293333333
 30
0.0
  0
SEQEND
  8
Views
  0
ENDBLK
  0
BLOCK
  8
Views
  2
SHAPE2DVIEW007
 70
0
 10
0.0
 20
0.0
 30
0.0
  3
SHAPE2DVIEW007
  0
POLYLINE
  8
Views
 62
0
 70
0
 66
1
 10
0.0
 20
0.0
 30
0.0
  0
VERTEX
  8
Views
 10
27.2389766377
 20
-104.912215339
 30
0.0
  0
VERTEX
  8
Views
 10
27.2392034146
 20
-104.913154133
 30
0.0
  0
SEQEND
  8
Views
  0
POLYLINE
  8
Views
 62
0
 70
0
 66
1
 10
0.0
 20
0.0
 30
0.0
  0
VERTEX
  8
Views
 10
27.2392034146
 20
-104.913154133
 30
0.0
  0
VERTEX
  8
Views
 10
30.6082311404
 20
-106.8901101
 30
0.0
  0
VERTEX
  8
Views
 10
33.9772588662
 20
-108.867066066
 30
0.0
  0
VERTEX
  8
Views
 10
37.3462865919
 20
-110.844022033
 30
0.0
  0
VERTEX
  8
Views
 10
40.7153143177
 20
-112.820977999
 30
0.0
  0
SEQEND
  8
Views
  0
POLYLINE
  8
Views
 62
0
 70
0
 66
1
 10
0.0
 20
0.0
 30
0.0
  0
VERTEX
  8
Views
 10
40.7153143177
 20
-112.820977999
 30
0.0
  0
VERTEX
  8
Views
 10
44.4186343594
 20
-114.994097738
 30
0.0
  0
VERTEX
  8
Views
 10
48.1219544012
 20
-117.167217477
 30
0.0
  0
VERTEX
  8
Views
 10
51.825274443
 20
-119.340337216
 30
0.0
  0
VERTEX
  8
Views
 10
55.5285944847
 20
-121.513456955
 30
0.0
  0
VERTEX
  8
Views
 10
59.2319145265
 20
-123.686576694
 30
0.0
  0
SEQEND
  8
Views
  0
POLYLINE
  8
Views
 62
0
 70
0
 66
1
 10
0.0
 20
0.0
 30
0.0
  0
VERTEX
  8
Views
 10
21.5480912921
 20
-121.729062621
 30
0.0
  0
VERTEX
  8
Views
 10
21.5479608812
 20
-121.729447992
 30
0.0
  0
SEQEND
  8
Views
  0
POLYLINE
  8
Views
 62
0
 70
0
 66
1
 10
0.0
 20
0.0
 30
0.0
  0
VERTEX
  8
Views
 10
21.5479608812
 20
-121.729447992
 30
0.0
  0
VERTEX
  8
Views
 10
21.5483296727
 20
-121.728951832
 30
0.0
  0
SEQEND
  8
Views
  0
POLYLINE
  8
Views
 62
0
 70
0
 66
1
 10
0.0
 20
0.0
 30
0.0
  0
VERTEX
  8
Views
 10
18.9983145256
 20
-70.7981319112
 30
0.0
  0
VERTEX
  8
Views
 10
18.9984465859
 20
-70.7986786049
 30
0.0
  0
SEQEND
  8
Views
  0
POLYLINE
  8
Views
 62
0
 70
0
 66
1
 10
0.0
 20
0.0
 30
0.0
  0
VERTEX
  8
Views
 10
18.9987611023
 20
-70.7987189516
 30
0.0
  0
VERTEX
  8
Views
 10
18.9983145256
 20
-70.7981319112
 30
0.0
  0
SEQEND
  8
Views
  0
POLYLINE
  8
Views
 62
0
 70
0
 66
1
 10
0.0
 20
0.0
 30
0.0
  0
VERTEX
  8
Views
 10
59.2319145265
 20
-123.686576694
 30
0.0
  0
VERTEX
  8
Views
 10
59.2278286045
 20
-123.68120561
 30
0.0
  0
SEQEND
  8
Views
  0
POLYLINE
  8
Views
 62
0
 70
0
 66
1
 10
0.0
 20
0.0
 30
0.0
  0
VERTEX
  8
Views
 10
40.7153143177
 20
-112.820977999
 30
0.0
  0
VERTEX
  8
Views
 10
40.7153145261
 20
-112.820977902
 30
0.0
  0
SEQEND
  8
Views
  0
POLYLINE
  8
Views
 62
0
 70
0
 66
1
 10
0.0
 20
0.0
 30
0.0
  0
VERTEX
  8
Views
 10
21.5483296727
 20
-121.728951832
 30
0.0
  0
VERTEX
  8
Views
 10
25.3817266017
 20
-119.947357066
 30
0.0
  0
VERTEX
  8
Views
 10
29.2151235307
 20
-118.165762299
 30
0.0
  0
VERTEX
  8
Views
 10
33.0485204597
 20
-116.384167532
 30
0.0
  0
VERTEX
  8
Views
 10
36.8819173887
 20
-114.602572766
 30
0.0
  0
VERTEX
  8
Views
 10
40.7153143177
 20
-112.820977999
 30
0.0
  0
SEQEND
  8
Views
  0
POLYLINE
  8
Views
 62
0
 70
0
 66
1
 10
0.0
 20
0.0
 30
0.0
  0
VERTEX
  8
Views
 10
45.0932867484
 20
-74.1461702579
 30
0.0
  0
VERTEX
  8
Views
 10
40.7441991407
 20
-73.5882617068
 30
0.0
  0
VERTEX
  8
Views
 10
36.395111533
 20
-73.0303531558
 30
0.0
  0
VERTEX
  8
Views
 10
32.0460239253
 20
-72.4724446047
 30
0.0
  0
VERTEX
  8
Views
 10
27.6969363176
 20
-71.9145360537
 30
0.0
  0
VERTEX
  8
Views
 10
23.34784871
 20
-71.3566275026
 30
0.0
  0
VERTEX
  8
Views
 10
18.9987611023
 20
-70.7987189516
 30
0.0
  0
SEQEND
  8
Views
  0
POLYLINE
  8
Views
 62
0
 70
0
 66
1
 10
0.0
 20
0.0
 30
0.0
  0
VERTEX
  8
Views
 10
46.677479104
 20
-79.6899618401
 30
0.0
  0
VERTEX
  8
Views
 10
45.8853829262
 20
-76.918066049
 30
0.0
  0
VERTEX
  8
Views
 10
45.0932867484
 20
-74.1461702579
 30
0.0
  0
SEQEND
  8
Views
  0
POLYLINE
  8
Views
 62
0
 70
0
 66
1
 10
0.0
 20
0.0
 30
0.0
  0
VERTEX
  8
Views
 10
27.2389832813
 20
-104.912195707
 30
0.0
  0
VERTEX
  8
Views
 10
27.2389766377
 20
-104.912215339
 30
0.0
  0
SEQEND
  8
Views
  0
POLYLINE
  8
Views
 62
0
 70
0
 66
1
 10
0.0
 20
0.0
 30
0.0
  0
VERTEX
  8
Views
 10
27.2389766377
 20
-104.912215339
 30
0.0
  0
VERTEX
  8
Views
 10
25.8162553013
 20
-109.116427159
 30
0.0
  0
VERTEX
  8
Views
 10
24.3935339649
 20
-113.32063898
 30
0.0
  0
VERTEX
  8
Views
 10
22.9708126285
 20
-117.524850801
 30
0.0
  0
VERTEX
  8
Views
 10
21.5480912921
 20
-121.729062621
 30
0.0
  0
SEQEND
  8
Views
  0
POLYLINE
  8
Views
 62
0
 70
0
 66
1
 10
0.0
 20
0.0
 30
0.0
  0
VERTEX
  8
Views
 10
18.9984465859
 20
-70.7986786049
 30
0.0
  0
VERTEX
  8
Views
 10
20.0285128424
 20
-75.0628706966
 30
0.0
  0
VERTEX
  8
Views
 10
21.0585790989
 20
-79.3270627884
 30
0.0
  0
VERTEX
  8
Views
 10
22.0886453553
 20
-83.5912548801
 30
0.0
  0
VERTEX
  8
Views
 10
23.1187116118
 20
-87.8554469719
 30
0.0
  0
VERTEX
  8
Views
 10
24.1487778683
 20
-92.1196390637
 30
0.0
  0
VERTEX
  8
Views
 10
25.1788441247
 20
-96.3838311554
 30
0.0
  0
VERTEX
  8
Views
 10
26.2089103812
 20
-100.648023247
 30
0.0
  0
VERTEX
  8
Views
 10
27.2389766377
 20
-104.912215339
 30
0.0
  0
SEQEND
  8
Views
  0
POLYLINE
  8
Views
 62
0
 70
0
 66
1
 10
0.0
 20
0.0
 30
0.0
  0
VERTEX
  8
Views
 10
21.5476944634
 20
-121.72924705
 30
0.0
  0
VERTEX
  8
Views
 10
21.5480912921
 20
-121.729062621
 30
0.0
  0
SEQEND
  8
Views
  0
POLYLINE
  8
Views
 62
0
 70
0
 66
1
 10
0.0
 20
0.0
 30
0.0
  0
VERTEX
  8
Views
 10
21.5480912921
 20
-121.729062621
 30
0.0
  0
VERTEX
  8
Views
 10
21.5483296727
 20
-121.728951832
 30
0.0
  0
SEQEND
  8
Views
  0
POLYLINE
  8
Views
 62
0
 70
0
 66
1
 10
0.0
 20
0.0
 30
0.0
  0
VERTEX
  8
Views
 10
18.9987611023
 20
-70.7987189516
 30
0.0
  0
VERTEX
  8
Views
 10
18.9984465859
 20
-70.7986786049
 30
0.0
  0
SEQEND
  8
Views
  0
POLYLINE
  8
Views
 62
0
 70
0
 66
1
 10
0.0
 20
0.0
 30
0.0
  0
VERTEX
  8
Views
 10
18.9984465859
 20
-70.7986786049
 30
0.0
  0
VERTEX
  8
Views
 10
18.9977489522
 20
-70.7985891112
 30
0.0
  0
SEQEND
  8
Views
  0
POLYLINE
  8
Views
 62
0
 70
0
 66
1
 10
0.0
 20
0.0
 30
0.0
  0
VERTEX
  8
Views
 10
21.5483296727
 20
-121.728951832
 30
0.0
  0
VERTEX
  8
Views
 10
24.1560368482
 20
-118.220630514
 30
0.0
  0
VERTEX
  8
Views
 10
26.7637440237
 20
-114.712309196
 30
0.0
  0
VERTEX
  8
Views
 10
29.3714511992
 20
-111.203987878
 30
0.0
  0
VERTEX
  8
Views
 10
31.9791583747
 20
-107.69566656
 30
0.0
  0
SEQEND
  8
Views
  0
POLYLINE
  8
Views
 62
0
 70
0
 66
1
 10
0.0
 20
0.0
 30
0.0
  0
VERTEX
  8
Views
 10
59.2278286045
 20
-123.68120561
 30
0.0
  0
VERTEX
  8
Views
 10
56.3543237829
 20
-119.903885134
 30
0.0
  0
VERTEX
  8
Views
 10
53.4808189613
 20
-116.126564659
 30
0.0
  0
VERTEX
  8
Views
 10
50.6073141397
 20
-112.349244183
 30
0.0
  0
VERTEX
  8
Views
 10
47.7338093181
 20
-108.571923707
 30
0.0
  0
VERTEX
  8
Views
 10
44.8603044966
 20
-104.794603232
 30
0.0
  0
VERTEX
  8
Views
 10
41.986799675
 20
-101.017282756
 30
0.0
  0
VERTEX
  8
Views
 10
39.1132948534
 20
-97.2399622807
 30
0.0
  0
VERTEX
  8
Views
 10
36.2397900318
 20
-93.4626418051
 30
0.0
  0
VERTEX
  8
Views
 10
33.3662852102
 20
-89.6853213295
 30
0.0
  0
VERTEX
  8
Views
 10
30.4927803886
 20
-85.9080008539
 30
0.0
  0
VERTEX
  8
Views
 10
27.619275567
 20
-82.1306803783
 30
0.0
  0
VERTEX
  8
Views
 10
24.7457707454
 20
-78.3533599028
 30
0.0
  0
VERTEX
  8
Views
 10
21.8722659239
 20
-74.5760394272
 30
0.0
  0
VERTEX
  8
Views
 10
18.9987611023
 20
-70.7987189516
 30
0.0
  0
SEQEND
  8
Views
  0
POLYLINE
  8
Views
 62
0
 70
0
 66
1
 10
0.0
 20
0.0
 30
0.0
  0
VERTEX
  8
Views
 10
59.2282749887
 20
-123.682759356
 30
0.0
  0
VERTEX
  8
Views
 10
59.2278286045
 20
-123.68120561
 30
0.0
  0
SEQEND
  8
Views
  0
POLYLINE
  8
Views
 62
0
 70
0
 66
1
 10
0.0
 20
0.0
 30
0.0
  0
VERTEX
  8
Views
 10
59.2278286045
 20
-123.68120561
 30
0.0
  0
VERTEX
  8
Views
 10
57.9941388694
 20
-119.387054672
 30
0.0
  0
VERTEX
  8
Views
 10
56.7604491343
 20
-115.092903734
 30
0.0
  0
VERTEX
  8
Views
 10
55.5267593992
 20
-110.798752796
 30
0.0
  0
VERTEX
  8
Views
 10
54.2930696642
 20
-106.504601858
 30
0.0
  0
SEQEND
  8
Views
  0
POLYLINE
  8
Views
 62
0
 70
0
 66
1
 10
0.0
 20
0.0
 30
0.0
  0
VERTEX
  8
Views
 10
58.6262520909
 20
-71.9564938312
 30
0.0
  0
VERTEX
  8
Views
 10
54.9189205035
 20
-74.3593141563
 30
0.0
  0
VERTEX
  8
Views
 10
51.2115889161
 20
-76.7621344813
 30
0.0
  0
VERTEX
  8
Views
 10
47.5042573288
 20
-79.1649548064
 30
0.0
  0
VERTEX
  8
Views
 10
43.7969257414
 20
-81.5677751315
 30
0.0
  0
VERTEX
  8
Views
 10
40.089594154
 20
-83.9705954566
 30
0.0
  0
VERTEX
  8
Views
 10
36.3822625666
 20
-86.3734157817
 30
0.0
  0
VERTEX
  8
Views
 10
32.6749309792
 20
-88.7762361067
 30
0.0
  0
SEQEND
  8
Views
  0
POLYLINE
  8
Views
 62
0
 70
0
 66
1
 10
0.0
 20
0.0
 30
0.0
  0
VERTEX
  8
Views
 10
48.2786488196
 20
-109.288128027
 30
0.0
  0
VERTEX
  8
Views
 10
51.2849775796
 20
-107.897466738
 30
0.0
  0
VERTEX
  8
Views
 10
54.2913063397
 20
-106.506805449
 30
0.0
  0
SEQEND
  8
Views
  0
POLYLINE
  8
Views
 62
0
 70
0
 66
1
 10
0.0
 20
0.0
 30
0.0
  0
VERTEX
  8
Views
 10
54.2913063397
 20
-106.506805449
 30
0.0
  0
VERTEX
  8
Views
 10
56.1854287427
 20
-102.291405268
 30
0.0
  0
VERTEX
  8
Views
 10
58.0795511457
 20
-98.0760050875
 30
0.0
  0
VERTEX
  8
Views
 10
59.9736735487
 20
-93.8606049067
 30
0.0
  0
SEQEND
  8
Views
  0
POLYLINE
  8
Views
 62
0
 70
0
 66
1
 10
0.0
 20
0.0
 30
0.0
  0
VERTEX
  8
Views
 10
59.9736735487
 20
-93.8606049067
 30
0.0
  0
VERTEX
  8
Views
 10
59.7046584234
 20
-89.4797443094
 30
0.0
  0
VERTEX
  8
Views
 10
59.4356432981
 20
-85.0988837121
 30
0.0
  0
VERTEX
  8
Views
 10
59.1666281727
 20
-80.7180231147
 30
0.0
  0
VERTEX
  8
Views
 10
58.8976130474
 20
-76.3371625174
 30
0.0
  0
VERTEX
  8
Views
 10
58.628597922
 20
-71.9563019201
 30
0.0
  0
SEQEND
  8
Views
  0
POLYLINE
  8
Views
 62
0
 70
0
 66
1
 10
0.0
 20
0.0
 30
0.0
  0
VERTEX
  8
Views
 10
58.628597922
 20
-71.9563019201
 30
0.0
  0
VERTEX
  8
Views
 10
55.8891682496
 20
-75.6285610261
 30
0.0
  0
VERTEX
  8
Views
 10
53.1497385771
 20
-79.3008201321
 30
0.0
  0
VERTEX
  8
Views
 10
50.4103089047
 20
-82.9730792382
 30
0.0
  0
VERTEX
  8
Views
 10
47.6708792323
 20
-86.6453383442
 30
0.0
  0
VERTEX
  8
Views
 10
44.9314495598
 20
-90.3175974502
 30
0.0
  0
VERTEX
  8
Views
 10
42.1920198874
 20
-93.9898565562
 30
0.0
  0
VERTEX
  8
Views
 10
39.4525902149
 20
-97.6621156623
 30
0.0
  0
SEQEND
  8
Views
  0
ENDBLK
  0
ENDSEC
  0
SECTION
  2
ENTITIES
  0
INSERT
  2
SHAPE2DVIEW004
  8
Views
 62
0
 10
0.0
 20
0.0
 30
0.0
  0
INSERT
  2
SHAPE2DVIEW003
  8
Views
 62
0
 10
0.0
 20
0.0
 30
0.0
  0
INSERT
  2
SHAPE2DVIEW005
  8
Views
 62
0
 10
0.0
 20
0.0
 30
0.0
  0
INSERT
  2
SHAPE2DVIEW
  8
Views
 62
0
 10
0.0
 20
0.0
 30
0.0
  0
INSERT
  2
SHAPE2DVIEW002
  8
Views
 62
0
 10
0.0
 20
0.0
 30
0.0
  0
INSERT
  2
SHAPE2DVIEW001
  8
Views
 62
0
 10
0.0
 20
0.0
 30
0.0
  0
INSERT
  2
SHAPE2DVIEW006
  8
Views
 62
0
 10
0.0
 20
0.0
 30
0.0
  0
INSERT
  2
SHAPE2DVIEW007
  8
Views
 62
0
 10
0.0
 20
0.0
 30
0.0
  0
ENDSEC
  0
EOF
