<?xml version="1.0" encoding="UTF-8" standalone="no"?>
<!-- Created with Inkscape (http://www.inkscape.org/) -->

<svg
   xmlns:svg="http://www.w3.org/2000/svg"
   xmlns="http://www.w3.org/2000/svg"
   xmlns:sodipodi="http://sodipodi.sourceforge.net/DTD/sodipodi-0.dtd"
   xmlns:inkscape="http://www.inkscape.org/namespaces/inkscape"
   width="210mm"
   height="297mm"
   viewBox="0 0 744.09448819 1052.3622047"
   id="svg2"
   version="1.1"
   inkscape:version="0.91 r13725"
   sodipodi:docname="javazone.svg">
  <defs
     id="defs4" />
  <sodipodi:namedview
     id="base"
     pagecolor="#ffffff"
     bordercolor="#666666"
     borderopacity="1.0"
     inkscape:pageopacity="0.0"
     inkscape:pageshadow="2"
     inkscape:zoom="0.49497475"
     inkscape:cx="-329.50338"
     inkscape:cy="643.91291"
     inkscape:document-units="px"
     inkscape:current-layer="svg2"
     showgrid="false"
     inkscape:window-width="1920"
     inkscape:window-height="1016"
     inkscape:window-x="0"
     inkscape:window-y="27"
     inkscape:window-maximized="1" />
  <path
     id="path-1"
     d="m 128.55413,327.80363 c -19.5,0 -27.7,6.4 -32.699996,13.3 l -0.9,0 -6.6,-10.1 -23,0 0,126.5 38.899996,0 0,-80 c 0,-9.1 7.4,-16.4 16.4,-16.4 9.1,0 16.4,7.4 16.4,16.4 l 0,80 38.9,0 0,-82.2 c 0,-25.9 -22,-47.5 -47.4,-47.5 z m 159.6,101.6 c -7.1,2.3 -14.6,3.5 -22.8,3.5 -21.8,0 -33.4,-9.2 -34.7,-27.6 l 82.5,0 0,-16.4 c 0,-18.9 -5.1,-33.9 -15.4,-44.7 -10.3,-10.9 -24.4,-16.3 -42.6,-16.3 -12.2,0 -23.1,2.9 -32.8,8.8 -9.7,5.8 -17.2,14 -22.5,24.3 -5.3,10.4 -8,22.1 -8,35.2 0,20.4 5.6,36.3 16.9,47.5 11.3,11.2 27.1,16.9 47.6,16.9 18.7,0 33.9,-3.1 45.6,-9.4 l 0,-0.3 -13.8,-21.5 z m -49.4,-67.4 c 4.7,-5.2 10.1,-7.8 16.3,-7.8 14.7,0 22,9.1 22,27.2 l -46.6,0 c 0.8,-7.7 3.6,-14.2 8.3,-19.4 z m -855.5,-72.6 -32.1,0 0,111.5 c 0,12.5 0,15.8 -2.6,18.4 -2.3,2.3 -6.8,2.3 -11.4,2.3 l -16.7,0 -21,35.9 36.9,0 c 17.7,0 30.9,-0.8 40.8,-7.8 11.2,-7.8 13,-20.5 13,-47.5 l 0,-102.4 -6.9,-10.4 z m 238.4,41.6 -32.9,81.8 -1,0 -33,-81.8 -27.8,0 0,20.9 42.5,105.6 37.6,0 42.5,-105.6 0,-20.9 -27.9,0 z m 269.9,90.6 -59.4,0 72.400004,-109.2 0,-23 -117.900004,0 0,21.5 6.8,10.5 61.3,0 -75,113 0,23.1 135.100004,0 -23.300004,-35.9 z m -131.4,35.9 0,-75.2 c 0,-36.3 -18.2,-54.4 -54.6,-54.4 -7.2,0 -15.9,1.1 -25.9,3.4 -4.2,0.9 -8,1.9 -11.3,2.9 l 0,17.7 5,7.7 c 8.7,-3.4 17.7,-5.1 27.1,-5.1 15.1,0 22.7,7 22.7,20.9 l -28.1,3.5 c -29.3,3.9 -44,18.2 -44,42.9 0,11.7 3.6,21.1 10.8,28.1 7.2,7 16.9,10.5 29.1,10.5 3,0 28.1,-0.5 34.9,-12.9 l 0.5,0 6.4,9.9 27.4,0 0,0.1 z m -40.5,-31.4 c -4.7,5.1 -10.7,7.6 -18,7.6 -5.5,0 -9.7,-1.4 -12.8,-4.3 -3,-2.9 -4.5,-6.5 -4.5,-11 0,-10 6.4,-15.7 19.2,-17.3 l 23.2,-3 0,8.6 c -0.1,7.9 -2.4,14.3 -7.1,19.4 z m -203.9,31.4 0,-75.2 c 0,-36.3 -18.2,-54.4 -54.6,-54.4 -7.2,0 -15.9,1.1 -25.9,3.4 -4.2,0.9 -8,1.9 -11.3,2.9 l 0,17.7 5,7.7 c 8.7,-3.4 17.7,-5.1 27.1,-5.1 15.1,0 22.7,7 22.7,20.9 l -28.1,3.5 c -29.3,3.9 -44,18.2 -44,42.9 0,11.7 3.6,21.1 10.8,28.1 7.2,7 16.9,10.5 29.1,10.5 3,0 28.1,-0.5 34.9,-12.9 l 0.5,0 6.4,9.9 27.4,0 0,0.1 z m -40.5,-31.4 c -4.7,5.1 -10.7,7.6 -18,7.6 -5.5,0 -9.7,-1.4 -12.8,-4.3 -3,-2.9 -4.5,-6.5 -4.5,-11 0,-10 6.4,-15.7 19.2,-17.3 l 23.2,-3 0,8.6 c -0.1,7.9 -2.4,14.3 -7.1,19.4 z m 570.500004,-33.6 c 0,20.9 -6.2,37.5 -18.6,49.7 -12.4,12.2 -29.2000001,18.3 -50.5,18.3 -20.8,0 -37.3,-5.8 -49.5,-17.5 -12.2,-11.7 -18.3,-27.8 -18.3,-48.3 0,-20.9 6.3,-37.3 18.8,-49.1 12.5,-11.8 29.4,-17.7 50.8,-17.7 20.7999999,0 37.2,5.9 49.2,17.6 12.1,11.7 18.1,27.4 18.1,47 z m -39.7000001,0.7 c 0,-23.6 -9.4,-35.5 -28.2999999,-35.5 -9.2,0 -16.4,3.2 -21.5,9.5 -5.1,6.3 -7.7,15.3 -7.7,26.9 0,24.3 9.8,36.4 29.4,36.4 18.6999999,0.1 28.0999999,-12.3 28.0999999,-37.3 z"
     inkscape:connector-curvature="0"
     style="fill:none;stroke:#000000;stroke-opacity:1" />
</svg>
