G04 #@! TF.FileFunction,Copper,L2,Bot,Signal*
%FSLAX46Y46*%
G04 Gerber Fmt 4.6, Leading zero omitted, Abs format (unit mm)*
G04 Created by KiCad (PCBNEW 4.0.2+dfsg1-stable) date Thu 04 Aug 2016 19:41:19 CEST*
%MOMM*%
G01*
G04 APERTURE LIST*
%ADD10C,0.100000*%
%ADD11C,0.300000*%
%ADD12C,0.150000*%
%ADD13R,2.032000X1.727200*%
%ADD14O,2.032000X1.727200*%
%ADD15R,1.524000X1.524000*%
%ADD16C,1.524000*%
%ADD17R,1.524000X2.540000*%
%ADD18O,1.524000X2.540000*%
%ADD19R,1.727200X1.727200*%
%ADD20O,1.727200X1.727200*%
%ADD21C,1.600000*%
%ADD22R,1.727200X2.032000*%
%ADD23O,1.727200X2.032000*%
%ADD24C,6.000000*%
%ADD25C,0.508000*%
%ADD26C,0.304800*%
%ADD27C,0.254000*%
G04 APERTURE END LIST*
D10*
D11*
X112843571Y-104787143D02*
X114057857Y-104787143D01*
X114200714Y-104858571D01*
X114272143Y-104930000D01*
X114343571Y-105072857D01*
X114343571Y-105358571D01*
X114272143Y-105501429D01*
X114200714Y-105572857D01*
X114057857Y-105644286D01*
X112843571Y-105644286D01*
X114272143Y-106287143D02*
X114343571Y-106501429D01*
X114343571Y-106858572D01*
X114272143Y-107001429D01*
X114200714Y-107072858D01*
X114057857Y-107144286D01*
X113915000Y-107144286D01*
X113772143Y-107072858D01*
X113700714Y-107001429D01*
X113629286Y-106858572D01*
X113557857Y-106572858D01*
X113486429Y-106430000D01*
X113415000Y-106358572D01*
X113272143Y-106287143D01*
X113129286Y-106287143D01*
X112986429Y-106358572D01*
X112915000Y-106430000D01*
X112843571Y-106572858D01*
X112843571Y-106930000D01*
X112915000Y-107144286D01*
X113557857Y-108287143D02*
X113629286Y-108501429D01*
X113700714Y-108572857D01*
X113843571Y-108644286D01*
X114057857Y-108644286D01*
X114200714Y-108572857D01*
X114272143Y-108501429D01*
X114343571Y-108358571D01*
X114343571Y-107787143D01*
X112843571Y-107787143D01*
X112843571Y-108287143D01*
X112915000Y-108430000D01*
X112986429Y-108501429D01*
X113129286Y-108572857D01*
X113272143Y-108572857D01*
X113415000Y-108501429D01*
X113486429Y-108430000D01*
X113557857Y-108287143D01*
X113557857Y-107787143D01*
X81728571Y-66378572D02*
X82800000Y-66378572D01*
X83014286Y-66307144D01*
X83157143Y-66164287D01*
X83228571Y-65950001D01*
X83228571Y-65807144D01*
X83228571Y-67735715D02*
X82442857Y-67735715D01*
X82300000Y-67664286D01*
X82228571Y-67521429D01*
X82228571Y-67235715D01*
X82300000Y-67092858D01*
X83157143Y-67735715D02*
X83228571Y-67592858D01*
X83228571Y-67235715D01*
X83157143Y-67092858D01*
X83014286Y-67021429D01*
X82871429Y-67021429D01*
X82728571Y-67092858D01*
X82657143Y-67235715D01*
X82657143Y-67592858D01*
X82585714Y-67735715D01*
X82228571Y-68307144D02*
X83228571Y-68664287D01*
X82228571Y-69021429D01*
X83228571Y-70235715D02*
X82442857Y-70235715D01*
X82300000Y-70164286D01*
X82228571Y-70021429D01*
X82228571Y-69735715D01*
X82300000Y-69592858D01*
X83157143Y-70235715D02*
X83228571Y-70092858D01*
X83228571Y-69735715D01*
X83157143Y-69592858D01*
X83014286Y-69521429D01*
X82871429Y-69521429D01*
X82728571Y-69592858D01*
X82657143Y-69735715D01*
X82657143Y-70092858D01*
X82585714Y-70235715D01*
X81728571Y-70807144D02*
X81728571Y-71807144D01*
X83228571Y-70807144D01*
X83228571Y-71807144D01*
X83228571Y-72592858D02*
X83157143Y-72450000D01*
X83085714Y-72378572D01*
X82942857Y-72307143D01*
X82514286Y-72307143D01*
X82371429Y-72378572D01*
X82300000Y-72450000D01*
X82228571Y-72592858D01*
X82228571Y-72807143D01*
X82300000Y-72950000D01*
X82371429Y-73021429D01*
X82514286Y-73092858D01*
X82942857Y-73092858D01*
X83085714Y-73021429D01*
X83157143Y-72950000D01*
X83228571Y-72807143D01*
X83228571Y-72592858D01*
X82228571Y-73735715D02*
X83228571Y-73735715D01*
X82371429Y-73735715D02*
X82300000Y-73807143D01*
X82228571Y-73950001D01*
X82228571Y-74164286D01*
X82300000Y-74307143D01*
X82442857Y-74378572D01*
X83228571Y-74378572D01*
X83157143Y-75664286D02*
X83228571Y-75521429D01*
X83228571Y-75235715D01*
X83157143Y-75092858D01*
X83014286Y-75021429D01*
X82442857Y-75021429D01*
X82300000Y-75092858D01*
X82228571Y-75235715D01*
X82228571Y-75521429D01*
X82300000Y-75664286D01*
X82442857Y-75735715D01*
X82585714Y-75735715D01*
X82728571Y-75021429D01*
X83228571Y-77521429D02*
X81728571Y-77521429D01*
X81728571Y-78092857D01*
X81800000Y-78235715D01*
X81871429Y-78307143D01*
X82014286Y-78378572D01*
X82228571Y-78378572D01*
X82371429Y-78307143D01*
X82442857Y-78235715D01*
X82514286Y-78092857D01*
X82514286Y-77521429D01*
X83228571Y-79235715D02*
X83157143Y-79092857D01*
X83085714Y-79021429D01*
X82942857Y-78950000D01*
X82514286Y-78950000D01*
X82371429Y-79021429D01*
X82300000Y-79092857D01*
X82228571Y-79235715D01*
X82228571Y-79450000D01*
X82300000Y-79592857D01*
X82371429Y-79664286D01*
X82514286Y-79735715D01*
X82942857Y-79735715D01*
X83085714Y-79664286D01*
X83157143Y-79592857D01*
X83228571Y-79450000D01*
X83228571Y-79235715D01*
X83228571Y-80592858D02*
X83157143Y-80450000D01*
X83014286Y-80378572D01*
X81728571Y-80378572D01*
X83228571Y-81378572D02*
X83157143Y-81235714D01*
X83014286Y-81164286D01*
X81728571Y-81164286D01*
X82442857Y-83592857D02*
X82514286Y-83807143D01*
X82585714Y-83878571D01*
X82728571Y-83950000D01*
X82942857Y-83950000D01*
X83085714Y-83878571D01*
X83157143Y-83807143D01*
X83228571Y-83664285D01*
X83228571Y-83092857D01*
X81728571Y-83092857D01*
X81728571Y-83592857D01*
X81800000Y-83735714D01*
X81871429Y-83807143D01*
X82014286Y-83878571D01*
X82157143Y-83878571D01*
X82300000Y-83807143D01*
X82371429Y-83735714D01*
X82442857Y-83592857D01*
X82442857Y-83092857D01*
X83228571Y-84807143D02*
X83157143Y-84664285D01*
X83085714Y-84592857D01*
X82942857Y-84521428D01*
X82514286Y-84521428D01*
X82371429Y-84592857D01*
X82300000Y-84664285D01*
X82228571Y-84807143D01*
X82228571Y-85021428D01*
X82300000Y-85164285D01*
X82371429Y-85235714D01*
X82514286Y-85307143D01*
X82942857Y-85307143D01*
X83085714Y-85235714D01*
X83157143Y-85164285D01*
X83228571Y-85021428D01*
X83228571Y-84807143D01*
X83228571Y-85807143D02*
X82228571Y-86592857D01*
X82228571Y-85807143D02*
X83228571Y-86592857D01*
D12*
X77470000Y-119380000D02*
X77470000Y-114300000D01*
X128270000Y-119380000D02*
X77470000Y-119380000D01*
X128270000Y-114300000D02*
X128270000Y-119380000D01*
X77470000Y-44450000D02*
X77470000Y-114300000D01*
X128270000Y-44450000D02*
X128270000Y-114300000D01*
X128270000Y-44450000D02*
X77470000Y-44450000D01*
D13*
X109855000Y-54610000D03*
D14*
X109855000Y-57150000D03*
X109855000Y-59690000D03*
X109855000Y-62230000D03*
D15*
X98425000Y-60325000D03*
D16*
X98425000Y-62825000D03*
X90805000Y-57785000D03*
X90805000Y-47625000D03*
D15*
X83185000Y-60325000D03*
D16*
X83185000Y-62825000D03*
X83185000Y-57785000D03*
X83185000Y-47625000D03*
D17*
X109855000Y-76835000D03*
D18*
X107315000Y-76835000D03*
X104775000Y-76835000D03*
X102235000Y-76835000D03*
X99695000Y-76835000D03*
X97155000Y-76835000D03*
X94615000Y-76835000D03*
X92075000Y-76835000D03*
X89535000Y-76835000D03*
X89535000Y-84455000D03*
X92075000Y-84455000D03*
X94615000Y-84455000D03*
X97155000Y-84455000D03*
X99695000Y-84455000D03*
X102235000Y-84455000D03*
X104775000Y-84455000D03*
X107315000Y-84455000D03*
X109855000Y-84455000D03*
D15*
X90805000Y-60325000D03*
D16*
X90805000Y-62825000D03*
D15*
X106045000Y-60325000D03*
D16*
X106045000Y-62825000D03*
D15*
X113665000Y-60325000D03*
D16*
X113665000Y-62825000D03*
D19*
X117475000Y-73660000D03*
D20*
X120015000Y-73660000D03*
X117475000Y-76200000D03*
X120015000Y-76200000D03*
X117475000Y-78740000D03*
X120015000Y-78740000D03*
D13*
X86995000Y-54610000D03*
D14*
X86995000Y-57150000D03*
X86995000Y-59690000D03*
X86995000Y-62230000D03*
D13*
X94615000Y-54610000D03*
D14*
X94615000Y-57150000D03*
X94615000Y-59690000D03*
X94615000Y-62230000D03*
D13*
X102235000Y-54610000D03*
D14*
X102235000Y-57150000D03*
X102235000Y-59690000D03*
X102235000Y-62230000D03*
D13*
X117475000Y-54610000D03*
D14*
X117475000Y-57150000D03*
X117475000Y-59690000D03*
X117475000Y-62230000D03*
D16*
X98425000Y-57785000D03*
X98425000Y-47625000D03*
X106045000Y-57785000D03*
X106045000Y-47625000D03*
X113665000Y-57785000D03*
X113665000Y-47625000D03*
D21*
X121920000Y-114300000D03*
X119380000Y-114300000D03*
X116840000Y-114300000D03*
X114300000Y-114300000D03*
X111760000Y-114300000D03*
X109220000Y-114300000D03*
X106680000Y-114300000D03*
X104140000Y-114300000D03*
X101600000Y-114300000D03*
X99060000Y-114300000D03*
X96520000Y-114300000D03*
X93980000Y-114300000D03*
X91440000Y-114300000D03*
X88900000Y-114300000D03*
X86360000Y-114300000D03*
X86360000Y-91440000D03*
X88900000Y-91440000D03*
X91440000Y-91440000D03*
X93980000Y-91440000D03*
X96520000Y-91440000D03*
X99060000Y-91440000D03*
X101600000Y-91440000D03*
X104140000Y-91440000D03*
X106680000Y-91440000D03*
X109220000Y-91440000D03*
X111760000Y-91440000D03*
X114300000Y-91440000D03*
X116840000Y-91440000D03*
X119380000Y-91440000D03*
X121920000Y-91440000D03*
D22*
X121920000Y-116840000D03*
D23*
X119380000Y-116840000D03*
X116840000Y-116840000D03*
X114300000Y-116840000D03*
X111760000Y-116840000D03*
X109220000Y-116840000D03*
X106680000Y-116840000D03*
X104140000Y-116840000D03*
X101600000Y-116840000D03*
X99060000Y-116840000D03*
X96520000Y-116840000D03*
X93980000Y-116840000D03*
X91440000Y-116840000D03*
X88900000Y-116840000D03*
X86360000Y-116840000D03*
D22*
X121920000Y-96520000D03*
D23*
X119380000Y-96520000D03*
X116840000Y-96520000D03*
X114300000Y-96520000D03*
X111760000Y-96520000D03*
X109220000Y-96520000D03*
X106680000Y-96520000D03*
X104140000Y-96520000D03*
X101600000Y-96520000D03*
X99060000Y-96520000D03*
X96520000Y-96520000D03*
X93980000Y-96520000D03*
X91440000Y-96520000D03*
X88900000Y-96520000D03*
X86360000Y-96520000D03*
D24*
X82550000Y-106680000D03*
X123190000Y-106680000D03*
X123190000Y-52070000D03*
X82550000Y-52070000D03*
D25*
X117475000Y-76200000D02*
X116840000Y-76200000D01*
X116840000Y-76200000D02*
X115570000Y-74930000D01*
X118745000Y-57150000D02*
X117475000Y-57150000D01*
X120015000Y-58420000D02*
X118745000Y-57150000D01*
X120015000Y-64770000D02*
X120015000Y-58420000D01*
X115570000Y-69215000D02*
X120015000Y-64770000D01*
X115570000Y-74930000D02*
X115570000Y-69215000D01*
X121920000Y-91440000D02*
X121920000Y-78105000D01*
X121920000Y-78105000D02*
X120015000Y-76200000D01*
X117475000Y-76200000D02*
X120015000Y-76200000D01*
X121920000Y-91440000D02*
X121920000Y-96520000D01*
X113665000Y-62825000D02*
X113665000Y-62865000D01*
X109855000Y-57150000D02*
X110490000Y-57150000D01*
X110490000Y-57150000D02*
X111760000Y-55880000D01*
X116205000Y-57150000D02*
X117475000Y-57150000D01*
X114935000Y-55880000D02*
X116205000Y-57150000D01*
X111760000Y-55880000D02*
X114935000Y-55880000D01*
X102235000Y-57150000D02*
X103505000Y-57150000D01*
X108585000Y-57150000D02*
X109855000Y-57150000D01*
X107315000Y-55880000D02*
X108585000Y-57150000D01*
X104775000Y-55880000D02*
X107315000Y-55880000D01*
X103505000Y-57150000D02*
X104775000Y-55880000D01*
X102235000Y-57150000D02*
X101600000Y-57150000D01*
X101600000Y-57150000D02*
X100330000Y-55880000D01*
X95885000Y-57150000D02*
X94615000Y-57150000D01*
X97155000Y-55880000D02*
X95885000Y-57150000D01*
X100330000Y-55880000D02*
X97155000Y-55880000D01*
X82550000Y-55880000D02*
X84455000Y-55880000D01*
X83145000Y-62825000D02*
X81280000Y-60960000D01*
X81280000Y-60960000D02*
X81280000Y-57150000D01*
X81280000Y-57150000D02*
X82550000Y-55880000D01*
X85725000Y-57150000D02*
X84455000Y-55880000D01*
X85725000Y-57150000D02*
X86995000Y-57150000D01*
D26*
X86995000Y-57150000D02*
X87630000Y-57150000D01*
D25*
X88900000Y-59055000D02*
X86995000Y-57150000D01*
X90765000Y-62825000D02*
X88900000Y-60960000D01*
X88900000Y-60960000D02*
X88900000Y-59055000D01*
D26*
X83185000Y-62825000D02*
X83145000Y-62825000D01*
X90805000Y-62825000D02*
X90765000Y-62825000D01*
X106045000Y-62825000D02*
X106005000Y-62825000D01*
X113665000Y-62825000D02*
X112990000Y-62825000D01*
X113665000Y-62825000D02*
X112990000Y-62825000D01*
D25*
X111760000Y-61595000D02*
X111760000Y-59055000D01*
X111760000Y-59055000D02*
X109855000Y-57150000D01*
X112990000Y-62825000D02*
X111760000Y-61595000D01*
X106005000Y-62825000D02*
X104140000Y-60960000D01*
X104140000Y-60960000D02*
X104140000Y-59055000D01*
X96520000Y-60920000D02*
X98425000Y-62825000D01*
X96520000Y-59055000D02*
X96520000Y-60920000D01*
X104140000Y-59055000D02*
X102235000Y-57150000D01*
X94615000Y-57150000D02*
X96520000Y-59055000D01*
X94615000Y-57150000D02*
X95250000Y-57150000D01*
X87630000Y-57150000D02*
X88900000Y-55880000D01*
X88900000Y-55880000D02*
X92710000Y-55880000D01*
X92710000Y-55880000D02*
X93980000Y-57150000D01*
X93980000Y-57150000D02*
X94615000Y-57150000D01*
X121920000Y-114300000D02*
X121920000Y-113030000D01*
X118110000Y-104140000D02*
X123825000Y-98425000D01*
X118110000Y-109220000D02*
X118110000Y-104140000D01*
X121920000Y-113030000D02*
X118110000Y-109220000D01*
X123825000Y-98425000D02*
X123825000Y-74930000D01*
X122555000Y-73660000D02*
X120015000Y-73660000D01*
X123825000Y-74930000D02*
X122555000Y-73660000D01*
X120015000Y-73660000D02*
X120015000Y-67310000D01*
X120015000Y-67310000D02*
X121285000Y-66040000D01*
X121285000Y-66040000D02*
X121285000Y-56515000D01*
X121285000Y-56515000D02*
X119380000Y-54610000D01*
X119380000Y-54610000D02*
X117475000Y-54610000D01*
X117475000Y-73660000D02*
X120015000Y-73660000D01*
X121920000Y-116840000D02*
X121920000Y-114300000D01*
X117475000Y-54610000D02*
X118110000Y-54610000D01*
X86995000Y-54610000D02*
X94615000Y-54610000D01*
X109855000Y-54610000D02*
X117475000Y-54610000D01*
X102235000Y-54610000D02*
X109855000Y-54610000D01*
X94615000Y-54610000D02*
X102235000Y-54610000D01*
X119380000Y-114300000D02*
X119380000Y-113030000D01*
X115570000Y-109220000D02*
X115570000Y-99695000D01*
X119380000Y-113030000D02*
X115570000Y-109220000D01*
X79375000Y-57150000D02*
X79375000Y-54610000D01*
X79375000Y-54610000D02*
X78740000Y-53975000D01*
X78740000Y-53975000D02*
X78740000Y-48260000D01*
X78740000Y-48260000D02*
X79375000Y-47625000D01*
X79375000Y-47625000D02*
X83185000Y-47625000D01*
X115570000Y-99695000D02*
X85725000Y-99695000D01*
X79375000Y-93345000D02*
X79375000Y-57150000D01*
X85725000Y-99695000D02*
X79375000Y-93345000D01*
X117475000Y-99695000D02*
X115570000Y-99695000D01*
X119380000Y-97790000D02*
X117475000Y-99695000D01*
X119380000Y-96520000D02*
X119380000Y-97790000D01*
X120015000Y-78740000D02*
X120015000Y-90805000D01*
X120015000Y-90805000D02*
X119380000Y-91440000D01*
X117475000Y-78740000D02*
X120015000Y-78740000D01*
X119380000Y-116840000D02*
X119380000Y-114300000D01*
X119380000Y-91440000D02*
X119380000Y-96520000D01*
X90805000Y-47625000D02*
X98425000Y-47625000D01*
X106045000Y-47625000D02*
X113665000Y-47625000D01*
X98425000Y-47625000D02*
X106045000Y-47625000D01*
X83185000Y-47625000D02*
X85090000Y-47625000D01*
X85090000Y-47625000D02*
X90805000Y-47625000D01*
X86995000Y-62230000D02*
X86995000Y-74295000D01*
X86995000Y-74295000D02*
X89535000Y-76835000D01*
X92075000Y-76835000D02*
X92075000Y-66675000D01*
X94615000Y-62230000D02*
X94615000Y-64135000D01*
X92075000Y-66675000D02*
X94615000Y-64135000D01*
X94615000Y-76835000D02*
X94615000Y-71755000D01*
X94615000Y-71755000D02*
X102235000Y-64135000D01*
X102235000Y-64135000D02*
X102235000Y-62230000D01*
D26*
X102235000Y-64135000D02*
X102235000Y-62230000D01*
D25*
X97155000Y-76835000D02*
X97155000Y-74295000D01*
X109855000Y-64770000D02*
X109855000Y-62230000D01*
X107315000Y-67310000D02*
X109855000Y-64770000D01*
X104140000Y-67310000D02*
X107315000Y-67310000D01*
X97155000Y-74295000D02*
X104140000Y-67310000D01*
X86360000Y-91440000D02*
X86360000Y-96520000D01*
X86360000Y-91440000D02*
X86360000Y-83820000D01*
X85090000Y-61595000D02*
X83820000Y-60325000D01*
X85090000Y-82550000D02*
X85090000Y-61595000D01*
X86360000Y-83820000D02*
X85090000Y-82550000D01*
X83185000Y-60325000D02*
X84455000Y-60325000D01*
D26*
X83185000Y-60325000D02*
X83820000Y-60325000D01*
D25*
X84455000Y-60325000D02*
X85090000Y-59690000D01*
X85090000Y-59690000D02*
X86995000Y-59690000D01*
X83185000Y-60325000D02*
X83185000Y-57785000D01*
X91440000Y-91440000D02*
X91440000Y-96520000D01*
X90805000Y-74295000D02*
X90805000Y-66675000D01*
X92710000Y-64770000D02*
X90805000Y-66675000D01*
X91440000Y-87630000D02*
X91440000Y-91440000D01*
D26*
X91440000Y-87630000D02*
X90805000Y-86995000D01*
X90805000Y-86995000D02*
X90805000Y-74295000D01*
D25*
X93980000Y-60325000D02*
X94615000Y-59690000D01*
X90805000Y-60325000D02*
X93980000Y-60325000D01*
X90805000Y-60960000D02*
X92710000Y-62865000D01*
X90805000Y-60325000D02*
X90805000Y-60960000D01*
X92710000Y-62865000D02*
X92710000Y-64770000D01*
X90805000Y-57785000D02*
X90805000Y-60325000D01*
X106680000Y-91440000D02*
X106680000Y-96520000D01*
X106680000Y-91440000D02*
X102870000Y-87630000D01*
X100330000Y-64770000D02*
X100330000Y-60325000D01*
X93345000Y-71755000D02*
X100330000Y-64770000D01*
X93345000Y-74295000D02*
X93345000Y-71755000D01*
D26*
X93345000Y-78740000D02*
X93345000Y-74295000D01*
D25*
X95250000Y-80645000D02*
X93345000Y-78740000D01*
X96520000Y-80645000D02*
X95250000Y-80645000D01*
X98425000Y-82550000D02*
X96520000Y-80645000D01*
D26*
X98425000Y-86360000D02*
X98425000Y-82550000D01*
X99695000Y-87630000D02*
X98425000Y-86360000D01*
D25*
X102870000Y-87630000D02*
X99695000Y-87630000D01*
X102235000Y-59690000D02*
X102235000Y-60132634D01*
X98425000Y-60325000D02*
X100330000Y-60325000D01*
X100330000Y-60325000D02*
X101600000Y-60325000D01*
X101600000Y-60325000D02*
X102235000Y-59690000D01*
X98425000Y-57785000D02*
X98425000Y-60325000D01*
X111760000Y-91440000D02*
X111760000Y-96520000D01*
X107950000Y-60325000D02*
X107950000Y-63500000D01*
X111760000Y-82550000D02*
X111760000Y-91440000D01*
X109855000Y-80645000D02*
X111760000Y-82550000D01*
X97790000Y-80645000D02*
X109855000Y-80645000D01*
X95885000Y-78740000D02*
X97790000Y-80645000D01*
D26*
X95885000Y-74930000D02*
X95885000Y-78740000D01*
D25*
X95885000Y-73025000D02*
X95885000Y-74930000D01*
X103505000Y-65405000D02*
X95885000Y-73025000D01*
X106045000Y-65405000D02*
X103505000Y-65405000D01*
X107950000Y-63500000D02*
X106045000Y-65405000D01*
X106045000Y-57785000D02*
X106045000Y-60325000D01*
X106045000Y-60325000D02*
X107950000Y-60325000D01*
X107950000Y-60325000D02*
X109220000Y-60325000D01*
X109220000Y-60325000D02*
X109855000Y-59690000D01*
X114300000Y-91440000D02*
X114300000Y-96520000D01*
X115570000Y-60325000D02*
X115570000Y-62865000D01*
X114300000Y-83185000D02*
X110490000Y-79375000D01*
X110490000Y-79375000D02*
X99060000Y-79375000D01*
X99060000Y-79375000D02*
X98425000Y-78740000D01*
D26*
X98425000Y-78740000D02*
X98425000Y-74930000D01*
D25*
X114300000Y-83185000D02*
X114300000Y-91440000D01*
X101600000Y-71755000D02*
X98425000Y-74930000D01*
X106680000Y-71755000D02*
X101600000Y-71755000D01*
X115570000Y-62865000D02*
X106680000Y-71755000D01*
X116205000Y-60325000D02*
X116840000Y-59690000D01*
X113665000Y-57785000D02*
X113665000Y-60325000D01*
X113665000Y-60325000D02*
X115570000Y-60325000D01*
X115570000Y-60325000D02*
X116205000Y-60325000D01*
X116840000Y-59690000D02*
X117475000Y-59690000D01*
X99695000Y-76835000D02*
X99695000Y-75565000D01*
X99695000Y-75565000D02*
X100965000Y-74295000D01*
X100965000Y-74295000D02*
X105410000Y-74295000D01*
X105410000Y-74295000D02*
X117475000Y-62230000D01*
X116840000Y-116840000D02*
X116840000Y-114300000D01*
X114300000Y-116840000D02*
X114300000Y-114300000D01*
X106680000Y-116840000D02*
X106680000Y-114300000D01*
X104140000Y-116840000D02*
X104140000Y-114300000D01*
X101600000Y-116840000D02*
X101600000Y-114300000D01*
X99060000Y-116840000D02*
X99060000Y-114300000D01*
X96520000Y-116840000D02*
X96520000Y-114300000D01*
X93980000Y-114300000D02*
X93980000Y-116840000D01*
X86360000Y-116840000D02*
X86360000Y-114300000D01*
X88900000Y-91440000D02*
X88900000Y-96520000D01*
X88900000Y-91440000D02*
X88900000Y-85090000D01*
X88900000Y-85090000D02*
X89535000Y-84455000D01*
X93980000Y-91440000D02*
X93980000Y-96520000D01*
X92075000Y-84455000D02*
X92075000Y-85725000D01*
X93980000Y-87630000D02*
X93980000Y-91440000D01*
X92075000Y-85725000D02*
X93980000Y-87630000D01*
X96520000Y-96520000D02*
X96520000Y-91440000D01*
X94615000Y-84455000D02*
X94615000Y-85725000D01*
X94615000Y-85725000D02*
X96520000Y-87630000D01*
X96520000Y-87630000D02*
X96520000Y-91440000D01*
X104140000Y-91440000D02*
X104140000Y-96520000D01*
X97155000Y-84455000D02*
X97155000Y-86995000D01*
X101600000Y-88900000D02*
X104140000Y-91440000D01*
X99060000Y-88900000D02*
X101600000Y-88900000D01*
X97155000Y-86995000D02*
X99060000Y-88900000D01*
X109220000Y-91440000D02*
X109220000Y-96520000D01*
X109220000Y-91440000D02*
X109220000Y-90805000D01*
X109220000Y-90805000D02*
X104775000Y-86360000D01*
X104775000Y-86360000D02*
X100965000Y-86360000D01*
X100965000Y-86360000D02*
X99695000Y-85090000D01*
X99695000Y-85090000D02*
X99695000Y-84455000D01*
D27*
G36*
X127560000Y-118670000D02*
X78180000Y-118670000D01*
X78180000Y-107384875D01*
X78911432Y-107384875D01*
X78914377Y-107392086D01*
X78914370Y-107399874D01*
X79187612Y-108061170D01*
X79458146Y-108723639D01*
X79466512Y-108736160D01*
X79466600Y-108736372D01*
X79466764Y-108736536D01*
X79478723Y-108754434D01*
X79499861Y-108769691D01*
X80464683Y-109736198D01*
X80475566Y-109751277D01*
X80482746Y-109754293D01*
X80488249Y-109759806D01*
X81149149Y-110034236D01*
X81808800Y-110311342D01*
X81816588Y-110311381D01*
X81823782Y-110314368D01*
X82539334Y-110314992D01*
X83254875Y-110318568D01*
X83262086Y-110315623D01*
X83269874Y-110315630D01*
X83931170Y-110042388D01*
X84593639Y-109771854D01*
X84606160Y-109763488D01*
X84606372Y-109763400D01*
X84606536Y-109763236D01*
X84624434Y-109751277D01*
X84639691Y-109730139D01*
X85606198Y-108765317D01*
X85621277Y-108754434D01*
X85624293Y-108747254D01*
X85629806Y-108741751D01*
X85904236Y-108080851D01*
X86181342Y-107421200D01*
X86181381Y-107413412D01*
X86184368Y-107406218D01*
X86184992Y-106690666D01*
X86188568Y-105975125D01*
X86185623Y-105967914D01*
X86185630Y-105960126D01*
X85912388Y-105298830D01*
X85641854Y-104636361D01*
X85633488Y-104623840D01*
X85633400Y-104623628D01*
X85633236Y-104623464D01*
X85621277Y-104605566D01*
X85600139Y-104590309D01*
X84635317Y-103623802D01*
X84624434Y-103608723D01*
X84617254Y-103605707D01*
X84611751Y-103600194D01*
X83950851Y-103325764D01*
X83291200Y-103048658D01*
X83283412Y-103048619D01*
X83276218Y-103045632D01*
X82560666Y-103045008D01*
X81845125Y-103041432D01*
X81837914Y-103044377D01*
X81830126Y-103044370D01*
X81168830Y-103317612D01*
X80506361Y-103588146D01*
X80493840Y-103596512D01*
X80493628Y-103596600D01*
X80493464Y-103596764D01*
X80475566Y-103608723D01*
X80460309Y-103629861D01*
X79493802Y-104594683D01*
X79478723Y-104605566D01*
X79475707Y-104612746D01*
X79470194Y-104618249D01*
X79195764Y-105279149D01*
X78918658Y-105938800D01*
X78918619Y-105946588D01*
X78915632Y-105953782D01*
X78915008Y-106669334D01*
X78911432Y-107384875D01*
X78180000Y-107384875D01*
X78180000Y-54672236D01*
X78486000Y-54978236D01*
X78486000Y-93345000D01*
X78553671Y-93685206D01*
X78746382Y-93973618D01*
X85096382Y-100323618D01*
X85384794Y-100516329D01*
X85725000Y-100584000D01*
X114681000Y-100584000D01*
X114681000Y-103645000D01*
X111530000Y-103645000D01*
X111530000Y-109715000D01*
X114852101Y-109715000D01*
X114941382Y-109848618D01*
X118371689Y-113278925D01*
X118164176Y-113486077D01*
X118110138Y-113616215D01*
X118057243Y-113488200D01*
X117653923Y-113084176D01*
X117126691Y-112865250D01*
X116555813Y-112864752D01*
X116028200Y-113082757D01*
X115624176Y-113486077D01*
X115570138Y-113616215D01*
X115517243Y-113488200D01*
X115113923Y-113084176D01*
X114586691Y-112865250D01*
X114015813Y-112864752D01*
X113488200Y-113082757D01*
X113084176Y-113486077D01*
X113036552Y-113600768D01*
X113013864Y-113545995D01*
X112999312Y-113541612D01*
X112977243Y-113488200D01*
X112573923Y-113084176D01*
X112518536Y-113061177D01*
X112514005Y-113046136D01*
X112278153Y-112961361D01*
X112046691Y-112865250D01*
X112010673Y-112865219D01*
X111976777Y-112853035D01*
X111726434Y-112864971D01*
X111475813Y-112864752D01*
X111442524Y-112878507D01*
X111406546Y-112880222D01*
X111005995Y-113046136D01*
X111001612Y-113060688D01*
X110948200Y-113082757D01*
X110544176Y-113486077D01*
X110521177Y-113541464D01*
X110506136Y-113545995D01*
X110491142Y-113587709D01*
X110473864Y-113545995D01*
X110459312Y-113541612D01*
X110437243Y-113488200D01*
X110033923Y-113084176D01*
X109978536Y-113061177D01*
X109974005Y-113046136D01*
X109738153Y-112961361D01*
X109506691Y-112865250D01*
X109470673Y-112865219D01*
X109436777Y-112853035D01*
X109186434Y-112864971D01*
X108935813Y-112864752D01*
X108902524Y-112878507D01*
X108866546Y-112880222D01*
X108465995Y-113046136D01*
X108461612Y-113060688D01*
X108408200Y-113082757D01*
X108004176Y-113486077D01*
X107981177Y-113541464D01*
X107966136Y-113545995D01*
X107945195Y-113604254D01*
X107897243Y-113488200D01*
X107493923Y-113084176D01*
X106966691Y-112865250D01*
X106395813Y-112864752D01*
X105868200Y-113082757D01*
X105464176Y-113486077D01*
X105410138Y-113616215D01*
X105357243Y-113488200D01*
X104953923Y-113084176D01*
X104426691Y-112865250D01*
X103855813Y-112864752D01*
X103328200Y-113082757D01*
X102924176Y-113486077D01*
X102870138Y-113616215D01*
X102817243Y-113488200D01*
X102413923Y-113084176D01*
X101886691Y-112865250D01*
X101315813Y-112864752D01*
X100788200Y-113082757D01*
X100384176Y-113486077D01*
X100330138Y-113616215D01*
X100277243Y-113488200D01*
X99873923Y-113084176D01*
X99346691Y-112865250D01*
X98775813Y-112864752D01*
X98248200Y-113082757D01*
X97844176Y-113486077D01*
X97790138Y-113616215D01*
X97737243Y-113488200D01*
X97333923Y-113084176D01*
X96806691Y-112865250D01*
X96235813Y-112864752D01*
X95708200Y-113082757D01*
X95304176Y-113486077D01*
X95250138Y-113616215D01*
X95197243Y-113488200D01*
X94793923Y-113084176D01*
X94266691Y-112865250D01*
X93695813Y-112864752D01*
X93168200Y-113082757D01*
X92764176Y-113486077D01*
X92716552Y-113600768D01*
X92693864Y-113545995D01*
X92679312Y-113541612D01*
X92657243Y-113488200D01*
X92253923Y-113084176D01*
X92198536Y-113061177D01*
X92194005Y-113046136D01*
X91958153Y-112961361D01*
X91726691Y-112865250D01*
X91690673Y-112865219D01*
X91656777Y-112853035D01*
X91406434Y-112864971D01*
X91155813Y-112864752D01*
X91122524Y-112878507D01*
X91086546Y-112880222D01*
X90685995Y-113046136D01*
X90681612Y-113060688D01*
X90628200Y-113082757D01*
X90224176Y-113486077D01*
X90201177Y-113541464D01*
X90186136Y-113545995D01*
X90171142Y-113587709D01*
X90153864Y-113545995D01*
X90139312Y-113541612D01*
X90117243Y-113488200D01*
X89713923Y-113084176D01*
X89658536Y-113061177D01*
X89654005Y-113046136D01*
X89418153Y-112961361D01*
X89186691Y-112865250D01*
X89150673Y-112865219D01*
X89116777Y-112853035D01*
X88866434Y-112864971D01*
X88615813Y-112864752D01*
X88582524Y-112878507D01*
X88546546Y-112880222D01*
X88145995Y-113046136D01*
X88141612Y-113060688D01*
X88088200Y-113082757D01*
X87684176Y-113486077D01*
X87661177Y-113541464D01*
X87646136Y-113545995D01*
X87625195Y-113604254D01*
X87577243Y-113488200D01*
X87173923Y-113084176D01*
X86646691Y-112865250D01*
X86075813Y-112864752D01*
X85548200Y-113082757D01*
X85144176Y-113486077D01*
X84925250Y-114013309D01*
X84924752Y-114584187D01*
X85142757Y-115111800D01*
X85471000Y-115440616D01*
X85471000Y-115481547D01*
X85300330Y-115595585D01*
X84975474Y-116081766D01*
X84861400Y-116655255D01*
X84861400Y-117024745D01*
X84975474Y-117598234D01*
X85300330Y-118084415D01*
X85786511Y-118409271D01*
X86360000Y-118523345D01*
X86933489Y-118409271D01*
X87419670Y-118084415D01*
X87626461Y-117774931D01*
X87654532Y-117806349D01*
X87840330Y-118084415D01*
X87995771Y-118188277D01*
X87997964Y-118190732D01*
X88003269Y-118193287D01*
X88326511Y-118409271D01*
X88900000Y-118523345D01*
X89473489Y-118409271D01*
X89796731Y-118193287D01*
X89802036Y-118190732D01*
X89804229Y-118188277D01*
X89959670Y-118084415D01*
X90145468Y-117806349D01*
X90170000Y-117778892D01*
X90194532Y-117806349D01*
X90380330Y-118084415D01*
X90535771Y-118188277D01*
X90537964Y-118190732D01*
X90543269Y-118193287D01*
X90866511Y-118409271D01*
X91440000Y-118523345D01*
X92013489Y-118409271D01*
X92336731Y-118193287D01*
X92342036Y-118190732D01*
X92344229Y-118188277D01*
X92499670Y-118084415D01*
X92685468Y-117806349D01*
X92713539Y-117774931D01*
X92920330Y-118084415D01*
X93406511Y-118409271D01*
X93980000Y-118523345D01*
X94553489Y-118409271D01*
X95039670Y-118084415D01*
X95250000Y-117769634D01*
X95460330Y-118084415D01*
X95946511Y-118409271D01*
X96520000Y-118523345D01*
X97093489Y-118409271D01*
X97579670Y-118084415D01*
X97790000Y-117769634D01*
X98000330Y-118084415D01*
X98486511Y-118409271D01*
X99060000Y-118523345D01*
X99633489Y-118409271D01*
X100119670Y-118084415D01*
X100330000Y-117769634D01*
X100540330Y-118084415D01*
X101026511Y-118409271D01*
X101600000Y-118523345D01*
X102173489Y-118409271D01*
X102659670Y-118084415D01*
X102870000Y-117769634D01*
X103080330Y-118084415D01*
X103566511Y-118409271D01*
X104140000Y-118523345D01*
X104713489Y-118409271D01*
X105199670Y-118084415D01*
X105410000Y-117769634D01*
X105620330Y-118084415D01*
X106106511Y-118409271D01*
X106680000Y-118523345D01*
X107253489Y-118409271D01*
X107739670Y-118084415D01*
X107946461Y-117774931D01*
X107974532Y-117806349D01*
X108160330Y-118084415D01*
X108315771Y-118188277D01*
X108317964Y-118190732D01*
X108323269Y-118193287D01*
X108646511Y-118409271D01*
X109220000Y-118523345D01*
X109793489Y-118409271D01*
X110116731Y-118193287D01*
X110122036Y-118190732D01*
X110124229Y-118188277D01*
X110279670Y-118084415D01*
X110465468Y-117806349D01*
X110490000Y-117778892D01*
X110514532Y-117806349D01*
X110700330Y-118084415D01*
X110855771Y-118188277D01*
X110857964Y-118190732D01*
X110863269Y-118193287D01*
X111186511Y-118409271D01*
X111760000Y-118523345D01*
X112333489Y-118409271D01*
X112656731Y-118193287D01*
X112662036Y-118190732D01*
X112664229Y-118188277D01*
X112819670Y-118084415D01*
X113005468Y-117806349D01*
X113033539Y-117774931D01*
X113240330Y-118084415D01*
X113726511Y-118409271D01*
X114300000Y-118523345D01*
X114873489Y-118409271D01*
X115359670Y-118084415D01*
X115570000Y-117769634D01*
X115780330Y-118084415D01*
X116266511Y-118409271D01*
X116840000Y-118523345D01*
X117413489Y-118409271D01*
X117899670Y-118084415D01*
X118110000Y-117769634D01*
X118320330Y-118084415D01*
X118806511Y-118409271D01*
X119380000Y-118523345D01*
X119953489Y-118409271D01*
X120439670Y-118084415D01*
X120449243Y-118070087D01*
X120453238Y-118091317D01*
X120592310Y-118307441D01*
X120804510Y-118452431D01*
X121056400Y-118503440D01*
X122783600Y-118503440D01*
X123018917Y-118459162D01*
X123235041Y-118320090D01*
X123380031Y-118107890D01*
X123431040Y-117856000D01*
X123431040Y-115824000D01*
X123386762Y-115588683D01*
X123247690Y-115372559D01*
X123035490Y-115227569D01*
X123024258Y-115225294D01*
X123135824Y-115113923D01*
X123354750Y-114586691D01*
X123355248Y-114015813D01*
X123137243Y-113488200D01*
X122809000Y-113159384D01*
X122809000Y-113030000D01*
X122741330Y-112689795D01*
X122548618Y-112401382D01*
X118999000Y-108851764D01*
X118999000Y-107384875D01*
X119551432Y-107384875D01*
X119554377Y-107392086D01*
X119554370Y-107399874D01*
X119827612Y-108061170D01*
X120098146Y-108723639D01*
X120106512Y-108736160D01*
X120106600Y-108736372D01*
X120106764Y-108736536D01*
X120118723Y-108754434D01*
X120139861Y-108769691D01*
X121104683Y-109736198D01*
X121115566Y-109751277D01*
X121122746Y-109754293D01*
X121128249Y-109759806D01*
X121789149Y-110034236D01*
X122448800Y-110311342D01*
X122456588Y-110311381D01*
X122463782Y-110314368D01*
X123179334Y-110314992D01*
X123894875Y-110318568D01*
X123902086Y-110315623D01*
X123909874Y-110315630D01*
X124571170Y-110042388D01*
X125233639Y-109771854D01*
X125246160Y-109763488D01*
X125246372Y-109763400D01*
X125246536Y-109763236D01*
X125264434Y-109751277D01*
X125279691Y-109730139D01*
X126246198Y-108765317D01*
X126261277Y-108754434D01*
X126264293Y-108747254D01*
X126269806Y-108741751D01*
X126544236Y-108080851D01*
X126821342Y-107421200D01*
X126821381Y-107413412D01*
X126824368Y-107406218D01*
X126824992Y-106690666D01*
X126828568Y-105975125D01*
X126825623Y-105967914D01*
X126825630Y-105960126D01*
X126552388Y-105298830D01*
X126281854Y-104636361D01*
X126273488Y-104623840D01*
X126273400Y-104623628D01*
X126273236Y-104623464D01*
X126261277Y-104605566D01*
X126240139Y-104590309D01*
X125275317Y-103623802D01*
X125264434Y-103608723D01*
X125257254Y-103605707D01*
X125251751Y-103600194D01*
X124590851Y-103325764D01*
X123931200Y-103048658D01*
X123923412Y-103048619D01*
X123916218Y-103045632D01*
X123200666Y-103045008D01*
X122485125Y-103041432D01*
X122477914Y-103044377D01*
X122470126Y-103044370D01*
X121808830Y-103317612D01*
X121146361Y-103588146D01*
X121133840Y-103596512D01*
X121133628Y-103596600D01*
X121133464Y-103596764D01*
X121115566Y-103608723D01*
X121100309Y-103629861D01*
X120133802Y-104594683D01*
X120118723Y-104605566D01*
X120115707Y-104612746D01*
X120110194Y-104618249D01*
X119835764Y-105279149D01*
X119558658Y-105938800D01*
X119558619Y-105946588D01*
X119555632Y-105953782D01*
X119555008Y-106669334D01*
X119551432Y-107384875D01*
X118999000Y-107384875D01*
X118999000Y-104508236D01*
X124453618Y-99053618D01*
X124646330Y-98765205D01*
X124714000Y-98425000D01*
X124714000Y-74930000D01*
X124646329Y-74589794D01*
X124453618Y-74301382D01*
X123183618Y-73031382D01*
X123174067Y-73025000D01*
X122895206Y-72838671D01*
X122555000Y-72771000D01*
X121218067Y-72771000D01*
X121104029Y-72600330D01*
X120904000Y-72466675D01*
X120904000Y-67678236D01*
X121913618Y-66668618D01*
X122106329Y-66380206D01*
X122174000Y-66040000D01*
X122174000Y-56515000D01*
X122106329Y-56174794D01*
X121913618Y-55886382D01*
X121211690Y-55184454D01*
X121789149Y-55424236D01*
X122448800Y-55701342D01*
X122456588Y-55701381D01*
X122463782Y-55704368D01*
X123179334Y-55704992D01*
X123894875Y-55708568D01*
X123902086Y-55705623D01*
X123909874Y-55705630D01*
X124571170Y-55432388D01*
X125233639Y-55161854D01*
X125246160Y-55153488D01*
X125246372Y-55153400D01*
X125246536Y-55153236D01*
X125264434Y-55141277D01*
X125279691Y-55120139D01*
X126246198Y-54155317D01*
X126261277Y-54144434D01*
X126264293Y-54137254D01*
X126269806Y-54131751D01*
X126544236Y-53470851D01*
X126821342Y-52811200D01*
X126821381Y-52803412D01*
X126824368Y-52796218D01*
X126824992Y-52080666D01*
X126828568Y-51365125D01*
X126825623Y-51357914D01*
X126825630Y-51350126D01*
X126552388Y-50688830D01*
X126281854Y-50026361D01*
X126273488Y-50013840D01*
X126273400Y-50013628D01*
X126273236Y-50013464D01*
X126261277Y-49995566D01*
X126240139Y-49980309D01*
X125275317Y-49013802D01*
X125264434Y-48998723D01*
X125257254Y-48995707D01*
X125251751Y-48990194D01*
X124590851Y-48715764D01*
X123931200Y-48438658D01*
X123923412Y-48438619D01*
X123916218Y-48435632D01*
X123200666Y-48435008D01*
X122485125Y-48431432D01*
X122477914Y-48434377D01*
X122470126Y-48434370D01*
X121808830Y-48707612D01*
X121146361Y-48978146D01*
X121133840Y-48986512D01*
X121133628Y-48986600D01*
X121133464Y-48986764D01*
X121115566Y-48998723D01*
X121100309Y-49019861D01*
X120133802Y-49984683D01*
X120118723Y-49995566D01*
X120115707Y-50002746D01*
X120110194Y-50008249D01*
X119835764Y-50669149D01*
X119558658Y-51328800D01*
X119558619Y-51336588D01*
X119555632Y-51343782D01*
X119555008Y-52059334D01*
X119551432Y-52774875D01*
X119554377Y-52782086D01*
X119554370Y-52789874D01*
X119827612Y-53451170D01*
X120068652Y-54041416D01*
X120008618Y-53981382D01*
X119999067Y-53975000D01*
X119720206Y-53788671D01*
X119380000Y-53721000D01*
X119133661Y-53721000D01*
X119094162Y-53511083D01*
X118955090Y-53294959D01*
X118742890Y-53149969D01*
X118491000Y-53098960D01*
X116459000Y-53098960D01*
X116223683Y-53143238D01*
X116007559Y-53282310D01*
X115862569Y-53494510D01*
X115816704Y-53721000D01*
X111513661Y-53721000D01*
X111474162Y-53511083D01*
X111335090Y-53294959D01*
X111122890Y-53149969D01*
X110871000Y-53098960D01*
X108839000Y-53098960D01*
X108603683Y-53143238D01*
X108387559Y-53282310D01*
X108242569Y-53494510D01*
X108196704Y-53721000D01*
X103893661Y-53721000D01*
X103854162Y-53511083D01*
X103715090Y-53294959D01*
X103502890Y-53149969D01*
X103251000Y-53098960D01*
X101219000Y-53098960D01*
X100983683Y-53143238D01*
X100767559Y-53282310D01*
X100622569Y-53494510D01*
X100576704Y-53721000D01*
X96273661Y-53721000D01*
X96234162Y-53511083D01*
X96095090Y-53294959D01*
X95882890Y-53149969D01*
X95631000Y-53098960D01*
X93599000Y-53098960D01*
X93363683Y-53143238D01*
X93147559Y-53282310D01*
X93002569Y-53494510D01*
X92956704Y-53721000D01*
X88653661Y-53721000D01*
X88614162Y-53511083D01*
X88475090Y-53294959D01*
X88262890Y-53149969D01*
X88011000Y-53098960D01*
X86060460Y-53098960D01*
X86181342Y-52811200D01*
X86181381Y-52803412D01*
X86184368Y-52796218D01*
X86184992Y-52080666D01*
X86188568Y-51365125D01*
X86185623Y-51357914D01*
X86185630Y-51350126D01*
X85912388Y-50688830D01*
X85641854Y-50026361D01*
X85633488Y-50013840D01*
X85633400Y-50013628D01*
X85633236Y-50013464D01*
X85621277Y-49995566D01*
X85600139Y-49980309D01*
X84635317Y-49013802D01*
X84624434Y-48998723D01*
X84617254Y-48995707D01*
X84611751Y-48990194D01*
X84034796Y-48750621D01*
X84271830Y-48514000D01*
X89718515Y-48514000D01*
X90012630Y-48808629D01*
X90525900Y-49021757D01*
X91081661Y-49022242D01*
X91595303Y-48810010D01*
X91891830Y-48514000D01*
X97338515Y-48514000D01*
X97632630Y-48808629D01*
X98145900Y-49021757D01*
X98701661Y-49022242D01*
X99215303Y-48810010D01*
X99511830Y-48514000D01*
X104958515Y-48514000D01*
X105252630Y-48808629D01*
X105765900Y-49021757D01*
X106321661Y-49022242D01*
X106835303Y-48810010D01*
X107131830Y-48514000D01*
X112578515Y-48514000D01*
X112872630Y-48808629D01*
X113385900Y-49021757D01*
X113941661Y-49022242D01*
X114455303Y-48810010D01*
X114848629Y-48417370D01*
X115061757Y-47904100D01*
X115062242Y-47348339D01*
X114850010Y-46834697D01*
X114457370Y-46441371D01*
X113944100Y-46228243D01*
X113388339Y-46227758D01*
X112874697Y-46439990D01*
X112578170Y-46736000D01*
X107131485Y-46736000D01*
X106837370Y-46441371D01*
X106324100Y-46228243D01*
X105768339Y-46227758D01*
X105254697Y-46439990D01*
X104958170Y-46736000D01*
X99511485Y-46736000D01*
X99217370Y-46441371D01*
X98704100Y-46228243D01*
X98148339Y-46227758D01*
X97634697Y-46439990D01*
X97338170Y-46736000D01*
X91891485Y-46736000D01*
X91597370Y-46441371D01*
X91084100Y-46228243D01*
X90528339Y-46227758D01*
X90014697Y-46439990D01*
X89718170Y-46736000D01*
X84271485Y-46736000D01*
X83977370Y-46441371D01*
X83464100Y-46228243D01*
X82908339Y-46227758D01*
X82394697Y-46439990D01*
X82098170Y-46736000D01*
X79375000Y-46736000D01*
X79034795Y-46803670D01*
X78746382Y-46996382D01*
X78180000Y-47562764D01*
X78180000Y-45160000D01*
X127560000Y-45160000D01*
X127560000Y-118670000D01*
X127560000Y-118670000D01*
G37*
X127560000Y-118670000D02*
X78180000Y-118670000D01*
X78180000Y-107384875D01*
X78911432Y-107384875D01*
X78914377Y-107392086D01*
X78914370Y-107399874D01*
X79187612Y-108061170D01*
X79458146Y-108723639D01*
X79466512Y-108736160D01*
X79466600Y-108736372D01*
X79466764Y-108736536D01*
X79478723Y-108754434D01*
X79499861Y-108769691D01*
X80464683Y-109736198D01*
X80475566Y-109751277D01*
X80482746Y-109754293D01*
X80488249Y-109759806D01*
X81149149Y-110034236D01*
X81808800Y-110311342D01*
X81816588Y-110311381D01*
X81823782Y-110314368D01*
X82539334Y-110314992D01*
X83254875Y-110318568D01*
X83262086Y-110315623D01*
X83269874Y-110315630D01*
X83931170Y-110042388D01*
X84593639Y-109771854D01*
X84606160Y-109763488D01*
X84606372Y-109763400D01*
X84606536Y-109763236D01*
X84624434Y-109751277D01*
X84639691Y-109730139D01*
X85606198Y-108765317D01*
X85621277Y-108754434D01*
X85624293Y-108747254D01*
X85629806Y-108741751D01*
X85904236Y-108080851D01*
X86181342Y-107421200D01*
X86181381Y-107413412D01*
X86184368Y-107406218D01*
X86184992Y-106690666D01*
X86188568Y-105975125D01*
X86185623Y-105967914D01*
X86185630Y-105960126D01*
X85912388Y-105298830D01*
X85641854Y-104636361D01*
X85633488Y-104623840D01*
X85633400Y-104623628D01*
X85633236Y-104623464D01*
X85621277Y-104605566D01*
X85600139Y-104590309D01*
X84635317Y-103623802D01*
X84624434Y-103608723D01*
X84617254Y-103605707D01*
X84611751Y-103600194D01*
X83950851Y-103325764D01*
X83291200Y-103048658D01*
X83283412Y-103048619D01*
X83276218Y-103045632D01*
X82560666Y-103045008D01*
X81845125Y-103041432D01*
X81837914Y-103044377D01*
X81830126Y-103044370D01*
X81168830Y-103317612D01*
X80506361Y-103588146D01*
X80493840Y-103596512D01*
X80493628Y-103596600D01*
X80493464Y-103596764D01*
X80475566Y-103608723D01*
X80460309Y-103629861D01*
X79493802Y-104594683D01*
X79478723Y-104605566D01*
X79475707Y-104612746D01*
X79470194Y-104618249D01*
X79195764Y-105279149D01*
X78918658Y-105938800D01*
X78918619Y-105946588D01*
X78915632Y-105953782D01*
X78915008Y-106669334D01*
X78911432Y-107384875D01*
X78180000Y-107384875D01*
X78180000Y-54672236D01*
X78486000Y-54978236D01*
X78486000Y-93345000D01*
X78553671Y-93685206D01*
X78746382Y-93973618D01*
X85096382Y-100323618D01*
X85384794Y-100516329D01*
X85725000Y-100584000D01*
X114681000Y-100584000D01*
X114681000Y-103645000D01*
X111530000Y-103645000D01*
X111530000Y-109715000D01*
X114852101Y-109715000D01*
X114941382Y-109848618D01*
X118371689Y-113278925D01*
X118164176Y-113486077D01*
X118110138Y-113616215D01*
X118057243Y-113488200D01*
X117653923Y-113084176D01*
X117126691Y-112865250D01*
X116555813Y-112864752D01*
X116028200Y-113082757D01*
X115624176Y-113486077D01*
X115570138Y-113616215D01*
X115517243Y-113488200D01*
X115113923Y-113084176D01*
X114586691Y-112865250D01*
X114015813Y-112864752D01*
X113488200Y-113082757D01*
X113084176Y-113486077D01*
X113036552Y-113600768D01*
X113013864Y-113545995D01*
X112999312Y-113541612D01*
X112977243Y-113488200D01*
X112573923Y-113084176D01*
X112518536Y-113061177D01*
X112514005Y-113046136D01*
X112278153Y-112961361D01*
X112046691Y-112865250D01*
X112010673Y-112865219D01*
X111976777Y-112853035D01*
X111726434Y-112864971D01*
X111475813Y-112864752D01*
X111442524Y-112878507D01*
X111406546Y-112880222D01*
X111005995Y-113046136D01*
X111001612Y-113060688D01*
X110948200Y-113082757D01*
X110544176Y-113486077D01*
X110521177Y-113541464D01*
X110506136Y-113545995D01*
X110491142Y-113587709D01*
X110473864Y-113545995D01*
X110459312Y-113541612D01*
X110437243Y-113488200D01*
X110033923Y-113084176D01*
X109978536Y-113061177D01*
X109974005Y-113046136D01*
X109738153Y-112961361D01*
X109506691Y-112865250D01*
X109470673Y-112865219D01*
X109436777Y-112853035D01*
X109186434Y-112864971D01*
X108935813Y-112864752D01*
X108902524Y-112878507D01*
X108866546Y-112880222D01*
X108465995Y-113046136D01*
X108461612Y-113060688D01*
X108408200Y-113082757D01*
X108004176Y-113486077D01*
X107981177Y-113541464D01*
X107966136Y-113545995D01*
X107945195Y-113604254D01*
X107897243Y-113488200D01*
X107493923Y-113084176D01*
X106966691Y-112865250D01*
X106395813Y-112864752D01*
X105868200Y-113082757D01*
X105464176Y-113486077D01*
X105410138Y-113616215D01*
X105357243Y-113488200D01*
X104953923Y-113084176D01*
X104426691Y-112865250D01*
X103855813Y-112864752D01*
X103328200Y-113082757D01*
X102924176Y-113486077D01*
X102870138Y-113616215D01*
X102817243Y-113488200D01*
X102413923Y-113084176D01*
X101886691Y-112865250D01*
X101315813Y-112864752D01*
X100788200Y-113082757D01*
X100384176Y-113486077D01*
X100330138Y-113616215D01*
X100277243Y-113488200D01*
X99873923Y-113084176D01*
X99346691Y-112865250D01*
X98775813Y-112864752D01*
X98248200Y-113082757D01*
X97844176Y-113486077D01*
X97790138Y-113616215D01*
X97737243Y-113488200D01*
X97333923Y-113084176D01*
X96806691Y-112865250D01*
X96235813Y-112864752D01*
X95708200Y-113082757D01*
X95304176Y-113486077D01*
X95250138Y-113616215D01*
X95197243Y-113488200D01*
X94793923Y-113084176D01*
X94266691Y-112865250D01*
X93695813Y-112864752D01*
X93168200Y-113082757D01*
X92764176Y-113486077D01*
X92716552Y-113600768D01*
X92693864Y-113545995D01*
X92679312Y-113541612D01*
X92657243Y-113488200D01*
X92253923Y-113084176D01*
X92198536Y-113061177D01*
X92194005Y-113046136D01*
X91958153Y-112961361D01*
X91726691Y-112865250D01*
X91690673Y-112865219D01*
X91656777Y-112853035D01*
X91406434Y-112864971D01*
X91155813Y-112864752D01*
X91122524Y-112878507D01*
X91086546Y-112880222D01*
X90685995Y-113046136D01*
X90681612Y-113060688D01*
X90628200Y-113082757D01*
X90224176Y-113486077D01*
X90201177Y-113541464D01*
X90186136Y-113545995D01*
X90171142Y-113587709D01*
X90153864Y-113545995D01*
X90139312Y-113541612D01*
X90117243Y-113488200D01*
X89713923Y-113084176D01*
X89658536Y-113061177D01*
X89654005Y-113046136D01*
X89418153Y-112961361D01*
X89186691Y-112865250D01*
X89150673Y-112865219D01*
X89116777Y-112853035D01*
X88866434Y-112864971D01*
X88615813Y-112864752D01*
X88582524Y-112878507D01*
X88546546Y-112880222D01*
X88145995Y-113046136D01*
X88141612Y-113060688D01*
X88088200Y-113082757D01*
X87684176Y-113486077D01*
X87661177Y-113541464D01*
X87646136Y-113545995D01*
X87625195Y-113604254D01*
X87577243Y-113488200D01*
X87173923Y-113084176D01*
X86646691Y-112865250D01*
X86075813Y-112864752D01*
X85548200Y-113082757D01*
X85144176Y-113486077D01*
X84925250Y-114013309D01*
X84924752Y-114584187D01*
X85142757Y-115111800D01*
X85471000Y-115440616D01*
X85471000Y-115481547D01*
X85300330Y-115595585D01*
X84975474Y-116081766D01*
X84861400Y-116655255D01*
X84861400Y-117024745D01*
X84975474Y-117598234D01*
X85300330Y-118084415D01*
X85786511Y-118409271D01*
X86360000Y-118523345D01*
X86933489Y-118409271D01*
X87419670Y-118084415D01*
X87626461Y-117774931D01*
X87654532Y-117806349D01*
X87840330Y-118084415D01*
X87995771Y-118188277D01*
X87997964Y-118190732D01*
X88003269Y-118193287D01*
X88326511Y-118409271D01*
X88900000Y-118523345D01*
X89473489Y-118409271D01*
X89796731Y-118193287D01*
X89802036Y-118190732D01*
X89804229Y-118188277D01*
X89959670Y-118084415D01*
X90145468Y-117806349D01*
X90170000Y-117778892D01*
X90194532Y-117806349D01*
X90380330Y-118084415D01*
X90535771Y-118188277D01*
X90537964Y-118190732D01*
X90543269Y-118193287D01*
X90866511Y-118409271D01*
X91440000Y-118523345D01*
X92013489Y-118409271D01*
X92336731Y-118193287D01*
X92342036Y-118190732D01*
X92344229Y-118188277D01*
X92499670Y-118084415D01*
X92685468Y-117806349D01*
X92713539Y-117774931D01*
X92920330Y-118084415D01*
X93406511Y-118409271D01*
X93980000Y-118523345D01*
X94553489Y-118409271D01*
X95039670Y-118084415D01*
X95250000Y-117769634D01*
X95460330Y-118084415D01*
X95946511Y-118409271D01*
X96520000Y-118523345D01*
X97093489Y-118409271D01*
X97579670Y-118084415D01*
X97790000Y-117769634D01*
X98000330Y-118084415D01*
X98486511Y-118409271D01*
X99060000Y-118523345D01*
X99633489Y-118409271D01*
X100119670Y-118084415D01*
X100330000Y-117769634D01*
X100540330Y-118084415D01*
X101026511Y-118409271D01*
X101600000Y-118523345D01*
X102173489Y-118409271D01*
X102659670Y-118084415D01*
X102870000Y-117769634D01*
X103080330Y-118084415D01*
X103566511Y-118409271D01*
X104140000Y-118523345D01*
X104713489Y-118409271D01*
X105199670Y-118084415D01*
X105410000Y-117769634D01*
X105620330Y-118084415D01*
X106106511Y-118409271D01*
X106680000Y-118523345D01*
X107253489Y-118409271D01*
X107739670Y-118084415D01*
X107946461Y-117774931D01*
X107974532Y-117806349D01*
X108160330Y-118084415D01*
X108315771Y-118188277D01*
X108317964Y-118190732D01*
X108323269Y-118193287D01*
X108646511Y-118409271D01*
X109220000Y-118523345D01*
X109793489Y-118409271D01*
X110116731Y-118193287D01*
X110122036Y-118190732D01*
X110124229Y-118188277D01*
X110279670Y-118084415D01*
X110465468Y-117806349D01*
X110490000Y-117778892D01*
X110514532Y-117806349D01*
X110700330Y-118084415D01*
X110855771Y-118188277D01*
X110857964Y-118190732D01*
X110863269Y-118193287D01*
X111186511Y-118409271D01*
X111760000Y-118523345D01*
X112333489Y-118409271D01*
X112656731Y-118193287D01*
X112662036Y-118190732D01*
X112664229Y-118188277D01*
X112819670Y-118084415D01*
X113005468Y-117806349D01*
X113033539Y-117774931D01*
X113240330Y-118084415D01*
X113726511Y-118409271D01*
X114300000Y-118523345D01*
X114873489Y-118409271D01*
X115359670Y-118084415D01*
X115570000Y-117769634D01*
X115780330Y-118084415D01*
X116266511Y-118409271D01*
X116840000Y-118523345D01*
X117413489Y-118409271D01*
X117899670Y-118084415D01*
X118110000Y-117769634D01*
X118320330Y-118084415D01*
X118806511Y-118409271D01*
X119380000Y-118523345D01*
X119953489Y-118409271D01*
X120439670Y-118084415D01*
X120449243Y-118070087D01*
X120453238Y-118091317D01*
X120592310Y-118307441D01*
X120804510Y-118452431D01*
X121056400Y-118503440D01*
X122783600Y-118503440D01*
X123018917Y-118459162D01*
X123235041Y-118320090D01*
X123380031Y-118107890D01*
X123431040Y-117856000D01*
X123431040Y-115824000D01*
X123386762Y-115588683D01*
X123247690Y-115372559D01*
X123035490Y-115227569D01*
X123024258Y-115225294D01*
X123135824Y-115113923D01*
X123354750Y-114586691D01*
X123355248Y-114015813D01*
X123137243Y-113488200D01*
X122809000Y-113159384D01*
X122809000Y-113030000D01*
X122741330Y-112689795D01*
X122548618Y-112401382D01*
X118999000Y-108851764D01*
X118999000Y-107384875D01*
X119551432Y-107384875D01*
X119554377Y-107392086D01*
X119554370Y-107399874D01*
X119827612Y-108061170D01*
X120098146Y-108723639D01*
X120106512Y-108736160D01*
X120106600Y-108736372D01*
X120106764Y-108736536D01*
X120118723Y-108754434D01*
X120139861Y-108769691D01*
X121104683Y-109736198D01*
X121115566Y-109751277D01*
X121122746Y-109754293D01*
X121128249Y-109759806D01*
X121789149Y-110034236D01*
X122448800Y-110311342D01*
X122456588Y-110311381D01*
X122463782Y-110314368D01*
X123179334Y-110314992D01*
X123894875Y-110318568D01*
X123902086Y-110315623D01*
X123909874Y-110315630D01*
X124571170Y-110042388D01*
X125233639Y-109771854D01*
X125246160Y-109763488D01*
X125246372Y-109763400D01*
X125246536Y-109763236D01*
X125264434Y-109751277D01*
X125279691Y-109730139D01*
X126246198Y-108765317D01*
X126261277Y-108754434D01*
X126264293Y-108747254D01*
X126269806Y-108741751D01*
X126544236Y-108080851D01*
X126821342Y-107421200D01*
X126821381Y-107413412D01*
X126824368Y-107406218D01*
X126824992Y-106690666D01*
X126828568Y-105975125D01*
X126825623Y-105967914D01*
X126825630Y-105960126D01*
X126552388Y-105298830D01*
X126281854Y-104636361D01*
X126273488Y-104623840D01*
X126273400Y-104623628D01*
X126273236Y-104623464D01*
X126261277Y-104605566D01*
X126240139Y-104590309D01*
X125275317Y-103623802D01*
X125264434Y-103608723D01*
X125257254Y-103605707D01*
X125251751Y-103600194D01*
X124590851Y-103325764D01*
X123931200Y-103048658D01*
X123923412Y-103048619D01*
X123916218Y-103045632D01*
X123200666Y-103045008D01*
X122485125Y-103041432D01*
X122477914Y-103044377D01*
X122470126Y-103044370D01*
X121808830Y-103317612D01*
X121146361Y-103588146D01*
X121133840Y-103596512D01*
X121133628Y-103596600D01*
X121133464Y-103596764D01*
X121115566Y-103608723D01*
X121100309Y-103629861D01*
X120133802Y-104594683D01*
X120118723Y-104605566D01*
X120115707Y-104612746D01*
X120110194Y-104618249D01*
X119835764Y-105279149D01*
X119558658Y-105938800D01*
X119558619Y-105946588D01*
X119555632Y-105953782D01*
X119555008Y-106669334D01*
X119551432Y-107384875D01*
X118999000Y-107384875D01*
X118999000Y-104508236D01*
X124453618Y-99053618D01*
X124646330Y-98765205D01*
X124714000Y-98425000D01*
X124714000Y-74930000D01*
X124646329Y-74589794D01*
X124453618Y-74301382D01*
X123183618Y-73031382D01*
X123174067Y-73025000D01*
X122895206Y-72838671D01*
X122555000Y-72771000D01*
X121218067Y-72771000D01*
X121104029Y-72600330D01*
X120904000Y-72466675D01*
X120904000Y-67678236D01*
X121913618Y-66668618D01*
X122106329Y-66380206D01*
X122174000Y-66040000D01*
X122174000Y-56515000D01*
X122106329Y-56174794D01*
X121913618Y-55886382D01*
X121211690Y-55184454D01*
X121789149Y-55424236D01*
X122448800Y-55701342D01*
X122456588Y-55701381D01*
X122463782Y-55704368D01*
X123179334Y-55704992D01*
X123894875Y-55708568D01*
X123902086Y-55705623D01*
X123909874Y-55705630D01*
X124571170Y-55432388D01*
X125233639Y-55161854D01*
X125246160Y-55153488D01*
X125246372Y-55153400D01*
X125246536Y-55153236D01*
X125264434Y-55141277D01*
X125279691Y-55120139D01*
X126246198Y-54155317D01*
X126261277Y-54144434D01*
X126264293Y-54137254D01*
X126269806Y-54131751D01*
X126544236Y-53470851D01*
X126821342Y-52811200D01*
X126821381Y-52803412D01*
X126824368Y-52796218D01*
X126824992Y-52080666D01*
X126828568Y-51365125D01*
X126825623Y-51357914D01*
X126825630Y-51350126D01*
X126552388Y-50688830D01*
X126281854Y-50026361D01*
X126273488Y-50013840D01*
X126273400Y-50013628D01*
X126273236Y-50013464D01*
X126261277Y-49995566D01*
X126240139Y-49980309D01*
X125275317Y-49013802D01*
X125264434Y-48998723D01*
X125257254Y-48995707D01*
X125251751Y-48990194D01*
X124590851Y-48715764D01*
X123931200Y-48438658D01*
X123923412Y-48438619D01*
X123916218Y-48435632D01*
X123200666Y-48435008D01*
X122485125Y-48431432D01*
X122477914Y-48434377D01*
X122470126Y-48434370D01*
X121808830Y-48707612D01*
X121146361Y-48978146D01*
X121133840Y-48986512D01*
X121133628Y-48986600D01*
X121133464Y-48986764D01*
X121115566Y-48998723D01*
X121100309Y-49019861D01*
X120133802Y-49984683D01*
X120118723Y-49995566D01*
X120115707Y-50002746D01*
X120110194Y-50008249D01*
X119835764Y-50669149D01*
X119558658Y-51328800D01*
X119558619Y-51336588D01*
X119555632Y-51343782D01*
X119555008Y-52059334D01*
X119551432Y-52774875D01*
X119554377Y-52782086D01*
X119554370Y-52789874D01*
X119827612Y-53451170D01*
X120068652Y-54041416D01*
X120008618Y-53981382D01*
X119999067Y-53975000D01*
X119720206Y-53788671D01*
X119380000Y-53721000D01*
X119133661Y-53721000D01*
X119094162Y-53511083D01*
X118955090Y-53294959D01*
X118742890Y-53149969D01*
X118491000Y-53098960D01*
X116459000Y-53098960D01*
X116223683Y-53143238D01*
X116007559Y-53282310D01*
X115862569Y-53494510D01*
X115816704Y-53721000D01*
X111513661Y-53721000D01*
X111474162Y-53511083D01*
X111335090Y-53294959D01*
X111122890Y-53149969D01*
X110871000Y-53098960D01*
X108839000Y-53098960D01*
X108603683Y-53143238D01*
X108387559Y-53282310D01*
X108242569Y-53494510D01*
X108196704Y-53721000D01*
X103893661Y-53721000D01*
X103854162Y-53511083D01*
X103715090Y-53294959D01*
X103502890Y-53149969D01*
X103251000Y-53098960D01*
X101219000Y-53098960D01*
X100983683Y-53143238D01*
X100767559Y-53282310D01*
X100622569Y-53494510D01*
X100576704Y-53721000D01*
X96273661Y-53721000D01*
X96234162Y-53511083D01*
X96095090Y-53294959D01*
X95882890Y-53149969D01*
X95631000Y-53098960D01*
X93599000Y-53098960D01*
X93363683Y-53143238D01*
X93147559Y-53282310D01*
X93002569Y-53494510D01*
X92956704Y-53721000D01*
X88653661Y-53721000D01*
X88614162Y-53511083D01*
X88475090Y-53294959D01*
X88262890Y-53149969D01*
X88011000Y-53098960D01*
X86060460Y-53098960D01*
X86181342Y-52811200D01*
X86181381Y-52803412D01*
X86184368Y-52796218D01*
X86184992Y-52080666D01*
X86188568Y-51365125D01*
X86185623Y-51357914D01*
X86185630Y-51350126D01*
X85912388Y-50688830D01*
X85641854Y-50026361D01*
X85633488Y-50013840D01*
X85633400Y-50013628D01*
X85633236Y-50013464D01*
X85621277Y-49995566D01*
X85600139Y-49980309D01*
X84635317Y-49013802D01*
X84624434Y-48998723D01*
X84617254Y-48995707D01*
X84611751Y-48990194D01*
X84034796Y-48750621D01*
X84271830Y-48514000D01*
X89718515Y-48514000D01*
X90012630Y-48808629D01*
X90525900Y-49021757D01*
X91081661Y-49022242D01*
X91595303Y-48810010D01*
X91891830Y-48514000D01*
X97338515Y-48514000D01*
X97632630Y-48808629D01*
X98145900Y-49021757D01*
X98701661Y-49022242D01*
X99215303Y-48810010D01*
X99511830Y-48514000D01*
X104958515Y-48514000D01*
X105252630Y-48808629D01*
X105765900Y-49021757D01*
X106321661Y-49022242D01*
X106835303Y-48810010D01*
X107131830Y-48514000D01*
X112578515Y-48514000D01*
X112872630Y-48808629D01*
X113385900Y-49021757D01*
X113941661Y-49022242D01*
X114455303Y-48810010D01*
X114848629Y-48417370D01*
X115061757Y-47904100D01*
X115062242Y-47348339D01*
X114850010Y-46834697D01*
X114457370Y-46441371D01*
X113944100Y-46228243D01*
X113388339Y-46227758D01*
X112874697Y-46439990D01*
X112578170Y-46736000D01*
X107131485Y-46736000D01*
X106837370Y-46441371D01*
X106324100Y-46228243D01*
X105768339Y-46227758D01*
X105254697Y-46439990D01*
X104958170Y-46736000D01*
X99511485Y-46736000D01*
X99217370Y-46441371D01*
X98704100Y-46228243D01*
X98148339Y-46227758D01*
X97634697Y-46439990D01*
X97338170Y-46736000D01*
X91891485Y-46736000D01*
X91597370Y-46441371D01*
X91084100Y-46228243D01*
X90528339Y-46227758D01*
X90014697Y-46439990D01*
X89718170Y-46736000D01*
X84271485Y-46736000D01*
X83977370Y-46441371D01*
X83464100Y-46228243D01*
X82908339Y-46227758D01*
X82394697Y-46439990D01*
X82098170Y-46736000D01*
X79375000Y-46736000D01*
X79034795Y-46803670D01*
X78746382Y-46996382D01*
X78180000Y-47562764D01*
X78180000Y-45160000D01*
X127560000Y-45160000D01*
X127560000Y-118670000D01*
G36*
X95302757Y-115111800D02*
X95631000Y-115440616D01*
X95631000Y-115481547D01*
X95460330Y-115595585D01*
X95250000Y-115910366D01*
X95039670Y-115595585D01*
X94869000Y-115481547D01*
X94869000Y-115440178D01*
X95195824Y-115113923D01*
X95249862Y-114983785D01*
X95302757Y-115111800D01*
X95302757Y-115111800D01*
G37*
X95302757Y-115111800D02*
X95631000Y-115440616D01*
X95631000Y-115481547D01*
X95460330Y-115595585D01*
X95250000Y-115910366D01*
X95039670Y-115595585D01*
X94869000Y-115481547D01*
X94869000Y-115440178D01*
X95195824Y-115113923D01*
X95249862Y-114983785D01*
X95302757Y-115111800D01*
G36*
X105462757Y-115111800D02*
X105791000Y-115440616D01*
X105791000Y-115481547D01*
X105620330Y-115595585D01*
X105410000Y-115910366D01*
X105199670Y-115595585D01*
X105029000Y-115481547D01*
X105029000Y-115440178D01*
X105355824Y-115113923D01*
X105409862Y-114983785D01*
X105462757Y-115111800D01*
X105462757Y-115111800D01*
G37*
X105462757Y-115111800D02*
X105791000Y-115440616D01*
X105791000Y-115481547D01*
X105620330Y-115595585D01*
X105410000Y-115910366D01*
X105199670Y-115595585D01*
X105029000Y-115481547D01*
X105029000Y-115440178D01*
X105355824Y-115113923D01*
X105409862Y-114983785D01*
X105462757Y-115111800D01*
G36*
X118162757Y-115111800D02*
X118491000Y-115440616D01*
X118491000Y-115481547D01*
X118320330Y-115595585D01*
X118110000Y-115910366D01*
X117899670Y-115595585D01*
X117729000Y-115481547D01*
X117729000Y-115440178D01*
X118055824Y-115113923D01*
X118109862Y-114983785D01*
X118162757Y-115111800D01*
X118162757Y-115111800D01*
G37*
X118162757Y-115111800D02*
X118491000Y-115440616D01*
X118491000Y-115481547D01*
X118320330Y-115595585D01*
X118110000Y-115910366D01*
X117899670Y-115595585D01*
X117729000Y-115481547D01*
X117729000Y-115440178D01*
X118055824Y-115113923D01*
X118109862Y-114983785D01*
X118162757Y-115111800D01*
G36*
X115622757Y-115111800D02*
X115951000Y-115440616D01*
X115951000Y-115481547D01*
X115780330Y-115595585D01*
X115570000Y-115910366D01*
X115359670Y-115595585D01*
X115189000Y-115481547D01*
X115189000Y-115440178D01*
X115515824Y-115113923D01*
X115569862Y-114983785D01*
X115622757Y-115111800D01*
X115622757Y-115111800D01*
G37*
X115622757Y-115111800D02*
X115951000Y-115440616D01*
X115951000Y-115481547D01*
X115780330Y-115595585D01*
X115570000Y-115910366D01*
X115359670Y-115595585D01*
X115189000Y-115481547D01*
X115189000Y-115440178D01*
X115515824Y-115113923D01*
X115569862Y-114983785D01*
X115622757Y-115111800D01*
G36*
X97842757Y-115111800D02*
X98171000Y-115440616D01*
X98171000Y-115481547D01*
X98000330Y-115595585D01*
X97790000Y-115910366D01*
X97579670Y-115595585D01*
X97409000Y-115481547D01*
X97409000Y-115440178D01*
X97735824Y-115113923D01*
X97789862Y-114983785D01*
X97842757Y-115111800D01*
X97842757Y-115111800D01*
G37*
X97842757Y-115111800D02*
X98171000Y-115440616D01*
X98171000Y-115481547D01*
X98000330Y-115595585D01*
X97790000Y-115910366D01*
X97579670Y-115595585D01*
X97409000Y-115481547D01*
X97409000Y-115440178D01*
X97735824Y-115113923D01*
X97789862Y-114983785D01*
X97842757Y-115111800D01*
G36*
X102922757Y-115111800D02*
X103251000Y-115440616D01*
X103251000Y-115481547D01*
X103080330Y-115595585D01*
X102870000Y-115910366D01*
X102659670Y-115595585D01*
X102489000Y-115481547D01*
X102489000Y-115440178D01*
X102815824Y-115113923D01*
X102869862Y-114983785D01*
X102922757Y-115111800D01*
X102922757Y-115111800D01*
G37*
X102922757Y-115111800D02*
X103251000Y-115440616D01*
X103251000Y-115481547D01*
X103080330Y-115595585D01*
X102870000Y-115910366D01*
X102659670Y-115595585D01*
X102489000Y-115481547D01*
X102489000Y-115440178D01*
X102815824Y-115113923D01*
X102869862Y-114983785D01*
X102922757Y-115111800D01*
G36*
X100382757Y-115111800D02*
X100711000Y-115440616D01*
X100711000Y-115481547D01*
X100540330Y-115595585D01*
X100330000Y-115910366D01*
X100119670Y-115595585D01*
X99949000Y-115481547D01*
X99949000Y-115440178D01*
X100275824Y-115113923D01*
X100329862Y-114983785D01*
X100382757Y-115111800D01*
X100382757Y-115111800D01*
G37*
X100382757Y-115111800D02*
X100711000Y-115440616D01*
X100711000Y-115481547D01*
X100540330Y-115595585D01*
X100330000Y-115910366D01*
X100119670Y-115595585D01*
X99949000Y-115481547D01*
X99949000Y-115440178D01*
X100275824Y-115113923D01*
X100329862Y-114983785D01*
X100382757Y-115111800D01*
G36*
X113082757Y-115111800D02*
X113411000Y-115440616D01*
X113411000Y-115481547D01*
X113240330Y-115595585D01*
X113033539Y-115905069D01*
X113005468Y-115873651D01*
X112819670Y-115595585D01*
X112664229Y-115491723D01*
X112662036Y-115489268D01*
X112656731Y-115486713D01*
X112624175Y-115464959D01*
X112975824Y-115113923D01*
X112998823Y-115058536D01*
X113013864Y-115054005D01*
X113034805Y-114995746D01*
X113082757Y-115111800D01*
X113082757Y-115111800D01*
G37*
X113082757Y-115111800D02*
X113411000Y-115440616D01*
X113411000Y-115481547D01*
X113240330Y-115595585D01*
X113033539Y-115905069D01*
X113005468Y-115873651D01*
X112819670Y-115595585D01*
X112664229Y-115491723D01*
X112662036Y-115489268D01*
X112656731Y-115486713D01*
X112624175Y-115464959D01*
X112975824Y-115113923D01*
X112998823Y-115058536D01*
X113013864Y-115054005D01*
X113034805Y-114995746D01*
X113082757Y-115111800D01*
G36*
X92762757Y-115111800D02*
X93091000Y-115440616D01*
X93091000Y-115481547D01*
X92920330Y-115595585D01*
X92713539Y-115905069D01*
X92685468Y-115873651D01*
X92499670Y-115595585D01*
X92344229Y-115491723D01*
X92342036Y-115489268D01*
X92336731Y-115486713D01*
X92304175Y-115464959D01*
X92655824Y-115113923D01*
X92678823Y-115058536D01*
X92693864Y-115054005D01*
X92714805Y-114995746D01*
X92762757Y-115111800D01*
X92762757Y-115111800D01*
G37*
X92762757Y-115111800D02*
X93091000Y-115440616D01*
X93091000Y-115481547D01*
X92920330Y-115595585D01*
X92713539Y-115905069D01*
X92685468Y-115873651D01*
X92499670Y-115595585D01*
X92344229Y-115491723D01*
X92342036Y-115489268D01*
X92336731Y-115486713D01*
X92304175Y-115464959D01*
X92655824Y-115113923D01*
X92678823Y-115058536D01*
X92693864Y-115054005D01*
X92714805Y-114995746D01*
X92762757Y-115111800D01*
G36*
X107966136Y-115054005D02*
X107980688Y-115058388D01*
X108002757Y-115111800D01*
X108355511Y-115465169D01*
X108323269Y-115486713D01*
X108317964Y-115489268D01*
X108315771Y-115491723D01*
X108160330Y-115595585D01*
X107974532Y-115873651D01*
X107946461Y-115905069D01*
X107739670Y-115595585D01*
X107569000Y-115481547D01*
X107569000Y-115440178D01*
X107895824Y-115113923D01*
X107943448Y-114999232D01*
X107966136Y-115054005D01*
X107966136Y-115054005D01*
G37*
X107966136Y-115054005D02*
X107980688Y-115058388D01*
X108002757Y-115111800D01*
X108355511Y-115465169D01*
X108323269Y-115486713D01*
X108317964Y-115489268D01*
X108315771Y-115491723D01*
X108160330Y-115595585D01*
X107974532Y-115873651D01*
X107946461Y-115905069D01*
X107739670Y-115595585D01*
X107569000Y-115481547D01*
X107569000Y-115440178D01*
X107895824Y-115113923D01*
X107943448Y-114999232D01*
X107966136Y-115054005D01*
G36*
X87646136Y-115054005D02*
X87660688Y-115058388D01*
X87682757Y-115111800D01*
X88035511Y-115465169D01*
X88003269Y-115486713D01*
X87997964Y-115489268D01*
X87995771Y-115491723D01*
X87840330Y-115595585D01*
X87654532Y-115873651D01*
X87626461Y-115905069D01*
X87419670Y-115595585D01*
X87249000Y-115481547D01*
X87249000Y-115440178D01*
X87575824Y-115113923D01*
X87623448Y-114999232D01*
X87646136Y-115054005D01*
X87646136Y-115054005D01*
G37*
X87646136Y-115054005D02*
X87660688Y-115058388D01*
X87682757Y-115111800D01*
X88035511Y-115465169D01*
X88003269Y-115486713D01*
X87997964Y-115489268D01*
X87995771Y-115491723D01*
X87840330Y-115595585D01*
X87654532Y-115873651D01*
X87626461Y-115905069D01*
X87419670Y-115595585D01*
X87249000Y-115481547D01*
X87249000Y-115440178D01*
X87575824Y-115113923D01*
X87623448Y-114999232D01*
X87646136Y-115054005D01*
G36*
X90186136Y-115054005D02*
X90200688Y-115058388D01*
X90222757Y-115111800D01*
X90575511Y-115465169D01*
X90543269Y-115486713D01*
X90537964Y-115489268D01*
X90535771Y-115491723D01*
X90380330Y-115595585D01*
X90194532Y-115873651D01*
X90170000Y-115901108D01*
X90145468Y-115873651D01*
X89959670Y-115595585D01*
X89804229Y-115491723D01*
X89802036Y-115489268D01*
X89796731Y-115486713D01*
X89764175Y-115464959D01*
X90115824Y-115113923D01*
X90138823Y-115058536D01*
X90153864Y-115054005D01*
X90168858Y-115012291D01*
X90186136Y-115054005D01*
X90186136Y-115054005D01*
G37*
X90186136Y-115054005D02*
X90200688Y-115058388D01*
X90222757Y-115111800D01*
X90575511Y-115465169D01*
X90543269Y-115486713D01*
X90537964Y-115489268D01*
X90535771Y-115491723D01*
X90380330Y-115595585D01*
X90194532Y-115873651D01*
X90170000Y-115901108D01*
X90145468Y-115873651D01*
X89959670Y-115595585D01*
X89804229Y-115491723D01*
X89802036Y-115489268D01*
X89796731Y-115486713D01*
X89764175Y-115464959D01*
X90115824Y-115113923D01*
X90138823Y-115058536D01*
X90153864Y-115054005D01*
X90168858Y-115012291D01*
X90186136Y-115054005D01*
G36*
X110506136Y-115054005D02*
X110520688Y-115058388D01*
X110542757Y-115111800D01*
X110895511Y-115465169D01*
X110863269Y-115486713D01*
X110857964Y-115489268D01*
X110855771Y-115491723D01*
X110700330Y-115595585D01*
X110514532Y-115873651D01*
X110490000Y-115901108D01*
X110465468Y-115873651D01*
X110279670Y-115595585D01*
X110124229Y-115491723D01*
X110122036Y-115489268D01*
X110116731Y-115486713D01*
X110084175Y-115464959D01*
X110435824Y-115113923D01*
X110458823Y-115058536D01*
X110473864Y-115054005D01*
X110488858Y-115012291D01*
X110506136Y-115054005D01*
X110506136Y-115054005D01*
G37*
X110506136Y-115054005D02*
X110520688Y-115058388D01*
X110542757Y-115111800D01*
X110895511Y-115465169D01*
X110863269Y-115486713D01*
X110857964Y-115489268D01*
X110855771Y-115491723D01*
X110700330Y-115595585D01*
X110514532Y-115873651D01*
X110490000Y-115901108D01*
X110465468Y-115873651D01*
X110279670Y-115595585D01*
X110124229Y-115491723D01*
X110122036Y-115489268D01*
X110116731Y-115486713D01*
X110084175Y-115464959D01*
X110435824Y-115113923D01*
X110458823Y-115058536D01*
X110473864Y-115054005D01*
X110488858Y-115012291D01*
X110506136Y-115054005D01*
G36*
X120702757Y-115111800D02*
X120815312Y-115224552D01*
X120604959Y-115359910D01*
X120459969Y-115572110D01*
X120451600Y-115613439D01*
X120439670Y-115595585D01*
X120269000Y-115481547D01*
X120269000Y-115440178D01*
X120595824Y-115113923D01*
X120649862Y-114983785D01*
X120702757Y-115111800D01*
X120702757Y-115111800D01*
G37*
X120702757Y-115111800D02*
X120815312Y-115224552D01*
X120604959Y-115359910D01*
X120459969Y-115572110D01*
X120451600Y-115613439D01*
X120439670Y-115595585D01*
X120269000Y-115481547D01*
X120269000Y-115440178D01*
X120595824Y-115113923D01*
X120649862Y-114983785D01*
X120702757Y-115111800D01*
G36*
X120453238Y-97771317D02*
X120592310Y-97987441D01*
X120804510Y-98132431D01*
X121056400Y-98183440D01*
X122783600Y-98183440D01*
X122815286Y-98177478D01*
X117481382Y-103511382D01*
X117288671Y-103799794D01*
X117221000Y-104140000D01*
X117221000Y-109220000D01*
X117288671Y-109560206D01*
X117392101Y-109715000D01*
X117481382Y-109848618D01*
X120911689Y-113278925D01*
X120704176Y-113486077D01*
X120650138Y-113616215D01*
X120597243Y-113488200D01*
X120269000Y-113159384D01*
X120269000Y-113030000D01*
X120201330Y-112689795D01*
X120008618Y-112401382D01*
X116459000Y-108851764D01*
X116459000Y-100584000D01*
X117475000Y-100584000D01*
X117815206Y-100516329D01*
X118103618Y-100323618D01*
X120008618Y-98418618D01*
X120165759Y-98183440D01*
X120201329Y-98130206D01*
X120248709Y-97892011D01*
X120439670Y-97764415D01*
X120449243Y-97750087D01*
X120453238Y-97771317D01*
X120453238Y-97771317D01*
G37*
X120453238Y-97771317D02*
X120592310Y-97987441D01*
X120804510Y-98132431D01*
X121056400Y-98183440D01*
X122783600Y-98183440D01*
X122815286Y-98177478D01*
X117481382Y-103511382D01*
X117288671Y-103799794D01*
X117221000Y-104140000D01*
X117221000Y-109220000D01*
X117288671Y-109560206D01*
X117392101Y-109715000D01*
X117481382Y-109848618D01*
X120911689Y-113278925D01*
X120704176Y-113486077D01*
X120650138Y-113616215D01*
X120597243Y-113488200D01*
X120269000Y-113159384D01*
X120269000Y-113030000D01*
X120201330Y-112689795D01*
X120008618Y-112401382D01*
X116459000Y-108851764D01*
X116459000Y-100584000D01*
X117475000Y-100584000D01*
X117815206Y-100516329D01*
X118103618Y-100323618D01*
X120008618Y-98418618D01*
X120165759Y-98183440D01*
X120201329Y-98130206D01*
X120248709Y-97892011D01*
X120439670Y-97764415D01*
X120449243Y-97750087D01*
X120453238Y-97771317D01*
G36*
X80464683Y-55126198D02*
X80475566Y-55141277D01*
X80482746Y-55144293D01*
X80488249Y-55149806D01*
X81149149Y-55424236D01*
X81571223Y-55601541D01*
X80651382Y-56521382D01*
X80458671Y-56809794D01*
X80391000Y-57150000D01*
X80391000Y-60960000D01*
X80458671Y-61300206D01*
X80617855Y-61538441D01*
X80651382Y-61588618D01*
X81788086Y-62725322D01*
X81787758Y-63101661D01*
X81999990Y-63615303D01*
X82392630Y-64008629D01*
X82905900Y-64221757D01*
X83461661Y-64222242D01*
X83975303Y-64010010D01*
X84201000Y-63784707D01*
X84201000Y-64807857D01*
X80415000Y-64807857D01*
X80415000Y-87592142D01*
X84385000Y-87592142D01*
X84385000Y-83064304D01*
X84461382Y-83178618D01*
X85471000Y-84188236D01*
X85471000Y-90299822D01*
X85144176Y-90626077D01*
X84925250Y-91153309D01*
X84924752Y-91724187D01*
X85142757Y-92251800D01*
X85471000Y-92580616D01*
X85471000Y-95161547D01*
X85300330Y-95275585D01*
X84975474Y-95761766D01*
X84861400Y-96335255D01*
X84861400Y-96704745D01*
X84975474Y-97278234D01*
X85300330Y-97764415D01*
X85786511Y-98089271D01*
X86360000Y-98203345D01*
X86933489Y-98089271D01*
X87419670Y-97764415D01*
X87630000Y-97449634D01*
X87840330Y-97764415D01*
X88326511Y-98089271D01*
X88900000Y-98203345D01*
X89473489Y-98089271D01*
X89959670Y-97764415D01*
X90170000Y-97449634D01*
X90380330Y-97764415D01*
X90866511Y-98089271D01*
X91440000Y-98203345D01*
X92013489Y-98089271D01*
X92499670Y-97764415D01*
X92710000Y-97449634D01*
X92920330Y-97764415D01*
X93406511Y-98089271D01*
X93980000Y-98203345D01*
X94553489Y-98089271D01*
X95039670Y-97764415D01*
X95250000Y-97449634D01*
X95460330Y-97764415D01*
X95946511Y-98089271D01*
X96520000Y-98203345D01*
X97093489Y-98089271D01*
X97579670Y-97764415D01*
X97786461Y-97454931D01*
X97814532Y-97486349D01*
X98000330Y-97764415D01*
X98155771Y-97868277D01*
X98157964Y-97870732D01*
X98163269Y-97873287D01*
X98486511Y-98089271D01*
X99060000Y-98203345D01*
X99633489Y-98089271D01*
X99956731Y-97873287D01*
X99962036Y-97870732D01*
X99964229Y-97868277D01*
X100119670Y-97764415D01*
X100305468Y-97486349D01*
X100330000Y-97458892D01*
X100354532Y-97486349D01*
X100540330Y-97764415D01*
X100695771Y-97868277D01*
X100697964Y-97870732D01*
X100703269Y-97873287D01*
X101026511Y-98089271D01*
X101600000Y-98203345D01*
X102173489Y-98089271D01*
X102496731Y-97873287D01*
X102502036Y-97870732D01*
X102504229Y-97868277D01*
X102659670Y-97764415D01*
X102845468Y-97486349D01*
X102873539Y-97454931D01*
X103080330Y-97764415D01*
X103566511Y-98089271D01*
X104140000Y-98203345D01*
X104713489Y-98089271D01*
X105199670Y-97764415D01*
X105410000Y-97449634D01*
X105620330Y-97764415D01*
X106106511Y-98089271D01*
X106680000Y-98203345D01*
X107253489Y-98089271D01*
X107739670Y-97764415D01*
X107950000Y-97449634D01*
X108160330Y-97764415D01*
X108646511Y-98089271D01*
X109220000Y-98203345D01*
X109793489Y-98089271D01*
X110279670Y-97764415D01*
X110490000Y-97449634D01*
X110700330Y-97764415D01*
X111186511Y-98089271D01*
X111760000Y-98203345D01*
X112333489Y-98089271D01*
X112819670Y-97764415D01*
X113030000Y-97449634D01*
X113240330Y-97764415D01*
X113726511Y-98089271D01*
X114300000Y-98203345D01*
X114873489Y-98089271D01*
X115359670Y-97764415D01*
X115566461Y-97454931D01*
X115594532Y-97486349D01*
X115780330Y-97764415D01*
X115935771Y-97868277D01*
X115937964Y-97870732D01*
X115943269Y-97873287D01*
X116266511Y-98089271D01*
X116840000Y-98203345D01*
X117413489Y-98089271D01*
X117736731Y-97873287D01*
X117742036Y-97870732D01*
X117744229Y-97868277D01*
X117899670Y-97764415D01*
X118085468Y-97486349D01*
X118113539Y-97454931D01*
X118251444Y-97661320D01*
X117106764Y-98806000D01*
X86093236Y-98806000D01*
X80264000Y-92976764D01*
X80264000Y-54925165D01*
X80464683Y-55126198D01*
X80464683Y-55126198D01*
G37*
X80464683Y-55126198D02*
X80475566Y-55141277D01*
X80482746Y-55144293D01*
X80488249Y-55149806D01*
X81149149Y-55424236D01*
X81571223Y-55601541D01*
X80651382Y-56521382D01*
X80458671Y-56809794D01*
X80391000Y-57150000D01*
X80391000Y-60960000D01*
X80458671Y-61300206D01*
X80617855Y-61538441D01*
X80651382Y-61588618D01*
X81788086Y-62725322D01*
X81787758Y-63101661D01*
X81999990Y-63615303D01*
X82392630Y-64008629D01*
X82905900Y-64221757D01*
X83461661Y-64222242D01*
X83975303Y-64010010D01*
X84201000Y-63784707D01*
X84201000Y-64807857D01*
X80415000Y-64807857D01*
X80415000Y-87592142D01*
X84385000Y-87592142D01*
X84385000Y-83064304D01*
X84461382Y-83178618D01*
X85471000Y-84188236D01*
X85471000Y-90299822D01*
X85144176Y-90626077D01*
X84925250Y-91153309D01*
X84924752Y-91724187D01*
X85142757Y-92251800D01*
X85471000Y-92580616D01*
X85471000Y-95161547D01*
X85300330Y-95275585D01*
X84975474Y-95761766D01*
X84861400Y-96335255D01*
X84861400Y-96704745D01*
X84975474Y-97278234D01*
X85300330Y-97764415D01*
X85786511Y-98089271D01*
X86360000Y-98203345D01*
X86933489Y-98089271D01*
X87419670Y-97764415D01*
X87630000Y-97449634D01*
X87840330Y-97764415D01*
X88326511Y-98089271D01*
X88900000Y-98203345D01*
X89473489Y-98089271D01*
X89959670Y-97764415D01*
X90170000Y-97449634D01*
X90380330Y-97764415D01*
X90866511Y-98089271D01*
X91440000Y-98203345D01*
X92013489Y-98089271D01*
X92499670Y-97764415D01*
X92710000Y-97449634D01*
X92920330Y-97764415D01*
X93406511Y-98089271D01*
X93980000Y-98203345D01*
X94553489Y-98089271D01*
X95039670Y-97764415D01*
X95250000Y-97449634D01*
X95460330Y-97764415D01*
X95946511Y-98089271D01*
X96520000Y-98203345D01*
X97093489Y-98089271D01*
X97579670Y-97764415D01*
X97786461Y-97454931D01*
X97814532Y-97486349D01*
X98000330Y-97764415D01*
X98155771Y-97868277D01*
X98157964Y-97870732D01*
X98163269Y-97873287D01*
X98486511Y-98089271D01*
X99060000Y-98203345D01*
X99633489Y-98089271D01*
X99956731Y-97873287D01*
X99962036Y-97870732D01*
X99964229Y-97868277D01*
X100119670Y-97764415D01*
X100305468Y-97486349D01*
X100330000Y-97458892D01*
X100354532Y-97486349D01*
X100540330Y-97764415D01*
X100695771Y-97868277D01*
X100697964Y-97870732D01*
X100703269Y-97873287D01*
X101026511Y-98089271D01*
X101600000Y-98203345D01*
X102173489Y-98089271D01*
X102496731Y-97873287D01*
X102502036Y-97870732D01*
X102504229Y-97868277D01*
X102659670Y-97764415D01*
X102845468Y-97486349D01*
X102873539Y-97454931D01*
X103080330Y-97764415D01*
X103566511Y-98089271D01*
X104140000Y-98203345D01*
X104713489Y-98089271D01*
X105199670Y-97764415D01*
X105410000Y-97449634D01*
X105620330Y-97764415D01*
X106106511Y-98089271D01*
X106680000Y-98203345D01*
X107253489Y-98089271D01*
X107739670Y-97764415D01*
X107950000Y-97449634D01*
X108160330Y-97764415D01*
X108646511Y-98089271D01*
X109220000Y-98203345D01*
X109793489Y-98089271D01*
X110279670Y-97764415D01*
X110490000Y-97449634D01*
X110700330Y-97764415D01*
X111186511Y-98089271D01*
X111760000Y-98203345D01*
X112333489Y-98089271D01*
X112819670Y-97764415D01*
X113030000Y-97449634D01*
X113240330Y-97764415D01*
X113726511Y-98089271D01*
X114300000Y-98203345D01*
X114873489Y-98089271D01*
X115359670Y-97764415D01*
X115566461Y-97454931D01*
X115594532Y-97486349D01*
X115780330Y-97764415D01*
X115935771Y-97868277D01*
X115937964Y-97870732D01*
X115943269Y-97873287D01*
X116266511Y-98089271D01*
X116840000Y-98203345D01*
X117413489Y-98089271D01*
X117736731Y-97873287D01*
X117742036Y-97870732D01*
X117744229Y-97868277D01*
X117899670Y-97764415D01*
X118085468Y-97486349D01*
X118113539Y-97454931D01*
X118251444Y-97661320D01*
X117106764Y-98806000D01*
X86093236Y-98806000D01*
X80264000Y-92976764D01*
X80264000Y-54925165D01*
X80464683Y-55126198D01*
G36*
X108002757Y-92251800D02*
X108331000Y-92580616D01*
X108331000Y-95161547D01*
X108160330Y-95275585D01*
X107950000Y-95590366D01*
X107739670Y-95275585D01*
X107569000Y-95161547D01*
X107569000Y-92580178D01*
X107895824Y-92253923D01*
X107949862Y-92123785D01*
X108002757Y-92251800D01*
X108002757Y-92251800D01*
G37*
X108002757Y-92251800D02*
X108331000Y-92580616D01*
X108331000Y-95161547D01*
X108160330Y-95275585D01*
X107950000Y-95590366D01*
X107739670Y-95275585D01*
X107569000Y-95161547D01*
X107569000Y-92580178D01*
X107895824Y-92253923D01*
X107949862Y-92123785D01*
X108002757Y-92251800D01*
G36*
X95302757Y-92251800D02*
X95631000Y-92580616D01*
X95631000Y-95161547D01*
X95460330Y-95275585D01*
X95250000Y-95590366D01*
X95039670Y-95275585D01*
X94869000Y-95161547D01*
X94869000Y-92580178D01*
X95195824Y-92253923D01*
X95249862Y-92123785D01*
X95302757Y-92251800D01*
X95302757Y-92251800D01*
G37*
X95302757Y-92251800D02*
X95631000Y-92580616D01*
X95631000Y-95161547D01*
X95460330Y-95275585D01*
X95250000Y-95590366D01*
X95039670Y-95275585D01*
X94869000Y-95161547D01*
X94869000Y-92580178D01*
X95195824Y-92253923D01*
X95249862Y-92123785D01*
X95302757Y-92251800D01*
G36*
X87682757Y-92251800D02*
X88011000Y-92580616D01*
X88011000Y-95161547D01*
X87840330Y-95275585D01*
X87630000Y-95590366D01*
X87419670Y-95275585D01*
X87249000Y-95161547D01*
X87249000Y-92580178D01*
X87575824Y-92253923D01*
X87629862Y-92123785D01*
X87682757Y-92251800D01*
X87682757Y-92251800D01*
G37*
X87682757Y-92251800D02*
X88011000Y-92580616D01*
X88011000Y-95161547D01*
X87840330Y-95275585D01*
X87630000Y-95590366D01*
X87419670Y-95275585D01*
X87249000Y-95161547D01*
X87249000Y-92580178D01*
X87575824Y-92253923D01*
X87629862Y-92123785D01*
X87682757Y-92251800D01*
G36*
X105462757Y-92251800D02*
X105791000Y-92580616D01*
X105791000Y-95161547D01*
X105620330Y-95275585D01*
X105410000Y-95590366D01*
X105199670Y-95275585D01*
X105029000Y-95161547D01*
X105029000Y-92580178D01*
X105355824Y-92253923D01*
X105409862Y-92123785D01*
X105462757Y-92251800D01*
X105462757Y-92251800D01*
G37*
X105462757Y-92251800D02*
X105791000Y-92580616D01*
X105791000Y-95161547D01*
X105620330Y-95275585D01*
X105410000Y-95590366D01*
X105199670Y-95275585D01*
X105029000Y-95161547D01*
X105029000Y-92580178D01*
X105355824Y-92253923D01*
X105409862Y-92123785D01*
X105462757Y-92251800D01*
G36*
X110542757Y-92251800D02*
X110871000Y-92580616D01*
X110871000Y-95161547D01*
X110700330Y-95275585D01*
X110490000Y-95590366D01*
X110279670Y-95275585D01*
X110109000Y-95161547D01*
X110109000Y-92580178D01*
X110435824Y-92253923D01*
X110489862Y-92123785D01*
X110542757Y-92251800D01*
X110542757Y-92251800D01*
G37*
X110542757Y-92251800D02*
X110871000Y-92580616D01*
X110871000Y-95161547D01*
X110700330Y-95275585D01*
X110490000Y-95590366D01*
X110279670Y-95275585D01*
X110109000Y-95161547D01*
X110109000Y-92580178D01*
X110435824Y-92253923D01*
X110489862Y-92123785D01*
X110542757Y-92251800D01*
G36*
X113082757Y-92251800D02*
X113411000Y-92580616D01*
X113411000Y-95161547D01*
X113240330Y-95275585D01*
X113030000Y-95590366D01*
X112819670Y-95275585D01*
X112649000Y-95161547D01*
X112649000Y-92580178D01*
X112975824Y-92253923D01*
X113029862Y-92123785D01*
X113082757Y-92251800D01*
X113082757Y-92251800D01*
G37*
X113082757Y-92251800D02*
X113411000Y-92580616D01*
X113411000Y-95161547D01*
X113240330Y-95275585D01*
X113030000Y-95590366D01*
X112819670Y-95275585D01*
X112649000Y-95161547D01*
X112649000Y-92580178D01*
X112975824Y-92253923D01*
X113029862Y-92123785D01*
X113082757Y-92251800D01*
G36*
X90222757Y-92251800D02*
X90551000Y-92580616D01*
X90551000Y-95161547D01*
X90380330Y-95275585D01*
X90170000Y-95590366D01*
X89959670Y-95275585D01*
X89789000Y-95161547D01*
X89789000Y-92580178D01*
X90115824Y-92253923D01*
X90169862Y-92123785D01*
X90222757Y-92251800D01*
X90222757Y-92251800D01*
G37*
X90222757Y-92251800D02*
X90551000Y-92580616D01*
X90551000Y-95161547D01*
X90380330Y-95275585D01*
X90170000Y-95590366D01*
X89959670Y-95275585D01*
X89789000Y-95161547D01*
X89789000Y-92580178D01*
X90115824Y-92253923D01*
X90169862Y-92123785D01*
X90222757Y-92251800D01*
G36*
X92762757Y-92251800D02*
X93091000Y-92580616D01*
X93091000Y-95161547D01*
X92920330Y-95275585D01*
X92710000Y-95590366D01*
X92499670Y-95275585D01*
X92329000Y-95161547D01*
X92329000Y-92580178D01*
X92655824Y-92253923D01*
X92709862Y-92123785D01*
X92762757Y-92251800D01*
X92762757Y-92251800D01*
G37*
X92762757Y-92251800D02*
X93091000Y-92580616D01*
X93091000Y-95161547D01*
X92920330Y-95275585D01*
X92710000Y-95590366D01*
X92499670Y-95275585D01*
X92329000Y-95161547D01*
X92329000Y-92580178D01*
X92655824Y-92253923D01*
X92709862Y-92123785D01*
X92762757Y-92251800D01*
G36*
X118162757Y-92251800D02*
X118491000Y-92580616D01*
X118491000Y-95161547D01*
X118320330Y-95275585D01*
X118113539Y-95585069D01*
X118085468Y-95553651D01*
X117899670Y-95275585D01*
X117744229Y-95171723D01*
X117742036Y-95169268D01*
X117736731Y-95166713D01*
X117413489Y-94950729D01*
X116840000Y-94836655D01*
X116266511Y-94950729D01*
X115943269Y-95166713D01*
X115937964Y-95169268D01*
X115935771Y-95171723D01*
X115780330Y-95275585D01*
X115594532Y-95553651D01*
X115566461Y-95585069D01*
X115359670Y-95275585D01*
X115189000Y-95161547D01*
X115189000Y-92580178D01*
X115515824Y-92253923D01*
X115563448Y-92139232D01*
X115586136Y-92194005D01*
X115600688Y-92198388D01*
X115622757Y-92251800D01*
X116026077Y-92655824D01*
X116081464Y-92678823D01*
X116085995Y-92693864D01*
X116321847Y-92778639D01*
X116553309Y-92874750D01*
X116589327Y-92874781D01*
X116623223Y-92886965D01*
X116873566Y-92875029D01*
X117124187Y-92875248D01*
X117157476Y-92861493D01*
X117193454Y-92859778D01*
X117594005Y-92693864D01*
X117598388Y-92679312D01*
X117651800Y-92657243D01*
X118055824Y-92253923D01*
X118078823Y-92198536D01*
X118093864Y-92194005D01*
X118114805Y-92135746D01*
X118162757Y-92251800D01*
X118162757Y-92251800D01*
G37*
X118162757Y-92251800D02*
X118491000Y-92580616D01*
X118491000Y-95161547D01*
X118320330Y-95275585D01*
X118113539Y-95585069D01*
X118085468Y-95553651D01*
X117899670Y-95275585D01*
X117744229Y-95171723D01*
X117742036Y-95169268D01*
X117736731Y-95166713D01*
X117413489Y-94950729D01*
X116840000Y-94836655D01*
X116266511Y-94950729D01*
X115943269Y-95166713D01*
X115937964Y-95169268D01*
X115935771Y-95171723D01*
X115780330Y-95275585D01*
X115594532Y-95553651D01*
X115566461Y-95585069D01*
X115359670Y-95275585D01*
X115189000Y-95161547D01*
X115189000Y-92580178D01*
X115515824Y-92253923D01*
X115563448Y-92139232D01*
X115586136Y-92194005D01*
X115600688Y-92198388D01*
X115622757Y-92251800D01*
X116026077Y-92655824D01*
X116081464Y-92678823D01*
X116085995Y-92693864D01*
X116321847Y-92778639D01*
X116553309Y-92874750D01*
X116589327Y-92874781D01*
X116623223Y-92886965D01*
X116873566Y-92875029D01*
X117124187Y-92875248D01*
X117157476Y-92861493D01*
X117193454Y-92859778D01*
X117594005Y-92693864D01*
X117598388Y-92679312D01*
X117651800Y-92657243D01*
X118055824Y-92253923D01*
X118078823Y-92198536D01*
X118093864Y-92194005D01*
X118114805Y-92135746D01*
X118162757Y-92251800D01*
G36*
X102922757Y-92251800D02*
X103251000Y-92580616D01*
X103251000Y-95161547D01*
X103080330Y-95275585D01*
X102873539Y-95585069D01*
X102845468Y-95553651D01*
X102659670Y-95275585D01*
X102504229Y-95171723D01*
X102502036Y-95169268D01*
X102496731Y-95166713D01*
X102173489Y-94950729D01*
X101600000Y-94836655D01*
X101026511Y-94950729D01*
X100703269Y-95166713D01*
X100697964Y-95169268D01*
X100695771Y-95171723D01*
X100540330Y-95275585D01*
X100354532Y-95553651D01*
X100330000Y-95581108D01*
X100305468Y-95553651D01*
X100119670Y-95275585D01*
X99964229Y-95171723D01*
X99962036Y-95169268D01*
X99956731Y-95166713D01*
X99633489Y-94950729D01*
X99060000Y-94836655D01*
X98486511Y-94950729D01*
X98163269Y-95166713D01*
X98157964Y-95169268D01*
X98155771Y-95171723D01*
X98000330Y-95275585D01*
X97814532Y-95553651D01*
X97786461Y-95585069D01*
X97579670Y-95275585D01*
X97409000Y-95161547D01*
X97409000Y-92580178D01*
X97735824Y-92253923D01*
X97783448Y-92139232D01*
X97806136Y-92194005D01*
X97820688Y-92198388D01*
X97842757Y-92251800D01*
X98246077Y-92655824D01*
X98301464Y-92678823D01*
X98305995Y-92693864D01*
X98541847Y-92778639D01*
X98773309Y-92874750D01*
X98809327Y-92874781D01*
X98843223Y-92886965D01*
X99093566Y-92875029D01*
X99344187Y-92875248D01*
X99377476Y-92861493D01*
X99413454Y-92859778D01*
X99814005Y-92693864D01*
X99818388Y-92679312D01*
X99871800Y-92657243D01*
X100275824Y-92253923D01*
X100298823Y-92198536D01*
X100313864Y-92194005D01*
X100328858Y-92152291D01*
X100346136Y-92194005D01*
X100360688Y-92198388D01*
X100382757Y-92251800D01*
X100786077Y-92655824D01*
X100841464Y-92678823D01*
X100845995Y-92693864D01*
X101081847Y-92778639D01*
X101313309Y-92874750D01*
X101349327Y-92874781D01*
X101383223Y-92886965D01*
X101633566Y-92875029D01*
X101884187Y-92875248D01*
X101917476Y-92861493D01*
X101953454Y-92859778D01*
X102354005Y-92693864D01*
X102358388Y-92679312D01*
X102411800Y-92657243D01*
X102815824Y-92253923D01*
X102838823Y-92198536D01*
X102853864Y-92194005D01*
X102874805Y-92135746D01*
X102922757Y-92251800D01*
X102922757Y-92251800D01*
G37*
X102922757Y-92251800D02*
X103251000Y-92580616D01*
X103251000Y-95161547D01*
X103080330Y-95275585D01*
X102873539Y-95585069D01*
X102845468Y-95553651D01*
X102659670Y-95275585D01*
X102504229Y-95171723D01*
X102502036Y-95169268D01*
X102496731Y-95166713D01*
X102173489Y-94950729D01*
X101600000Y-94836655D01*
X101026511Y-94950729D01*
X100703269Y-95166713D01*
X100697964Y-95169268D01*
X100695771Y-95171723D01*
X100540330Y-95275585D01*
X100354532Y-95553651D01*
X100330000Y-95581108D01*
X100305468Y-95553651D01*
X100119670Y-95275585D01*
X99964229Y-95171723D01*
X99962036Y-95169268D01*
X99956731Y-95166713D01*
X99633489Y-94950729D01*
X99060000Y-94836655D01*
X98486511Y-94950729D01*
X98163269Y-95166713D01*
X98157964Y-95169268D01*
X98155771Y-95171723D01*
X98000330Y-95275585D01*
X97814532Y-95553651D01*
X97786461Y-95585069D01*
X97579670Y-95275585D01*
X97409000Y-95161547D01*
X97409000Y-92580178D01*
X97735824Y-92253923D01*
X97783448Y-92139232D01*
X97806136Y-92194005D01*
X97820688Y-92198388D01*
X97842757Y-92251800D01*
X98246077Y-92655824D01*
X98301464Y-92678823D01*
X98305995Y-92693864D01*
X98541847Y-92778639D01*
X98773309Y-92874750D01*
X98809327Y-92874781D01*
X98843223Y-92886965D01*
X99093566Y-92875029D01*
X99344187Y-92875248D01*
X99377476Y-92861493D01*
X99413454Y-92859778D01*
X99814005Y-92693864D01*
X99818388Y-92679312D01*
X99871800Y-92657243D01*
X100275824Y-92253923D01*
X100298823Y-92198536D01*
X100313864Y-92194005D01*
X100328858Y-92152291D01*
X100346136Y-92194005D01*
X100360688Y-92198388D01*
X100382757Y-92251800D01*
X100786077Y-92655824D01*
X100841464Y-92678823D01*
X100845995Y-92693864D01*
X101081847Y-92778639D01*
X101313309Y-92874750D01*
X101349327Y-92874781D01*
X101383223Y-92886965D01*
X101633566Y-92875029D01*
X101884187Y-92875248D01*
X101917476Y-92861493D01*
X101953454Y-92859778D01*
X102354005Y-92693864D01*
X102358388Y-92679312D01*
X102411800Y-92657243D01*
X102815824Y-92253923D01*
X102838823Y-92198536D01*
X102853864Y-92194005D01*
X102874805Y-92135746D01*
X102922757Y-92251800D01*
G36*
X120702757Y-92251800D02*
X121031000Y-92580616D01*
X121031000Y-94861339D01*
X120821083Y-94900838D01*
X120604959Y-95039910D01*
X120459969Y-95252110D01*
X120451600Y-95293439D01*
X120439670Y-95275585D01*
X120269000Y-95161547D01*
X120269000Y-92580178D01*
X120595824Y-92253923D01*
X120649862Y-92123785D01*
X120702757Y-92251800D01*
X120702757Y-92251800D01*
G37*
X120702757Y-92251800D02*
X121031000Y-92580616D01*
X121031000Y-94861339D01*
X120821083Y-94900838D01*
X120604959Y-95039910D01*
X120459969Y-95252110D01*
X120451600Y-95293439D01*
X120439670Y-95275585D01*
X120269000Y-95161547D01*
X120269000Y-92580178D01*
X120595824Y-92253923D01*
X120649862Y-92123785D01*
X120702757Y-92251800D01*
G36*
X122936000Y-94887422D02*
X122809000Y-94861704D01*
X122809000Y-92580178D01*
X122936000Y-92453399D01*
X122936000Y-94887422D01*
X122936000Y-94887422D01*
G37*
X122936000Y-94887422D02*
X122809000Y-94861704D01*
X122809000Y-92580178D01*
X122936000Y-92453399D01*
X122936000Y-94887422D01*
G36*
X113411000Y-83553236D02*
X113411000Y-90299822D01*
X113084176Y-90626077D01*
X113030138Y-90756215D01*
X112977243Y-90628200D01*
X112649000Y-90299384D01*
X112649000Y-82791236D01*
X113411000Y-83553236D01*
X113411000Y-83553236D01*
G37*
X113411000Y-83553236D02*
X113411000Y-90299822D01*
X113084176Y-90626077D01*
X113030138Y-90756215D01*
X112977243Y-90628200D01*
X112649000Y-90299384D01*
X112649000Y-82791236D01*
X113411000Y-83553236D01*
G36*
X90017600Y-86995000D02*
X90077537Y-87296325D01*
X90248224Y-87551776D01*
X90551000Y-87854552D01*
X90551000Y-90299822D01*
X90224176Y-90626077D01*
X90170138Y-90756215D01*
X90117243Y-90628200D01*
X89789000Y-90299384D01*
X89789000Y-86346797D01*
X90017600Y-86301326D01*
X90017600Y-86995000D01*
X90017600Y-86995000D01*
G37*
X90017600Y-86995000D02*
X90077537Y-87296325D01*
X90248224Y-87551776D01*
X90551000Y-87854552D01*
X90551000Y-90299822D01*
X90224176Y-90626077D01*
X90170138Y-90756215D01*
X90117243Y-90628200D01*
X89789000Y-90299384D01*
X89789000Y-86346797D01*
X90017600Y-86301326D01*
X90017600Y-86995000D01*
G36*
X108609095Y-85601910D02*
X108612941Y-85614941D01*
X108641001Y-85649661D01*
X108867172Y-85988149D01*
X109320391Y-86290981D01*
X109855000Y-86397321D01*
X110389609Y-86290981D01*
X110842828Y-85988149D01*
X110871000Y-85945987D01*
X110871000Y-90299822D01*
X110544176Y-90626077D01*
X110490138Y-90756215D01*
X110437243Y-90628200D01*
X110033923Y-90224176D01*
X109798766Y-90126530D01*
X105701418Y-86029182D01*
X105762828Y-85988149D01*
X105988999Y-85649661D01*
X106017059Y-85614941D01*
X106020905Y-85601910D01*
X106045000Y-85565850D01*
X106069095Y-85601910D01*
X106072941Y-85614941D01*
X106101001Y-85649661D01*
X106327172Y-85988149D01*
X106780391Y-86290981D01*
X107315000Y-86397321D01*
X107849609Y-86290981D01*
X108302828Y-85988149D01*
X108528999Y-85649661D01*
X108557059Y-85614941D01*
X108560905Y-85601910D01*
X108585000Y-85565850D01*
X108609095Y-85601910D01*
X108609095Y-85601910D01*
G37*
X108609095Y-85601910D02*
X108612941Y-85614941D01*
X108641001Y-85649661D01*
X108867172Y-85988149D01*
X109320391Y-86290981D01*
X109855000Y-86397321D01*
X110389609Y-86290981D01*
X110842828Y-85988149D01*
X110871000Y-85945987D01*
X110871000Y-90299822D01*
X110544176Y-90626077D01*
X110490138Y-90756215D01*
X110437243Y-90628200D01*
X110033923Y-90224176D01*
X109798766Y-90126530D01*
X105701418Y-86029182D01*
X105762828Y-85988149D01*
X105988999Y-85649661D01*
X106017059Y-85614941D01*
X106020905Y-85601910D01*
X106045000Y-85565850D01*
X106069095Y-85601910D01*
X106072941Y-85614941D01*
X106101001Y-85649661D01*
X106327172Y-85988149D01*
X106780391Y-86290981D01*
X107315000Y-86397321D01*
X107849609Y-86290981D01*
X108302828Y-85988149D01*
X108528999Y-85649661D01*
X108557059Y-85614941D01*
X108560905Y-85601910D01*
X108585000Y-85565850D01*
X108609095Y-85601910D01*
G36*
X93627172Y-85988149D02*
X93834947Y-86126980D01*
X93944529Y-86290981D01*
X93986382Y-86353618D01*
X95631000Y-87998236D01*
X95631000Y-90299822D01*
X95304176Y-90626077D01*
X95250138Y-90756215D01*
X95197243Y-90628200D01*
X94869000Y-90299384D01*
X94869000Y-87630000D01*
X94801329Y-87289794D01*
X94608618Y-87001382D01*
X93276141Y-85668905D01*
X93345000Y-85565850D01*
X93627172Y-85988149D01*
X93627172Y-85988149D01*
G37*
X93627172Y-85988149D02*
X93834947Y-86126980D01*
X93944529Y-86290981D01*
X93986382Y-86353618D01*
X95631000Y-87998236D01*
X95631000Y-90299822D01*
X95304176Y-90626077D01*
X95250138Y-90756215D01*
X95197243Y-90628200D01*
X94869000Y-90299384D01*
X94869000Y-87630000D01*
X94801329Y-87289794D01*
X94608618Y-87001382D01*
X93276141Y-85668905D01*
X93345000Y-85565850D01*
X93627172Y-85988149D01*
G36*
X93091000Y-87998236D02*
X93091000Y-90299822D01*
X92764176Y-90626077D01*
X92710138Y-90756215D01*
X92657243Y-90628200D01*
X92329000Y-90299384D01*
X92329000Y-87630000D01*
X92261329Y-87289794D01*
X92068618Y-87001382D01*
X91780206Y-86808671D01*
X91720309Y-86796757D01*
X91592400Y-86668848D01*
X91592400Y-86499636D01*
X93091000Y-87998236D01*
X93091000Y-87998236D01*
G37*
X93091000Y-87998236D02*
X93091000Y-90299822D01*
X92764176Y-90626077D01*
X92710138Y-90756215D01*
X92657243Y-90628200D01*
X92329000Y-90299384D01*
X92329000Y-87630000D01*
X92261329Y-87289794D01*
X92068618Y-87001382D01*
X91780206Y-86808671D01*
X91720309Y-86796757D01*
X91592400Y-86668848D01*
X91592400Y-86499636D01*
X93091000Y-87998236D01*
G36*
X86106000Y-63527151D02*
X86106000Y-74295000D01*
X86173671Y-74635206D01*
X86345709Y-74892679D01*
X86366382Y-74923618D01*
X88138000Y-76695236D01*
X88138000Y-77380321D01*
X88244340Y-77914930D01*
X88547172Y-78368149D01*
X89000391Y-78670981D01*
X89535000Y-78777321D01*
X90017600Y-78681326D01*
X90017600Y-82608674D01*
X89535000Y-82512679D01*
X89000391Y-82619019D01*
X88547172Y-82921851D01*
X88244340Y-83375070D01*
X88138000Y-83909679D01*
X88138000Y-84661002D01*
X88078671Y-84749794D01*
X88011000Y-85090000D01*
X88011000Y-90299822D01*
X87684176Y-90626077D01*
X87630138Y-90756215D01*
X87577243Y-90628200D01*
X87249000Y-90299384D01*
X87249000Y-83820000D01*
X87181329Y-83479794D01*
X86988618Y-83191382D01*
X85979000Y-82181764D01*
X85979000Y-63442292D01*
X86106000Y-63527151D01*
X86106000Y-63527151D01*
G37*
X86106000Y-63527151D02*
X86106000Y-74295000D01*
X86173671Y-74635206D01*
X86345709Y-74892679D01*
X86366382Y-74923618D01*
X88138000Y-76695236D01*
X88138000Y-77380321D01*
X88244340Y-77914930D01*
X88547172Y-78368149D01*
X89000391Y-78670981D01*
X89535000Y-78777321D01*
X90017600Y-78681326D01*
X90017600Y-82608674D01*
X89535000Y-82512679D01*
X89000391Y-82619019D01*
X88547172Y-82921851D01*
X88244340Y-83375070D01*
X88138000Y-83909679D01*
X88138000Y-84661002D01*
X88078671Y-84749794D01*
X88011000Y-85090000D01*
X88011000Y-90299822D01*
X87684176Y-90626077D01*
X87630138Y-90756215D01*
X87577243Y-90628200D01*
X87249000Y-90299384D01*
X87249000Y-83820000D01*
X87181329Y-83479794D01*
X86988618Y-83191382D01*
X85979000Y-82181764D01*
X85979000Y-63442292D01*
X86106000Y-63527151D01*
G36*
X98431382Y-89528618D02*
X98719794Y-89721329D01*
X99060000Y-89789000D01*
X101231764Y-89789000D01*
X101447631Y-90004867D01*
X101315813Y-90004752D01*
X101282524Y-90018507D01*
X101246546Y-90020222D01*
X100845995Y-90186136D01*
X100841612Y-90200688D01*
X100788200Y-90222757D01*
X100384176Y-90626077D01*
X100361177Y-90681464D01*
X100346136Y-90685995D01*
X100331142Y-90727709D01*
X100313864Y-90685995D01*
X100299312Y-90681612D01*
X100277243Y-90628200D01*
X99873923Y-90224176D01*
X99818536Y-90201177D01*
X99814005Y-90186136D01*
X99578153Y-90101361D01*
X99346691Y-90005250D01*
X99310673Y-90005219D01*
X99276777Y-89993035D01*
X99026434Y-90004971D01*
X98775813Y-90004752D01*
X98742524Y-90018507D01*
X98706546Y-90020222D01*
X98305995Y-90186136D01*
X98301612Y-90200688D01*
X98248200Y-90222757D01*
X97844176Y-90626077D01*
X97821177Y-90681464D01*
X97806136Y-90685995D01*
X97785195Y-90744254D01*
X97737243Y-90628200D01*
X97409000Y-90299384D01*
X97409000Y-88506236D01*
X98431382Y-89528618D01*
X98431382Y-89528618D01*
G37*
X98431382Y-89528618D02*
X98719794Y-89721329D01*
X99060000Y-89789000D01*
X101231764Y-89789000D01*
X101447631Y-90004867D01*
X101315813Y-90004752D01*
X101282524Y-90018507D01*
X101246546Y-90020222D01*
X100845995Y-90186136D01*
X100841612Y-90200688D01*
X100788200Y-90222757D01*
X100384176Y-90626077D01*
X100361177Y-90681464D01*
X100346136Y-90685995D01*
X100331142Y-90727709D01*
X100313864Y-90685995D01*
X100299312Y-90681612D01*
X100277243Y-90628200D01*
X99873923Y-90224176D01*
X99818536Y-90201177D01*
X99814005Y-90186136D01*
X99578153Y-90101361D01*
X99346691Y-90005250D01*
X99310673Y-90005219D01*
X99276777Y-89993035D01*
X99026434Y-90004971D01*
X98775813Y-90004752D01*
X98742524Y-90018507D01*
X98706546Y-90020222D01*
X98305995Y-90186136D01*
X98301612Y-90200688D01*
X98248200Y-90222757D01*
X97844176Y-90626077D01*
X97821177Y-90681464D01*
X97806136Y-90685995D01*
X97785195Y-90744254D01*
X97737243Y-90628200D01*
X97409000Y-90299384D01*
X97409000Y-88506236D01*
X98431382Y-89528618D01*
G36*
X119126000Y-64401764D02*
X114941382Y-68586382D01*
X114748671Y-68874794D01*
X114681000Y-69215000D01*
X114681000Y-74930000D01*
X114748671Y-75270206D01*
X114941382Y-75558618D01*
X116037492Y-76654728D01*
X116061115Y-76773489D01*
X116385971Y-77259670D01*
X116700752Y-77470000D01*
X116385971Y-77680330D01*
X116061115Y-78166511D01*
X115947041Y-78740000D01*
X116061115Y-79313489D01*
X116385971Y-79799670D01*
X116872152Y-80124526D01*
X117445641Y-80238600D01*
X117504359Y-80238600D01*
X118077848Y-80124526D01*
X118564029Y-79799670D01*
X118678067Y-79629000D01*
X118811933Y-79629000D01*
X118925971Y-79799670D01*
X119126000Y-79933325D01*
X119126000Y-90004778D01*
X119095813Y-90004752D01*
X118568200Y-90222757D01*
X118164176Y-90626077D01*
X118116552Y-90740768D01*
X118093864Y-90685995D01*
X118079312Y-90681612D01*
X118057243Y-90628200D01*
X117653923Y-90224176D01*
X117598536Y-90201177D01*
X117594005Y-90186136D01*
X117358153Y-90101361D01*
X117126691Y-90005250D01*
X117090673Y-90005219D01*
X117056777Y-89993035D01*
X116806434Y-90004971D01*
X116555813Y-90004752D01*
X116522524Y-90018507D01*
X116486546Y-90020222D01*
X116085995Y-90186136D01*
X116081612Y-90200688D01*
X116028200Y-90222757D01*
X115624176Y-90626077D01*
X115601177Y-90681464D01*
X115586136Y-90685995D01*
X115565195Y-90744254D01*
X115517243Y-90628200D01*
X115189000Y-90299384D01*
X115189000Y-83185000D01*
X115151937Y-82998671D01*
X115121330Y-82844795D01*
X114928618Y-82556382D01*
X111118618Y-78746382D01*
X111045042Y-78697220D01*
X110969098Y-78646476D01*
X110976699Y-78643327D01*
X111019340Y-78600685D01*
X111068441Y-78569090D01*
X111106206Y-78513820D01*
X111155327Y-78464698D01*
X111179279Y-78406874D01*
X111213431Y-78356890D01*
X111226295Y-78293367D01*
X111252000Y-78231309D01*
X111252000Y-78166431D01*
X111264440Y-78105000D01*
X111264440Y-75565000D01*
X111252000Y-75498887D01*
X111252000Y-75438691D01*
X111231245Y-75388584D01*
X111220162Y-75329683D01*
X111182792Y-75271609D01*
X111155327Y-75205302D01*
X111112686Y-75162661D01*
X111081090Y-75113559D01*
X111025821Y-75075795D01*
X110976699Y-75026673D01*
X110918872Y-75002720D01*
X110868890Y-74968569D01*
X110805369Y-74955706D01*
X110743310Y-74930000D01*
X110678431Y-74930000D01*
X110617000Y-74917560D01*
X109093000Y-74917560D01*
X109026887Y-74930000D01*
X108966690Y-74930000D01*
X108916582Y-74950755D01*
X108857683Y-74961838D01*
X108799610Y-74999207D01*
X108733301Y-75026673D01*
X108690660Y-75069315D01*
X108641559Y-75100910D01*
X108603794Y-75156180D01*
X108554673Y-75205302D01*
X108530721Y-75263126D01*
X108496569Y-75313110D01*
X108483705Y-75376633D01*
X108458000Y-75438691D01*
X108458000Y-75503569D01*
X108453258Y-75526985D01*
X108302828Y-75301851D01*
X107849609Y-74999019D01*
X107315000Y-74892679D01*
X106780391Y-74999019D01*
X106327172Y-75301851D01*
X106101001Y-75640339D01*
X106072941Y-75675059D01*
X106069095Y-75688090D01*
X106045000Y-75724150D01*
X106020905Y-75688090D01*
X106017059Y-75675059D01*
X105988999Y-75640339D01*
X105762828Y-75301851D01*
X105545974Y-75156953D01*
X105750206Y-75116329D01*
X106038618Y-74923618D01*
X117243030Y-63719206D01*
X117290255Y-63728600D01*
X117659745Y-63728600D01*
X118233234Y-63614526D01*
X118719415Y-63289670D01*
X119044271Y-62803489D01*
X119126000Y-62392609D01*
X119126000Y-64401764D01*
X119126000Y-64401764D01*
G37*
X119126000Y-64401764D02*
X114941382Y-68586382D01*
X114748671Y-68874794D01*
X114681000Y-69215000D01*
X114681000Y-74930000D01*
X114748671Y-75270206D01*
X114941382Y-75558618D01*
X116037492Y-76654728D01*
X116061115Y-76773489D01*
X116385971Y-77259670D01*
X116700752Y-77470000D01*
X116385971Y-77680330D01*
X116061115Y-78166511D01*
X115947041Y-78740000D01*
X116061115Y-79313489D01*
X116385971Y-79799670D01*
X116872152Y-80124526D01*
X117445641Y-80238600D01*
X117504359Y-80238600D01*
X118077848Y-80124526D01*
X118564029Y-79799670D01*
X118678067Y-79629000D01*
X118811933Y-79629000D01*
X118925971Y-79799670D01*
X119126000Y-79933325D01*
X119126000Y-90004778D01*
X119095813Y-90004752D01*
X118568200Y-90222757D01*
X118164176Y-90626077D01*
X118116552Y-90740768D01*
X118093864Y-90685995D01*
X118079312Y-90681612D01*
X118057243Y-90628200D01*
X117653923Y-90224176D01*
X117598536Y-90201177D01*
X117594005Y-90186136D01*
X117358153Y-90101361D01*
X117126691Y-90005250D01*
X117090673Y-90005219D01*
X117056777Y-89993035D01*
X116806434Y-90004971D01*
X116555813Y-90004752D01*
X116522524Y-90018507D01*
X116486546Y-90020222D01*
X116085995Y-90186136D01*
X116081612Y-90200688D01*
X116028200Y-90222757D01*
X115624176Y-90626077D01*
X115601177Y-90681464D01*
X115586136Y-90685995D01*
X115565195Y-90744254D01*
X115517243Y-90628200D01*
X115189000Y-90299384D01*
X115189000Y-83185000D01*
X115151937Y-82998671D01*
X115121330Y-82844795D01*
X114928618Y-82556382D01*
X111118618Y-78746382D01*
X111045042Y-78697220D01*
X110969098Y-78646476D01*
X110976699Y-78643327D01*
X111019340Y-78600685D01*
X111068441Y-78569090D01*
X111106206Y-78513820D01*
X111155327Y-78464698D01*
X111179279Y-78406874D01*
X111213431Y-78356890D01*
X111226295Y-78293367D01*
X111252000Y-78231309D01*
X111252000Y-78166431D01*
X111264440Y-78105000D01*
X111264440Y-75565000D01*
X111252000Y-75498887D01*
X111252000Y-75438691D01*
X111231245Y-75388584D01*
X111220162Y-75329683D01*
X111182792Y-75271609D01*
X111155327Y-75205302D01*
X111112686Y-75162661D01*
X111081090Y-75113559D01*
X111025821Y-75075795D01*
X110976699Y-75026673D01*
X110918872Y-75002720D01*
X110868890Y-74968569D01*
X110805369Y-74955706D01*
X110743310Y-74930000D01*
X110678431Y-74930000D01*
X110617000Y-74917560D01*
X109093000Y-74917560D01*
X109026887Y-74930000D01*
X108966690Y-74930000D01*
X108916582Y-74950755D01*
X108857683Y-74961838D01*
X108799610Y-74999207D01*
X108733301Y-75026673D01*
X108690660Y-75069315D01*
X108641559Y-75100910D01*
X108603794Y-75156180D01*
X108554673Y-75205302D01*
X108530721Y-75263126D01*
X108496569Y-75313110D01*
X108483705Y-75376633D01*
X108458000Y-75438691D01*
X108458000Y-75503569D01*
X108453258Y-75526985D01*
X108302828Y-75301851D01*
X107849609Y-74999019D01*
X107315000Y-74892679D01*
X106780391Y-74999019D01*
X106327172Y-75301851D01*
X106101001Y-75640339D01*
X106072941Y-75675059D01*
X106069095Y-75688090D01*
X106045000Y-75724150D01*
X106020905Y-75688090D01*
X106017059Y-75675059D01*
X105988999Y-75640339D01*
X105762828Y-75301851D01*
X105545974Y-75156953D01*
X105750206Y-75116329D01*
X106038618Y-74923618D01*
X117243030Y-63719206D01*
X117290255Y-63728600D01*
X117659745Y-63728600D01*
X118233234Y-63614526D01*
X118719415Y-63289670D01*
X119044271Y-62803489D01*
X119126000Y-62392609D01*
X119126000Y-64401764D01*
G36*
X122936000Y-75298236D02*
X122936000Y-90426606D01*
X122809000Y-90299384D01*
X122809000Y-78105000D01*
X122741329Y-77764794D01*
X122548618Y-77476382D01*
X121498043Y-76425807D01*
X121542959Y-76200000D01*
X121428885Y-75626511D01*
X121104029Y-75140330D01*
X120789248Y-74930000D01*
X121104029Y-74719670D01*
X121218067Y-74549000D01*
X122186764Y-74549000D01*
X122936000Y-75298236D01*
X122936000Y-75298236D01*
G37*
X122936000Y-75298236D02*
X122936000Y-90426606D01*
X122809000Y-90299384D01*
X122809000Y-78105000D01*
X122741329Y-77764794D01*
X122548618Y-77476382D01*
X121498043Y-76425807D01*
X121542959Y-76200000D01*
X121428885Y-75626511D01*
X121104029Y-75140330D01*
X120789248Y-74930000D01*
X121104029Y-74719670D01*
X121218067Y-74549000D01*
X122186764Y-74549000D01*
X122936000Y-75298236D01*
G36*
X121031000Y-90299822D02*
X120904000Y-90426601D01*
X120904000Y-79933325D01*
X121031000Y-79848466D01*
X121031000Y-90299822D01*
X121031000Y-90299822D01*
G37*
X121031000Y-90299822D02*
X120904000Y-90426601D01*
X120904000Y-79933325D01*
X121031000Y-79848466D01*
X121031000Y-90299822D01*
G36*
X107302422Y-90144658D02*
X106966691Y-90005250D01*
X106502081Y-90004845D01*
X103746236Y-87249000D01*
X104406764Y-87249000D01*
X107302422Y-90144658D01*
X107302422Y-90144658D01*
G37*
X107302422Y-90144658D02*
X106966691Y-90005250D01*
X106502081Y-90004845D01*
X103746236Y-87249000D01*
X104406764Y-87249000D01*
X107302422Y-90144658D01*
G36*
X103987631Y-90004867D02*
X103962081Y-90004845D01*
X102476236Y-88519000D01*
X102501764Y-88519000D01*
X103987631Y-90004867D01*
X103987631Y-90004867D01*
G37*
X103987631Y-90004867D02*
X103962081Y-90004845D01*
X102476236Y-88519000D01*
X102501764Y-88519000D01*
X103987631Y-90004867D01*
G36*
X99695000Y-86397321D02*
X99736775Y-86389011D01*
X100088764Y-86741000D01*
X99919552Y-86741000D01*
X99546294Y-86367742D01*
X99695000Y-86397321D01*
X99695000Y-86397321D01*
G37*
X99695000Y-86397321D02*
X99736775Y-86389011D01*
X100088764Y-86741000D01*
X99919552Y-86741000D01*
X99546294Y-86367742D01*
X99695000Y-86397321D01*
G36*
X96167172Y-85988149D02*
X96266000Y-86054184D01*
X96266000Y-86118764D01*
X95816141Y-85668905D01*
X95885000Y-85565850D01*
X96167172Y-85988149D01*
X96167172Y-85988149D01*
G37*
X96167172Y-85988149D02*
X96266000Y-86054184D01*
X96266000Y-86118764D01*
X95816141Y-85668905D01*
X95885000Y-85565850D01*
X96167172Y-85988149D01*
G36*
X92075000Y-78777321D02*
X92463966Y-78699951D01*
X92456000Y-78740000D01*
X92523671Y-79080205D01*
X92716382Y-79368618D01*
X94621382Y-81273618D01*
X94909794Y-81466329D01*
X95250000Y-81534000D01*
X96151764Y-81534000D01*
X97134517Y-82516753D01*
X96620391Y-82619019D01*
X96167172Y-82921851D01*
X95885000Y-83344150D01*
X95602828Y-82921851D01*
X95149609Y-82619019D01*
X94615000Y-82512679D01*
X94080391Y-82619019D01*
X93627172Y-82921851D01*
X93345000Y-83344150D01*
X93062828Y-82921851D01*
X92609609Y-82619019D01*
X92075000Y-82512679D01*
X91592400Y-82608674D01*
X91592400Y-78681326D01*
X92075000Y-78777321D01*
X92075000Y-78777321D01*
G37*
X92075000Y-78777321D02*
X92463966Y-78699951D01*
X92456000Y-78740000D01*
X92523671Y-79080205D01*
X92716382Y-79368618D01*
X94621382Y-81273618D01*
X94909794Y-81466329D01*
X95250000Y-81534000D01*
X96151764Y-81534000D01*
X97134517Y-82516753D01*
X96620391Y-82619019D01*
X96167172Y-82921851D01*
X95885000Y-83344150D01*
X95602828Y-82921851D01*
X95149609Y-82619019D01*
X94615000Y-82512679D01*
X94080391Y-82619019D01*
X93627172Y-82921851D01*
X93345000Y-83344150D01*
X93062828Y-82921851D01*
X92609609Y-82619019D01*
X92075000Y-82512679D01*
X91592400Y-82608674D01*
X91592400Y-78681326D01*
X92075000Y-78777321D01*
G36*
X110871000Y-82918236D02*
X110871000Y-82964013D01*
X110842828Y-82921851D01*
X110389609Y-82619019D01*
X109855000Y-82512679D01*
X109320391Y-82619019D01*
X108867172Y-82921851D01*
X108641001Y-83260339D01*
X108612941Y-83295059D01*
X108609095Y-83308090D01*
X108585000Y-83344150D01*
X108560905Y-83308090D01*
X108557059Y-83295059D01*
X108528999Y-83260339D01*
X108302828Y-82921851D01*
X107849609Y-82619019D01*
X107315000Y-82512679D01*
X106780391Y-82619019D01*
X106327172Y-82921851D01*
X106101001Y-83260339D01*
X106072941Y-83295059D01*
X106069095Y-83308090D01*
X106045000Y-83344150D01*
X106020905Y-83308090D01*
X106017059Y-83295059D01*
X105988999Y-83260339D01*
X105762828Y-82921851D01*
X105309609Y-82619019D01*
X104775000Y-82512679D01*
X104240391Y-82619019D01*
X103787172Y-82921851D01*
X103561001Y-83260339D01*
X103532941Y-83295059D01*
X103529095Y-83308090D01*
X103505000Y-83344150D01*
X103480905Y-83308090D01*
X103477059Y-83295059D01*
X103448999Y-83260339D01*
X103222828Y-82921851D01*
X102769609Y-82619019D01*
X102235000Y-82512679D01*
X101700391Y-82619019D01*
X101247172Y-82921851D01*
X101021001Y-83260339D01*
X100992941Y-83295059D01*
X100989095Y-83308090D01*
X100965000Y-83344150D01*
X100682828Y-82921851D01*
X100229609Y-82619019D01*
X99695000Y-82512679D01*
X99306034Y-82590049D01*
X99314000Y-82550000D01*
X99246329Y-82209795D01*
X99053618Y-81921382D01*
X98666236Y-81534000D01*
X109486764Y-81534000D01*
X110871000Y-82918236D01*
X110871000Y-82918236D01*
G37*
X110871000Y-82918236D02*
X110871000Y-82964013D01*
X110842828Y-82921851D01*
X110389609Y-82619019D01*
X109855000Y-82512679D01*
X109320391Y-82619019D01*
X108867172Y-82921851D01*
X108641001Y-83260339D01*
X108612941Y-83295059D01*
X108609095Y-83308090D01*
X108585000Y-83344150D01*
X108560905Y-83308090D01*
X108557059Y-83295059D01*
X108528999Y-83260339D01*
X108302828Y-82921851D01*
X107849609Y-82619019D01*
X107315000Y-82512679D01*
X106780391Y-82619019D01*
X106327172Y-82921851D01*
X106101001Y-83260339D01*
X106072941Y-83295059D01*
X106069095Y-83308090D01*
X106045000Y-83344150D01*
X106020905Y-83308090D01*
X106017059Y-83295059D01*
X105988999Y-83260339D01*
X105762828Y-82921851D01*
X105309609Y-82619019D01*
X104775000Y-82512679D01*
X104240391Y-82619019D01*
X103787172Y-82921851D01*
X103561001Y-83260339D01*
X103532941Y-83295059D01*
X103529095Y-83308090D01*
X103505000Y-83344150D01*
X103480905Y-83308090D01*
X103477059Y-83295059D01*
X103448999Y-83260339D01*
X103222828Y-82921851D01*
X102769609Y-82619019D01*
X102235000Y-82512679D01*
X101700391Y-82619019D01*
X101247172Y-82921851D01*
X101021001Y-83260339D01*
X100992941Y-83295059D01*
X100989095Y-83308090D01*
X100965000Y-83344150D01*
X100682828Y-82921851D01*
X100229609Y-82619019D01*
X99695000Y-82512679D01*
X99306034Y-82590049D01*
X99314000Y-82550000D01*
X99246329Y-82209795D01*
X99053618Y-81921382D01*
X98666236Y-81534000D01*
X109486764Y-81534000D01*
X110871000Y-82918236D01*
G36*
X97536000Y-78740000D02*
X97603671Y-79080205D01*
X97796382Y-79368618D01*
X98183764Y-79756000D01*
X98158236Y-79756000D01*
X97175483Y-78773247D01*
X97543966Y-78699951D01*
X97536000Y-78740000D01*
X97536000Y-78740000D01*
G37*
X97536000Y-78740000D02*
X97603671Y-79080205D01*
X97796382Y-79368618D01*
X98183764Y-79756000D01*
X98158236Y-79756000D01*
X97175483Y-78773247D01*
X97543966Y-78699951D01*
X97536000Y-78740000D01*
G36*
X94996000Y-78740000D02*
X95063671Y-79080205D01*
X95256382Y-79368618D01*
X95643764Y-79756000D01*
X95618236Y-79756000D01*
X94635483Y-78773247D01*
X95003966Y-78699951D01*
X94996000Y-78740000D01*
X94996000Y-78740000D01*
G37*
X94996000Y-78740000D02*
X95063671Y-79080205D01*
X95256382Y-79368618D01*
X95643764Y-79756000D01*
X95618236Y-79756000D01*
X94635483Y-78773247D01*
X95003966Y-78699951D01*
X94996000Y-78740000D01*
G36*
X103529095Y-77981910D02*
X103532941Y-77994941D01*
X103561001Y-78029661D01*
X103787172Y-78368149D01*
X103963548Y-78486000D01*
X103046452Y-78486000D01*
X103222828Y-78368149D01*
X103448999Y-78029661D01*
X103477059Y-77994941D01*
X103480905Y-77981910D01*
X103505000Y-77945850D01*
X103529095Y-77981910D01*
X103529095Y-77981910D01*
G37*
X103529095Y-77981910D02*
X103532941Y-77994941D01*
X103561001Y-78029661D01*
X103787172Y-78368149D01*
X103963548Y-78486000D01*
X103046452Y-78486000D01*
X103222828Y-78368149D01*
X103448999Y-78029661D01*
X103477059Y-77994941D01*
X103480905Y-77981910D01*
X103505000Y-77945850D01*
X103529095Y-77981910D01*
G36*
X100989095Y-77981910D02*
X100992941Y-77994941D01*
X101021001Y-78029661D01*
X101247172Y-78368149D01*
X101423548Y-78486000D01*
X100506452Y-78486000D01*
X100682828Y-78368149D01*
X100965000Y-77945850D01*
X100989095Y-77981910D01*
X100989095Y-77981910D01*
G37*
X100989095Y-77981910D02*
X100992941Y-77994941D01*
X101021001Y-78029661D01*
X101247172Y-78368149D01*
X101423548Y-78486000D01*
X100506452Y-78486000D01*
X100682828Y-78368149D01*
X100965000Y-77945850D01*
X100989095Y-77981910D01*
G36*
X108458000Y-78171113D02*
X108458000Y-78231309D01*
X108478755Y-78281416D01*
X108489838Y-78340317D01*
X108527208Y-78398391D01*
X108554673Y-78464698D01*
X108575975Y-78486000D01*
X108126452Y-78486000D01*
X108302828Y-78368149D01*
X108452833Y-78143652D01*
X108458000Y-78171113D01*
X108458000Y-78171113D01*
G37*
X108458000Y-78171113D02*
X108458000Y-78231309D01*
X108478755Y-78281416D01*
X108489838Y-78340317D01*
X108527208Y-78398391D01*
X108554673Y-78464698D01*
X108575975Y-78486000D01*
X108126452Y-78486000D01*
X108302828Y-78368149D01*
X108452833Y-78143652D01*
X108458000Y-78171113D01*
G36*
X106069095Y-77981910D02*
X106072941Y-77994941D01*
X106101001Y-78029661D01*
X106327172Y-78368149D01*
X106503548Y-78486000D01*
X105586452Y-78486000D01*
X105762828Y-78368149D01*
X105988999Y-78029661D01*
X106017059Y-77994941D01*
X106020905Y-77981910D01*
X106045000Y-77945850D01*
X106069095Y-77981910D01*
X106069095Y-77981910D01*
G37*
X106069095Y-77981910D02*
X106072941Y-77994941D01*
X106101001Y-78029661D01*
X106327172Y-78368149D01*
X106503548Y-78486000D01*
X105586452Y-78486000D01*
X105762828Y-78368149D01*
X105988999Y-78029661D01*
X106017059Y-77994941D01*
X106020905Y-77981910D01*
X106045000Y-77945850D01*
X106069095Y-77981910D01*
G36*
X118925971Y-77259670D02*
X119240752Y-77470000D01*
X118925971Y-77680330D01*
X118811933Y-77851000D01*
X118678067Y-77851000D01*
X118564029Y-77680330D01*
X118249248Y-77470000D01*
X118564029Y-77259670D01*
X118678067Y-77089000D01*
X118811933Y-77089000D01*
X118925971Y-77259670D01*
X118925971Y-77259670D01*
G37*
X118925971Y-77259670D02*
X119240752Y-77470000D01*
X118925971Y-77680330D01*
X118811933Y-77851000D01*
X118678067Y-77851000D01*
X118564029Y-77680330D01*
X118249248Y-77470000D01*
X118564029Y-77259670D01*
X118678067Y-77089000D01*
X118811933Y-77089000D01*
X118925971Y-77259670D01*
G36*
X101247172Y-75301851D02*
X101021001Y-75640339D01*
X100992941Y-75675059D01*
X100989095Y-75688090D01*
X100965000Y-75724150D01*
X100896141Y-75621095D01*
X101333236Y-75184000D01*
X101423548Y-75184000D01*
X101247172Y-75301851D01*
X101247172Y-75301851D01*
G37*
X101247172Y-75301851D02*
X101021001Y-75640339D01*
X100992941Y-75675059D01*
X100989095Y-75688090D01*
X100965000Y-75724150D01*
X100896141Y-75621095D01*
X101333236Y-75184000D01*
X101423548Y-75184000D01*
X101247172Y-75301851D01*
G36*
X103787172Y-75301851D02*
X103561001Y-75640339D01*
X103532941Y-75675059D01*
X103529095Y-75688090D01*
X103505000Y-75724150D01*
X103480905Y-75688090D01*
X103477059Y-75675059D01*
X103448999Y-75640339D01*
X103222828Y-75301851D01*
X103046452Y-75184000D01*
X103963548Y-75184000D01*
X103787172Y-75301851D01*
X103787172Y-75301851D01*
G37*
X103787172Y-75301851D02*
X103561001Y-75640339D01*
X103532941Y-75675059D01*
X103529095Y-75688090D01*
X103505000Y-75724150D01*
X103480905Y-75688090D01*
X103477059Y-75675059D01*
X103448999Y-75640339D01*
X103222828Y-75301851D01*
X103046452Y-75184000D01*
X103963548Y-75184000D01*
X103787172Y-75301851D01*
G36*
X119240752Y-74930000D02*
X118925971Y-75140330D01*
X118811933Y-75311000D01*
X118678067Y-75311000D01*
X118564029Y-75140330D01*
X118550358Y-75131195D01*
X118573917Y-75126762D01*
X118790041Y-74987690D01*
X118935031Y-74775490D01*
X118943908Y-74731655D01*
X119240752Y-74930000D01*
X119240752Y-74930000D01*
G37*
X119240752Y-74930000D02*
X118925971Y-75140330D01*
X118811933Y-75311000D01*
X118678067Y-75311000D01*
X118564029Y-75140330D01*
X118550358Y-75131195D01*
X118573917Y-75126762D01*
X118790041Y-74987690D01*
X118935031Y-74775490D01*
X118943908Y-74731655D01*
X119240752Y-74930000D01*
G36*
X89408086Y-62725322D02*
X89407758Y-63101661D01*
X89619990Y-63615303D01*
X90012630Y-64008629D01*
X90525900Y-64221757D01*
X91081661Y-64222242D01*
X91595303Y-64010010D01*
X91821000Y-63784707D01*
X91821000Y-64401764D01*
X90176382Y-66046382D01*
X89983671Y-66334794D01*
X89916000Y-66675000D01*
X89916000Y-74295000D01*
X89983671Y-74635206D01*
X90017600Y-74685984D01*
X90017600Y-74988674D01*
X89535000Y-74892679D01*
X89000391Y-74999019D01*
X88973933Y-75016697D01*
X87884000Y-73926764D01*
X87884000Y-63527151D01*
X88239415Y-63289670D01*
X88564271Y-62803489D01*
X88678345Y-62230000D01*
X88620138Y-61937374D01*
X89408086Y-62725322D01*
X89408086Y-62725322D01*
G37*
X89408086Y-62725322D02*
X89407758Y-63101661D01*
X89619990Y-63615303D01*
X90012630Y-64008629D01*
X90525900Y-64221757D01*
X91081661Y-64222242D01*
X91595303Y-64010010D01*
X91821000Y-63784707D01*
X91821000Y-64401764D01*
X90176382Y-66046382D01*
X89983671Y-66334794D01*
X89916000Y-66675000D01*
X89916000Y-74295000D01*
X89983671Y-74635206D01*
X90017600Y-74685984D01*
X90017600Y-74988674D01*
X89535000Y-74892679D01*
X89000391Y-74999019D01*
X88973933Y-75016697D01*
X87884000Y-73926764D01*
X87884000Y-63527151D01*
X88239415Y-63289670D01*
X88564271Y-62803489D01*
X88678345Y-62230000D01*
X88620138Y-61937374D01*
X89408086Y-62725322D01*
G36*
X108966000Y-63527151D02*
X108966000Y-64401764D01*
X106946764Y-66421000D01*
X104140000Y-66421000D01*
X103799794Y-66488671D01*
X103530485Y-66668618D01*
X103511382Y-66681382D01*
X96774000Y-73418764D01*
X96774000Y-73393236D01*
X103873236Y-66294000D01*
X106045000Y-66294000D01*
X106385206Y-66226329D01*
X106673618Y-66033618D01*
X108578618Y-64128618D01*
X108658792Y-64008629D01*
X108771329Y-63840206D01*
X108839000Y-63500000D01*
X108839000Y-63442292D01*
X108966000Y-63527151D01*
X108966000Y-63527151D01*
G37*
X108966000Y-63527151D02*
X108966000Y-64401764D01*
X106946764Y-66421000D01*
X104140000Y-66421000D01*
X103799794Y-66488671D01*
X103530485Y-66668618D01*
X103511382Y-66681382D01*
X96774000Y-73418764D01*
X96774000Y-73393236D01*
X103873236Y-66294000D01*
X106045000Y-66294000D01*
X106385206Y-66226329D01*
X106673618Y-66033618D01*
X108578618Y-64128618D01*
X108658792Y-64008629D01*
X108771329Y-63840206D01*
X108839000Y-63500000D01*
X108839000Y-63442292D01*
X108966000Y-63527151D01*
G36*
X105041764Y-73406000D02*
X101206236Y-73406000D01*
X101968236Y-72644000D01*
X105803764Y-72644000D01*
X105041764Y-73406000D01*
X105041764Y-73406000D01*
G37*
X105041764Y-73406000D02*
X101206236Y-73406000D01*
X101968236Y-72644000D01*
X105803764Y-72644000D01*
X105041764Y-73406000D01*
G36*
X120396000Y-65671764D02*
X119386382Y-66681382D01*
X119193671Y-66969794D01*
X119126000Y-67310000D01*
X119126000Y-72466675D01*
X118946558Y-72586574D01*
X118941762Y-72561083D01*
X118802690Y-72344959D01*
X118590490Y-72199969D01*
X118338600Y-72148960D01*
X116611400Y-72148960D01*
X116459000Y-72177636D01*
X116459000Y-69583236D01*
X120396000Y-65646236D01*
X120396000Y-65671764D01*
X120396000Y-65671764D01*
G37*
X120396000Y-65671764D02*
X119386382Y-66681382D01*
X119193671Y-66969794D01*
X119126000Y-67310000D01*
X119126000Y-72466675D01*
X118946558Y-72586574D01*
X118941762Y-72561083D01*
X118802690Y-72344959D01*
X118590490Y-72199969D01*
X118338600Y-72148960D01*
X116611400Y-72148960D01*
X116459000Y-72177636D01*
X116459000Y-69583236D01*
X120396000Y-65646236D01*
X120396000Y-65671764D01*
G36*
X104648086Y-62725322D02*
X104647758Y-63101661D01*
X104859990Y-63615303D01*
X105252630Y-64008629D01*
X105765900Y-64221757D01*
X105970828Y-64221936D01*
X105676764Y-64516000D01*
X103505000Y-64516000D01*
X103164794Y-64583671D01*
X102876382Y-64776382D01*
X95504000Y-72148764D01*
X95504000Y-72123236D01*
X102863618Y-64763618D01*
X103056329Y-64475206D01*
X103124000Y-64135000D01*
X103124000Y-63527151D01*
X103479415Y-63289670D01*
X103804271Y-62803489D01*
X103918345Y-62230000D01*
X103860138Y-61937374D01*
X104648086Y-62725322D01*
X104648086Y-62725322D01*
G37*
X104648086Y-62725322D02*
X104647758Y-63101661D01*
X104859990Y-63615303D01*
X105252630Y-64008629D01*
X105765900Y-64221757D01*
X105970828Y-64221936D01*
X105676764Y-64516000D01*
X103505000Y-64516000D01*
X103164794Y-64583671D01*
X102876382Y-64776382D01*
X95504000Y-72148764D01*
X95504000Y-72123236D01*
X102863618Y-64763618D01*
X103056329Y-64475206D01*
X103124000Y-64135000D01*
X103124000Y-63527151D01*
X103479415Y-63289670D01*
X103804271Y-62803489D01*
X103918345Y-62230000D01*
X103860138Y-61937374D01*
X104648086Y-62725322D01*
G36*
X97028121Y-62685357D02*
X97027758Y-63101661D01*
X97239990Y-63615303D01*
X97632630Y-64008629D01*
X98145900Y-64221757D01*
X98701661Y-64222242D01*
X99215303Y-64010010D01*
X99441000Y-63784707D01*
X99441000Y-64401764D01*
X92964000Y-70878764D01*
X92964000Y-67043236D01*
X95243618Y-64763618D01*
X95436329Y-64475206D01*
X95504000Y-64135000D01*
X95504000Y-63527151D01*
X95859415Y-63289670D01*
X96184271Y-62803489D01*
X96298345Y-62230000D01*
X96230206Y-61887442D01*
X97028121Y-62685357D01*
X97028121Y-62685357D01*
G37*
X97028121Y-62685357D02*
X97027758Y-63101661D01*
X97239990Y-63615303D01*
X97632630Y-64008629D01*
X98145900Y-64221757D01*
X98701661Y-64222242D01*
X99215303Y-64010010D01*
X99441000Y-63784707D01*
X99441000Y-64401764D01*
X92964000Y-70878764D01*
X92964000Y-67043236D01*
X95243618Y-64763618D01*
X95436329Y-64475206D01*
X95504000Y-64135000D01*
X95504000Y-63527151D01*
X95859415Y-63289670D01*
X96184271Y-62803489D01*
X96298345Y-62230000D01*
X96230206Y-61887442D01*
X97028121Y-62685357D01*
G36*
X112361382Y-63453618D02*
X112432939Y-63501431D01*
X112479990Y-63615303D01*
X112872630Y-64008629D01*
X113082139Y-64095625D01*
X106311764Y-70866000D01*
X101841236Y-70866000D01*
X104508236Y-68199000D01*
X107315000Y-68199000D01*
X107655206Y-68131329D01*
X107943618Y-67938618D01*
X110483618Y-65398618D01*
X110676329Y-65110206D01*
X110744000Y-64770000D01*
X110744000Y-63527151D01*
X111099415Y-63289670D01*
X111424271Y-62803489D01*
X111471884Y-62564120D01*
X112361382Y-63453618D01*
X112361382Y-63453618D01*
G37*
X112361382Y-63453618D02*
X112432939Y-63501431D01*
X112479990Y-63615303D01*
X112872630Y-64008629D01*
X113082139Y-64095625D01*
X106311764Y-70866000D01*
X101841236Y-70866000D01*
X104508236Y-68199000D01*
X107315000Y-68199000D01*
X107655206Y-68131329D01*
X107943618Y-67938618D01*
X110483618Y-65398618D01*
X110676329Y-65110206D01*
X110744000Y-64770000D01*
X110744000Y-63527151D01*
X111099415Y-63289670D01*
X111424271Y-62803489D01*
X111471884Y-62564120D01*
X112361382Y-63453618D01*
G36*
X101346000Y-63527151D02*
X101346000Y-63766764D01*
X101219000Y-63893764D01*
X101219000Y-63442292D01*
X101346000Y-63527151D01*
X101346000Y-63527151D01*
G37*
X101346000Y-63527151D02*
X101346000Y-63766764D01*
X101219000Y-63893764D01*
X101219000Y-63442292D01*
X101346000Y-63527151D01*
G36*
X93726000Y-63527151D02*
X93726000Y-63766764D01*
X93599000Y-63893764D01*
X93599000Y-63442292D01*
X93726000Y-63527151D01*
X93726000Y-63527151D01*
G37*
X93726000Y-63527151D02*
X93726000Y-63766764D01*
X93599000Y-63893764D01*
X93599000Y-63442292D01*
X93726000Y-63527151D01*
G36*
X119126000Y-62067391D02*
X119044271Y-61656511D01*
X118719415Y-61170330D01*
X118404634Y-60960000D01*
X118719415Y-60749670D01*
X119044271Y-60263489D01*
X119126000Y-59852609D01*
X119126000Y-62067391D01*
X119126000Y-62067391D01*
G37*
X119126000Y-62067391D02*
X119044271Y-61656511D01*
X118719415Y-61170330D01*
X118404634Y-60960000D01*
X118719415Y-60749670D01*
X119044271Y-60263489D01*
X119126000Y-59852609D01*
X119126000Y-62067391D01*
G36*
X93045729Y-61656511D02*
X92998116Y-61895880D01*
X92316236Y-61214000D01*
X93341406Y-61214000D01*
X93045729Y-61656511D01*
X93045729Y-61656511D01*
G37*
X93045729Y-61656511D02*
X92998116Y-61895880D01*
X92316236Y-61214000D01*
X93341406Y-61214000D01*
X93045729Y-61656511D01*
G36*
X114681000Y-61865392D02*
X114530783Y-61714912D01*
X114662317Y-61690162D01*
X114681000Y-61678140D01*
X114681000Y-61865392D01*
X114681000Y-61865392D01*
G37*
X114681000Y-61865392D02*
X114530783Y-61714912D01*
X114662317Y-61690162D01*
X114681000Y-61678140D01*
X114681000Y-61865392D01*
G36*
X107061000Y-61865392D02*
X106910783Y-61714912D01*
X107042317Y-61690162D01*
X107061000Y-61678140D01*
X107061000Y-61865392D01*
X107061000Y-61865392D01*
G37*
X107061000Y-61865392D02*
X106910783Y-61714912D01*
X107042317Y-61690162D01*
X107061000Y-61678140D01*
X107061000Y-61865392D01*
G36*
X99441000Y-61865392D02*
X99290783Y-61714912D01*
X99422317Y-61690162D01*
X99441000Y-61678140D01*
X99441000Y-61865392D01*
X99441000Y-61865392D01*
G37*
X99441000Y-61865392D02*
X99290783Y-61714912D01*
X99422317Y-61690162D01*
X99441000Y-61678140D01*
X99441000Y-61865392D01*
G36*
X85750585Y-60749670D02*
X86065366Y-60960000D01*
X85822697Y-61122146D01*
X85718618Y-60966382D01*
X85394736Y-60642500D01*
X85458236Y-60579000D01*
X85636547Y-60579000D01*
X85750585Y-60749670D01*
X85750585Y-60749670D01*
G37*
X85750585Y-60749670D02*
X86065366Y-60960000D01*
X85822697Y-61122146D01*
X85718618Y-60966382D01*
X85394736Y-60642500D01*
X85458236Y-60579000D01*
X85636547Y-60579000D01*
X85750585Y-60749670D01*
G36*
X95631000Y-60920000D02*
X95653414Y-61032685D01*
X95544634Y-60960000D01*
X95631000Y-60902292D01*
X95631000Y-60920000D01*
X95631000Y-60920000D01*
G37*
X95631000Y-60920000D02*
X95653414Y-61032685D01*
X95544634Y-60960000D01*
X95631000Y-60902292D01*
X95631000Y-60920000D01*
G36*
X103251000Y-60960000D02*
X103264238Y-61026553D01*
X103164634Y-60960000D01*
X103251000Y-60902292D01*
X103251000Y-60960000D01*
X103251000Y-60960000D01*
G37*
X103251000Y-60960000D02*
X103264238Y-61026553D01*
X103164634Y-60960000D01*
X103251000Y-60902292D01*
X103251000Y-60960000D01*
G36*
X88011000Y-60960000D02*
X88024238Y-61026553D01*
X87924634Y-60960000D01*
X88011000Y-60902292D01*
X88011000Y-60960000D01*
X88011000Y-60960000D01*
G37*
X88011000Y-60960000D02*
X88024238Y-61026553D01*
X87924634Y-60960000D01*
X88011000Y-60902292D01*
X88011000Y-60960000D01*
G36*
X110871000Y-61017708D02*
X110784634Y-60960000D01*
X110871000Y-60902292D01*
X110871000Y-61017708D01*
X110871000Y-61017708D01*
G37*
X110871000Y-61017708D02*
X110784634Y-60960000D01*
X110871000Y-60902292D01*
X110871000Y-61017708D01*
G36*
X119126000Y-58788236D02*
X119126000Y-59527391D01*
X119044271Y-59116511D01*
X118719415Y-58630330D01*
X118404634Y-58420000D01*
X118616320Y-58278556D01*
X119126000Y-58788236D01*
X119126000Y-58788236D01*
G37*
X119126000Y-58788236D02*
X119126000Y-59527391D01*
X119044271Y-59116511D01*
X118719415Y-58630330D01*
X118404634Y-58420000D01*
X118616320Y-58278556D01*
X119126000Y-58788236D01*
G36*
X100603523Y-57410759D02*
X100665729Y-57723489D01*
X100990585Y-58209670D01*
X101305366Y-58420000D01*
X100990585Y-58630330D01*
X100665729Y-59116511D01*
X100602179Y-59436000D01*
X99810543Y-59436000D01*
X99790162Y-59327683D01*
X99651090Y-59111559D01*
X99438890Y-58966569D01*
X99314000Y-58941278D01*
X99314000Y-58871485D01*
X99608629Y-58577370D01*
X99821757Y-58064100D01*
X99822242Y-57508339D01*
X99610010Y-56994697D01*
X99384707Y-56769000D01*
X99961764Y-56769000D01*
X100603523Y-57410759D01*
X100603523Y-57410759D01*
G37*
X100603523Y-57410759D02*
X100665729Y-57723489D01*
X100990585Y-58209670D01*
X101305366Y-58420000D01*
X100990585Y-58630330D01*
X100665729Y-59116511D01*
X100602179Y-59436000D01*
X99810543Y-59436000D01*
X99790162Y-59327683D01*
X99651090Y-59111559D01*
X99438890Y-58966569D01*
X99314000Y-58941278D01*
X99314000Y-58871485D01*
X99608629Y-58577370D01*
X99821757Y-58064100D01*
X99822242Y-57508339D01*
X99610010Y-56994697D01*
X99384707Y-56769000D01*
X99961764Y-56769000D01*
X100603523Y-57410759D01*
G36*
X107956382Y-57778618D02*
X108244794Y-57971329D01*
X108482989Y-58018709D01*
X108610585Y-58209670D01*
X108925366Y-58420000D01*
X108610585Y-58630330D01*
X108285729Y-59116511D01*
X108222179Y-59436000D01*
X107430543Y-59436000D01*
X107410162Y-59327683D01*
X107271090Y-59111559D01*
X107058890Y-58966569D01*
X106934000Y-58941278D01*
X106934000Y-58871485D01*
X107228629Y-58577370D01*
X107441757Y-58064100D01*
X107442242Y-57508339D01*
X107270532Y-57092768D01*
X107956382Y-57778618D01*
X107956382Y-57778618D01*
G37*
X107956382Y-57778618D02*
X108244794Y-57971329D01*
X108482989Y-58018709D01*
X108610585Y-58209670D01*
X108925366Y-58420000D01*
X108610585Y-58630330D01*
X108285729Y-59116511D01*
X108222179Y-59436000D01*
X107430543Y-59436000D01*
X107410162Y-59327683D01*
X107271090Y-59111559D01*
X107058890Y-58966569D01*
X106934000Y-58941278D01*
X106934000Y-58871485D01*
X107228629Y-58577370D01*
X107441757Y-58064100D01*
X107442242Y-57508339D01*
X107270532Y-57092768D01*
X107956382Y-57778618D01*
G36*
X115576382Y-57778618D02*
X115864794Y-57971329D01*
X116102989Y-58018709D01*
X116230585Y-58209670D01*
X116545366Y-58420000D01*
X116230585Y-58630330D01*
X115905729Y-59116511D01*
X115843523Y-59429241D01*
X115836764Y-59436000D01*
X115050543Y-59436000D01*
X115030162Y-59327683D01*
X114891090Y-59111559D01*
X114678890Y-58966569D01*
X114554000Y-58941278D01*
X114554000Y-58871485D01*
X114848629Y-58577370D01*
X115061757Y-58064100D01*
X115062242Y-57508339D01*
X114890532Y-57092768D01*
X115576382Y-57778618D01*
X115576382Y-57778618D01*
G37*
X115576382Y-57778618D02*
X115864794Y-57971329D01*
X116102989Y-58018709D01*
X116230585Y-58209670D01*
X116545366Y-58420000D01*
X116230585Y-58630330D01*
X115905729Y-59116511D01*
X115843523Y-59429241D01*
X115836764Y-59436000D01*
X115050543Y-59436000D01*
X115030162Y-59327683D01*
X114891090Y-59111559D01*
X114678890Y-58966569D01*
X114554000Y-58941278D01*
X114554000Y-58871485D01*
X114848629Y-58577370D01*
X115061757Y-58064100D01*
X115062242Y-57508339D01*
X114890532Y-57092768D01*
X115576382Y-57778618D01*
G36*
X92983523Y-57410759D02*
X93045729Y-57723489D01*
X93370585Y-58209670D01*
X93685366Y-58420000D01*
X93370585Y-58630330D01*
X93045729Y-59116511D01*
X92982179Y-59436000D01*
X92190543Y-59436000D01*
X92170162Y-59327683D01*
X92031090Y-59111559D01*
X91818890Y-58966569D01*
X91694000Y-58941278D01*
X91694000Y-58871485D01*
X91988629Y-58577370D01*
X92201757Y-58064100D01*
X92202242Y-57508339D01*
X91990010Y-56994697D01*
X91764707Y-56769000D01*
X92341764Y-56769000D01*
X92983523Y-57410759D01*
X92983523Y-57410759D01*
G37*
X92983523Y-57410759D02*
X93045729Y-57723489D01*
X93370585Y-58209670D01*
X93685366Y-58420000D01*
X93370585Y-58630330D01*
X93045729Y-59116511D01*
X92982179Y-59436000D01*
X92190543Y-59436000D01*
X92170162Y-59327683D01*
X92031090Y-59111559D01*
X91818890Y-58966569D01*
X91694000Y-58941278D01*
X91694000Y-58871485D01*
X91988629Y-58577370D01*
X92201757Y-58064100D01*
X92202242Y-57508339D01*
X91990010Y-56994697D01*
X91764707Y-56769000D01*
X92341764Y-56769000D01*
X92983523Y-57410759D01*
G36*
X85096382Y-57778618D02*
X85384794Y-57971329D01*
X85622989Y-58018709D01*
X85750585Y-58209670D01*
X86065366Y-58420000D01*
X85750585Y-58630330D01*
X85636547Y-58801000D01*
X85090000Y-58801000D01*
X84749795Y-58868670D01*
X84461382Y-59061382D01*
X84411135Y-59111629D01*
X84411090Y-59111559D01*
X84198890Y-58966569D01*
X84074000Y-58941278D01*
X84074000Y-58871485D01*
X84368629Y-58577370D01*
X84581757Y-58064100D01*
X84582242Y-57508339D01*
X84410532Y-57092768D01*
X85096382Y-57778618D01*
X85096382Y-57778618D01*
G37*
X85096382Y-57778618D02*
X85384794Y-57971329D01*
X85622989Y-58018709D01*
X85750585Y-58209670D01*
X86065366Y-58420000D01*
X85750585Y-58630330D01*
X85636547Y-58801000D01*
X85090000Y-58801000D01*
X84749795Y-58868670D01*
X84461382Y-59061382D01*
X84411135Y-59111629D01*
X84411090Y-59111559D01*
X84198890Y-58966569D01*
X84074000Y-58941278D01*
X84074000Y-58871485D01*
X84368629Y-58577370D01*
X84581757Y-58064100D01*
X84582242Y-57508339D01*
X84410532Y-57092768D01*
X85096382Y-57778618D01*
G36*
X105156000Y-58871830D02*
X105156000Y-58939457D01*
X105047683Y-58959838D01*
X105014339Y-58981294D01*
X104961329Y-58714794D01*
X104884590Y-58599946D01*
X105156000Y-58871830D01*
X105156000Y-58871830D01*
G37*
X105156000Y-58871830D02*
X105156000Y-58939457D01*
X105047683Y-58959838D01*
X105014339Y-58981294D01*
X104961329Y-58714794D01*
X104884590Y-58599946D01*
X105156000Y-58871830D01*
G36*
X112776000Y-58871830D02*
X112776000Y-58939457D01*
X112667683Y-58959838D01*
X112634339Y-58981294D01*
X112581329Y-58714794D01*
X112504590Y-58599946D01*
X112776000Y-58871830D01*
X112776000Y-58871830D01*
G37*
X112776000Y-58871830D02*
X112776000Y-58939457D01*
X112667683Y-58959838D01*
X112634339Y-58981294D01*
X112581329Y-58714794D01*
X112504590Y-58599946D01*
X112776000Y-58871830D01*
G36*
X97536000Y-58871830D02*
X97536000Y-58939457D01*
X97427683Y-58959838D01*
X97394339Y-58981294D01*
X97341329Y-58714794D01*
X97264590Y-58599946D01*
X97536000Y-58871830D01*
X97536000Y-58871830D01*
G37*
X97536000Y-58871830D02*
X97536000Y-58939457D01*
X97427683Y-58959838D01*
X97394339Y-58981294D01*
X97341329Y-58714794D01*
X97264590Y-58599946D01*
X97536000Y-58871830D01*
G36*
X89916000Y-58871830D02*
X89916000Y-58939457D01*
X89807683Y-58959838D01*
X89774339Y-58981294D01*
X89721329Y-58714794D01*
X89644590Y-58599946D01*
X89916000Y-58871830D01*
X89916000Y-58871830D01*
G37*
X89916000Y-58871830D02*
X89916000Y-58939457D01*
X89807683Y-58959838D01*
X89774339Y-58981294D01*
X89721329Y-58714794D01*
X89644590Y-58599946D01*
X89916000Y-58871830D01*
G36*
X82296000Y-58871830D02*
X82296000Y-58939457D01*
X82187683Y-58959838D01*
X82169000Y-58971860D01*
X82169000Y-58744608D01*
X82296000Y-58871830D01*
X82296000Y-58871830D01*
G37*
X82296000Y-58871830D02*
X82296000Y-58939457D01*
X82187683Y-58959838D01*
X82169000Y-58971860D01*
X82169000Y-58744608D01*
X82296000Y-58871830D01*
G36*
X89621371Y-56992630D02*
X89408243Y-57505900D01*
X89407758Y-58061661D01*
X89606810Y-58543404D01*
X89528618Y-58426382D01*
X88607649Y-57505413D01*
X88626477Y-57410759D01*
X89268236Y-56769000D01*
X89845392Y-56769000D01*
X89621371Y-56992630D01*
X89621371Y-56992630D01*
G37*
X89621371Y-56992630D02*
X89408243Y-57505900D01*
X89407758Y-58061661D01*
X89606810Y-58543404D01*
X89528618Y-58426382D01*
X88607649Y-57505413D01*
X88626477Y-57410759D01*
X89268236Y-56769000D01*
X89845392Y-56769000D01*
X89621371Y-56992630D01*
G36*
X97028243Y-57505900D02*
X97027758Y-58061661D01*
X97226810Y-58543404D01*
X97148618Y-58426382D01*
X96505967Y-57783731D01*
X96513618Y-57778618D01*
X97200019Y-57092217D01*
X97028243Y-57505900D01*
X97028243Y-57505900D01*
G37*
X97028243Y-57505900D02*
X97027758Y-58061661D01*
X97226810Y-58543404D01*
X97148618Y-58426382D01*
X96505967Y-57783731D01*
X96513618Y-57778618D01*
X97200019Y-57092217D01*
X97028243Y-57505900D01*
G36*
X104648243Y-57505900D02*
X104647758Y-58061661D01*
X104846810Y-58543404D01*
X104768618Y-58426382D01*
X104125967Y-57783731D01*
X104133618Y-57778618D01*
X104820019Y-57092217D01*
X104648243Y-57505900D01*
X104648243Y-57505900D01*
G37*
X104648243Y-57505900D02*
X104647758Y-58061661D01*
X104846810Y-58543404D01*
X104768618Y-58426382D01*
X104125967Y-57783731D01*
X104133618Y-57778618D01*
X104820019Y-57092217D01*
X104648243Y-57505900D01*
G36*
X112481371Y-56992630D02*
X112268243Y-57505900D01*
X112267758Y-58061661D01*
X112466810Y-58543404D01*
X112388618Y-58426382D01*
X111467649Y-57505413D01*
X111486477Y-57410759D01*
X112128236Y-56769000D01*
X112705392Y-56769000D01*
X112481371Y-56992630D01*
X112481371Y-56992630D01*
G37*
X112481371Y-56992630D02*
X112268243Y-57505900D01*
X112267758Y-58061661D01*
X112466810Y-58543404D01*
X112388618Y-58426382D01*
X111467649Y-57505413D01*
X111486477Y-57410759D01*
X112128236Y-56769000D01*
X112705392Y-56769000D01*
X112481371Y-56992630D01*
G36*
X120396000Y-56883236D02*
X120396000Y-57543764D01*
X119373618Y-56521382D01*
X119225686Y-56422537D01*
X119085206Y-56328671D01*
X118847011Y-56281291D01*
X118719415Y-56090330D01*
X118705087Y-56080757D01*
X118726317Y-56076762D01*
X118942441Y-55937690D01*
X119087431Y-55725490D01*
X119112830Y-55600066D01*
X120396000Y-56883236D01*
X120396000Y-56883236D01*
G37*
X120396000Y-56883236D02*
X120396000Y-57543764D01*
X119373618Y-56521382D01*
X119225686Y-56422537D01*
X119085206Y-56328671D01*
X118847011Y-56281291D01*
X118719415Y-56090330D01*
X118705087Y-56080757D01*
X118726317Y-56076762D01*
X118942441Y-55937690D01*
X119087431Y-55725490D01*
X119112830Y-55600066D01*
X120396000Y-56883236D01*
G36*
X103891908Y-55505856D02*
X103893296Y-55499000D01*
X103898764Y-55499000D01*
X103891908Y-55505856D01*
X103891908Y-55505856D01*
G37*
X103891908Y-55505856D02*
X103893296Y-55499000D01*
X103898764Y-55499000D01*
X103891908Y-55505856D01*
G36*
X96271908Y-55505856D02*
X96273296Y-55499000D01*
X96278764Y-55499000D01*
X96271908Y-55505856D01*
X96271908Y-55505856D01*
G37*
X96271908Y-55505856D02*
X96273296Y-55499000D01*
X96278764Y-55499000D01*
X96271908Y-55505856D01*
G36*
X115817522Y-55505286D02*
X115811236Y-55499000D01*
X115816339Y-55499000D01*
X115817522Y-55505286D01*
X115817522Y-55505286D01*
G37*
X115817522Y-55505286D02*
X115811236Y-55499000D01*
X115816339Y-55499000D01*
X115817522Y-55505286D01*
G36*
X108197522Y-55505286D02*
X108191236Y-55499000D01*
X108196339Y-55499000D01*
X108197522Y-55505286D01*
X108197522Y-55505286D01*
G37*
X108197522Y-55505286D02*
X108191236Y-55499000D01*
X108196339Y-55499000D01*
X108197522Y-55505286D01*
G36*
X85331560Y-55473600D02*
X85337522Y-55505286D01*
X85083618Y-55251382D01*
X84949630Y-55161854D01*
X84795206Y-55058671D01*
X84716875Y-55043090D01*
X85331560Y-54429477D01*
X85331560Y-55473600D01*
X85331560Y-55473600D01*
G37*
X85331560Y-55473600D02*
X85337522Y-55505286D01*
X85083618Y-55251382D01*
X84949630Y-55161854D01*
X84795206Y-55058671D01*
X84716875Y-55043090D01*
X85331560Y-54429477D01*
X85331560Y-55473600D01*
G36*
X81168830Y-48707612D02*
X80506361Y-48978146D01*
X80493840Y-48986512D01*
X80493628Y-48986600D01*
X80493464Y-48986764D01*
X80475566Y-48998723D01*
X80460309Y-49019861D01*
X79629000Y-49849720D01*
X79629000Y-48628236D01*
X79743236Y-48514000D01*
X81637407Y-48514000D01*
X81168830Y-48707612D01*
X81168830Y-48707612D01*
G37*
X81168830Y-48707612D02*
X80506361Y-48978146D01*
X80493840Y-48986512D01*
X80493628Y-48986600D01*
X80493464Y-48986764D01*
X80475566Y-48998723D01*
X80460309Y-49019861D01*
X79629000Y-49849720D01*
X79629000Y-48628236D01*
X79743236Y-48514000D01*
X81637407Y-48514000D01*
X81168830Y-48707612D01*
M02*
