G04 #@! TF.FileFunction,Copper,L2,Bot,Signal*
%FSLAX46Y46*%
G04 Gerber Fmt 4.6, Leading zero omitted, Abs format (unit mm)*
G04 Created by KiCad (PCBNEW 4.0.2+dfsg1-stable) date Thu 04 Aug 2016 18:31:21 CEST*
%MOMM*%
G01*
G04 APERTURE LIST*
%ADD10C,0.100000*%
%ADD11C,0.300000*%
%ADD12C,0.150000*%
%ADD13R,2.032000X1.727200*%
%ADD14O,2.032000X1.727200*%
%ADD15R,1.524000X1.524000*%
%ADD16C,1.524000*%
%ADD17R,1.524000X2.540000*%
%ADD18O,1.524000X2.540000*%
%ADD19R,1.727200X1.727200*%
%ADD20O,1.727200X1.727200*%
%ADD21C,1.600000*%
%ADD22R,1.727200X2.032000*%
%ADD23O,1.727200X2.032000*%
%ADD24C,0.508000*%
%ADD25C,0.304800*%
G04 APERTURE END LIST*
D10*
D11*
X81728571Y-66378572D02*
X82800000Y-66378572D01*
X83014286Y-66307144D01*
X83157143Y-66164287D01*
X83228571Y-65950001D01*
X83228571Y-65807144D01*
X83228571Y-67735715D02*
X82442857Y-67735715D01*
X82300000Y-67664286D01*
X82228571Y-67521429D01*
X82228571Y-67235715D01*
X82300000Y-67092858D01*
X83157143Y-67735715D02*
X83228571Y-67592858D01*
X83228571Y-67235715D01*
X83157143Y-67092858D01*
X83014286Y-67021429D01*
X82871429Y-67021429D01*
X82728571Y-67092858D01*
X82657143Y-67235715D01*
X82657143Y-67592858D01*
X82585714Y-67735715D01*
X82228571Y-68307144D02*
X83228571Y-68664287D01*
X82228571Y-69021429D01*
X83228571Y-70235715D02*
X82442857Y-70235715D01*
X82300000Y-70164286D01*
X82228571Y-70021429D01*
X82228571Y-69735715D01*
X82300000Y-69592858D01*
X83157143Y-70235715D02*
X83228571Y-70092858D01*
X83228571Y-69735715D01*
X83157143Y-69592858D01*
X83014286Y-69521429D01*
X82871429Y-69521429D01*
X82728571Y-69592858D01*
X82657143Y-69735715D01*
X82657143Y-70092858D01*
X82585714Y-70235715D01*
X81728571Y-70807144D02*
X81728571Y-71807144D01*
X83228571Y-70807144D01*
X83228571Y-71807144D01*
X83228571Y-72592858D02*
X83157143Y-72450000D01*
X83085714Y-72378572D01*
X82942857Y-72307143D01*
X82514286Y-72307143D01*
X82371429Y-72378572D01*
X82300000Y-72450000D01*
X82228571Y-72592858D01*
X82228571Y-72807143D01*
X82300000Y-72950000D01*
X82371429Y-73021429D01*
X82514286Y-73092858D01*
X82942857Y-73092858D01*
X83085714Y-73021429D01*
X83157143Y-72950000D01*
X83228571Y-72807143D01*
X83228571Y-72592858D01*
X82228571Y-73735715D02*
X83228571Y-73735715D01*
X82371429Y-73735715D02*
X82300000Y-73807143D01*
X82228571Y-73950001D01*
X82228571Y-74164286D01*
X82300000Y-74307143D01*
X82442857Y-74378572D01*
X83228571Y-74378572D01*
X83157143Y-75664286D02*
X83228571Y-75521429D01*
X83228571Y-75235715D01*
X83157143Y-75092858D01*
X83014286Y-75021429D01*
X82442857Y-75021429D01*
X82300000Y-75092858D01*
X82228571Y-75235715D01*
X82228571Y-75521429D01*
X82300000Y-75664286D01*
X82442857Y-75735715D01*
X82585714Y-75735715D01*
X82728571Y-75021429D01*
X83228571Y-77521429D02*
X81728571Y-77521429D01*
X81728571Y-78092857D01*
X81800000Y-78235715D01*
X81871429Y-78307143D01*
X82014286Y-78378572D01*
X82228571Y-78378572D01*
X82371429Y-78307143D01*
X82442857Y-78235715D01*
X82514286Y-78092857D01*
X82514286Y-77521429D01*
X83228571Y-79235715D02*
X83157143Y-79092857D01*
X83085714Y-79021429D01*
X82942857Y-78950000D01*
X82514286Y-78950000D01*
X82371429Y-79021429D01*
X82300000Y-79092857D01*
X82228571Y-79235715D01*
X82228571Y-79450000D01*
X82300000Y-79592857D01*
X82371429Y-79664286D01*
X82514286Y-79735715D01*
X82942857Y-79735715D01*
X83085714Y-79664286D01*
X83157143Y-79592857D01*
X83228571Y-79450000D01*
X83228571Y-79235715D01*
X83228571Y-80592858D02*
X83157143Y-80450000D01*
X83014286Y-80378572D01*
X81728571Y-80378572D01*
X83228571Y-81378572D02*
X83157143Y-81235714D01*
X83014286Y-81164286D01*
X81728571Y-81164286D01*
X82442857Y-83592857D02*
X82514286Y-83807143D01*
X82585714Y-83878571D01*
X82728571Y-83950000D01*
X82942857Y-83950000D01*
X83085714Y-83878571D01*
X83157143Y-83807143D01*
X83228571Y-83664285D01*
X83228571Y-83092857D01*
X81728571Y-83092857D01*
X81728571Y-83592857D01*
X81800000Y-83735714D01*
X81871429Y-83807143D01*
X82014286Y-83878571D01*
X82157143Y-83878571D01*
X82300000Y-83807143D01*
X82371429Y-83735714D01*
X82442857Y-83592857D01*
X82442857Y-83092857D01*
X83228571Y-84807143D02*
X83157143Y-84664285D01*
X83085714Y-84592857D01*
X82942857Y-84521428D01*
X82514286Y-84521428D01*
X82371429Y-84592857D01*
X82300000Y-84664285D01*
X82228571Y-84807143D01*
X82228571Y-85021428D01*
X82300000Y-85164285D01*
X82371429Y-85235714D01*
X82514286Y-85307143D01*
X82942857Y-85307143D01*
X83085714Y-85235714D01*
X83157143Y-85164285D01*
X83228571Y-85021428D01*
X83228571Y-84807143D01*
X83228571Y-85807143D02*
X82228571Y-86592857D01*
X82228571Y-85807143D02*
X83228571Y-86592857D01*
D12*
X77470000Y-119380000D02*
X77470000Y-114300000D01*
X128270000Y-119380000D02*
X77470000Y-119380000D01*
X128270000Y-114300000D02*
X128270000Y-119380000D01*
X77470000Y-44450000D02*
X77470000Y-114300000D01*
X128270000Y-44450000D02*
X128270000Y-114300000D01*
X128270000Y-44450000D02*
X77470000Y-44450000D01*
D13*
X109855000Y-54610000D03*
D14*
X109855000Y-57150000D03*
X109855000Y-59690000D03*
X109855000Y-62230000D03*
D15*
X98425000Y-60325000D03*
D16*
X98425000Y-62825000D03*
X90805000Y-57785000D03*
X90805000Y-47625000D03*
D15*
X83185000Y-60325000D03*
D16*
X83185000Y-62825000D03*
X83185000Y-57785000D03*
X83185000Y-47625000D03*
D17*
X109855000Y-76835000D03*
D18*
X107315000Y-76835000D03*
X104775000Y-76835000D03*
X102235000Y-76835000D03*
X99695000Y-76835000D03*
X97155000Y-76835000D03*
X94615000Y-76835000D03*
X92075000Y-76835000D03*
X89535000Y-76835000D03*
X89535000Y-84455000D03*
X92075000Y-84455000D03*
X94615000Y-84455000D03*
X97155000Y-84455000D03*
X99695000Y-84455000D03*
X102235000Y-84455000D03*
X104775000Y-84455000D03*
X107315000Y-84455000D03*
X109855000Y-84455000D03*
D15*
X90805000Y-60325000D03*
D16*
X90805000Y-62825000D03*
D15*
X106045000Y-60325000D03*
D16*
X106045000Y-62825000D03*
D15*
X113665000Y-60325000D03*
D16*
X113665000Y-62825000D03*
D19*
X117475000Y-73660000D03*
D20*
X120015000Y-73660000D03*
X117475000Y-76200000D03*
X120015000Y-76200000D03*
X117475000Y-78740000D03*
X120015000Y-78740000D03*
D13*
X86995000Y-54610000D03*
D14*
X86995000Y-57150000D03*
X86995000Y-59690000D03*
X86995000Y-62230000D03*
D13*
X94615000Y-54610000D03*
D14*
X94615000Y-57150000D03*
X94615000Y-59690000D03*
X94615000Y-62230000D03*
D13*
X102235000Y-54610000D03*
D14*
X102235000Y-57150000D03*
X102235000Y-59690000D03*
X102235000Y-62230000D03*
D13*
X117475000Y-54610000D03*
D14*
X117475000Y-57150000D03*
X117475000Y-59690000D03*
X117475000Y-62230000D03*
D16*
X98425000Y-57785000D03*
X98425000Y-47625000D03*
X106045000Y-57785000D03*
X106045000Y-47625000D03*
X113665000Y-57785000D03*
X113665000Y-47625000D03*
D21*
X121920000Y-114300000D03*
X119380000Y-114300000D03*
X116840000Y-114300000D03*
X114300000Y-114300000D03*
X111760000Y-114300000D03*
X109220000Y-114300000D03*
X106680000Y-114300000D03*
X104140000Y-114300000D03*
X101600000Y-114300000D03*
X99060000Y-114300000D03*
X96520000Y-114300000D03*
X93980000Y-114300000D03*
X91440000Y-114300000D03*
X88900000Y-114300000D03*
X86360000Y-114300000D03*
X86360000Y-91440000D03*
X88900000Y-91440000D03*
X91440000Y-91440000D03*
X93980000Y-91440000D03*
X96520000Y-91440000D03*
X99060000Y-91440000D03*
X101600000Y-91440000D03*
X104140000Y-91440000D03*
X106680000Y-91440000D03*
X109220000Y-91440000D03*
X111760000Y-91440000D03*
X114300000Y-91440000D03*
X116840000Y-91440000D03*
X119380000Y-91440000D03*
X121920000Y-91440000D03*
D22*
X121920000Y-109220000D03*
D23*
X119380000Y-109220000D03*
X116840000Y-109220000D03*
X114300000Y-109220000D03*
X111760000Y-109220000D03*
X109220000Y-109220000D03*
X106680000Y-109220000D03*
X104140000Y-109220000D03*
X101600000Y-109220000D03*
X99060000Y-109220000D03*
X96520000Y-109220000D03*
X93980000Y-109220000D03*
X91440000Y-109220000D03*
X88900000Y-109220000D03*
X86360000Y-109220000D03*
D22*
X121920000Y-96520000D03*
D23*
X119380000Y-96520000D03*
X116840000Y-96520000D03*
X114300000Y-96520000D03*
X111760000Y-96520000D03*
X109220000Y-96520000D03*
X106680000Y-96520000D03*
X104140000Y-96520000D03*
X101600000Y-96520000D03*
X99060000Y-96520000D03*
X96520000Y-96520000D03*
X93980000Y-96520000D03*
X91440000Y-96520000D03*
X88900000Y-96520000D03*
X86360000Y-96520000D03*
D24*
X117475000Y-76200000D02*
X116840000Y-76200000D01*
X116840000Y-76200000D02*
X115570000Y-74930000D01*
X118745000Y-57150000D02*
X117475000Y-57150000D01*
X120015000Y-58420000D02*
X118745000Y-57150000D01*
X120015000Y-64770000D02*
X120015000Y-58420000D01*
X115570000Y-69215000D02*
X120015000Y-64770000D01*
X115570000Y-74930000D02*
X115570000Y-69215000D01*
X121920000Y-91440000D02*
X121920000Y-78105000D01*
X121920000Y-78105000D02*
X120015000Y-76200000D01*
X117475000Y-76200000D02*
X120015000Y-76200000D01*
X121920000Y-91440000D02*
X121920000Y-96520000D01*
X113665000Y-62825000D02*
X113665000Y-62865000D01*
X109855000Y-57150000D02*
X110490000Y-57150000D01*
X110490000Y-57150000D02*
X111760000Y-55880000D01*
X116205000Y-57150000D02*
X117475000Y-57150000D01*
X114935000Y-55880000D02*
X116205000Y-57150000D01*
X111760000Y-55880000D02*
X114935000Y-55880000D01*
X102235000Y-57150000D02*
X103505000Y-57150000D01*
X108585000Y-57150000D02*
X109855000Y-57150000D01*
X107315000Y-55880000D02*
X108585000Y-57150000D01*
X104775000Y-55880000D02*
X107315000Y-55880000D01*
X103505000Y-57150000D02*
X104775000Y-55880000D01*
X102235000Y-57150000D02*
X101600000Y-57150000D01*
X101600000Y-57150000D02*
X100330000Y-55880000D01*
X95885000Y-57150000D02*
X94615000Y-57150000D01*
X97155000Y-55880000D02*
X95885000Y-57150000D01*
X100330000Y-55880000D02*
X97155000Y-55880000D01*
X82550000Y-55880000D02*
X84455000Y-55880000D01*
X83145000Y-62825000D02*
X81280000Y-60960000D01*
X81280000Y-60960000D02*
X81280000Y-57150000D01*
X81280000Y-57150000D02*
X82550000Y-55880000D01*
X85725000Y-57150000D02*
X84455000Y-55880000D01*
X85725000Y-57150000D02*
X86995000Y-57150000D01*
D25*
X86995000Y-57150000D02*
X87630000Y-57150000D01*
D24*
X88900000Y-59055000D02*
X86995000Y-57150000D01*
X90765000Y-62825000D02*
X88900000Y-60960000D01*
X88900000Y-60960000D02*
X88900000Y-59055000D01*
D25*
X83185000Y-62825000D02*
X83145000Y-62825000D01*
X90805000Y-62825000D02*
X90765000Y-62825000D01*
X106045000Y-62825000D02*
X106005000Y-62825000D01*
X113665000Y-62825000D02*
X112990000Y-62825000D01*
X113665000Y-62825000D02*
X112990000Y-62825000D01*
D24*
X111760000Y-61595000D02*
X111760000Y-59055000D01*
X111760000Y-59055000D02*
X109855000Y-57150000D01*
X112990000Y-62825000D02*
X111760000Y-61595000D01*
X106005000Y-62825000D02*
X104140000Y-60960000D01*
X104140000Y-60960000D02*
X104140000Y-59055000D01*
X96520000Y-60920000D02*
X98425000Y-62825000D01*
X96520000Y-59055000D02*
X96520000Y-60920000D01*
X104140000Y-59055000D02*
X102235000Y-57150000D01*
X94615000Y-57150000D02*
X96520000Y-59055000D01*
X94615000Y-57150000D02*
X95250000Y-57150000D01*
X87630000Y-57150000D02*
X88900000Y-55880000D01*
X88900000Y-55880000D02*
X92710000Y-55880000D01*
X92710000Y-55880000D02*
X93980000Y-57150000D01*
X93980000Y-57150000D02*
X94615000Y-57150000D01*
X120015000Y-73660000D02*
X120015000Y-67310000D01*
X119380000Y-54610000D02*
X117475000Y-54610000D01*
X121285000Y-56515000D02*
X119380000Y-54610000D01*
X121285000Y-66040000D02*
X121285000Y-56515000D01*
X120015000Y-67310000D02*
X121285000Y-66040000D01*
X121920000Y-109220000D02*
X121920000Y-100965000D01*
X122555000Y-73660000D02*
X120015000Y-73660000D01*
X123825000Y-74930000D02*
X122555000Y-73660000D01*
X123825000Y-99060000D02*
X123825000Y-74930000D01*
X121920000Y-100965000D02*
X123825000Y-99060000D01*
X117475000Y-73660000D02*
X120015000Y-73660000D01*
X121920000Y-109220000D02*
X121920000Y-114300000D01*
X117475000Y-54610000D02*
X118110000Y-54610000D01*
X86995000Y-54610000D02*
X94615000Y-54610000D01*
X109855000Y-54610000D02*
X117475000Y-54610000D01*
X102235000Y-54610000D02*
X109855000Y-54610000D01*
X94615000Y-54610000D02*
X102235000Y-54610000D01*
X119380000Y-109220000D02*
X119380000Y-96520000D01*
X119380000Y-96520000D02*
X119380000Y-97790000D01*
X119380000Y-97790000D02*
X117475000Y-99695000D01*
X117475000Y-99695000D02*
X85725000Y-99695000D01*
X85725000Y-99695000D02*
X79375000Y-93345000D01*
X79375000Y-93345000D02*
X79375000Y-50165000D01*
X79375000Y-50165000D02*
X81915000Y-47625000D01*
X81915000Y-47625000D02*
X83185000Y-47625000D01*
X120015000Y-78740000D02*
X120015000Y-90805000D01*
X120015000Y-90805000D02*
X119380000Y-91440000D01*
X117475000Y-78740000D02*
X120015000Y-78740000D01*
X119380000Y-109220000D02*
X119380000Y-114300000D01*
X119380000Y-91440000D02*
X119380000Y-96520000D01*
X90805000Y-47625000D02*
X98425000Y-47625000D01*
X106045000Y-47625000D02*
X113665000Y-47625000D01*
X98425000Y-47625000D02*
X106045000Y-47625000D01*
X83185000Y-47625000D02*
X90805000Y-47625000D01*
X86995000Y-62230000D02*
X86995000Y-74295000D01*
X86995000Y-74295000D02*
X89535000Y-76835000D01*
X92075000Y-76835000D02*
X92075000Y-66675000D01*
X94615000Y-62230000D02*
X94615000Y-64135000D01*
X92075000Y-66675000D02*
X94615000Y-64135000D01*
X94615000Y-76835000D02*
X94615000Y-71755000D01*
X94615000Y-71755000D02*
X102235000Y-64135000D01*
X102235000Y-64135000D02*
X102235000Y-62230000D01*
D25*
X102235000Y-64135000D02*
X102235000Y-62230000D01*
D24*
X97155000Y-76835000D02*
X97155000Y-74295000D01*
X109855000Y-64770000D02*
X109855000Y-62230000D01*
X107315000Y-67310000D02*
X109855000Y-64770000D01*
X104140000Y-67310000D02*
X107315000Y-67310000D01*
X97155000Y-74295000D02*
X104140000Y-67310000D01*
X86360000Y-91440000D02*
X86360000Y-96520000D01*
X86360000Y-91440000D02*
X86360000Y-83820000D01*
X85090000Y-61595000D02*
X83820000Y-60325000D01*
X85090000Y-82550000D02*
X85090000Y-61595000D01*
X86360000Y-83820000D02*
X85090000Y-82550000D01*
X83185000Y-60325000D02*
X84455000Y-60325000D01*
D25*
X83185000Y-60325000D02*
X83820000Y-60325000D01*
D24*
X84455000Y-60325000D02*
X85090000Y-59690000D01*
X85090000Y-59690000D02*
X86995000Y-59690000D01*
X83185000Y-60325000D02*
X83185000Y-57785000D01*
X91440000Y-91440000D02*
X91440000Y-96520000D01*
X90805000Y-74295000D02*
X90805000Y-66675000D01*
X92710000Y-64770000D02*
X90805000Y-66675000D01*
X91440000Y-87630000D02*
X91440000Y-91440000D01*
D25*
X91440000Y-87630000D02*
X90805000Y-86995000D01*
X90805000Y-86995000D02*
X90805000Y-74295000D01*
D24*
X93980000Y-60325000D02*
X94615000Y-59690000D01*
X90805000Y-60325000D02*
X93980000Y-60325000D01*
X90805000Y-60960000D02*
X92710000Y-62865000D01*
X90805000Y-60325000D02*
X90805000Y-60960000D01*
X92710000Y-62865000D02*
X92710000Y-64770000D01*
X90805000Y-57785000D02*
X90805000Y-60325000D01*
X106680000Y-91440000D02*
X106680000Y-96520000D01*
X106680000Y-91440000D02*
X102870000Y-87630000D01*
X100330000Y-64770000D02*
X100330000Y-60325000D01*
X93345000Y-71755000D02*
X100330000Y-64770000D01*
X93345000Y-74295000D02*
X93345000Y-71755000D01*
D25*
X93345000Y-78740000D02*
X93345000Y-74295000D01*
D24*
X95250000Y-80645000D02*
X93345000Y-78740000D01*
X96520000Y-80645000D02*
X95250000Y-80645000D01*
X98425000Y-82550000D02*
X96520000Y-80645000D01*
D25*
X98425000Y-86360000D02*
X98425000Y-82550000D01*
X99695000Y-87630000D02*
X98425000Y-86360000D01*
D24*
X102870000Y-87630000D02*
X99695000Y-87630000D01*
X102235000Y-59690000D02*
X102235000Y-60132634D01*
X98425000Y-60325000D02*
X100330000Y-60325000D01*
X100330000Y-60325000D02*
X101600000Y-60325000D01*
X101600000Y-60325000D02*
X102235000Y-59690000D01*
X98425000Y-57785000D02*
X98425000Y-60325000D01*
X111760000Y-91440000D02*
X111760000Y-96520000D01*
X107950000Y-60325000D02*
X107950000Y-63500000D01*
X111760000Y-82550000D02*
X111760000Y-91440000D01*
X109855000Y-80645000D02*
X111760000Y-82550000D01*
X97790000Y-80645000D02*
X109855000Y-80645000D01*
X95885000Y-78740000D02*
X97790000Y-80645000D01*
D25*
X95885000Y-74930000D02*
X95885000Y-78740000D01*
D24*
X95885000Y-73025000D02*
X95885000Y-74930000D01*
X103505000Y-65405000D02*
X95885000Y-73025000D01*
X106045000Y-65405000D02*
X103505000Y-65405000D01*
X107950000Y-63500000D02*
X106045000Y-65405000D01*
X106045000Y-57785000D02*
X106045000Y-60325000D01*
X106045000Y-60325000D02*
X107950000Y-60325000D01*
X107950000Y-60325000D02*
X109220000Y-60325000D01*
X109220000Y-60325000D02*
X109855000Y-59690000D01*
X114300000Y-91440000D02*
X114300000Y-96520000D01*
X115570000Y-60325000D02*
X115570000Y-62865000D01*
X114300000Y-83185000D02*
X110490000Y-79375000D01*
X110490000Y-79375000D02*
X99060000Y-79375000D01*
X99060000Y-79375000D02*
X98425000Y-78740000D01*
D25*
X98425000Y-78740000D02*
X98425000Y-74930000D01*
D24*
X114300000Y-83185000D02*
X114300000Y-91440000D01*
X101600000Y-71755000D02*
X98425000Y-74930000D01*
X106680000Y-71755000D02*
X101600000Y-71755000D01*
X115570000Y-62865000D02*
X106680000Y-71755000D01*
X116205000Y-60325000D02*
X116840000Y-59690000D01*
X113665000Y-57785000D02*
X113665000Y-60325000D01*
X113665000Y-60325000D02*
X115570000Y-60325000D01*
X115570000Y-60325000D02*
X116205000Y-60325000D01*
X116840000Y-59690000D02*
X117475000Y-59690000D01*
X99695000Y-76835000D02*
X99695000Y-75565000D01*
X99695000Y-75565000D02*
X100965000Y-74295000D01*
X100965000Y-74295000D02*
X105410000Y-74295000D01*
X105410000Y-74295000D02*
X117475000Y-62230000D01*
X116840000Y-109220000D02*
X116840000Y-114300000D01*
X114300000Y-109220000D02*
X114300000Y-114300000D01*
X106680000Y-109220000D02*
X106680000Y-114300000D01*
X104140000Y-109220000D02*
X104140000Y-114300000D01*
X101600000Y-109220000D02*
X101600000Y-114300000D01*
X99060000Y-109220000D02*
X99060000Y-114300000D01*
X96520000Y-109220000D02*
X96520000Y-114300000D01*
X93980000Y-114300000D02*
X93980000Y-109220000D01*
X86360000Y-109220000D02*
X86360000Y-114300000D01*
X88900000Y-91440000D02*
X88900000Y-96520000D01*
X88900000Y-91440000D02*
X88900000Y-85090000D01*
X88900000Y-85090000D02*
X89535000Y-84455000D01*
X93980000Y-91440000D02*
X93980000Y-96520000D01*
X92075000Y-84455000D02*
X92075000Y-85725000D01*
X93980000Y-87630000D02*
X93980000Y-91440000D01*
X92075000Y-85725000D02*
X93980000Y-87630000D01*
X96520000Y-96520000D02*
X96520000Y-91440000D01*
X94615000Y-84455000D02*
X94615000Y-85725000D01*
X94615000Y-85725000D02*
X96520000Y-87630000D01*
X96520000Y-87630000D02*
X96520000Y-91440000D01*
X104140000Y-91440000D02*
X104140000Y-96520000D01*
X97155000Y-84455000D02*
X97155000Y-86995000D01*
X101600000Y-88900000D02*
X104140000Y-91440000D01*
X99060000Y-88900000D02*
X101600000Y-88900000D01*
X97155000Y-86995000D02*
X99060000Y-88900000D01*
X109220000Y-91440000D02*
X109220000Y-96520000D01*
X109220000Y-91440000D02*
X109220000Y-90805000D01*
X109220000Y-90805000D02*
X104775000Y-86360000D01*
X104775000Y-86360000D02*
X100965000Y-86360000D01*
X100965000Y-86360000D02*
X99695000Y-85090000D01*
X99695000Y-85090000D02*
X99695000Y-84455000D01*
M02*
