G04 #@! TF.FileFunction,Other,User*
%FSLAX46Y46*%
G04 Gerber Fmt 4.6, Leading zero omitted, Abs format (unit mm)*
G04 Created by KiCad (PCBNEW 4.0.3-stable) date 2016 August 18, Thursday 22:42:55*
%MOMM*%
%LPD*%
G01*
G04 APERTURE LIST*
%ADD10C,0.100000*%
%ADD11C,0.150000*%
%ADD12C,0.050000*%
G04 APERTURE END LIST*
D10*
D11*
X127000000Y-46990000D02*
X127000000Y-119380000D01*
X77470000Y-46990000D02*
X77470000Y-119380000D01*
X127000000Y-119380000D02*
X77470000Y-119380000D01*
X77470000Y-46990000D02*
X127000000Y-46990000D01*
D12*
X88990000Y-83950000D02*
X114240000Y-83950000D01*
X88990000Y-73550000D02*
X114240000Y-73550000D01*
X88990000Y-83950000D02*
X88990000Y-73550000D01*
X114240000Y-83950000D02*
X114240000Y-73550000D01*
X84730000Y-104775000D02*
G75*
G03X84730000Y-104775000I-3450000J0D01*
G01*
X126640000Y-104775000D02*
G75*
G03X126640000Y-104775000I-3450000J0D01*
G01*
X126640000Y-52070000D02*
G75*
G03X126640000Y-52070000I-3450000J0D01*
G01*
X112550000Y-56035000D02*
X112550000Y-67185000D01*
X116050000Y-56035000D02*
X116050000Y-67185000D01*
X112550000Y-56035000D02*
X116050000Y-56035000D01*
X112550000Y-67185000D02*
X116050000Y-67185000D01*
X104370000Y-62600000D02*
X104370000Y-66900000D01*
X104370000Y-66900000D02*
X101370000Y-66900000D01*
X101370000Y-66900000D02*
X101370000Y-62600000D01*
X101370000Y-62600000D02*
X104370000Y-62600000D01*
X89130000Y-62600000D02*
X89130000Y-66900000D01*
X89130000Y-66900000D02*
X86130000Y-66900000D01*
X86130000Y-66900000D02*
X86130000Y-62600000D01*
X86130000Y-62600000D02*
X89130000Y-62600000D01*
X96750000Y-62600000D02*
X96750000Y-66900000D01*
X96750000Y-66900000D02*
X93750000Y-66900000D01*
X93750000Y-66900000D02*
X93750000Y-62600000D01*
X93750000Y-62600000D02*
X96750000Y-62600000D01*
X111990000Y-62600000D02*
X111990000Y-66900000D01*
X111990000Y-66900000D02*
X108990000Y-66900000D01*
X108990000Y-66900000D02*
X108990000Y-62600000D01*
X108990000Y-62600000D02*
X111990000Y-62600000D01*
X119610000Y-62600000D02*
X119610000Y-66900000D01*
X119610000Y-66900000D02*
X116610000Y-66900000D01*
X116610000Y-66900000D02*
X116610000Y-62600000D01*
X116610000Y-62600000D02*
X119610000Y-62600000D01*
X115725000Y-74450000D02*
X115725000Y-83050000D01*
X121775000Y-74450000D02*
X121775000Y-83050000D01*
X115725000Y-74450000D02*
X121775000Y-74450000D01*
X115725000Y-83050000D02*
X121775000Y-83050000D01*
X89690000Y-56035000D02*
X89690000Y-67185000D01*
X93190000Y-56035000D02*
X93190000Y-67185000D01*
X89690000Y-56035000D02*
X93190000Y-56035000D01*
X89690000Y-67185000D02*
X93190000Y-67185000D01*
X97310000Y-56035000D02*
X97310000Y-67185000D01*
X100810000Y-56035000D02*
X100810000Y-67185000D01*
X97310000Y-56035000D02*
X100810000Y-56035000D01*
X97310000Y-67185000D02*
X100810000Y-67185000D01*
X104930000Y-56035000D02*
X104930000Y-67185000D01*
X108430000Y-56035000D02*
X108430000Y-67185000D01*
X104930000Y-56035000D02*
X108430000Y-56035000D01*
X104930000Y-67185000D02*
X108430000Y-67185000D01*
X120170000Y-56035000D02*
X120170000Y-67185000D01*
X123670000Y-56035000D02*
X123670000Y-67185000D01*
X120170000Y-56035000D02*
X123670000Y-56035000D01*
X120170000Y-67185000D02*
X123670000Y-67185000D01*
X84730000Y-52070000D02*
G75*
G03X84730000Y-52070000I-3450000J0D01*
G01*
X123670000Y-115090000D02*
X84570000Y-115090000D01*
X123670000Y-118590000D02*
X84570000Y-118590000D01*
X123670000Y-115090000D02*
X123670000Y-118590000D01*
X84570000Y-115090000D02*
X84570000Y-118590000D01*
X123670000Y-87150000D02*
X84570000Y-87150000D01*
X123670000Y-90650000D02*
X84570000Y-90650000D01*
X123670000Y-87150000D02*
X123670000Y-90650000D01*
X84570000Y-87150000D02*
X84570000Y-90650000D01*
M02*
