M48
;DRILL file {KiCad 4.0.3-stable} date 2016 August 18, Thursday 22:43:01
;FORMAT={-:-/ absolute / metric / decimal}
FMAT,2
METRIC,TZ
T1C0.600
T2C0.762
T3C0.800
T4C1.016
%
G90
G05
M71
T1
X87.63Y-50.8
X87.63Y-60.96
X87.63Y-63.5
X87.63Y-66.
X95.25Y-50.8
X95.25Y-60.96
X95.25Y-63.5
X95.25Y-66.
X102.87Y-50.8
X102.87Y-60.96
X102.87Y-63.5
X102.87Y-66.
X110.49Y-50.8
X110.49Y-60.96
X110.49Y-63.5
X110.49Y-66.
X118.11Y-50.8
X118.11Y-60.96
X118.11Y-63.5
X118.11Y-66.
T2
X86.36Y-91.44
X86.36Y-114.3
X88.9Y-91.44
X88.9Y-114.3
X91.44Y-91.44
X91.44Y-114.3
X93.98Y-91.44
X93.98Y-114.3
X96.52Y-91.44
X96.52Y-114.3
X99.06Y-91.44
X99.06Y-114.3
X101.6Y-91.44
X101.6Y-114.3
X104.14Y-91.44
X104.14Y-114.3
X106.68Y-91.44
X106.68Y-114.3
X109.22Y-91.44
X109.22Y-114.3
X111.76Y-91.44
X111.76Y-114.3
X114.3Y-91.44
X114.3Y-114.3
X116.84Y-91.44
X116.84Y-114.3
X119.38Y-91.44
X119.38Y-114.3
X121.92Y-91.44
X121.92Y-114.3
T3
X91.44Y-74.93
X91.44Y-82.55
X93.98Y-74.93
X93.98Y-82.55
X96.52Y-74.93
X96.52Y-82.55
X99.06Y-74.93
X99.06Y-82.55
X101.6Y-74.93
X101.6Y-82.55
X104.14Y-74.93
X104.14Y-82.55
X106.68Y-74.93
X106.68Y-82.55
X109.22Y-74.93
X109.22Y-82.55
X111.76Y-74.93
X111.76Y-82.55
X117.475Y-76.2
X117.475Y-78.74
X117.475Y-81.28
X120.015Y-76.2
X120.015Y-78.74
X120.015Y-81.28
T4
X86.36Y-88.9
X86.36Y-116.84
X88.9Y-88.9
X88.9Y-116.84
X91.44Y-57.785
X91.44Y-60.325
X91.44Y-62.865
X91.44Y-65.405
X91.44Y-88.9
X91.44Y-116.84
X93.98Y-88.9
X93.98Y-116.84
X96.52Y-88.9
X96.52Y-116.84
X99.06Y-57.785
X99.06Y-60.325
X99.06Y-62.865
X99.06Y-65.405
X99.06Y-88.9
X99.06Y-116.84
X101.6Y-88.9
X101.6Y-116.84
X104.14Y-88.9
X104.14Y-116.84
X106.68Y-57.785
X106.68Y-60.325
X106.68Y-62.865
X106.68Y-65.405
X106.68Y-88.9
X106.68Y-116.84
X109.22Y-88.9
X109.22Y-116.84
X111.76Y-88.9
X111.76Y-116.84
X114.3Y-57.785
X114.3Y-60.325
X114.3Y-62.865
X114.3Y-65.405
X114.3Y-88.9
X114.3Y-116.84
X116.84Y-88.9
X116.84Y-116.84
X119.38Y-88.9
X119.38Y-116.84
X121.92Y-57.785
X121.92Y-60.325
X121.92Y-62.865
X121.92Y-65.405
X121.92Y-88.9
X121.92Y-116.84
T0
M30
