G04 #@! TF.FileFunction,Soldermask,Top*
%FSLAX46Y46*%
G04 Gerber Fmt 4.6, Leading zero omitted, Abs format (unit mm)*
G04 Created by KiCad (PCBNEW 4.0.3-stable) date 2016 August 18, Thursday 22:42:55*
%MOMM*%
%LPD*%
G01*
G04 APERTURE LIST*
%ADD10C,0.100000*%
%ADD11C,0.150000*%
%ADD12O,2.000000X2.700000*%
%ADD13C,3.600000*%
%ADD14R,2.700000X2.200000*%
%ADD15O,2.700000X2.200000*%
%ADD16R,2.200000X2.200000*%
%ADD17C,2.100000*%
%ADD18C,2.200000*%
%ADD19R,2.700000X2.000000*%
%ADD20O,2.700000X2.000000*%
%ADD21R,2.127200X2.432000*%
%ADD22O,2.127200X2.432000*%
%ADD23O,2.127200X2.700000*%
G04 APERTURE END LIST*
D10*
D11*
X127000000Y-46990000D02*
X127000000Y-119380000D01*
X77470000Y-46990000D02*
X77470000Y-119380000D01*
X127000000Y-119380000D02*
X77470000Y-119380000D01*
X77470000Y-46990000D02*
X127000000Y-46990000D01*
D12*
X91440000Y-82550000D03*
X93980000Y-82550000D03*
X96520000Y-82550000D03*
X99060000Y-82550000D03*
X101600000Y-82550000D03*
X104140000Y-82550000D03*
X106680000Y-82550000D03*
X109220000Y-82550000D03*
X111760000Y-82550000D03*
X111760000Y-74930000D03*
X109220000Y-74930000D03*
X106680000Y-74930000D03*
X104140000Y-74930000D03*
X101600000Y-74930000D03*
X99060000Y-74930000D03*
X96520000Y-74930000D03*
X93980000Y-74930000D03*
X91440000Y-74930000D03*
D13*
X81280000Y-104775000D03*
X123190000Y-104775000D03*
X123190000Y-52070000D03*
D14*
X114300000Y-57785000D03*
D15*
X114300000Y-60325000D03*
X114300000Y-62865000D03*
X114300000Y-65405000D03*
D16*
X102870000Y-63500000D03*
D17*
X102870000Y-66000000D03*
D18*
X95250000Y-60960000D03*
X95250000Y-50800000D03*
D16*
X87630000Y-63500000D03*
D17*
X87630000Y-66000000D03*
D18*
X87630000Y-60960000D03*
X87630000Y-50800000D03*
D16*
X95250000Y-63500000D03*
D17*
X95250000Y-66000000D03*
D16*
X110490000Y-63500000D03*
D17*
X110490000Y-66000000D03*
D16*
X118110000Y-63500000D03*
D17*
X118110000Y-66000000D03*
D19*
X117475000Y-76200000D03*
D20*
X120015000Y-76200000D03*
X117475000Y-78740000D03*
X120015000Y-78740000D03*
X117475000Y-81280000D03*
X120015000Y-81280000D03*
D14*
X91440000Y-57785000D03*
D15*
X91440000Y-60325000D03*
X91440000Y-62865000D03*
X91440000Y-65405000D03*
D14*
X99060000Y-57785000D03*
D15*
X99060000Y-60325000D03*
X99060000Y-62865000D03*
X99060000Y-65405000D03*
D14*
X106680000Y-57785000D03*
D15*
X106680000Y-60325000D03*
X106680000Y-62865000D03*
X106680000Y-65405000D03*
D14*
X121920000Y-57785000D03*
D15*
X121920000Y-60325000D03*
X121920000Y-62865000D03*
X121920000Y-65405000D03*
D18*
X102870000Y-60960000D03*
X102870000Y-50800000D03*
X110490000Y-60960000D03*
X110490000Y-50800000D03*
X118110000Y-60960000D03*
X118110000Y-50800000D03*
D13*
X81280000Y-52070000D03*
D21*
X121920000Y-116840000D03*
D22*
X119380000Y-116840000D03*
X116840000Y-116840000D03*
X114300000Y-116840000D03*
X111760000Y-116840000D03*
X109220000Y-116840000D03*
X106680000Y-116840000D03*
X104140000Y-116840000D03*
X101600000Y-116840000D03*
X99060000Y-116840000D03*
X96520000Y-116840000D03*
X93980000Y-116840000D03*
X91440000Y-116840000D03*
X88900000Y-116840000D03*
X86360000Y-116840000D03*
D21*
X121920000Y-88900000D03*
D22*
X119380000Y-88900000D03*
X116840000Y-88900000D03*
X114300000Y-88900000D03*
X111760000Y-88900000D03*
X109220000Y-88900000D03*
X106680000Y-88900000D03*
X104140000Y-88900000D03*
X101600000Y-88900000D03*
X99060000Y-88900000D03*
X96520000Y-88900000D03*
X93980000Y-88900000D03*
X91440000Y-88900000D03*
X88900000Y-88900000D03*
X86360000Y-88900000D03*
D23*
X121920000Y-114300000D03*
X119380000Y-114300000D03*
X116840000Y-114300000D03*
X114300000Y-114300000D03*
X111760000Y-114300000D03*
X109220000Y-114300000D03*
X106680000Y-114300000D03*
X104140000Y-114300000D03*
X101600000Y-114300000D03*
X99060000Y-114300000D03*
X96520000Y-114300000D03*
X93980000Y-114300000D03*
X91440000Y-114300000D03*
X88900000Y-114300000D03*
X86360000Y-114300000D03*
X86360000Y-91440000D03*
X88900000Y-91440000D03*
X91440000Y-91440000D03*
X93980000Y-91440000D03*
X96520000Y-91440000D03*
X99060000Y-91440000D03*
X101600000Y-91440000D03*
X104140000Y-91440000D03*
X106680000Y-91440000D03*
X109220000Y-91440000D03*
X111760000Y-91440000D03*
X114300000Y-91440000D03*
X116840000Y-91440000D03*
X119380000Y-91440000D03*
X121920000Y-91440000D03*
M02*
