G04 #@! TF.FileFunction,Other,Fab,Top*
%FSLAX46Y46*%
G04 Gerber Fmt 4.6, Leading zero omitted, Abs format (unit mm)*
G04 Created by KiCad (PCBNEW 4.0.3-stable) date 2016 August 18, Thursday 22:42:55*
%MOMM*%
%LPD*%
G01*
G04 APERTURE LIST*
%ADD10C,0.100000*%
%ADD11C,0.150000*%
G04 APERTURE END LIST*
D10*
D11*
X122761286Y-75019381D02*
X122285095Y-75019381D01*
X122237476Y-75495571D01*
X122285095Y-75447952D01*
X122380333Y-75400333D01*
X122618429Y-75400333D01*
X122713667Y-75447952D01*
X122761286Y-75495571D01*
X122808905Y-75590810D01*
X122808905Y-75828905D01*
X122761286Y-75924143D01*
X122713667Y-75971762D01*
X122618429Y-76019381D01*
X122380333Y-76019381D01*
X122285095Y-75971762D01*
X122237476Y-75924143D01*
X123094619Y-75019381D02*
X123427952Y-76019381D01*
X123761286Y-75019381D01*
X122189857Y-78319381D02*
X122808905Y-78319381D01*
X122475571Y-78700333D01*
X122618429Y-78700333D01*
X122713667Y-78747952D01*
X122761286Y-78795571D01*
X122808905Y-78890810D01*
X122808905Y-79128905D01*
X122761286Y-79224143D01*
X122713667Y-79271762D01*
X122618429Y-79319381D01*
X122332714Y-79319381D01*
X122237476Y-79271762D01*
X122189857Y-79224143D01*
X123237476Y-79224143D02*
X123285095Y-79271762D01*
X123237476Y-79319381D01*
X123189857Y-79271762D01*
X123237476Y-79224143D01*
X123237476Y-79319381D01*
X123618428Y-78319381D02*
X124237476Y-78319381D01*
X123904142Y-78700333D01*
X124047000Y-78700333D01*
X124142238Y-78747952D01*
X124189857Y-78795571D01*
X124237476Y-78890810D01*
X124237476Y-79128905D01*
X124189857Y-79224143D01*
X124142238Y-79271762D01*
X124047000Y-79319381D01*
X123761285Y-79319381D01*
X123666047Y-79271762D01*
X123618428Y-79224143D01*
X124523190Y-78319381D02*
X124856523Y-79319381D01*
X125189857Y-78319381D01*
X122808905Y-81667000D02*
X122713667Y-81619381D01*
X122570810Y-81619381D01*
X122427952Y-81667000D01*
X122332714Y-81762238D01*
X122285095Y-81857476D01*
X122237476Y-82047952D01*
X122237476Y-82190810D01*
X122285095Y-82381286D01*
X122332714Y-82476524D01*
X122427952Y-82571762D01*
X122570810Y-82619381D01*
X122666048Y-82619381D01*
X122808905Y-82571762D01*
X122856524Y-82524143D01*
X122856524Y-82190810D01*
X122666048Y-82190810D01*
X123285095Y-82619381D02*
X123285095Y-81619381D01*
X123856524Y-82619381D01*
X123856524Y-81619381D01*
X124332714Y-82619381D02*
X124332714Y-81619381D01*
X124570809Y-81619381D01*
X124713667Y-81667000D01*
X124808905Y-81762238D01*
X124856524Y-81857476D01*
X124904143Y-82047952D01*
X124904143Y-82190810D01*
X124856524Y-82381286D01*
X124808905Y-82476524D01*
X124713667Y-82571762D01*
X124570809Y-82619381D01*
X124332714Y-82619381D01*
X127000000Y-46990000D02*
X127000000Y-119380000D01*
X77470000Y-46990000D02*
X77470000Y-119380000D01*
X127000000Y-119380000D02*
X77470000Y-119380000D01*
X77470000Y-46990000D02*
X127000000Y-46990000D01*
X87172381Y-85669048D02*
X87981905Y-85669048D01*
X88077143Y-85621429D01*
X88124762Y-85573810D01*
X88172381Y-85478572D01*
X88172381Y-85288095D01*
X88124762Y-85192857D01*
X88077143Y-85145238D01*
X87981905Y-85097619D01*
X87172381Y-85097619D01*
X88172381Y-84145238D02*
X88172381Y-84621429D01*
X87172381Y-84621429D01*
X88172381Y-83811905D02*
X87172381Y-83811905D01*
X88172381Y-83240476D01*
X87172381Y-83240476D01*
X87267619Y-82811905D02*
X87220000Y-82764286D01*
X87172381Y-82669048D01*
X87172381Y-82430952D01*
X87220000Y-82335714D01*
X87267619Y-82288095D01*
X87362857Y-82240476D01*
X87458095Y-82240476D01*
X87600952Y-82288095D01*
X88172381Y-82859524D01*
X88172381Y-82240476D01*
X87600952Y-81669048D02*
X87553333Y-81764286D01*
X87505714Y-81811905D01*
X87410476Y-81859524D01*
X87362857Y-81859524D01*
X87267619Y-81811905D01*
X87220000Y-81764286D01*
X87172381Y-81669048D01*
X87172381Y-81478571D01*
X87220000Y-81383333D01*
X87267619Y-81335714D01*
X87362857Y-81288095D01*
X87410476Y-81288095D01*
X87505714Y-81335714D01*
X87553333Y-81383333D01*
X87600952Y-81478571D01*
X87600952Y-81669048D01*
X87648571Y-81764286D01*
X87696190Y-81811905D01*
X87791429Y-81859524D01*
X87981905Y-81859524D01*
X88077143Y-81811905D01*
X88124762Y-81764286D01*
X88172381Y-81669048D01*
X88172381Y-81478571D01*
X88124762Y-81383333D01*
X88077143Y-81335714D01*
X87981905Y-81288095D01*
X87791429Y-81288095D01*
X87696190Y-81335714D01*
X87648571Y-81383333D01*
X87600952Y-81478571D01*
X87172381Y-80669048D02*
X87172381Y-80573809D01*
X87220000Y-80478571D01*
X87267619Y-80430952D01*
X87362857Y-80383333D01*
X87553333Y-80335714D01*
X87791429Y-80335714D01*
X87981905Y-80383333D01*
X88077143Y-80430952D01*
X88124762Y-80478571D01*
X88172381Y-80573809D01*
X88172381Y-80669048D01*
X88124762Y-80764286D01*
X88077143Y-80811905D01*
X87981905Y-80859524D01*
X87791429Y-80907143D01*
X87553333Y-80907143D01*
X87362857Y-80859524D01*
X87267619Y-80811905D01*
X87220000Y-80764286D01*
X87172381Y-80669048D01*
X87172381Y-80002381D02*
X87172381Y-79383333D01*
X87553333Y-79716667D01*
X87553333Y-79573809D01*
X87600952Y-79478571D01*
X87648571Y-79430952D01*
X87743810Y-79383333D01*
X87981905Y-79383333D01*
X88077143Y-79430952D01*
X88124762Y-79478571D01*
X88172381Y-79573809D01*
X88172381Y-79859524D01*
X88124762Y-79954762D01*
X88077143Y-80002381D01*
X84280476Y-102179381D02*
X84280476Y-101179381D01*
X84613810Y-101893667D01*
X84947143Y-101179381D01*
X84947143Y-102179381D01*
X85328095Y-101179381D02*
X85947143Y-101179381D01*
X85613809Y-101560333D01*
X85756667Y-101560333D01*
X85851905Y-101607952D01*
X85899524Y-101655571D01*
X85947143Y-101750810D01*
X85947143Y-101988905D01*
X85899524Y-102084143D01*
X85851905Y-102131762D01*
X85756667Y-102179381D01*
X85470952Y-102179381D01*
X85375714Y-102131762D01*
X85328095Y-102084143D01*
X118443476Y-102306381D02*
X118443476Y-101306381D01*
X118776810Y-102020667D01*
X119110143Y-101306381D01*
X119110143Y-102306381D01*
X120014905Y-101639714D02*
X120014905Y-102306381D01*
X119776809Y-101258762D02*
X119538714Y-101973048D01*
X120157762Y-101973048D01*
X119078476Y-48966381D02*
X119078476Y-47966381D01*
X119411810Y-48680667D01*
X119745143Y-47966381D01*
X119745143Y-48966381D01*
X120173714Y-48061619D02*
X120221333Y-48014000D01*
X120316571Y-47966381D01*
X120554667Y-47966381D01*
X120649905Y-48014000D01*
X120697524Y-48061619D01*
X120745143Y-48156857D01*
X120745143Y-48252095D01*
X120697524Y-48394952D01*
X120126095Y-48966381D01*
X120745143Y-48966381D01*
X114704762Y-70675286D02*
X114752381Y-70532429D01*
X114752381Y-70294333D01*
X114704762Y-70199095D01*
X114657143Y-70151476D01*
X114561905Y-70103857D01*
X114466667Y-70103857D01*
X114371429Y-70151476D01*
X114323810Y-70199095D01*
X114276190Y-70294333D01*
X114228571Y-70484810D01*
X114180952Y-70580048D01*
X114133333Y-70627667D01*
X114038095Y-70675286D01*
X113942857Y-70675286D01*
X113847619Y-70627667D01*
X113800000Y-70580048D01*
X113752381Y-70484810D01*
X113752381Y-70246714D01*
X113800000Y-70103857D01*
X113752381Y-69770524D02*
X114752381Y-69532429D01*
X114038095Y-69341952D01*
X114752381Y-69151476D01*
X113752381Y-68913381D01*
X114847619Y-68770524D02*
X114847619Y-68008619D01*
X114085714Y-67341952D02*
X114752381Y-67341952D01*
X113704762Y-67580048D02*
X114419048Y-67818143D01*
X114419048Y-67199095D01*
X103195381Y-70334047D02*
X103195381Y-70905476D01*
X103195381Y-70619762D02*
X102195381Y-70619762D01*
X102338238Y-70715000D01*
X102433476Y-70810238D01*
X102481095Y-70905476D01*
X102195381Y-69715000D02*
X102195381Y-69619761D01*
X102243000Y-69524523D01*
X102290619Y-69476904D01*
X102385857Y-69429285D01*
X102576333Y-69381666D01*
X102814429Y-69381666D01*
X103004905Y-69429285D01*
X103100143Y-69476904D01*
X103147762Y-69524523D01*
X103195381Y-69619761D01*
X103195381Y-69715000D01*
X103147762Y-69810238D01*
X103100143Y-69857857D01*
X103004905Y-69905476D01*
X102814429Y-69953095D01*
X102576333Y-69953095D01*
X102385857Y-69905476D01*
X102290619Y-69857857D01*
X102243000Y-69810238D01*
X102195381Y-69715000D01*
X102195381Y-68762619D02*
X102195381Y-68667380D01*
X102243000Y-68572142D01*
X102290619Y-68524523D01*
X102385857Y-68476904D01*
X102576333Y-68429285D01*
X102814429Y-68429285D01*
X103004905Y-68476904D01*
X103100143Y-68524523D01*
X103147762Y-68572142D01*
X103195381Y-68667380D01*
X103195381Y-68762619D01*
X103147762Y-68857857D01*
X103100143Y-68905476D01*
X103004905Y-68953095D01*
X102814429Y-69000714D01*
X102576333Y-69000714D01*
X102385857Y-68953095D01*
X102290619Y-68905476D01*
X102243000Y-68857857D01*
X102195381Y-68762619D01*
X102528714Y-68000714D02*
X103195381Y-68000714D01*
X102623952Y-68000714D02*
X102576333Y-67953095D01*
X102528714Y-67857857D01*
X102528714Y-67714999D01*
X102576333Y-67619761D01*
X102671571Y-67572142D01*
X103195381Y-67572142D01*
X93543381Y-54316238D02*
X93543381Y-54887667D01*
X93543381Y-54601953D02*
X92543381Y-54601953D01*
X92686238Y-54697191D01*
X92781476Y-54792429D01*
X92829095Y-54887667D01*
X92543381Y-53697191D02*
X92543381Y-53601952D01*
X92591000Y-53506714D01*
X92638619Y-53459095D01*
X92733857Y-53411476D01*
X92924333Y-53363857D01*
X93162429Y-53363857D01*
X93352905Y-53411476D01*
X93448143Y-53459095D01*
X93495762Y-53506714D01*
X93543381Y-53601952D01*
X93543381Y-53697191D01*
X93495762Y-53792429D01*
X93448143Y-53840048D01*
X93352905Y-53887667D01*
X93162429Y-53935286D01*
X92924333Y-53935286D01*
X92733857Y-53887667D01*
X92638619Y-53840048D01*
X92591000Y-53792429D01*
X92543381Y-53697191D01*
X93543381Y-52935286D02*
X92543381Y-52935286D01*
X93162429Y-52840048D02*
X93543381Y-52554333D01*
X92876714Y-52554333D02*
X93257667Y-52935286D01*
X87828381Y-70334047D02*
X87828381Y-70905476D01*
X87828381Y-70619762D02*
X86828381Y-70619762D01*
X86971238Y-70715000D01*
X87066476Y-70810238D01*
X87114095Y-70905476D01*
X86828381Y-69715000D02*
X86828381Y-69619761D01*
X86876000Y-69524523D01*
X86923619Y-69476904D01*
X87018857Y-69429285D01*
X87209333Y-69381666D01*
X87447429Y-69381666D01*
X87637905Y-69429285D01*
X87733143Y-69476904D01*
X87780762Y-69524523D01*
X87828381Y-69619761D01*
X87828381Y-69715000D01*
X87780762Y-69810238D01*
X87733143Y-69857857D01*
X87637905Y-69905476D01*
X87447429Y-69953095D01*
X87209333Y-69953095D01*
X87018857Y-69905476D01*
X86923619Y-69857857D01*
X86876000Y-69810238D01*
X86828381Y-69715000D01*
X86828381Y-68762619D02*
X86828381Y-68667380D01*
X86876000Y-68572142D01*
X86923619Y-68524523D01*
X87018857Y-68476904D01*
X87209333Y-68429285D01*
X87447429Y-68429285D01*
X87637905Y-68476904D01*
X87733143Y-68524523D01*
X87780762Y-68572142D01*
X87828381Y-68667380D01*
X87828381Y-68762619D01*
X87780762Y-68857857D01*
X87733143Y-68905476D01*
X87637905Y-68953095D01*
X87447429Y-69000714D01*
X87209333Y-69000714D01*
X87018857Y-68953095D01*
X86923619Y-68905476D01*
X86876000Y-68857857D01*
X86828381Y-68762619D01*
X87161714Y-68000714D02*
X87828381Y-68000714D01*
X87256952Y-68000714D02*
X87209333Y-67953095D01*
X87161714Y-67857857D01*
X87161714Y-67714999D01*
X87209333Y-67619761D01*
X87304571Y-67572142D01*
X87828381Y-67572142D01*
X85923381Y-54316238D02*
X85923381Y-54887667D01*
X85923381Y-54601953D02*
X84923381Y-54601953D01*
X85066238Y-54697191D01*
X85161476Y-54792429D01*
X85209095Y-54887667D01*
X84923381Y-53697191D02*
X84923381Y-53601952D01*
X84971000Y-53506714D01*
X85018619Y-53459095D01*
X85113857Y-53411476D01*
X85304333Y-53363857D01*
X85542429Y-53363857D01*
X85732905Y-53411476D01*
X85828143Y-53459095D01*
X85875762Y-53506714D01*
X85923381Y-53601952D01*
X85923381Y-53697191D01*
X85875762Y-53792429D01*
X85828143Y-53840048D01*
X85732905Y-53887667D01*
X85542429Y-53935286D01*
X85304333Y-53935286D01*
X85113857Y-53887667D01*
X85018619Y-53840048D01*
X84971000Y-53792429D01*
X84923381Y-53697191D01*
X85923381Y-52935286D02*
X84923381Y-52935286D01*
X85542429Y-52840048D02*
X85923381Y-52554333D01*
X85256714Y-52554333D02*
X85637667Y-52935286D01*
X95575381Y-70334047D02*
X95575381Y-70905476D01*
X95575381Y-70619762D02*
X94575381Y-70619762D01*
X94718238Y-70715000D01*
X94813476Y-70810238D01*
X94861095Y-70905476D01*
X94575381Y-69715000D02*
X94575381Y-69619761D01*
X94623000Y-69524523D01*
X94670619Y-69476904D01*
X94765857Y-69429285D01*
X94956333Y-69381666D01*
X95194429Y-69381666D01*
X95384905Y-69429285D01*
X95480143Y-69476904D01*
X95527762Y-69524523D01*
X95575381Y-69619761D01*
X95575381Y-69715000D01*
X95527762Y-69810238D01*
X95480143Y-69857857D01*
X95384905Y-69905476D01*
X95194429Y-69953095D01*
X94956333Y-69953095D01*
X94765857Y-69905476D01*
X94670619Y-69857857D01*
X94623000Y-69810238D01*
X94575381Y-69715000D01*
X94575381Y-68762619D02*
X94575381Y-68667380D01*
X94623000Y-68572142D01*
X94670619Y-68524523D01*
X94765857Y-68476904D01*
X94956333Y-68429285D01*
X95194429Y-68429285D01*
X95384905Y-68476904D01*
X95480143Y-68524523D01*
X95527762Y-68572142D01*
X95575381Y-68667380D01*
X95575381Y-68762619D01*
X95527762Y-68857857D01*
X95480143Y-68905476D01*
X95384905Y-68953095D01*
X95194429Y-69000714D01*
X94956333Y-69000714D01*
X94765857Y-68953095D01*
X94670619Y-68905476D01*
X94623000Y-68857857D01*
X94575381Y-68762619D01*
X94908714Y-68000714D02*
X95575381Y-68000714D01*
X95003952Y-68000714D02*
X94956333Y-67953095D01*
X94908714Y-67857857D01*
X94908714Y-67714999D01*
X94956333Y-67619761D01*
X95051571Y-67572142D01*
X95575381Y-67572142D01*
X110815381Y-70461047D02*
X110815381Y-71032476D01*
X110815381Y-70746762D02*
X109815381Y-70746762D01*
X109958238Y-70842000D01*
X110053476Y-70937238D01*
X110101095Y-71032476D01*
X109815381Y-69842000D02*
X109815381Y-69746761D01*
X109863000Y-69651523D01*
X109910619Y-69603904D01*
X110005857Y-69556285D01*
X110196333Y-69508666D01*
X110434429Y-69508666D01*
X110624905Y-69556285D01*
X110720143Y-69603904D01*
X110767762Y-69651523D01*
X110815381Y-69746761D01*
X110815381Y-69842000D01*
X110767762Y-69937238D01*
X110720143Y-69984857D01*
X110624905Y-70032476D01*
X110434429Y-70080095D01*
X110196333Y-70080095D01*
X110005857Y-70032476D01*
X109910619Y-69984857D01*
X109863000Y-69937238D01*
X109815381Y-69842000D01*
X109815381Y-68889619D02*
X109815381Y-68794380D01*
X109863000Y-68699142D01*
X109910619Y-68651523D01*
X110005857Y-68603904D01*
X110196333Y-68556285D01*
X110434429Y-68556285D01*
X110624905Y-68603904D01*
X110720143Y-68651523D01*
X110767762Y-68699142D01*
X110815381Y-68794380D01*
X110815381Y-68889619D01*
X110767762Y-68984857D01*
X110720143Y-69032476D01*
X110624905Y-69080095D01*
X110434429Y-69127714D01*
X110196333Y-69127714D01*
X110005857Y-69080095D01*
X109910619Y-69032476D01*
X109863000Y-68984857D01*
X109815381Y-68889619D01*
X110148714Y-68127714D02*
X110815381Y-68127714D01*
X110243952Y-68127714D02*
X110196333Y-68080095D01*
X110148714Y-67984857D01*
X110148714Y-67841999D01*
X110196333Y-67746761D01*
X110291571Y-67699142D01*
X110815381Y-67699142D01*
X118562381Y-70334047D02*
X118562381Y-70905476D01*
X118562381Y-70619762D02*
X117562381Y-70619762D01*
X117705238Y-70715000D01*
X117800476Y-70810238D01*
X117848095Y-70905476D01*
X117562381Y-69715000D02*
X117562381Y-69619761D01*
X117610000Y-69524523D01*
X117657619Y-69476904D01*
X117752857Y-69429285D01*
X117943333Y-69381666D01*
X118181429Y-69381666D01*
X118371905Y-69429285D01*
X118467143Y-69476904D01*
X118514762Y-69524523D01*
X118562381Y-69619761D01*
X118562381Y-69715000D01*
X118514762Y-69810238D01*
X118467143Y-69857857D01*
X118371905Y-69905476D01*
X118181429Y-69953095D01*
X117943333Y-69953095D01*
X117752857Y-69905476D01*
X117657619Y-69857857D01*
X117610000Y-69810238D01*
X117562381Y-69715000D01*
X117562381Y-68762619D02*
X117562381Y-68667380D01*
X117610000Y-68572142D01*
X117657619Y-68524523D01*
X117752857Y-68476904D01*
X117943333Y-68429285D01*
X118181429Y-68429285D01*
X118371905Y-68476904D01*
X118467143Y-68524523D01*
X118514762Y-68572142D01*
X118562381Y-68667380D01*
X118562381Y-68762619D01*
X118514762Y-68857857D01*
X118467143Y-68905476D01*
X118371905Y-68953095D01*
X118181429Y-69000714D01*
X117943333Y-69000714D01*
X117752857Y-68953095D01*
X117657619Y-68905476D01*
X117610000Y-68857857D01*
X117562381Y-68762619D01*
X117895714Y-68000714D02*
X118562381Y-68000714D01*
X117990952Y-68000714D02*
X117943333Y-67953095D01*
X117895714Y-67857857D01*
X117895714Y-67714999D01*
X117943333Y-67619761D01*
X118038571Y-67572142D01*
X118562381Y-67572142D01*
X115498809Y-73552381D02*
X115498809Y-72552381D01*
X115879762Y-72552381D01*
X115975000Y-72600000D01*
X116022619Y-72647619D01*
X116070238Y-72742857D01*
X116070238Y-72885714D01*
X116022619Y-72980952D01*
X115975000Y-73028571D01*
X115879762Y-73076190D01*
X115498809Y-73076190D01*
X116641666Y-73552381D02*
X116546428Y-73504762D01*
X116498809Y-73457143D01*
X116451190Y-73361905D01*
X116451190Y-73076190D01*
X116498809Y-72980952D01*
X116546428Y-72933333D01*
X116641666Y-72885714D01*
X116784524Y-72885714D01*
X116879762Y-72933333D01*
X116927381Y-72980952D01*
X116975000Y-73076190D01*
X116975000Y-73361905D01*
X116927381Y-73457143D01*
X116879762Y-73504762D01*
X116784524Y-73552381D01*
X116641666Y-73552381D01*
X117308333Y-72885714D02*
X117498809Y-73552381D01*
X117689286Y-73076190D01*
X117879762Y-73552381D01*
X118070238Y-72885714D01*
X118832143Y-73504762D02*
X118736905Y-73552381D01*
X118546428Y-73552381D01*
X118451190Y-73504762D01*
X118403571Y-73409524D01*
X118403571Y-73028571D01*
X118451190Y-72933333D01*
X118546428Y-72885714D01*
X118736905Y-72885714D01*
X118832143Y-72933333D01*
X118879762Y-73028571D01*
X118879762Y-73123810D01*
X118403571Y-73219048D01*
X119308333Y-73552381D02*
X119308333Y-72885714D01*
X119308333Y-73076190D02*
X119355952Y-72980952D01*
X119403571Y-72933333D01*
X119498809Y-72885714D01*
X119594048Y-72885714D01*
X91590762Y-70802286D02*
X91638381Y-70659429D01*
X91638381Y-70421333D01*
X91590762Y-70326095D01*
X91543143Y-70278476D01*
X91447905Y-70230857D01*
X91352667Y-70230857D01*
X91257429Y-70278476D01*
X91209810Y-70326095D01*
X91162190Y-70421333D01*
X91114571Y-70611810D01*
X91066952Y-70707048D01*
X91019333Y-70754667D01*
X90924095Y-70802286D01*
X90828857Y-70802286D01*
X90733619Y-70754667D01*
X90686000Y-70707048D01*
X90638381Y-70611810D01*
X90638381Y-70373714D01*
X90686000Y-70230857D01*
X90638381Y-69897524D02*
X91638381Y-69659429D01*
X90924095Y-69468952D01*
X91638381Y-69278476D01*
X90638381Y-69040381D01*
X91733619Y-68897524D02*
X91733619Y-68135619D01*
X91638381Y-67373714D02*
X91638381Y-67945143D01*
X91638381Y-67659429D02*
X90638381Y-67659429D01*
X90781238Y-67754667D01*
X90876476Y-67849905D01*
X90924095Y-67945143D01*
X99210762Y-71183286D02*
X99258381Y-71040429D01*
X99258381Y-70802333D01*
X99210762Y-70707095D01*
X99163143Y-70659476D01*
X99067905Y-70611857D01*
X98972667Y-70611857D01*
X98877429Y-70659476D01*
X98829810Y-70707095D01*
X98782190Y-70802333D01*
X98734571Y-70992810D01*
X98686952Y-71088048D01*
X98639333Y-71135667D01*
X98544095Y-71183286D01*
X98448857Y-71183286D01*
X98353619Y-71135667D01*
X98306000Y-71088048D01*
X98258381Y-70992810D01*
X98258381Y-70754714D01*
X98306000Y-70611857D01*
X98258381Y-70278524D02*
X99258381Y-70040429D01*
X98544095Y-69849952D01*
X99258381Y-69659476D01*
X98258381Y-69421381D01*
X99353619Y-69278524D02*
X99353619Y-68516619D01*
X98353619Y-68326143D02*
X98306000Y-68278524D01*
X98258381Y-68183286D01*
X98258381Y-67945190D01*
X98306000Y-67849952D01*
X98353619Y-67802333D01*
X98448857Y-67754714D01*
X98544095Y-67754714D01*
X98686952Y-67802333D01*
X99258381Y-68373762D01*
X99258381Y-67754714D01*
X106957762Y-70929286D02*
X107005381Y-70786429D01*
X107005381Y-70548333D01*
X106957762Y-70453095D01*
X106910143Y-70405476D01*
X106814905Y-70357857D01*
X106719667Y-70357857D01*
X106624429Y-70405476D01*
X106576810Y-70453095D01*
X106529190Y-70548333D01*
X106481571Y-70738810D01*
X106433952Y-70834048D01*
X106386333Y-70881667D01*
X106291095Y-70929286D01*
X106195857Y-70929286D01*
X106100619Y-70881667D01*
X106053000Y-70834048D01*
X106005381Y-70738810D01*
X106005381Y-70500714D01*
X106053000Y-70357857D01*
X106005381Y-70024524D02*
X107005381Y-69786429D01*
X106291095Y-69595952D01*
X107005381Y-69405476D01*
X106005381Y-69167381D01*
X107100619Y-69024524D02*
X107100619Y-68262619D01*
X106005381Y-68119762D02*
X106005381Y-67500714D01*
X106386333Y-67834048D01*
X106386333Y-67691190D01*
X106433952Y-67595952D01*
X106481571Y-67548333D01*
X106576810Y-67500714D01*
X106814905Y-67500714D01*
X106910143Y-67548333D01*
X106957762Y-67595952D01*
X107005381Y-67691190D01*
X107005381Y-67976905D01*
X106957762Y-68072143D01*
X106910143Y-68119762D01*
X122197762Y-70929286D02*
X122245381Y-70786429D01*
X122245381Y-70548333D01*
X122197762Y-70453095D01*
X122150143Y-70405476D01*
X122054905Y-70357857D01*
X121959667Y-70357857D01*
X121864429Y-70405476D01*
X121816810Y-70453095D01*
X121769190Y-70548333D01*
X121721571Y-70738810D01*
X121673952Y-70834048D01*
X121626333Y-70881667D01*
X121531095Y-70929286D01*
X121435857Y-70929286D01*
X121340619Y-70881667D01*
X121293000Y-70834048D01*
X121245381Y-70738810D01*
X121245381Y-70500714D01*
X121293000Y-70357857D01*
X121245381Y-70024524D02*
X122245381Y-69786429D01*
X121531095Y-69595952D01*
X122245381Y-69405476D01*
X121245381Y-69167381D01*
X122340619Y-69024524D02*
X122340619Y-68262619D01*
X121245381Y-67548333D02*
X121245381Y-68024524D01*
X121721571Y-68072143D01*
X121673952Y-68024524D01*
X121626333Y-67929286D01*
X121626333Y-67691190D01*
X121673952Y-67595952D01*
X121721571Y-67548333D01*
X121816810Y-67500714D01*
X122054905Y-67500714D01*
X122150143Y-67548333D01*
X122197762Y-67595952D01*
X122245381Y-67691190D01*
X122245381Y-67929286D01*
X122197762Y-68024524D01*
X122150143Y-68072143D01*
X101163381Y-54443238D02*
X101163381Y-55014667D01*
X101163381Y-54728953D02*
X100163381Y-54728953D01*
X100306238Y-54824191D01*
X100401476Y-54919429D01*
X100449095Y-55014667D01*
X100163381Y-53824191D02*
X100163381Y-53728952D01*
X100211000Y-53633714D01*
X100258619Y-53586095D01*
X100353857Y-53538476D01*
X100544333Y-53490857D01*
X100782429Y-53490857D01*
X100972905Y-53538476D01*
X101068143Y-53586095D01*
X101115762Y-53633714D01*
X101163381Y-53728952D01*
X101163381Y-53824191D01*
X101115762Y-53919429D01*
X101068143Y-53967048D01*
X100972905Y-54014667D01*
X100782429Y-54062286D01*
X100544333Y-54062286D01*
X100353857Y-54014667D01*
X100258619Y-53967048D01*
X100211000Y-53919429D01*
X100163381Y-53824191D01*
X101163381Y-53062286D02*
X100163381Y-53062286D01*
X100782429Y-52967048D02*
X101163381Y-52681333D01*
X100496714Y-52681333D02*
X100877667Y-53062286D01*
X108783381Y-54062238D02*
X108783381Y-54633667D01*
X108783381Y-54347953D02*
X107783381Y-54347953D01*
X107926238Y-54443191D01*
X108021476Y-54538429D01*
X108069095Y-54633667D01*
X107783381Y-53443191D02*
X107783381Y-53347952D01*
X107831000Y-53252714D01*
X107878619Y-53205095D01*
X107973857Y-53157476D01*
X108164333Y-53109857D01*
X108402429Y-53109857D01*
X108592905Y-53157476D01*
X108688143Y-53205095D01*
X108735762Y-53252714D01*
X108783381Y-53347952D01*
X108783381Y-53443191D01*
X108735762Y-53538429D01*
X108688143Y-53586048D01*
X108592905Y-53633667D01*
X108402429Y-53681286D01*
X108164333Y-53681286D01*
X107973857Y-53633667D01*
X107878619Y-53586048D01*
X107831000Y-53538429D01*
X107783381Y-53443191D01*
X108783381Y-52681286D02*
X107783381Y-52681286D01*
X108402429Y-52586048D02*
X108783381Y-52300333D01*
X108116714Y-52300333D02*
X108497667Y-52681286D01*
X116403381Y-54062238D02*
X116403381Y-54633667D01*
X116403381Y-54347953D02*
X115403381Y-54347953D01*
X115546238Y-54443191D01*
X115641476Y-54538429D01*
X115689095Y-54633667D01*
X115403381Y-53443191D02*
X115403381Y-53347952D01*
X115451000Y-53252714D01*
X115498619Y-53205095D01*
X115593857Y-53157476D01*
X115784333Y-53109857D01*
X116022429Y-53109857D01*
X116212905Y-53157476D01*
X116308143Y-53205095D01*
X116355762Y-53252714D01*
X116403381Y-53347952D01*
X116403381Y-53443191D01*
X116355762Y-53538429D01*
X116308143Y-53586048D01*
X116212905Y-53633667D01*
X116022429Y-53681286D01*
X115784333Y-53681286D01*
X115593857Y-53633667D01*
X115498619Y-53586048D01*
X115451000Y-53538429D01*
X115403381Y-53443191D01*
X116403381Y-52681286D02*
X115403381Y-52681286D01*
X116022429Y-52586048D02*
X116403381Y-52300333D01*
X115736714Y-52300333D02*
X116117667Y-52681286D01*
X84026476Y-48839381D02*
X84026476Y-47839381D01*
X84359810Y-48553667D01*
X84693143Y-47839381D01*
X84693143Y-48839381D01*
X85693143Y-48839381D02*
X85121714Y-48839381D01*
X85407428Y-48839381D02*
X85407428Y-47839381D01*
X85312190Y-47982238D01*
X85216952Y-48077476D01*
X85121714Y-48125095D01*
X104592381Y-107655714D02*
X103592381Y-107655714D01*
X104592381Y-107084285D01*
X103592381Y-107084285D01*
X104592381Y-106465238D02*
X104544762Y-106560476D01*
X104497143Y-106608095D01*
X104401905Y-106655714D01*
X104116190Y-106655714D01*
X104020952Y-106608095D01*
X103973333Y-106560476D01*
X103925714Y-106465238D01*
X103925714Y-106322380D01*
X103973333Y-106227142D01*
X104020952Y-106179523D01*
X104116190Y-106131904D01*
X104401905Y-106131904D01*
X104497143Y-106179523D01*
X104544762Y-106227142D01*
X104592381Y-106322380D01*
X104592381Y-106465238D01*
X104592381Y-105274761D02*
X103592381Y-105274761D01*
X104544762Y-105274761D02*
X104592381Y-105369999D01*
X104592381Y-105560476D01*
X104544762Y-105655714D01*
X104497143Y-105703333D01*
X104401905Y-105750952D01*
X104116190Y-105750952D01*
X104020952Y-105703333D01*
X103973333Y-105655714D01*
X103925714Y-105560476D01*
X103925714Y-105369999D01*
X103973333Y-105274761D01*
X104544762Y-104417618D02*
X104592381Y-104512856D01*
X104592381Y-104703333D01*
X104544762Y-104798571D01*
X104449524Y-104846190D01*
X104068571Y-104846190D01*
X103973333Y-104798571D01*
X103925714Y-104703333D01*
X103925714Y-104512856D01*
X103973333Y-104417618D01*
X104068571Y-104369999D01*
X104163810Y-104369999D01*
X104259048Y-104846190D01*
X104592381Y-103941428D02*
X103592381Y-103941428D01*
X104306667Y-103608094D01*
X103592381Y-103274761D01*
X104592381Y-103274761D01*
X104497143Y-102227142D02*
X104544762Y-102274761D01*
X104592381Y-102417618D01*
X104592381Y-102512856D01*
X104544762Y-102655714D01*
X104449524Y-102750952D01*
X104354286Y-102798571D01*
X104163810Y-102846190D01*
X104020952Y-102846190D01*
X103830476Y-102798571D01*
X103735238Y-102750952D01*
X103640000Y-102655714D01*
X103592381Y-102512856D01*
X103592381Y-102417618D01*
X103640000Y-102274761D01*
X103687619Y-102227142D01*
X103592381Y-101798571D02*
X104401905Y-101798571D01*
X104497143Y-101750952D01*
X104544762Y-101703333D01*
X104592381Y-101608095D01*
X104592381Y-101417618D01*
X104544762Y-101322380D01*
X104497143Y-101274761D01*
X104401905Y-101227142D01*
X103592381Y-101227142D01*
X104687619Y-100989047D02*
X104687619Y-100227142D01*
X104592381Y-99465237D02*
X104592381Y-100036666D01*
X104592381Y-99750952D02*
X103592381Y-99750952D01*
X103735238Y-99846190D01*
X103830476Y-99941428D01*
X103878095Y-100036666D01*
X104497143Y-99036666D02*
X104544762Y-98989047D01*
X104592381Y-99036666D01*
X104544762Y-99084285D01*
X104497143Y-99036666D01*
X104592381Y-99036666D01*
X103592381Y-98370000D02*
X103592381Y-98274761D01*
X103640000Y-98179523D01*
X103687619Y-98131904D01*
X103782857Y-98084285D01*
X103973333Y-98036666D01*
X104211429Y-98036666D01*
X104401905Y-98084285D01*
X104497143Y-98131904D01*
X104544762Y-98179523D01*
X104592381Y-98274761D01*
X104592381Y-98370000D01*
X104544762Y-98465238D01*
X104497143Y-98512857D01*
X104401905Y-98560476D01*
X104211429Y-98608095D01*
X103973333Y-98608095D01*
X103782857Y-98560476D01*
X103687619Y-98512857D01*
X103640000Y-98465238D01*
X103592381Y-98370000D01*
M02*
