<?xml version="1.0" encoding="UTF-8" standalone="no"?>
<svg width="1015px" height="173px" viewBox="0 0 1015 173" version="1.1" xmlns="http://www.w3.org/2000/svg" xmlns:xlink="http://www.w3.org/1999/xlink">
    <!-- Generator: Sketch 39.1 (31720) - http://www.bohemiancoding.com/sketch -->
    <title>Group</title>
    <desc>Created with Sketch.</desc>
    <defs>
        <path d="M829.6,38.9 C810.1,38.9 801.9,45.3 796.9,52.2 L796,52.2 L789.4,42.1 L766.4,42.1 L766.4,168.6 L805.3,168.6 L805.3,88.6 C805.3,79.5 812.7,72.2 821.7,72.2 C830.8,72.2 838.1,79.6 838.1,88.6 L838.1,168.6 L877,168.6 L877,86.4 C877,60.5 855,38.9 829.6,38.9 Z M989.2,140.5 C982.1,142.8 974.6,144 966.4,144 C944.6,144 933,134.8 931.7,116.4 L1014.2,116.4 L1014.2,100 C1014.2,81.1 1009.1,66.1 998.8,55.3 C988.5,44.4 974.4,39 956.2,39 C944,39 933.1,41.9 923.4,47.8 C913.7,53.6 906.2,61.8 900.9,72.1 C895.6,82.5 892.9,94.2 892.9,107.3 C892.9,127.7 898.5,143.6 909.8,154.8 C921.1,166 936.9,171.7 957.4,171.7 C976.1,171.7 991.3,168.6 1003,162.3 L1003,162 L989.2,140.5 Z M939.8,73.1 C944.5,67.9 949.9,65.3 956.1,65.3 C970.8,65.3 978.1,74.4 978.1,92.5 L931.5,92.5 C932.3,84.8 935.1,78.3 939.8,73.1 Z M84.3,0.5 L52.2,0.5 L52.2,112 C52.2,124.5 52.2,127.8 49.6,130.4 C47.3,132.7 42.8,132.7 38.2,132.7 L21.5,132.7 L0.5,168.6 L37.4,168.6 C55.1,168.6 68.3,167.8 78.2,160.8 C89.4,153 91.2,140.3 91.2,113.3 L91.2,10.9 L84.3,0.5 Z M322.7,42.1 L289.8,123.9 L288.8,123.9 L255.8,42.1 L228,42.1 L228,63 L270.5,168.6 L308.1,168.6 L350.6,63 L350.6,42.1 L322.7,42.1 Z M592.6,132.7 L533.2,132.7 L605.6,23.5 L605.6,0.5 L487.7,0.5 L487.7,22 L494.5,32.5 L555.8,32.5 L480.8,145.5 L480.8,168.6 L615.9,168.6 L592.6,132.7 Z M461.2,168.6 L461.2,93.4 C461.2,57.1 443,39 406.6,39 C399.4,39 390.7,40.1 380.7,42.4 C376.5,43.3 372.7,44.3 369.4,45.3 L369.4,63 L374.4,70.7 C383.1,67.3 392.1,65.6 401.5,65.6 C416.6,65.6 424.2,72.6 424.2,86.5 L396.1,90 C366.8,93.9 352.1,108.2 352.1,132.9 C352.1,144.6 355.7,154 362.9,161 C370.1,168 379.8,171.5 392,171.5 C395,171.5 420.1,171 426.9,158.6 L427.4,158.6 L433.8,168.5 L461.2,168.5 L461.2,168.6 Z M420.7,137.2 C416,142.3 410,144.8 402.7,144.8 C397.2,144.8 393,143.4 389.9,140.5 C386.9,137.6 385.4,134 385.4,129.5 C385.4,119.5 391.8,113.8 404.6,112.2 L427.8,109.2 L427.8,117.8 C427.7,125.7 425.4,132.1 420.7,137.2 Z M216.8,168.6 L216.8,93.4 C216.8,57.1 198.6,39 162.2,39 C155,39 146.3,40.1 136.3,42.4 C132.1,43.3 128.3,44.3 125,45.3 L125,63 L130,70.7 C138.7,67.3 147.7,65.6 157.1,65.6 C172.2,65.6 179.8,72.6 179.8,86.5 L151.7,90 C122.4,93.9 107.7,108.2 107.7,132.9 C107.7,144.6 111.3,154 118.5,161 C125.7,168 135.4,171.5 147.6,171.5 C150.6,171.5 175.7,171 182.5,158.6 L183,158.6 L189.4,168.5 L216.8,168.5 L216.8,168.6 Z M176.3,137.2 C171.6,142.3 165.6,144.8 158.3,144.8 C152.8,144.8 148.6,143.4 145.5,140.5 C142.5,137.6 141,134 141,129.5 C141,119.5 147.4,113.8 160.2,112.2 L183.4,109.2 L183.4,117.8 C183.3,125.7 181,132.1 176.3,137.2 Z M746.8,103.6 C746.8,124.5 740.6,141.1 728.2,153.3 C715.8,165.5 699,171.6 677.7,171.6 C656.9,171.6 640.4,165.8 628.2,154.1 C616,142.4 609.9,126.3 609.9,105.8 C609.9,84.9 616.2,68.5 628.7,56.7 C641.2,44.9 658.1,39 679.5,39 C700.3,39 716.7,44.9 728.7,56.6 C740.8,68.3 746.8,84 746.8,103.6 Z M707.1,104.3 C707.1,80.7 697.7,68.8 678.8,68.8 C669.6,68.8 662.4,72 657.3,78.3 C652.2,84.6 649.6,93.6 649.6,105.2 C649.6,129.5 659.4,141.6 679,141.6 C697.7,141.7 707.1,129.3 707.1,104.3 Z" id="path-1"></path>
        <rect id="path-3" x="0" y="0" width="743" height="429"></rect>
        <rect id="path-5" x="0" y="0" width="794" height="429"></rect>
    </defs>
    <g id="Page-1" stroke="none" stroke-width="1" fill="none" fill-rule="evenodd">
        <g id="Group">
            <mask id="mask-2" fill="white">
                <use xlink:href="#path-1"></use>
            </mask>
            <use id="Combined-Shape" stroke="#000000" xlink:href="#path-1"></use>
            <g id="Group-2" mask="url(#mask-2)">
                <g transform="translate(-271.000000, -112.000000)">
                    <mask id="mask-4" fill="white">
                        <use xlink:href="#path-3"></use>
                    </mask>
                    <g id="Rectangle" stroke="none" fill="none"></g>
                    <path d="M33,36 L355.691803,358.691803" id="Line" stroke="#000000" stroke-width="1" stroke-linecap="square" fill="none" mask="url(#mask-4)"></path>
                    <path d="M43,36 L365.691803,358.691803" id="Line-Copy" stroke="#000000" stroke-width="1" stroke-linecap="square" fill="none" mask="url(#mask-4)"></path>
                    <path d="M53,36 L375.691803,358.691803" id="Line-Copy-2" stroke="#000000" stroke-width="1" stroke-linecap="square" fill="none" mask="url(#mask-4)"></path>
                    <path d="M63,36 L385.691803,358.691803" id="Line-Copy-3" stroke="#000000" stroke-width="1" stroke-linecap="square" fill="none" mask="url(#mask-4)"></path>
                    <path d="M73,36 L395.691803,358.691803" id="Line-Copy-4" stroke="#000000" stroke-width="1" stroke-linecap="square" fill="none" mask="url(#mask-4)"></path>
                    <path d="M83,36 L405.691803,358.691803" id="Line-Copy-5" stroke="#000000" stroke-width="1" stroke-linecap="square" fill="none" mask="url(#mask-4)"></path>
                    <path d="M93,36 L415.691803,358.691803" id="Line-Copy-6" stroke="#000000" stroke-width="1" stroke-linecap="square" fill="none" mask="url(#mask-4)"></path>
                    <path d="M103,36 L425.691803,358.691803" id="Line-Copy-7" stroke="#000000" stroke-width="1" stroke-linecap="square" fill="none" mask="url(#mask-4)"></path>
                    <path d="M113,36 L435.691803,358.691803" id="Line-Copy-8" stroke="#000000" stroke-width="1" stroke-linecap="square" fill="none" mask="url(#mask-4)"></path>
                    <path d="M123,36 L445.691803,358.691803" id="Line-Copy-9" stroke="#000000" stroke-width="1" stroke-linecap="square" fill="none" mask="url(#mask-4)"></path>
                    <path d="M133,36 L455.691803,358.691803" id="Line-Copy-10" stroke="#000000" stroke-width="1" stroke-linecap="square" fill="none" mask="url(#mask-4)"></path>
                    <path d="M143,36 L465.691803,358.691803" id="Line-Copy-11" stroke="#000000" stroke-width="1" stroke-linecap="square" fill="none" mask="url(#mask-4)"></path>
                    <path d="M153,36 L475.691803,358.691803" id="Line-Copy-12" stroke="#000000" stroke-width="1" stroke-linecap="square" fill="none" mask="url(#mask-4)"></path>
                    <path d="M163,36 L485.691803,358.691803" id="Line-Copy-13" stroke="#000000" stroke-width="1" stroke-linecap="square" fill="none" mask="url(#mask-4)"></path>
                    <path d="M173,36 L495.691803,358.691803" id="Line-Copy-14" stroke="#000000" stroke-width="1" stroke-linecap="square" fill="none" mask="url(#mask-4)"></path>
                    <path d="M183,36 L505.691803,358.691803" id="Line-Copy-15" stroke="#000000" stroke-width="1" stroke-linecap="square" fill="none" mask="url(#mask-4)"></path>
                    <path d="M193,36 L515.691803,358.691803" id="Line-Copy-16" stroke="#000000" stroke-width="1" stroke-linecap="square" fill="none" mask="url(#mask-4)"></path>
                    <path d="M203,36 L525.691803,358.691803" id="Line-Copy-17" stroke="#000000" stroke-width="1" stroke-linecap="square" fill="none" mask="url(#mask-4)"></path>
                    <path d="M213,36 L535.691803,358.691803" id="Line-Copy-18" stroke="#000000" stroke-width="1" stroke-linecap="square" fill="none" mask="url(#mask-4)"></path>
                    <path d="M223,36 L545.691803,358.691803" id="Line-Copy-19" stroke="#000000" stroke-width="1" stroke-linecap="square" fill="none" mask="url(#mask-4)"></path>
                    <path d="M233,36 L555.691803,358.691803" id="Line-Copy-20" stroke="#000000" stroke-width="1" stroke-linecap="square" fill="none" mask="url(#mask-4)"></path>
                    <path d="M243,36 L565.691803,358.691803" id="Line-Copy-21" stroke="#000000" stroke-width="1" stroke-linecap="square" fill="none" mask="url(#mask-4)"></path>
                    <path d="M253,36 L575.691803,358.691803" id="Line-Copy-22" stroke="#000000" stroke-width="1" stroke-linecap="square" fill="none" mask="url(#mask-4)"></path>
                    <path d="M263,36 L585.691803,358.691803" id="Line-Copy-23" stroke="#000000" stroke-width="1" stroke-linecap="square" fill="none" mask="url(#mask-4)"></path>
                    <path d="M273,36 L595.691803,358.691803" id="Line-Copy-24" stroke="#000000" stroke-width="1" stroke-linecap="square" fill="none" mask="url(#mask-4)"></path>
                    <path d="M283,36 L605.691803,358.691803" id="Line-Copy-25" stroke="#000000" stroke-width="1" stroke-linecap="square" fill="none" mask="url(#mask-4)"></path>
                    <path d="M293,36 L615.691803,358.691803" id="Line-Copy-26" stroke="#000000" stroke-width="1" stroke-linecap="square" fill="none" mask="url(#mask-4)"></path>
                    <path d="M303,36 L625.691803,358.691803" id="Line-Copy-27" stroke="#000000" stroke-width="1" stroke-linecap="square" fill="none" mask="url(#mask-4)"></path>
                    <path d="M313,36 L635.691803,358.691803" id="Line-Copy-28" stroke="#000000" stroke-width="1" stroke-linecap="square" fill="none" mask="url(#mask-4)"></path>
                    <path d="M323,36 L645.691803,358.691803" id="Line-Copy-29" stroke="#000000" stroke-width="1" stroke-linecap="square" fill="none" mask="url(#mask-4)"></path>
                    <path d="M333,36 L655.691803,358.691803" id="Line-Copy-30" stroke="#000000" stroke-width="1" stroke-linecap="square" fill="none" mask="url(#mask-4)"></path>
                    <path d="M343,36 L665.691803,358.691803" id="Line-Copy-31" stroke="#000000" stroke-width="1" stroke-linecap="square" fill="none" mask="url(#mask-4)"></path>
                    <path d="M353,36 L675.691803,358.691803" id="Line-Copy-32" stroke="#000000" stroke-width="1" stroke-linecap="square" fill="none" mask="url(#mask-4)"></path>
                    <path d="M363,36 L685.691803,358.691803" id="Line-Copy-33" stroke="#000000" stroke-width="1" stroke-linecap="square" fill="none" mask="url(#mask-4)"></path>
                    <path d="M373,36 L695.691803,358.691803" id="Line-Copy-34" stroke="#000000" stroke-width="1" stroke-linecap="square" fill="none" mask="url(#mask-4)"></path>
                    <path d="M383,36 L705.691803,358.691803" id="Line-Copy-35" stroke="#000000" stroke-width="1" stroke-linecap="square" fill="none" mask="url(#mask-4)"></path>
                    <path d="M393,36 L715.691803,358.691803" id="Line-Copy-36" stroke="#000000" stroke-width="1" stroke-linecap="square" fill="none" mask="url(#mask-4)"></path>
                    <path d="M403,36 L725.691803,358.691803" id="Line-Copy-37" stroke="#000000" stroke-width="1" stroke-linecap="square" fill="none" mask="url(#mask-4)"></path>
                    <path d="M413,36 L735.691803,358.691803" id="Line-Copy-38" stroke="#000000" stroke-width="1" stroke-linecap="square" fill="none" mask="url(#mask-4)"></path>
                    <path d="M423,36 L745.691803,358.691803" id="Line-Copy-39" stroke="#000000" stroke-width="1" stroke-linecap="square" fill="none" mask="url(#mask-4)"></path>
                    <path d="M433,36 L755.691803,358.691803" id="Line-Copy-40" stroke="#000000" stroke-width="1" stroke-linecap="square" fill="none" mask="url(#mask-4)"></path>
                    <path d="M443,36 L765.691803,358.691803" id="Line-Copy-41" stroke="#000000" stroke-width="1" stroke-linecap="square" fill="none" mask="url(#mask-4)"></path>
                    <path d="M453,36 L775.691803,358.691803" id="Line-Copy-42" stroke="#000000" stroke-width="1" stroke-linecap="square" fill="none" mask="url(#mask-4)"></path>
                    <path d="M463,36 L785.691803,358.691803" id="Line-Copy-43" stroke="#000000" stroke-width="1" stroke-linecap="square" fill="none" mask="url(#mask-4)"></path>
                    <path d="M473,36 L795.691803,358.691803" id="Line-Copy-44" stroke="#000000" stroke-width="1" stroke-linecap="square" fill="none" mask="url(#mask-4)"></path>
                    <path d="M483,36 L805.691803,358.691803" id="Line-Copy-45" stroke="#000000" stroke-width="1" stroke-linecap="square" fill="none" mask="url(#mask-4)"></path>
                    <path d="M493,36 L815.691803,358.691803" id="Line-Copy-46" stroke="#000000" stroke-width="1" stroke-linecap="square" fill="none" mask="url(#mask-4)"></path>
                    <path d="M503,36 L825.691803,358.691803" id="Line-Copy-47" stroke="#000000" stroke-width="1" stroke-linecap="square" fill="none" mask="url(#mask-4)"></path>
                    <path d="M513,36 L835.691803,358.691803" id="Line-Copy-48" stroke="#000000" stroke-width="1" stroke-linecap="square" fill="none" mask="url(#mask-4)"></path>
                    <path d="M523,36 L845.691803,358.691803" id="Line-Copy-49" stroke="#000000" stroke-width="1" stroke-linecap="square" fill="none" mask="url(#mask-4)"></path>
                    <path d="M533,36 L855.691803,358.691803" id="Line-Copy-50" stroke="#000000" stroke-width="1" stroke-linecap="square" fill="none" mask="url(#mask-4)"></path>
                    <path d="M543,36 L865.691803,358.691803" id="Line-Copy-51" stroke="#000000" stroke-width="1" stroke-linecap="square" fill="none" mask="url(#mask-4)"></path>
                    <path d="M553,36 L875.691803,358.691803" id="Line-Copy-52" stroke="#000000" stroke-width="1" stroke-linecap="square" fill="none" mask="url(#mask-4)"></path>
                    <path d="M563,36 L885.691803,358.691803" id="Line-Copy-53" stroke="#000000" stroke-width="1" stroke-linecap="square" fill="none" mask="url(#mask-4)"></path>
                    <path d="M573,36 L895.691803,358.691803" id="Line-Copy-54" stroke="#000000" stroke-width="1" stroke-linecap="square" fill="none" mask="url(#mask-4)"></path>
                    <path d="M583,36 L905.691803,358.691803" id="Line-Copy-55" stroke="#000000" stroke-width="1" stroke-linecap="square" fill="none" mask="url(#mask-4)"></path>
                    <path d="M593,36 L915.691803,358.691803" id="Line-Copy-56" stroke="#000000" stroke-width="1" stroke-linecap="square" fill="none" mask="url(#mask-4)"></path>
                    <path d="M603,36 L925.691803,358.691803" id="Line-Copy-57" stroke="#000000" stroke-width="1" stroke-linecap="square" fill="none" mask="url(#mask-4)"></path>
                    <path d="M613,36 L935.691803,358.691803" id="Line-Copy-58" stroke="#000000" stroke-width="1" stroke-linecap="square" fill="none" mask="url(#mask-4)"></path>
                    <path d="M623,36 L945.691803,358.691803" id="Line-Copy-59" stroke="#000000" stroke-width="1" stroke-linecap="square" fill="none" mask="url(#mask-4)"></path>
                    <path d="M633,36 L955.691803,358.691803" id="Line-Copy-60" stroke="#000000" stroke-width="1" stroke-linecap="square" fill="none" mask="url(#mask-4)"></path>
                    <path d="M643,36 L965.691803,358.691803" id="Line-Copy-61" stroke="#000000" stroke-width="1" stroke-linecap="square" fill="none" mask="url(#mask-4)"></path>
                    <path d="M653,36 L975.691803,358.691803" id="Line-Copy-62" stroke="#000000" stroke-width="1" stroke-linecap="square" fill="none" mask="url(#mask-4)"></path>
                    <path d="M663,36 L985.691803,358.691803" id="Line-Copy-63" stroke="#000000" stroke-width="1" stroke-linecap="square" fill="none" mask="url(#mask-4)"></path>
                    <path d="M673,36 L995.691803,358.691803" id="Line-Copy-64" stroke="#000000" stroke-width="1" stroke-linecap="square" fill="none" mask="url(#mask-4)"></path>
                    <path d="M683,36 L1005.6918,358.691803" id="Line-Copy-65" stroke="#000000" stroke-width="1" stroke-linecap="square" fill="none" mask="url(#mask-4)"></path>
                    <path d="M693,36 L1015.6918,358.691803" id="Line-Copy-66" stroke="#000000" stroke-width="1" stroke-linecap="square" fill="none" mask="url(#mask-4)"></path>
                    <path d="M703,36 L1025.6918,358.691803" id="Line-Copy-67" stroke="#000000" stroke-width="1" stroke-linecap="square" fill="none" mask="url(#mask-4)"></path>
                    <path d="M713,36 L1035.6918,358.691803" id="Line-Copy-68" stroke="#000000" stroke-width="1" stroke-linecap="square" fill="none" mask="url(#mask-4)"></path>
                    <path d="M723,36 L1045.6918,358.691803" id="Line-Copy-69" stroke="#000000" stroke-width="1" stroke-linecap="square" fill="none" mask="url(#mask-4)"></path>
                    <path d="M733,36 L1055.6918,358.691803" id="Line-Copy-70" stroke="#000000" stroke-width="1" stroke-linecap="square" fill="none" mask="url(#mask-4)"></path>
                    <path d="M743,36 L1065.6918,358.691803" id="Line-Copy-71" stroke="#000000" stroke-width="1" stroke-linecap="square" fill="none" mask="url(#mask-4)"></path>
                    <path d="M753,36 L1075.6918,358.691803" id="Line-Copy-72" stroke="#000000" stroke-width="1" stroke-linecap="square" fill="none" mask="url(#mask-4)"></path>
                    <path d="M763,36 L1085.6918,358.691803" id="Line-Copy-73" stroke="#000000" stroke-width="1" stroke-linecap="square" fill="none" mask="url(#mask-4)"></path>
                    <path d="M773,36 L1095.6918,358.691803" id="Line-Copy-74" stroke="#000000" stroke-width="1" stroke-linecap="square" fill="none" mask="url(#mask-4)"></path>
                    <path d="M783,36 L1105.6918,358.691803" id="Line-Copy-75" stroke="#000000" stroke-width="1" stroke-linecap="square" fill="none" mask="url(#mask-4)"></path>
                    <path d="M793,36 L1115.6918,358.691803" id="Line-Copy-76" stroke="#000000" stroke-width="1" stroke-linecap="square" fill="none" mask="url(#mask-4)"></path>
                    <path d="M803,36 L1125.6918,358.691803" id="Line-Copy-77" stroke="#000000" stroke-width="1" stroke-linecap="square" fill="none" mask="url(#mask-4)"></path>
                    <path d="M813,36 L1135.6918,358.691803" id="Line-Copy-78" stroke="#000000" stroke-width="1" stroke-linecap="square" fill="none" mask="url(#mask-4)"></path>
                    <path d="M823,36 L1145.6918,358.691803" id="Line-Copy-79" stroke="#000000" stroke-width="1" stroke-linecap="square" fill="none" mask="url(#mask-4)"></path>
                    <path d="M833,36 L1155.6918,358.691803" id="Line-Copy-80" stroke="#000000" stroke-width="1" stroke-linecap="square" fill="none" mask="url(#mask-4)"></path>
                    <path d="M843,36 L1165.6918,358.691803" id="Line-Copy-81" stroke="#000000" stroke-width="1" stroke-linecap="square" fill="none" mask="url(#mask-4)"></path>
                    <path d="M853,36 L1175.6918,358.691803" id="Line-Copy-82" stroke="#000000" stroke-width="1" stroke-linecap="square" fill="none" mask="url(#mask-4)"></path>
                    <path d="M863,36 L1185.6918,358.691803" id="Line-Copy-83" stroke="#000000" stroke-width="1" stroke-linecap="square" fill="none" mask="url(#mask-4)"></path>
                    <path d="M873,36 L1195.6918,358.691803" id="Line-Copy-84" stroke="#000000" stroke-width="1" stroke-linecap="square" fill="none" mask="url(#mask-4)"></path>
                    <path d="M883,36 L1205.6918,358.691803" id="Line-Copy-85" stroke="#000000" stroke-width="1" stroke-linecap="square" fill="none" mask="url(#mask-4)"></path>
                    <path d="M893,36 L1215.6918,358.691803" id="Line-Copy-86" stroke="#000000" stroke-width="1" stroke-linecap="square" fill="none" mask="url(#mask-4)"></path>
                    <path d="M903,36 L1225.6918,358.691803" id="Line-Copy-87" stroke="#000000" stroke-width="1" stroke-linecap="square" fill="none" mask="url(#mask-4)"></path>
                    <path d="M913,36 L1235.6918,358.691803" id="Line-Copy-88" stroke="#000000" stroke-width="1" stroke-linecap="square" fill="none" mask="url(#mask-4)"></path>
                    <path d="M923,36 L1245.6918,358.691803" id="Line-Copy-89" stroke="#000000" stroke-width="1" stroke-linecap="square" fill="none" mask="url(#mask-4)"></path>
                    <path d="M933,36 L1255.6918,358.691803" id="Line-Copy-90" stroke="#000000" stroke-width="1" stroke-linecap="square" fill="none" mask="url(#mask-4)"></path>
                    <path d="M943,36 L1265.6918,358.691803" id="Line-Copy-91" stroke="#000000" stroke-width="1" stroke-linecap="square" fill="none" mask="url(#mask-4)"></path>
                    <path d="M953,36 L1275.6918,358.691803" id="Line-Copy-92" stroke="#000000" stroke-width="1" stroke-linecap="square" fill="none" mask="url(#mask-4)"></path>
                    <path d="M963,36 L1285.6918,358.691803" id="Line-Copy-93" stroke="#000000" stroke-width="1" stroke-linecap="square" fill="none" mask="url(#mask-4)"></path>
                    <path d="M973,36 L1295.6918,358.691803" id="Line-Copy-94" stroke="#000000" stroke-width="1" stroke-linecap="square" fill="none" mask="url(#mask-4)"></path>
                    <path d="M983,36 L1305.6918,358.691803" id="Line-Copy-95" stroke="#000000" stroke-width="1" stroke-linecap="square" fill="none" mask="url(#mask-4)"></path>
                    <path d="M993,36 L1315.6918,358.691803" id="Line-Copy-96" stroke="#000000" stroke-width="1" stroke-linecap="square" fill="none" mask="url(#mask-4)"></path>
                    <path d="M1003,36 L1325.6918,358.691803" id="Line-Copy-97" stroke="#000000" stroke-width="1" stroke-linecap="square" fill="none" mask="url(#mask-4)"></path>
                    <path d="M1013,36 L1335.6918,358.691803" id="Line-Copy-98" stroke="#000000" stroke-width="1" stroke-linecap="square" fill="none" mask="url(#mask-4)"></path>
                    <path d="M1023,36 L1345.6918,358.691803" id="Line-Copy-99" stroke="#000000" stroke-width="1" stroke-linecap="square" fill="none" mask="url(#mask-4)"></path>
                    <path d="M1033,36 L1355.6918,358.691803" id="Line-Copy-100" stroke="#000000" stroke-width="1" stroke-linecap="square" fill="none" mask="url(#mask-4)"></path>
                    <path d="M1043,36 L1365.6918,358.691803" id="Line-Copy-101" stroke="#000000" stroke-width="1" stroke-linecap="square" fill="none" mask="url(#mask-4)"></path>
                    <path d="M1053,36 L1375.6918,358.691803" id="Line-Copy-102" stroke="#000000" stroke-width="1" stroke-linecap="square" fill="none" mask="url(#mask-4)"></path>
                    <path d="M1063,36 L1385.6918,358.691803" id="Line-Copy-103" stroke="#000000" stroke-width="1" stroke-linecap="square" fill="none" mask="url(#mask-4)"></path>
                    <path d="M1073,36 L1395.6918,358.691803" id="Line-Copy-104" stroke="#000000" stroke-width="1" stroke-linecap="square" fill="none" mask="url(#mask-4)"></path>
                    <path d="M1083,36 L1405.6918,358.691803" id="Line-Copy-105" stroke="#000000" stroke-width="1" stroke-linecap="square" fill="none" mask="url(#mask-4)"></path>
                    <path d="M1093,36 L1415.6918,358.691803" id="Line-Copy-106" stroke="#000000" stroke-width="1" stroke-linecap="square" fill="none" mask="url(#mask-4)"></path>
                    <path d="M1103,36 L1425.6918,358.691803" id="Line-Copy-107" stroke="#000000" stroke-width="1" stroke-linecap="square" fill="none" mask="url(#mask-4)"></path>
                    <path d="M1113,36 L1435.6918,358.691803" id="Line-Copy-108" stroke="#000000" stroke-width="1" stroke-linecap="square" fill="none" mask="url(#mask-4)"></path>
                    <path d="M1123,36 L1445.6918,358.691803" id="Line-Copy-109" stroke="#000000" stroke-width="1" stroke-linecap="square" fill="none" mask="url(#mask-4)"></path>
                    <path d="M1133,36 L1455.6918,358.691803" id="Line-Copy-110" stroke="#000000" stroke-width="1" stroke-linecap="square" fill="none" mask="url(#mask-4)"></path>
                    <path d="M1143,36 L1465.6918,358.691803" id="Line-Copy-111" stroke="#000000" stroke-width="1" stroke-linecap="square" fill="none" mask="url(#mask-4)"></path>
                </g>
            </g>
            <g id="Group-2-Copy" mask="url(#mask-2)">
                <g transform="translate(875.000000, 102.500000) scale(-1, 1) translate(-875.000000, -102.500000) translate(478.000000, -112.000000)">
                    <mask id="mask-6" fill="white">
                        <use xlink:href="#path-5"></use>
                    </mask>
                    <g id="Rectangle" stroke="none" fill="none"></g>
                    <path d="M33,36 L355.691803,358.691803" id="Line" stroke="#000000" stroke-width="1" stroke-linecap="square" fill="none" mask="url(#mask-6)"></path>
                    <path d="M43,36 L365.691803,358.691803" id="Line-Copy" stroke="#000000" stroke-width="1" stroke-linecap="square" fill="none" mask="url(#mask-6)"></path>
                    <path d="M53,36 L375.691803,358.691803" id="Line-Copy-2" stroke="#000000" stroke-width="1" stroke-linecap="square" fill="none" mask="url(#mask-6)"></path>
                    <path d="M63,36 L385.691803,358.691803" id="Line-Copy-3" stroke="#000000" stroke-width="1" stroke-linecap="square" fill="none" mask="url(#mask-6)"></path>
                    <path d="M73,36 L395.691803,358.691803" id="Line-Copy-4" stroke="#000000" stroke-width="1" stroke-linecap="square" fill="none" mask="url(#mask-6)"></path>
                    <path d="M83,36 L405.691803,358.691803" id="Line-Copy-5" stroke="#000000" stroke-width="1" stroke-linecap="square" fill="none" mask="url(#mask-6)"></path>
                    <path d="M93,36 L415.691803,358.691803" id="Line-Copy-6" stroke="#000000" stroke-width="1" stroke-linecap="square" fill="none" mask="url(#mask-6)"></path>
                    <path d="M103,36 L425.691803,358.691803" id="Line-Copy-7" stroke="#000000" stroke-width="1" stroke-linecap="square" fill="none" mask="url(#mask-6)"></path>
                    <path d="M113,36 L435.691803,358.691803" id="Line-Copy-8" stroke="#000000" stroke-width="1" stroke-linecap="square" fill="none" mask="url(#mask-6)"></path>
                    <path d="M123,36 L445.691803,358.691803" id="Line-Copy-9" stroke="#000000" stroke-width="1" stroke-linecap="square" fill="none" mask="url(#mask-6)"></path>
                    <path d="M133,36 L455.691803,358.691803" id="Line-Copy-10" stroke="#000000" stroke-width="1" stroke-linecap="square" fill="none" mask="url(#mask-6)"></path>
                    <path d="M143,36 L465.691803,358.691803" id="Line-Copy-11" stroke="#000000" stroke-width="1" stroke-linecap="square" fill="none" mask="url(#mask-6)"></path>
                    <path d="M153,36 L475.691803,358.691803" id="Line-Copy-12" stroke="#000000" stroke-width="1" stroke-linecap="square" fill="none" mask="url(#mask-6)"></path>
                    <path d="M163,36 L485.691803,358.691803" id="Line-Copy-13" stroke="#000000" stroke-width="1" stroke-linecap="square" fill="none" mask="url(#mask-6)"></path>
                    <path d="M173,36 L495.691803,358.691803" id="Line-Copy-14" stroke="#000000" stroke-width="1" stroke-linecap="square" fill="none" mask="url(#mask-6)"></path>
                    <path d="M183,36 L505.691803,358.691803" id="Line-Copy-15" stroke="#000000" stroke-width="1" stroke-linecap="square" fill="none" mask="url(#mask-6)"></path>
                    <path d="M193,36 L515.691803,358.691803" id="Line-Copy-16" stroke="#000000" stroke-width="1" stroke-linecap="square" fill="none" mask="url(#mask-6)"></path>
                    <path d="M203,36 L525.691803,358.691803" id="Line-Copy-17" stroke="#000000" stroke-width="1" stroke-linecap="square" fill="none" mask="url(#mask-6)"></path>
                    <path d="M213,36 L535.691803,358.691803" id="Line-Copy-18" stroke="#000000" stroke-width="1" stroke-linecap="square" fill="none" mask="url(#mask-6)"></path>
                    <path d="M223,36 L545.691803,358.691803" id="Line-Copy-19" stroke="#000000" stroke-width="1" stroke-linecap="square" fill="none" mask="url(#mask-6)"></path>
                    <path d="M233,36 L555.691803,358.691803" id="Line-Copy-20" stroke="#000000" stroke-width="1" stroke-linecap="square" fill="none" mask="url(#mask-6)"></path>
                    <path d="M243,36 L565.691803,358.691803" id="Line-Copy-21" stroke="#000000" stroke-width="1" stroke-linecap="square" fill="none" mask="url(#mask-6)"></path>
                    <path d="M253,36 L575.691803,358.691803" id="Line-Copy-22" stroke="#000000" stroke-width="1" stroke-linecap="square" fill="none" mask="url(#mask-6)"></path>
                    <path d="M263,36 L585.691803,358.691803" id="Line-Copy-23" stroke="#000000" stroke-width="1" stroke-linecap="square" fill="none" mask="url(#mask-6)"></path>
                    <path d="M273,36 L595.691803,358.691803" id="Line-Copy-24" stroke="#000000" stroke-width="1" stroke-linecap="square" fill="none" mask="url(#mask-6)"></path>
                    <path d="M283,36 L605.691803,358.691803" id="Line-Copy-25" stroke="#000000" stroke-width="1" stroke-linecap="square" fill="none" mask="url(#mask-6)"></path>
                    <path d="M293,36 L615.691803,358.691803" id="Line-Copy-26" stroke="#000000" stroke-width="1" stroke-linecap="square" fill="none" mask="url(#mask-6)"></path>
                    <path d="M303,36 L625.691803,358.691803" id="Line-Copy-27" stroke="#000000" stroke-width="1" stroke-linecap="square" fill="none" mask="url(#mask-6)"></path>
                    <path d="M313,36 L635.691803,358.691803" id="Line-Copy-28" stroke="#000000" stroke-width="1" stroke-linecap="square" fill="none" mask="url(#mask-6)"></path>
                    <path d="M323,36 L645.691803,358.691803" id="Line-Copy-29" stroke="#000000" stroke-width="1" stroke-linecap="square" fill="none" mask="url(#mask-6)"></path>
                    <path d="M333,36 L655.691803,358.691803" id="Line-Copy-30" stroke="#000000" stroke-width="1" stroke-linecap="square" fill="none" mask="url(#mask-6)"></path>
                    <path d="M343,36 L665.691803,358.691803" id="Line-Copy-31" stroke="#000000" stroke-width="1" stroke-linecap="square" fill="none" mask="url(#mask-6)"></path>
                    <path d="M353,36 L675.691803,358.691803" id="Line-Copy-32" stroke="#000000" stroke-width="1" stroke-linecap="square" fill="none" mask="url(#mask-6)"></path>
                    <path d="M363,36 L685.691803,358.691803" id="Line-Copy-33" stroke="#000000" stroke-width="1" stroke-linecap="square" fill="none" mask="url(#mask-6)"></path>
                    <path d="M373,36 L695.691803,358.691803" id="Line-Copy-34" stroke="#000000" stroke-width="1" stroke-linecap="square" fill="none" mask="url(#mask-6)"></path>
                    <path d="M383,36 L705.691803,358.691803" id="Line-Copy-35" stroke="#000000" stroke-width="1" stroke-linecap="square" fill="none" mask="url(#mask-6)"></path>
                    <path d="M393,36 L715.691803,358.691803" id="Line-Copy-36" stroke="#000000" stroke-width="1" stroke-linecap="square" fill="none" mask="url(#mask-6)"></path>
                    <path d="M403,36 L725.691803,358.691803" id="Line-Copy-37" stroke="#000000" stroke-width="1" stroke-linecap="square" fill="none" mask="url(#mask-6)"></path>
                    <path d="M413,36 L735.691803,358.691803" id="Line-Copy-38" stroke="#000000" stroke-width="1" stroke-linecap="square" fill="none" mask="url(#mask-6)"></path>
                    <path d="M423,36 L745.691803,358.691803" id="Line-Copy-39" stroke="#000000" stroke-width="1" stroke-linecap="square" fill="none" mask="url(#mask-6)"></path>
                    <path d="M433,36 L755.691803,358.691803" id="Line-Copy-40" stroke="#000000" stroke-width="1" stroke-linecap="square" fill="none" mask="url(#mask-6)"></path>
                    <path d="M443,36 L765.691803,358.691803" id="Line-Copy-41" stroke="#000000" stroke-width="1" stroke-linecap="square" fill="none" mask="url(#mask-6)"></path>
                    <path d="M453,36 L775.691803,358.691803" id="Line-Copy-42" stroke="#000000" stroke-width="1" stroke-linecap="square" fill="none" mask="url(#mask-6)"></path>
                    <path d="M463,36 L785.691803,358.691803" id="Line-Copy-43" stroke="#000000" stroke-width="1" stroke-linecap="square" fill="none" mask="url(#mask-6)"></path>
                    <path d="M473,36 L795.691803,358.691803" id="Line-Copy-44" stroke="#000000" stroke-width="1" stroke-linecap="square" fill="none" mask="url(#mask-6)"></path>
                    <path d="M483,36 L805.691803,358.691803" id="Line-Copy-45" stroke="#000000" stroke-width="1" stroke-linecap="square" fill="none" mask="url(#mask-6)"></path>
                    <path d="M493,36 L815.691803,358.691803" id="Line-Copy-46" stroke="#000000" stroke-width="1" stroke-linecap="square" fill="none" mask="url(#mask-6)"></path>
                    <path d="M503,36 L825.691803,358.691803" id="Line-Copy-47" stroke="#000000" stroke-width="1" stroke-linecap="square" fill="none" mask="url(#mask-6)"></path>
                    <path d="M513,36 L835.691803,358.691803" id="Line-Copy-48" stroke="#000000" stroke-width="1" stroke-linecap="square" fill="none" mask="url(#mask-6)"></path>
                    <path d="M523,36 L845.691803,358.691803" id="Line-Copy-49" stroke="#000000" stroke-width="1" stroke-linecap="square" fill="none" mask="url(#mask-6)"></path>
                    <path d="M533,36 L855.691803,358.691803" id="Line-Copy-50" stroke="#000000" stroke-width="1" stroke-linecap="square" fill="none" mask="url(#mask-6)"></path>
                    <path d="M543,36 L865.691803,358.691803" id="Line-Copy-51" stroke="#000000" stroke-width="1" stroke-linecap="square" fill="none" mask="url(#mask-6)"></path>
                    <path d="M553,36 L875.691803,358.691803" id="Line-Copy-52" stroke="#000000" stroke-width="1" stroke-linecap="square" fill="none" mask="url(#mask-6)"></path>
                    <path d="M563,36 L885.691803,358.691803" id="Line-Copy-53" stroke="#000000" stroke-width="1" stroke-linecap="square" fill="none" mask="url(#mask-6)"></path>
                    <path d="M573,36 L895.691803,358.691803" id="Line-Copy-54" stroke="#000000" stroke-width="1" stroke-linecap="square" fill="none" mask="url(#mask-6)"></path>
                    <path d="M583,36 L905.691803,358.691803" id="Line-Copy-55" stroke="#000000" stroke-width="1" stroke-linecap="square" fill="none" mask="url(#mask-6)"></path>
                    <path d="M593,36 L915.691803,358.691803" id="Line-Copy-56" stroke="#000000" stroke-width="1" stroke-linecap="square" fill="none" mask="url(#mask-6)"></path>
                    <path d="M603,36 L925.691803,358.691803" id="Line-Copy-57" stroke="#000000" stroke-width="1" stroke-linecap="square" fill="none" mask="url(#mask-6)"></path>
                    <path d="M613,36 L935.691803,358.691803" id="Line-Copy-58" stroke="#000000" stroke-width="1" stroke-linecap="square" fill="none" mask="url(#mask-6)"></path>
                    <path d="M623,36 L945.691803,358.691803" id="Line-Copy-59" stroke="#000000" stroke-width="1" stroke-linecap="square" fill="none" mask="url(#mask-6)"></path>
                    <path d="M633,36 L955.691803,358.691803" id="Line-Copy-60" stroke="#000000" stroke-width="1" stroke-linecap="square" fill="none" mask="url(#mask-6)"></path>
                    <path d="M643,36 L965.691803,358.691803" id="Line-Copy-61" stroke="#000000" stroke-width="1" stroke-linecap="square" fill="none" mask="url(#mask-6)"></path>
                    <path d="M653,36 L975.691803,358.691803" id="Line-Copy-62" stroke="#000000" stroke-width="1" stroke-linecap="square" fill="none" mask="url(#mask-6)"></path>
                    <path d="M663,36 L985.691803,358.691803" id="Line-Copy-63" stroke="#000000" stroke-width="1" stroke-linecap="square" fill="none" mask="url(#mask-6)"></path>
                    <path d="M673,36 L995.691803,358.691803" id="Line-Copy-64" stroke="#000000" stroke-width="1" stroke-linecap="square" fill="none" mask="url(#mask-6)"></path>
                    <path d="M683,36 L1005.6918,358.691803" id="Line-Copy-65" stroke="#000000" stroke-width="1" stroke-linecap="square" fill="none" mask="url(#mask-6)"></path>
                    <path d="M693,36 L1015.6918,358.691803" id="Line-Copy-66" stroke="#000000" stroke-width="1" stroke-linecap="square" fill="none" mask="url(#mask-6)"></path>
                    <path d="M703,36 L1025.6918,358.691803" id="Line-Copy-67" stroke="#000000" stroke-width="1" stroke-linecap="square" fill="none" mask="url(#mask-6)"></path>
                    <path d="M713,36 L1035.6918,358.691803" id="Line-Copy-68" stroke="#000000" stroke-width="1" stroke-linecap="square" fill="none" mask="url(#mask-6)"></path>
                    <path d="M723,36 L1045.6918,358.691803" id="Line-Copy-69" stroke="#000000" stroke-width="1" stroke-linecap="square" fill="none" mask="url(#mask-6)"></path>
                    <path d="M733,36 L1055.6918,358.691803" id="Line-Copy-70" stroke="#000000" stroke-width="1" stroke-linecap="square" fill="none" mask="url(#mask-6)"></path>
                    <path d="M743,36 L1065.6918,358.691803" id="Line-Copy-71" stroke="#000000" stroke-width="1" stroke-linecap="square" fill="none" mask="url(#mask-6)"></path>
                    <path d="M753,36 L1075.6918,358.691803" id="Line-Copy-72" stroke="#000000" stroke-width="1" stroke-linecap="square" fill="none" mask="url(#mask-6)"></path>
                    <path d="M763,36 L1085.6918,358.691803" id="Line-Copy-73" stroke="#000000" stroke-width="1" stroke-linecap="square" fill="none" mask="url(#mask-6)"></path>
                    <path d="M773,36 L1095.6918,358.691803" id="Line-Copy-74" stroke="#000000" stroke-width="1" stroke-linecap="square" fill="none" mask="url(#mask-6)"></path>
                    <path d="M783,36 L1105.6918,358.691803" id="Line-Copy-75" stroke="#000000" stroke-width="1" stroke-linecap="square" fill="none" mask="url(#mask-6)"></path>
                    <path d="M793,36 L1115.6918,358.691803" id="Line-Copy-76" stroke="#000000" stroke-width="1" stroke-linecap="square" fill="none" mask="url(#mask-6)"></path>
                    <path d="M803,36 L1125.6918,358.691803" id="Line-Copy-77" stroke="#000000" stroke-width="1" stroke-linecap="square" fill="none" mask="url(#mask-6)"></path>
                    <path d="M813,36 L1135.6918,358.691803" id="Line-Copy-78" stroke="#000000" stroke-width="1" stroke-linecap="square" fill="none" mask="url(#mask-6)"></path>
                    <path d="M823,36 L1145.6918,358.691803" id="Line-Copy-79" stroke="#000000" stroke-width="1" stroke-linecap="square" fill="none" mask="url(#mask-6)"></path>
                    <path d="M833,36 L1155.6918,358.691803" id="Line-Copy-80" stroke="#000000" stroke-width="1" stroke-linecap="square" fill="none" mask="url(#mask-6)"></path>
                    <path d="M843,36 L1165.6918,358.691803" id="Line-Copy-81" stroke="#000000" stroke-width="1" stroke-linecap="square" fill="none" mask="url(#mask-6)"></path>
                    <path d="M853,36 L1175.6918,358.691803" id="Line-Copy-82" stroke="#000000" stroke-width="1" stroke-linecap="square" fill="none" mask="url(#mask-6)"></path>
                    <path d="M863,36 L1185.6918,358.691803" id="Line-Copy-83" stroke="#000000" stroke-width="1" stroke-linecap="square" fill="none" mask="url(#mask-6)"></path>
                    <path d="M873,36 L1195.6918,358.691803" id="Line-Copy-84" stroke="#000000" stroke-width="1" stroke-linecap="square" fill="none" mask="url(#mask-6)"></path>
                    <path d="M883,36 L1205.6918,358.691803" id="Line-Copy-85" stroke="#000000" stroke-width="1" stroke-linecap="square" fill="none" mask="url(#mask-6)"></path>
                    <path d="M893,36 L1215.6918,358.691803" id="Line-Copy-86" stroke="#000000" stroke-width="1" stroke-linecap="square" fill="none" mask="url(#mask-6)"></path>
                    <path d="M903,36 L1225.6918,358.691803" id="Line-Copy-87" stroke="#000000" stroke-width="1" stroke-linecap="square" fill="none" mask="url(#mask-6)"></path>
                    <path d="M913,36 L1235.6918,358.691803" id="Line-Copy-88" stroke="#000000" stroke-width="1" stroke-linecap="square" fill="none" mask="url(#mask-6)"></path>
                    <path d="M923,36 L1245.6918,358.691803" id="Line-Copy-89" stroke="#000000" stroke-width="1" stroke-linecap="square" fill="none" mask="url(#mask-6)"></path>
                    <path d="M933,36 L1255.6918,358.691803" id="Line-Copy-90" stroke="#000000" stroke-width="1" stroke-linecap="square" fill="none" mask="url(#mask-6)"></path>
                    <path d="M943,36 L1265.6918,358.691803" id="Line-Copy-91" stroke="#000000" stroke-width="1" stroke-linecap="square" fill="none" mask="url(#mask-6)"></path>
                    <path d="M953,36 L1275.6918,358.691803" id="Line-Copy-92" stroke="#000000" stroke-width="1" stroke-linecap="square" fill="none" mask="url(#mask-6)"></path>
                    <path d="M963,36 L1285.6918,358.691803" id="Line-Copy-93" stroke="#000000" stroke-width="1" stroke-linecap="square" fill="none" mask="url(#mask-6)"></path>
                    <path d="M973,36 L1295.6918,358.691803" id="Line-Copy-94" stroke="#000000" stroke-width="1" stroke-linecap="square" fill="none" mask="url(#mask-6)"></path>
                    <path d="M983,36 L1305.6918,358.691803" id="Line-Copy-95" stroke="#000000" stroke-width="1" stroke-linecap="square" fill="none" mask="url(#mask-6)"></path>
                    <path d="M993,36 L1315.6918,358.691803" id="Line-Copy-96" stroke="#000000" stroke-width="1" stroke-linecap="square" fill="none" mask="url(#mask-6)"></path>
                    <path d="M1003,36 L1325.6918,358.691803" id="Line-Copy-97" stroke="#000000" stroke-width="1" stroke-linecap="square" fill="none" mask="url(#mask-6)"></path>
                    <path d="M1013,36 L1335.6918,358.691803" id="Line-Copy-98" stroke="#000000" stroke-width="1" stroke-linecap="square" fill="none" mask="url(#mask-6)"></path>
                    <path d="M1023,36 L1345.6918,358.691803" id="Line-Copy-99" stroke="#000000" stroke-width="1" stroke-linecap="square" fill="none" mask="url(#mask-6)"></path>
                    <path d="M1033,36 L1355.6918,358.691803" id="Line-Copy-100" stroke="#000000" stroke-width="1" stroke-linecap="square" fill="none" mask="url(#mask-6)"></path>
                    <path d="M1043,36 L1365.6918,358.691803" id="Line-Copy-101" stroke="#000000" stroke-width="1" stroke-linecap="square" fill="none" mask="url(#mask-6)"></path>
                    <path d="M1053,36 L1375.6918,358.691803" id="Line-Copy-102" stroke="#000000" stroke-width="1" stroke-linecap="square" fill="none" mask="url(#mask-6)"></path>
                    <path d="M1063,36 L1385.6918,358.691803" id="Line-Copy-103" stroke="#000000" stroke-width="1" stroke-linecap="square" fill="none" mask="url(#mask-6)"></path>
                    <path d="M1073,36 L1395.6918,358.691803" id="Line-Copy-104" stroke="#000000" stroke-width="1" stroke-linecap="square" fill="none" mask="url(#mask-6)"></path>
                    <path d="M1083,36 L1405.6918,358.691803" id="Line-Copy-105" stroke="#000000" stroke-width="1" stroke-linecap="square" fill="none" mask="url(#mask-6)"></path>
                    <path d="M1093,36 L1415.6918,358.691803" id="Line-Copy-106" stroke="#000000" stroke-width="1" stroke-linecap="square" fill="none" mask="url(#mask-6)"></path>
                    <path d="M1103,36 L1425.6918,358.691803" id="Line-Copy-107" stroke="#000000" stroke-width="1" stroke-linecap="square" fill="none" mask="url(#mask-6)"></path>
                    <path d="M1113,36 L1435.6918,358.691803" id="Line-Copy-108" stroke="#000000" stroke-width="1" stroke-linecap="square" fill="none" mask="url(#mask-6)"></path>
                    <path d="M1123,36 L1445.6918,358.691803" id="Line-Copy-109" stroke="#000000" stroke-width="1" stroke-linecap="square" fill="none" mask="url(#mask-6)"></path>
                    <path d="M1133,36 L1455.6918,358.691803" id="Line-Copy-110" stroke="#000000" stroke-width="1" stroke-linecap="square" fill="none" mask="url(#mask-6)"></path>
                    <path d="M1143,36 L1465.6918,358.691803" id="Line-Copy-111" stroke="#000000" stroke-width="1" stroke-linecap="square" fill="none" mask="url(#mask-6)"></path>
                </g>
            </g>
        </g>
    </g>
</svg>