<?xml version="1.0" encoding="UTF-8" standalone="no"?>
<svg width="1015px" height="173px" viewBox="0 0 1015 173" version="1.1" xmlns="http://www.w3.org/2000/svg" xmlns:xlink="http://www.w3.org/1999/xlink">
    <!-- Generator: Sketch 39.1 (31720) - http://www.bohemiancoding.com/sketch -->
    <title>logo-horisontal</title>
    <desc>Created with Sketch.</desc>
    <defs>
        <path d="M829.6,38.9 C810.1,38.9 801.9,45.3 796.9,52.2 L796,52.2 L789.4,42.1 L766.4,42.1 L766.4,168.6 L805.3,168.6 L805.3,88.6 C805.3,79.5 812.7,72.2 821.7,72.2 C830.8,72.2 838.1,79.6 838.1,88.6 L838.1,168.6 L877,168.6 L877,86.4 C877,60.5 855,38.9 829.6,38.9 Z M989.2,140.5 C982.1,142.8 974.6,144 966.4,144 C944.6,144 933,134.8 931.7,116.4 L1014.2,116.4 L1014.2,100 C1014.2,81.1 1009.1,66.1 998.8,55.3 C988.5,44.4 974.4,39 956.2,39 C944,39 933.1,41.9 923.4,47.8 C913.7,53.6 906.2,61.8 900.9,72.1 C895.6,82.5 892.9,94.2 892.9,107.3 C892.9,127.7 898.5,143.6 909.8,154.8 C921.1,166 936.9,171.7 957.4,171.7 C976.1,171.7 991.3,168.6 1003,162.3 L1003,162 L989.2,140.5 Z M939.8,73.1 C944.5,67.9 949.9,65.3 956.1,65.3 C970.8,65.3 978.1,74.4 978.1,92.5 L931.5,92.5 C932.3,84.8 935.1,78.3 939.8,73.1 Z M84.3,0.5 L52.2,0.5 L52.2,112 C52.2,124.5 52.2,127.8 49.6,130.4 C47.3,132.7 42.8,132.7 38.2,132.7 L21.5,132.7 L0.5,168.6 L37.4,168.6 C55.1,168.6 68.3,167.8 78.2,160.8 C89.4,153 91.2,140.3 91.2,113.3 L91.2,10.9 L84.3,0.5 Z M322.7,42.1 L289.8,123.9 L288.8,123.9 L255.8,42.1 L228,42.1 L228,63 L270.5,168.6 L308.1,168.6 L350.6,63 L350.6,42.1 L322.7,42.1 Z M592.6,132.7 L533.2,132.7 L605.6,23.5 L605.6,0.5 L487.7,0.5 L487.7,22 L494.5,32.5 L555.8,32.5 L480.8,145.5 L480.8,168.6 L615.9,168.6 L592.6,132.7 Z M461.2,168.6 L461.2,93.4 C461.2,57.1 443,39 406.6,39 C399.4,39 390.7,40.1 380.7,42.4 C376.5,43.3 372.7,44.3 369.4,45.3 L369.4,63 L374.4,70.7 C383.1,67.3 392.1,65.6 401.5,65.6 C416.6,65.6 424.2,72.6 424.2,86.5 L396.1,90 C366.8,93.9 352.1,108.2 352.1,132.9 C352.1,144.6 355.7,154 362.9,161 C370.1,168 379.8,171.5 392,171.5 C395,171.5 420.1,171 426.9,158.6 L427.4,158.6 L433.8,168.5 L461.2,168.5 L461.2,168.6 Z M420.7,137.2 C416,142.3 410,144.8 402.7,144.8 C397.2,144.8 393,143.4 389.9,140.5 C386.9,137.6 385.4,134 385.4,129.5 C385.4,119.5 391.8,113.8 404.6,112.2 L427.8,109.2 L427.8,117.8 C427.7,125.7 425.4,132.1 420.7,137.2 Z M216.8,168.6 L216.8,93.4 C216.8,57.1 198.6,39 162.2,39 C155,39 146.3,40.1 136.3,42.4 C132.1,43.3 128.3,44.3 125,45.3 L125,63 L130,70.7 C138.7,67.3 147.7,65.6 157.1,65.6 C172.2,65.6 179.8,72.6 179.8,86.5 L151.7,90 C122.4,93.9 107.7,108.2 107.7,132.9 C107.7,144.6 111.3,154 118.5,161 C125.7,168 135.4,171.5 147.6,171.5 C150.6,171.5 175.7,171 182.5,158.6 L183,158.6 L189.4,168.5 L216.8,168.5 L216.8,168.6 Z M176.3,137.2 C171.6,142.3 165.6,144.8 158.3,144.8 C152.8,144.8 148.6,143.4 145.5,140.5 C142.5,137.6 141,134 141,129.5 C141,119.5 147.4,113.8 160.2,112.2 L183.4,109.2 L183.4,117.8 C183.3,125.7 181,132.1 176.3,137.2 Z M746.8,103.6 C746.8,124.5 740.6,141.1 728.2,153.3 C715.8,165.5 699,171.6 677.7,171.6 C656.9,171.6 640.4,165.8 628.2,154.1 C616,142.4 609.9,126.3 609.9,105.8 C609.9,84.9 616.2,68.5 628.7,56.7 C641.2,44.9 658.1,39 679.5,39 C700.3,39 716.7,44.9 728.7,56.6 C740.8,68.3 746.8,84 746.8,103.6 Z M707.1,104.3 C707.1,80.7 697.7,68.8 678.8,68.8 C669.6,68.8 662.4,72 657.3,78.3 C652.2,84.6 649.6,93.6 649.6,105.2 C649.6,129.5 659.4,141.6 679,141.6 C697.7,141.7 707.1,129.3 707.1,104.3 Z" id="path-1"></path>
    </defs>
    <g id="Page-1" stroke="none" stroke-width="1" fill="none" fill-rule="evenodd">
        <g id="logo-horisontal">
            <mask id="mask-2" fill="white">
                <use xlink:href="#path-1"></use>
            </mask>
            <use id="Combined-Shape" stroke="#000000" xlink:href="#path-1"></use>
            <g id="Group-2" mask="url(#mask-2)" stroke="#000000" stroke-linecap="square">
                <g transform="translate(-238.000000, -76.000000)">
                    <path d="M0,0 L322.691803,322.691803" id="Line"></path>
                    <path d="M10,0 L332.691803,322.691803" id="Line-Copy"></path>
                    <path d="M20,0 L342.691803,322.691803" id="Line-Copy-2"></path>
                    <path d="M30,0 L352.691803,322.691803" id="Line-Copy-3"></path>
                    <path d="M40,0 L362.691803,322.691803" id="Line-Copy-4"></path>
                    <path d="M50,0 L372.691803,322.691803" id="Line-Copy-5"></path>
                    <path d="M60,0 L382.691803,322.691803" id="Line-Copy-6"></path>
                    <path d="M70,0 L392.691803,322.691803" id="Line-Copy-7"></path>
                    <path d="M80,0 L402.691803,322.691803" id="Line-Copy-8"></path>
                    <path d="M90,0 L412.691803,322.691803" id="Line-Copy-9"></path>
                    <path d="M100,0 L422.691803,322.691803" id="Line-Copy-10"></path>
                    <path d="M110,0 L432.691803,322.691803" id="Line-Copy-11"></path>
                    <path d="M120,0 L442.691803,322.691803" id="Line-Copy-12"></path>
                    <path d="M130,0 L452.691803,322.691803" id="Line-Copy-13"></path>
                    <path d="M140,0 L462.691803,322.691803" id="Line-Copy-14"></path>
                    <path d="M150,0 L472.691803,322.691803" id="Line-Copy-15"></path>
                    <path d="M160,0 L482.691803,322.691803" id="Line-Copy-16"></path>
                    <path d="M170,0 L492.691803,322.691803" id="Line-Copy-17"></path>
                    <path d="M180,0 L502.691803,322.691803" id="Line-Copy-18"></path>
                    <path d="M190,0 L512.691803,322.691803" id="Line-Copy-19"></path>
                    <path d="M200,0 L522.691803,322.691803" id="Line-Copy-20"></path>
                    <path d="M210,0 L532.691803,322.691803" id="Line-Copy-21"></path>
                    <path d="M220,0 L542.691803,322.691803" id="Line-Copy-22"></path>
                    <path d="M230,0 L552.691803,322.691803" id="Line-Copy-23"></path>
                    <path d="M240,0 L562.691803,322.691803" id="Line-Copy-24"></path>
                    <path d="M250,0 L572.691803,322.691803" id="Line-Copy-25"></path>
                    <path d="M260,0 L582.691803,322.691803" id="Line-Copy-26"></path>
                    <path d="M270,0 L592.691803,322.691803" id="Line-Copy-27"></path>
                    <path d="M280,0 L602.691803,322.691803" id="Line-Copy-28"></path>
                    <path d="M290,0 L612.691803,322.691803" id="Line-Copy-29"></path>
                    <path d="M300,0 L622.691803,322.691803" id="Line-Copy-30"></path>
                    <path d="M310,0 L632.691803,322.691803" id="Line-Copy-31"></path>
                    <path d="M320,0 L642.691803,322.691803" id="Line-Copy-32"></path>
                    <path d="M330,0 L652.691803,322.691803" id="Line-Copy-33"></path>
                    <path d="M340,0 L662.691803,322.691803" id="Line-Copy-34"></path>
                    <path d="M350,0 L672.691803,322.691803" id="Line-Copy-35"></path>
                    <path d="M360,0 L682.691803,322.691803" id="Line-Copy-36"></path>
                    <path d="M370,0 L692.691803,322.691803" id="Line-Copy-37"></path>
                    <path d="M380,0 L702.691803,322.691803" id="Line-Copy-38"></path>
                    <path d="M390,0 L712.691803,322.691803" id="Line-Copy-39"></path>
                    <path d="M400,0 L722.691803,322.691803" id="Line-Copy-40"></path>
                    <path d="M410,0 L732.691803,322.691803" id="Line-Copy-41"></path>
                    <path d="M420,0 L742.691803,322.691803" id="Line-Copy-42"></path>
                    <path d="M430,0 L752.691803,322.691803" id="Line-Copy-43"></path>
                    <path d="M440,0 L762.691803,322.691803" id="Line-Copy-44"></path>
                    <path d="M450,0 L772.691803,322.691803" id="Line-Copy-45"></path>
                    <path d="M460,0 L782.691803,322.691803" id="Line-Copy-46"></path>
                    <path d="M470,0 L792.691803,322.691803" id="Line-Copy-47"></path>
                    <path d="M480,0 L802.691803,322.691803" id="Line-Copy-48"></path>
                    <path d="M490,0 L812.691803,322.691803" id="Line-Copy-49"></path>
                    <path d="M500,0 L822.691803,322.691803" id="Line-Copy-50"></path>
                    <path d="M510,0 L832.691803,322.691803" id="Line-Copy-51"></path>
                    <path d="M520,0 L842.691803,322.691803" id="Line-Copy-52"></path>
                    <path d="M530,0 L852.691803,322.691803" id="Line-Copy-53"></path>
                    <path d="M540,0 L862.691803,322.691803" id="Line-Copy-54"></path>
                    <path d="M550,0 L872.691803,322.691803" id="Line-Copy-55"></path>
                    <path d="M560,0 L882.691803,322.691803" id="Line-Copy-56"></path>
                    <path d="M570,0 L892.691803,322.691803" id="Line-Copy-57"></path>
                    <path d="M580,0 L902.691803,322.691803" id="Line-Copy-58"></path>
                    <path d="M590,0 L912.691803,322.691803" id="Line-Copy-59"></path>
                    <path d="M600,0 L922.691803,322.691803" id="Line-Copy-60"></path>
                    <path d="M610,0 L932.691803,322.691803" id="Line-Copy-61"></path>
                    <path d="M620,0 L942.691803,322.691803" id="Line-Copy-62"></path>
                    <path d="M630,0 L952.691803,322.691803" id="Line-Copy-63"></path>
                    <path d="M640,0 L962.691803,322.691803" id="Line-Copy-64"></path>
                    <path d="M650,0 L972.691803,322.691803" id="Line-Copy-65"></path>
                    <path d="M660,0 L982.691803,322.691803" id="Line-Copy-66"></path>
                    <path d="M670,0 L992.691803,322.691803" id="Line-Copy-67"></path>
                    <path d="M680,0 L1002.6918,322.691803" id="Line-Copy-68"></path>
                    <path d="M690,0 L1012.6918,322.691803" id="Line-Copy-69"></path>
                    <path d="M700,0 L1022.6918,322.691803" id="Line-Copy-70"></path>
                    <path d="M710,0 L1032.6918,322.691803" id="Line-Copy-71"></path>
                    <path d="M720,0 L1042.6918,322.691803" id="Line-Copy-72"></path>
                    <path d="M730,0 L1052.6918,322.691803" id="Line-Copy-73"></path>
                    <path d="M740,0 L1062.6918,322.691803" id="Line-Copy-74"></path>
                    <path d="M750,0 L1072.6918,322.691803" id="Line-Copy-75"></path>
                    <path d="M760,0 L1082.6918,322.691803" id="Line-Copy-76"></path>
                    <path d="M770,0 L1092.6918,322.691803" id="Line-Copy-77"></path>
                    <path d="M780,0 L1102.6918,322.691803" id="Line-Copy-78"></path>
                    <path d="M790,0 L1112.6918,322.691803" id="Line-Copy-79"></path>
                    <path d="M800,0 L1122.6918,322.691803" id="Line-Copy-80"></path>
                    <path d="M810,0 L1132.6918,322.691803" id="Line-Copy-81"></path>
                    <path d="M820,0 L1142.6918,322.691803" id="Line-Copy-82"></path>
                    <path d="M830,0 L1152.6918,322.691803" id="Line-Copy-83"></path>
                    <path d="M840,0 L1162.6918,322.691803" id="Line-Copy-84"></path>
                    <path d="M850,0 L1172.6918,322.691803" id="Line-Copy-85"></path>
                    <path d="M860,0 L1182.6918,322.691803" id="Line-Copy-86"></path>
                    <path d="M870,0 L1192.6918,322.691803" id="Line-Copy-87"></path>
                    <path d="M880,0 L1202.6918,322.691803" id="Line-Copy-88"></path>
                    <path d="M890,0 L1212.6918,322.691803" id="Line-Copy-89"></path>
                    <path d="M900,0 L1222.6918,322.691803" id="Line-Copy-90"></path>
                    <path d="M910,0 L1232.6918,322.691803" id="Line-Copy-91"></path>
                    <path d="M920,0 L1242.6918,322.691803" id="Line-Copy-92"></path>
                    <path d="M930,0 L1252.6918,322.691803" id="Line-Copy-93"></path>
                    <path d="M940,0 L1262.6918,322.691803" id="Line-Copy-94"></path>
                    <path d="M950,0 L1272.6918,322.691803" id="Line-Copy-95"></path>
                    <path d="M960,0 L1282.6918,322.691803" id="Line-Copy-96"></path>
                    <path d="M970,0 L1292.6918,322.691803" id="Line-Copy-97"></path>
                    <path d="M980,0 L1302.6918,322.691803" id="Line-Copy-98"></path>
                    <path d="M990,0 L1312.6918,322.691803" id="Line-Copy-99"></path>
                    <path d="M1000,0 L1322.6918,322.691803" id="Line-Copy-100"></path>
                    <path d="M1010,0 L1332.6918,322.691803" id="Line-Copy-101"></path>
                    <path d="M1020,0 L1342.6918,322.691803" id="Line-Copy-102"></path>
                    <path d="M1030,0 L1352.6918,322.691803" id="Line-Copy-103"></path>
                    <path d="M1040,0 L1362.6918,322.691803" id="Line-Copy-104"></path>
                    <path d="M1050,0 L1372.6918,322.691803" id="Line-Copy-105"></path>
                    <path d="M1060,0 L1382.6918,322.691803" id="Line-Copy-106"></path>
                    <path d="M1070,0 L1392.6918,322.691803" id="Line-Copy-107"></path>
                    <path d="M1080,0 L1402.6918,322.691803" id="Line-Copy-108"></path>
                    <path d="M1090,0 L1412.6918,322.691803" id="Line-Copy-109"></path>
                    <path d="M1100,0 L1422.6918,322.691803" id="Line-Copy-110"></path>
                    <path d="M1110,0 L1432.6918,322.691803" id="Line-Copy-111"></path>
                </g>
            </g>
        </g>
    </g>
</svg>