<?xml version="1.0" encoding="UTF-8" standalone="no"?>
<svg width="1015px" height="173px" viewBox="0 0 1015 173" version="1.1" xmlns="http://www.w3.org/2000/svg" xmlns:xlink="http://www.w3.org/1999/xlink">
    <!-- Generator: Sketch 39.1 (31720) - http://www.bohemiancoding.com/sketch -->
    <title>Group</title>
    <desc>Created with Sketch.</desc>
    <defs>
        <path d="M829.6,38.9 C810.1,38.9 801.9,45.3 796.9,52.2 L796,52.2 L789.4,42.1 L766.4,42.1 L766.4,168.6 L805.3,168.6 L805.3,88.6 C805.3,79.5 812.7,72.2 821.7,72.2 C830.8,72.2 838.1,79.6 838.1,88.6 L838.1,168.6 L877,168.6 L877,86.4 C877,60.5 855,38.9 829.6,38.9 Z M989.2,140.5 C982.1,142.8 974.6,144 966.4,144 C944.6,144 933,134.8 931.7,116.4 L1014.2,116.4 L1014.2,100 C1014.2,81.1 1009.1,66.1 998.8,55.3 C988.5,44.4 974.4,39 956.2,39 C944,39 933.1,41.9 923.4,47.8 C913.7,53.6 906.2,61.8 900.9,72.1 C895.6,82.5 892.9,94.2 892.9,107.3 C892.9,127.7 898.5,143.6 909.8,154.8 C921.1,166 936.9,171.7 957.4,171.7 C976.1,171.7 991.3,168.6 1003,162.3 L1003,162 L989.2,140.5 Z M939.8,73.1 C944.5,67.9 949.9,65.3 956.1,65.3 C970.8,65.3 978.1,74.4 978.1,92.5 L931.5,92.5 C932.3,84.8 935.1,78.3 939.8,73.1 Z M84.3,0.5 L52.2,0.5 L52.2,112 C52.2,124.5 52.2,127.8 49.6,130.4 C47.3,132.7 42.8,132.7 38.2,132.7 L21.5,132.7 L0.5,168.6 L37.4,168.6 C55.1,168.6 68.3,167.8 78.2,160.8 C89.4,153 91.2,140.3 91.2,113.3 L91.2,10.9 L84.3,0.5 Z M322.7,42.1 L289.8,123.9 L288.8,123.9 L255.8,42.1 L228,42.1 L228,63 L270.5,168.6 L308.1,168.6 L350.6,63 L350.6,42.1 L322.7,42.1 Z M592.6,132.7 L533.2,132.7 L605.6,23.5 L605.6,0.5 L487.7,0.5 L487.7,22 L494.5,32.5 L555.8,32.5 L480.8,145.5 L480.8,168.6 L615.9,168.6 L592.6,132.7 Z M461.2,168.6 L461.2,93.4 C461.2,57.1 443,39 406.6,39 C399.4,39 390.7,40.1 380.7,42.4 C376.5,43.3 372.7,44.3 369.4,45.3 L369.4,63 L374.4,70.7 C383.1,67.3 392.1,65.6 401.5,65.6 C416.6,65.6 424.2,72.6 424.2,86.5 L396.1,90 C366.8,93.9 352.1,108.2 352.1,132.9 C352.1,144.6 355.7,154 362.9,161 C370.1,168 379.8,171.5 392,171.5 C395,171.5 420.1,171 426.9,158.6 L427.4,158.6 L433.8,168.5 L461.2,168.5 L461.2,168.6 Z M420.7,137.2 C416,142.3 410,144.8 402.7,144.8 C397.2,144.8 393,143.4 389.9,140.5 C386.9,137.6 385.4,134 385.4,129.5 C385.4,119.5 391.8,113.8 404.6,112.2 L427.8,109.2 L427.8,117.8 C427.7,125.7 425.4,132.1 420.7,137.2 Z M216.8,168.6 L216.8,93.4 C216.8,57.1 198.6,39 162.2,39 C155,39 146.3,40.1 136.3,42.4 C132.1,43.3 128.3,44.3 125,45.3 L125,63 L130,70.7 C138.7,67.3 147.7,65.6 157.1,65.6 C172.2,65.6 179.8,72.6 179.8,86.5 L151.7,90 C122.4,93.9 107.7,108.2 107.7,132.9 C107.7,144.6 111.3,154 118.5,161 C125.7,168 135.4,171.5 147.6,171.5 C150.6,171.5 175.7,171 182.5,158.6 L183,158.6 L189.4,168.5 L216.8,168.5 L216.8,168.6 Z M176.3,137.2 C171.6,142.3 165.6,144.8 158.3,144.8 C152.8,144.8 148.6,143.4 145.5,140.5 C142.5,137.6 141,134 141,129.5 C141,119.5 147.4,113.8 160.2,112.2 L183.4,109.2 L183.4,117.8 C183.3,125.7 181,132.1 176.3,137.2 Z M746.8,103.6 C746.8,124.5 740.6,141.1 728.2,153.3 C715.8,165.5 699,171.6 677.7,171.6 C656.9,171.6 640.4,165.8 628.2,154.1 C616,142.4 609.9,126.3 609.9,105.8 C609.9,84.9 616.2,68.5 628.7,56.7 C641.2,44.9 658.1,39 679.5,39 C700.3,39 716.7,44.9 728.7,56.6 C740.8,68.3 746.8,84 746.8,103.6 Z M707.1,104.3 C707.1,80.7 697.7,68.8 678.8,68.8 C669.6,68.8 662.4,72 657.3,78.3 C652.2,84.6 649.6,93.6 649.6,105.2 C649.6,129.5 659.4,141.6 679,141.6 C697.7,141.7 707.1,129.3 707.1,104.3 Z" id="path-1"></path>
        <rect id="path-3" x="0" y="0" width="691.691803" height="429"></rect>
        <rect id="path-5" x="0" y="0" width="530" height="429"></rect>
    </defs>
    <g id="Page-1" stroke="none" stroke-width="1" fill="none" fill-rule="evenodd">
        <g id="Group">
            <mask id="mask-2" fill="white">
                <use xlink:href="#path-1"></use>
            </mask>
            <use id="Combined-Shape" stroke="#000000" xlink:href="#path-1"></use>
            <g id="Group-2" mask="url(#mask-2)">
                <g transform="translate(484.000000, -100.000000)">
                    <mask id="mask-4" fill="white">
                        <use xlink:href="#path-3"></use>
                    </mask>
                    <g id="Rectangle" stroke="none" fill="none"></g>
                    <path d="M-221,36 L101.691803,358.691803" id="Line" stroke="#000000" stroke-width="1" stroke-linecap="square" fill="none" mask="url(#mask-4)"></path>
                    <path d="M-211,36 L111.691803,358.691803" id="Line-Copy" stroke="#000000" stroke-width="1" stroke-linecap="square" fill="none" mask="url(#mask-4)"></path>
                    <path d="M-201,36 L121.691803,358.691803" id="Line-Copy-2" stroke="#000000" stroke-width="1" stroke-linecap="square" fill="none" mask="url(#mask-4)"></path>
                    <path d="M-191,36 L131.691803,358.691803" id="Line-Copy-3" stroke="#000000" stroke-width="1" stroke-linecap="square" fill="none" mask="url(#mask-4)"></path>
                    <path d="M-181,36 L141.691803,358.691803" id="Line-Copy-4" stroke="#000000" stroke-width="1" stroke-linecap="square" fill="none" mask="url(#mask-4)"></path>
                    <path d="M-171,36 L151.691803,358.691803" id="Line-Copy-5" stroke="#000000" stroke-width="1" stroke-linecap="square" fill="none" mask="url(#mask-4)"></path>
                    <path d="M-161,36 L161.691803,358.691803" id="Line-Copy-6" stroke="#000000" stroke-width="1" stroke-linecap="square" fill="none" mask="url(#mask-4)"></path>
                    <path d="M-151,36 L171.691803,358.691803" id="Line-Copy-7" stroke="#000000" stroke-width="1" stroke-linecap="square" fill="none" mask="url(#mask-4)"></path>
                    <path d="M-141,36 L181.691803,358.691803" id="Line-Copy-8" stroke="#000000" stroke-width="1" stroke-linecap="square" fill="none" mask="url(#mask-4)"></path>
                    <path d="M-131,36 L191.691803,358.691803" id="Line-Copy-9" stroke="#000000" stroke-width="1" stroke-linecap="square" fill="none" mask="url(#mask-4)"></path>
                    <path d="M-121,36 L201.691803,358.691803" id="Line-Copy-10" stroke="#000000" stroke-width="1" stroke-linecap="square" fill="none" mask="url(#mask-4)"></path>
                    <path d="M-111,36 L211.691803,358.691803" id="Line-Copy-11" stroke="#000000" stroke-width="1" stroke-linecap="square" fill="none" mask="url(#mask-4)"></path>
                    <path d="M-101,36 L221.691803,358.691803" id="Line-Copy-12" stroke="#000000" stroke-width="1" stroke-linecap="square" fill="none" mask="url(#mask-4)"></path>
                    <path d="M-91,36 L231.691803,358.691803" id="Line-Copy-13" stroke="#000000" stroke-width="1" stroke-linecap="square" fill="none" mask="url(#mask-4)"></path>
                    <path d="M-81,36 L241.691803,358.691803" id="Line-Copy-14" stroke="#000000" stroke-width="1" stroke-linecap="square" fill="none" mask="url(#mask-4)"></path>
                    <path d="M-71,36 L251.691803,358.691803" id="Line-Copy-15" stroke="#000000" stroke-width="1" stroke-linecap="square" fill="none" mask="url(#mask-4)"></path>
                    <path d="M-61,36 L261.691803,358.691803" id="Line-Copy-16" stroke="#000000" stroke-width="1" stroke-linecap="square" fill="none" mask="url(#mask-4)"></path>
                    <path d="M-51,36 L271.691803,358.691803" id="Line-Copy-17" stroke="#000000" stroke-width="1" stroke-linecap="square" fill="none" mask="url(#mask-4)"></path>
                    <path d="M-41,36 L281.691803,358.691803" id="Line-Copy-18" stroke="#000000" stroke-width="1" stroke-linecap="square" fill="none" mask="url(#mask-4)"></path>
                    <path d="M-31,36 L291.691803,358.691803" id="Line-Copy-19" stroke="#000000" stroke-width="1" stroke-linecap="square" fill="none" mask="url(#mask-4)"></path>
                    <path d="M-21,36 L301.691803,358.691803" id="Line-Copy-20" stroke="#000000" stroke-width="1" stroke-linecap="square" fill="none" mask="url(#mask-4)"></path>
                    <path d="M-11,36 L311.691803,358.691803" id="Line-Copy-21" stroke="#000000" stroke-width="1" stroke-linecap="square" fill="none" mask="url(#mask-4)"></path>
                    <path d="M-1,36 L321.691803,358.691803" id="Line-Copy-22" stroke="#000000" stroke-width="1" stroke-linecap="square" fill="none" mask="url(#mask-4)"></path>
                    <path d="M9,36 L331.691803,358.691803" id="Line-Copy-23" stroke="#000000" stroke-width="1" stroke-linecap="square" fill="none" mask="url(#mask-4)"></path>
                    <path d="M19,36 L341.691803,358.691803" id="Line-Copy-24" stroke="#000000" stroke-width="1" stroke-linecap="square" fill="none" mask="url(#mask-4)"></path>
                    <path d="M29,36 L351.691803,358.691803" id="Line-Copy-25" stroke="#000000" stroke-width="1" stroke-linecap="square" fill="none" mask="url(#mask-4)"></path>
                    <path d="M39,36 L361.691803,358.691803" id="Line-Copy-26" stroke="#000000" stroke-width="1" stroke-linecap="square" fill="none" mask="url(#mask-4)"></path>
                    <path d="M49,36 L371.691803,358.691803" id="Line-Copy-27" stroke="#000000" stroke-width="1" stroke-linecap="square" fill="none" mask="url(#mask-4)"></path>
                    <path d="M59,36 L381.691803,358.691803" id="Line-Copy-28" stroke="#000000" stroke-width="1" stroke-linecap="square" fill="none" mask="url(#mask-4)"></path>
                    <path d="M69,36 L391.691803,358.691803" id="Line-Copy-29" stroke="#000000" stroke-width="1" stroke-linecap="square" fill="none" mask="url(#mask-4)"></path>
                    <path d="M79,36 L401.691803,358.691803" id="Line-Copy-30" stroke="#000000" stroke-width="1" stroke-linecap="square" fill="none" mask="url(#mask-4)"></path>
                    <path d="M89,36 L411.691803,358.691803" id="Line-Copy-31" stroke="#000000" stroke-width="1" stroke-linecap="square" fill="none" mask="url(#mask-4)"></path>
                    <path d="M99,36 L421.691803,358.691803" id="Line-Copy-32" stroke="#000000" stroke-width="1" stroke-linecap="square" fill="none" mask="url(#mask-4)"></path>
                    <path d="M109,36 L431.691803,358.691803" id="Line-Copy-33" stroke="#000000" stroke-width="1" stroke-linecap="square" fill="none" mask="url(#mask-4)"></path>
                    <path d="M119,36 L441.691803,358.691803" id="Line-Copy-34" stroke="#000000" stroke-width="1" stroke-linecap="square" fill="none" mask="url(#mask-4)"></path>
                    <path d="M129,36 L451.691803,358.691803" id="Line-Copy-35" stroke="#000000" stroke-width="1" stroke-linecap="square" fill="none" mask="url(#mask-4)"></path>
                    <path d="M139,36 L461.691803,358.691803" id="Line-Copy-36" stroke="#000000" stroke-width="1" stroke-linecap="square" fill="none" mask="url(#mask-4)"></path>
                    <path d="M149,36 L471.691803,358.691803" id="Line-Copy-37" stroke="#000000" stroke-width="1" stroke-linecap="square" fill="none" mask="url(#mask-4)"></path>
                    <path d="M159,36 L481.691803,358.691803" id="Line-Copy-38" stroke="#000000" stroke-width="1" stroke-linecap="square" fill="none" mask="url(#mask-4)"></path>
                    <path d="M169,36 L491.691803,358.691803" id="Line-Copy-39" stroke="#000000" stroke-width="1" stroke-linecap="square" fill="none" mask="url(#mask-4)"></path>
                    <path d="M179,36 L501.691803,358.691803" id="Line-Copy-40" stroke="#000000" stroke-width="1" stroke-linecap="square" fill="none" mask="url(#mask-4)"></path>
                    <path d="M189,36 L511.691803,358.691803" id="Line-Copy-41" stroke="#000000" stroke-width="1" stroke-linecap="square" fill="none" mask="url(#mask-4)"></path>
                    <path d="M199,36 L521.691803,358.691803" id="Line-Copy-42" stroke="#000000" stroke-width="1" stroke-linecap="square" fill="none" mask="url(#mask-4)"></path>
                    <path d="M209,36 L531.691803,358.691803" id="Line-Copy-43" stroke="#000000" stroke-width="1" stroke-linecap="square" fill="none" mask="url(#mask-4)"></path>
                    <path d="M219,36 L541.691803,358.691803" id="Line-Copy-44" stroke="#000000" stroke-width="1" stroke-linecap="square" fill="none" mask="url(#mask-4)"></path>
                    <path d="M229,36 L551.691803,358.691803" id="Line-Copy-45" stroke="#000000" stroke-width="1" stroke-linecap="square" fill="none" mask="url(#mask-4)"></path>
                    <path d="M239,36 L561.691803,358.691803" id="Line-Copy-46" stroke="#000000" stroke-width="1" stroke-linecap="square" fill="none" mask="url(#mask-4)"></path>
                    <path d="M249,36 L571.691803,358.691803" id="Line-Copy-47" stroke="#000000" stroke-width="1" stroke-linecap="square" fill="none" mask="url(#mask-4)"></path>
                    <path d="M259,36 L581.691803,358.691803" id="Line-Copy-48" stroke="#000000" stroke-width="1" stroke-linecap="square" fill="none" mask="url(#mask-4)"></path>
                    <path d="M269,36 L591.691803,358.691803" id="Line-Copy-49" stroke="#000000" stroke-width="1" stroke-linecap="square" fill="none" mask="url(#mask-4)"></path>
                    <path d="M279,36 L601.691803,358.691803" id="Line-Copy-50" stroke="#000000" stroke-width="1" stroke-linecap="square" fill="none" mask="url(#mask-4)"></path>
                    <path d="M289,36 L611.691803,358.691803" id="Line-Copy-51" stroke="#000000" stroke-width="1" stroke-linecap="square" fill="none" mask="url(#mask-4)"></path>
                    <path d="M299,36 L621.691803,358.691803" id="Line-Copy-52" stroke="#000000" stroke-width="1" stroke-linecap="square" fill="none" mask="url(#mask-4)"></path>
                    <path d="M309,36 L631.691803,358.691803" id="Line-Copy-53" stroke="#000000" stroke-width="1" stroke-linecap="square" fill="none" mask="url(#mask-4)"></path>
                    <path d="M319,36 L641.691803,358.691803" id="Line-Copy-54" stroke="#000000" stroke-width="1" stroke-linecap="square" fill="none" mask="url(#mask-4)"></path>
                    <path d="M329,36 L651.691803,358.691803" id="Line-Copy-55" stroke="#000000" stroke-width="1" stroke-linecap="square" fill="none" mask="url(#mask-4)"></path>
                    <path d="M339,36 L661.691803,358.691803" id="Line-Copy-56" stroke="#000000" stroke-width="1" stroke-linecap="square" fill="none" mask="url(#mask-4)"></path>
                    <path d="M349,36 L671.691803,358.691803" id="Line-Copy-57" stroke="#000000" stroke-width="1" stroke-linecap="square" fill="none" mask="url(#mask-4)"></path>
                    <path d="M359,36 L681.691803,358.691803" id="Line-Copy-58" stroke="#000000" stroke-width="1" stroke-linecap="square" fill="none" mask="url(#mask-4)"></path>
                    <path d="M369,36 L691.691803,358.691803" id="Line-Copy-59" stroke="#000000" stroke-width="1" stroke-linecap="square" fill="none" mask="url(#mask-4)"></path>
                    <path d="M379,36 L701.691803,358.691803" id="Line-Copy-60" stroke="#000000" stroke-width="1" stroke-linecap="square" fill="none" mask="url(#mask-4)"></path>
                    <path d="M389,36 L711.691803,358.691803" id="Line-Copy-61" stroke="#000000" stroke-width="1" stroke-linecap="square" fill="none" mask="url(#mask-4)"></path>
                    <path d="M399,36 L721.691803,358.691803" id="Line-Copy-62" stroke="#000000" stroke-width="1" stroke-linecap="square" fill="none" mask="url(#mask-4)"></path>
                    <path d="M409,36 L731.691803,358.691803" id="Line-Copy-63" stroke="#000000" stroke-width="1" stroke-linecap="square" fill="none" mask="url(#mask-4)"></path>
                    <path d="M419,36 L741.691803,358.691803" id="Line-Copy-64" stroke="#000000" stroke-width="1" stroke-linecap="square" fill="none" mask="url(#mask-4)"></path>
                    <path d="M429,36 L751.691803,358.691803" id="Line-Copy-65" stroke="#000000" stroke-width="1" stroke-linecap="square" fill="none" mask="url(#mask-4)"></path>
                    <path d="M439,36 L761.691803,358.691803" id="Line-Copy-66" stroke="#000000" stroke-width="1" stroke-linecap="square" fill="none" mask="url(#mask-4)"></path>
                    <path d="M449,36 L771.691803,358.691803" id="Line-Copy-67" stroke="#000000" stroke-width="1" stroke-linecap="square" fill="none" mask="url(#mask-4)"></path>
                    <path d="M459,36 L781.691803,358.691803" id="Line-Copy-68" stroke="#000000" stroke-width="1" stroke-linecap="square" fill="none" mask="url(#mask-4)"></path>
                    <path d="M469,36 L791.691803,358.691803" id="Line-Copy-69" stroke="#000000" stroke-width="1" stroke-linecap="square" fill="none" mask="url(#mask-4)"></path>
                    <path d="M479,36 L801.691803,358.691803" id="Line-Copy-70" stroke="#000000" stroke-width="1" stroke-linecap="square" fill="none" mask="url(#mask-4)"></path>
                    <path d="M489,36 L811.691803,358.691803" id="Line-Copy-71" stroke="#000000" stroke-width="1" stroke-linecap="square" fill="none" mask="url(#mask-4)"></path>
                    <path d="M499,36 L821.691803,358.691803" id="Line-Copy-72" stroke="#000000" stroke-width="1" stroke-linecap="square" fill="none" mask="url(#mask-4)"></path>
                    <path d="M509,36 L831.691803,358.691803" id="Line-Copy-73" stroke="#000000" stroke-width="1" stroke-linecap="square" fill="none" mask="url(#mask-4)"></path>
                    <path d="M519,36 L841.691803,358.691803" id="Line-Copy-74" stroke="#000000" stroke-width="1" stroke-linecap="square" fill="none" mask="url(#mask-4)"></path>
                    <path d="M529,36 L851.691803,358.691803" id="Line-Copy-75" stroke="#000000" stroke-width="1" stroke-linecap="square" fill="none" mask="url(#mask-4)"></path>
                </g>
            </g>
            <g id="Group-2-Copy" mask="url(#mask-2)">
                <g transform="translate(207.000000, 102.500000) scale(-1, 1) translate(-207.000000, -102.500000) translate(-58.000000, -112.000000)">
                    <mask id="mask-6" fill="white">
                        <use xlink:href="#path-5"></use>
                    </mask>
                    <g id="Rectangle" stroke="none" fill="none"></g>
                    <path d="M-231,36 L91.691803,358.691803" id="Line" stroke="#000000" stroke-width="1" stroke-linecap="square" fill="none" mask="url(#mask-6)"></path>
                    <path d="M-221,36 L101.691803,358.691803" id="Line-Copy" stroke="#000000" stroke-width="1" stroke-linecap="square" fill="none" mask="url(#mask-6)"></path>
                    <path d="M-211,36 L111.691803,358.691803" id="Line-Copy-2" stroke="#000000" stroke-width="1" stroke-linecap="square" fill="none" mask="url(#mask-6)"></path>
                    <path d="M-201,36 L121.691803,358.691803" id="Line-Copy-3" stroke="#000000" stroke-width="1" stroke-linecap="square" fill="none" mask="url(#mask-6)"></path>
                    <path d="M-191,36 L131.691803,358.691803" id="Line-Copy-4" stroke="#000000" stroke-width="1" stroke-linecap="square" fill="none" mask="url(#mask-6)"></path>
                    <path d="M-181,36 L141.691803,358.691803" id="Line-Copy-5" stroke="#000000" stroke-width="1" stroke-linecap="square" fill="none" mask="url(#mask-6)"></path>
                    <path d="M-171,36 L151.691803,358.691803" id="Line-Copy-6" stroke="#000000" stroke-width="1" stroke-linecap="square" fill="none" mask="url(#mask-6)"></path>
                    <path d="M-161,36 L161.691803,358.691803" id="Line-Copy-7" stroke="#000000" stroke-width="1" stroke-linecap="square" fill="none" mask="url(#mask-6)"></path>
                    <path d="M-151,36 L171.691803,358.691803" id="Line-Copy-8" stroke="#000000" stroke-width="1" stroke-linecap="square" fill="none" mask="url(#mask-6)"></path>
                    <path d="M-141,36 L181.691803,358.691803" id="Line-Copy-9" stroke="#000000" stroke-width="1" stroke-linecap="square" fill="none" mask="url(#mask-6)"></path>
                    <path d="M-131,36 L191.691803,358.691803" id="Line-Copy-10" stroke="#000000" stroke-width="1" stroke-linecap="square" fill="none" mask="url(#mask-6)"></path>
                    <path d="M-121,36 L201.691803,358.691803" id="Line-Copy-11" stroke="#000000" stroke-width="1" stroke-linecap="square" fill="none" mask="url(#mask-6)"></path>
                    <path d="M-111,36 L211.691803,358.691803" id="Line-Copy-12" stroke="#000000" stroke-width="1" stroke-linecap="square" fill="none" mask="url(#mask-6)"></path>
                    <path d="M-101,36 L221.691803,358.691803" id="Line-Copy-13" stroke="#000000" stroke-width="1" stroke-linecap="square" fill="none" mask="url(#mask-6)"></path>
                    <path d="M-91,36 L231.691803,358.691803" id="Line-Copy-14" stroke="#000000" stroke-width="1" stroke-linecap="square" fill="none" mask="url(#mask-6)"></path>
                    <path d="M-81,36 L241.691803,358.691803" id="Line-Copy-15" stroke="#000000" stroke-width="1" stroke-linecap="square" fill="none" mask="url(#mask-6)"></path>
                    <path d="M-71,36 L251.691803,358.691803" id="Line-Copy-16" stroke="#000000" stroke-width="1" stroke-linecap="square" fill="none" mask="url(#mask-6)"></path>
                    <path d="M-61,36 L261.691803,358.691803" id="Line-Copy-17" stroke="#000000" stroke-width="1" stroke-linecap="square" fill="none" mask="url(#mask-6)"></path>
                    <path d="M-51,36 L271.691803,358.691803" id="Line-Copy-18" stroke="#000000" stroke-width="1" stroke-linecap="square" fill="none" mask="url(#mask-6)"></path>
                    <path d="M-41,36 L281.691803,358.691803" id="Line-Copy-19" stroke="#000000" stroke-width="1" stroke-linecap="square" fill="none" mask="url(#mask-6)"></path>
                    <path d="M-31,36 L291.691803,358.691803" id="Line-Copy-20" stroke="#000000" stroke-width="1" stroke-linecap="square" fill="none" mask="url(#mask-6)"></path>
                    <path d="M-21,36 L301.691803,358.691803" id="Line-Copy-21" stroke="#000000" stroke-width="1" stroke-linecap="square" fill="none" mask="url(#mask-6)"></path>
                    <path d="M-11,36 L311.691803,358.691803" id="Line-Copy-22" stroke="#000000" stroke-width="1" stroke-linecap="square" fill="none" mask="url(#mask-6)"></path>
                    <path d="M-1,36 L321.691803,358.691803" id="Line-Copy-23" stroke="#000000" stroke-width="1" stroke-linecap="square" fill="none" mask="url(#mask-6)"></path>
                    <path d="M9,36 L331.691803,358.691803" id="Line-Copy-24" stroke="#000000" stroke-width="1" stroke-linecap="square" fill="none" mask="url(#mask-6)"></path>
                    <path d="M19,36 L341.691803,358.691803" id="Line-Copy-25" stroke="#000000" stroke-width="1" stroke-linecap="square" fill="none" mask="url(#mask-6)"></path>
                    <path d="M29,36 L351.691803,358.691803" id="Line-Copy-26" stroke="#000000" stroke-width="1" stroke-linecap="square" fill="none" mask="url(#mask-6)"></path>
                    <path d="M39,36 L361.691803,358.691803" id="Line-Copy-27" stroke="#000000" stroke-width="1" stroke-linecap="square" fill="none" mask="url(#mask-6)"></path>
                    <path d="M49,36 L371.691803,358.691803" id="Line-Copy-28" stroke="#000000" stroke-width="1" stroke-linecap="square" fill="none" mask="url(#mask-6)"></path>
                    <path d="M59,36 L381.691803,358.691803" id="Line-Copy-29" stroke="#000000" stroke-width="1" stroke-linecap="square" fill="none" mask="url(#mask-6)"></path>
                    <path d="M69,36 L391.691803,358.691803" id="Line-Copy-30" stroke="#000000" stroke-width="1" stroke-linecap="square" fill="none" mask="url(#mask-6)"></path>
                    <path d="M79,36 L401.691803,358.691803" id="Line-Copy-31" stroke="#000000" stroke-width="1" stroke-linecap="square" fill="none" mask="url(#mask-6)"></path>
                    <path d="M89,36 L411.691803,358.691803" id="Line-Copy-32" stroke="#000000" stroke-width="1" stroke-linecap="square" fill="none" mask="url(#mask-6)"></path>
                    <path d="M99,36 L421.691803,358.691803" id="Line-Copy-33" stroke="#000000" stroke-width="1" stroke-linecap="square" fill="none" mask="url(#mask-6)"></path>
                    <path d="M109,36 L431.691803,358.691803" id="Line-Copy-34" stroke="#000000" stroke-width="1" stroke-linecap="square" fill="none" mask="url(#mask-6)"></path>
                    <path d="M119,36 L441.691803,358.691803" id="Line-Copy-35" stroke="#000000" stroke-width="1" stroke-linecap="square" fill="none" mask="url(#mask-6)"></path>
                    <path d="M129,36 L451.691803,358.691803" id="Line-Copy-36" stroke="#000000" stroke-width="1" stroke-linecap="square" fill="none" mask="url(#mask-6)"></path>
                    <path d="M139,36 L461.691803,358.691803" id="Line-Copy-37" stroke="#000000" stroke-width="1" stroke-linecap="square" fill="none" mask="url(#mask-6)"></path>
                    <path d="M149,36 L471.691803,358.691803" id="Line-Copy-38" stroke="#000000" stroke-width="1" stroke-linecap="square" fill="none" mask="url(#mask-6)"></path>
                    <path d="M159,36 L481.691803,358.691803" id="Line-Copy-39" stroke="#000000" stroke-width="1" stroke-linecap="square" fill="none" mask="url(#mask-6)"></path>
                    <path d="M169,36 L491.691803,358.691803" id="Line-Copy-40" stroke="#000000" stroke-width="1" stroke-linecap="square" fill="none" mask="url(#mask-6)"></path>
                    <path d="M179,36 L501.691803,358.691803" id="Line-Copy-41" stroke="#000000" stroke-width="1" stroke-linecap="square" fill="none" mask="url(#mask-6)"></path>
                    <path d="M189,36 L511.691803,358.691803" id="Line-Copy-42" stroke="#000000" stroke-width="1" stroke-linecap="square" fill="none" mask="url(#mask-6)"></path>
                    <path d="M199,36 L521.691803,358.691803" id="Line-Copy-43" stroke="#000000" stroke-width="1" stroke-linecap="square" fill="none" mask="url(#mask-6)"></path>
                    <path d="M209,36 L531.691803,358.691803" id="Line-Copy-44" stroke="#000000" stroke-width="1" stroke-linecap="square" fill="none" mask="url(#mask-6)"></path>
                    <path d="M219,36 L541.691803,358.691803" id="Line-Copy-45" stroke="#000000" stroke-width="1" stroke-linecap="square" fill="none" mask="url(#mask-6)"></path>
                    <path d="M229,36 L551.691803,358.691803" id="Line-Copy-46" stroke="#000000" stroke-width="1" stroke-linecap="square" fill="none" mask="url(#mask-6)"></path>
                    <path d="M239,36 L561.691803,358.691803" id="Line-Copy-47" stroke="#000000" stroke-width="1" stroke-linecap="square" fill="none" mask="url(#mask-6)"></path>
                    <path d="M249,36 L571.691803,358.691803" id="Line-Copy-48" stroke="#000000" stroke-width="1" stroke-linecap="square" fill="none" mask="url(#mask-6)"></path>
                    <path d="M259,36 L581.691803,358.691803" id="Line-Copy-49" stroke="#000000" stroke-width="1" stroke-linecap="square" fill="none" mask="url(#mask-6)"></path>
                    <path d="M269,36 L591.691803,358.691803" id="Line-Copy-50" stroke="#000000" stroke-width="1" stroke-linecap="square" fill="none" mask="url(#mask-6)"></path>
                    <path d="M279,36 L601.691803,358.691803" id="Line-Copy-51" stroke="#000000" stroke-width="1" stroke-linecap="square" fill="none" mask="url(#mask-6)"></path>
                    <path d="M289,36 L611.691803,358.691803" id="Line-Copy-52" stroke="#000000" stroke-width="1" stroke-linecap="square" fill="none" mask="url(#mask-6)"></path>
                    <path d="M299,36 L621.691803,358.691803" id="Line-Copy-53" stroke="#000000" stroke-width="1" stroke-linecap="square" fill="none" mask="url(#mask-6)"></path>
                    <path d="M309,36 L631.691803,358.691803" id="Line-Copy-54" stroke="#000000" stroke-width="1" stroke-linecap="square" fill="none" mask="url(#mask-6)"></path>
                    <path d="M319,36 L641.691803,358.691803" id="Line-Copy-55" stroke="#000000" stroke-width="1" stroke-linecap="square" fill="none" mask="url(#mask-6)"></path>
                    <path d="M329,36 L651.691803,358.691803" id="Line-Copy-56" stroke="#000000" stroke-width="1" stroke-linecap="square" fill="none" mask="url(#mask-6)"></path>
                    <path d="M339,36 L661.691803,358.691803" id="Line-Copy-57" stroke="#000000" stroke-width="1" stroke-linecap="square" fill="none" mask="url(#mask-6)"></path>
                    <path d="M349,36 L671.691803,358.691803" id="Line-Copy-58" stroke="#000000" stroke-width="1" stroke-linecap="square" fill="none" mask="url(#mask-6)"></path>
                    <path d="M359,36 L681.691803,358.691803" id="Line-Copy-59" stroke="#000000" stroke-width="1" stroke-linecap="square" fill="none" mask="url(#mask-6)"></path>
                    <path d="M369,36 L691.691803,358.691803" id="Line-Copy-60" stroke="#000000" stroke-width="1" stroke-linecap="square" fill="none" mask="url(#mask-6)"></path>
                    <path d="M379,36 L701.691803,358.691803" id="Line-Copy-61" stroke="#000000" stroke-width="1" stroke-linecap="square" fill="none" mask="url(#mask-6)"></path>
                    <path d="M389,36 L711.691803,358.691803" id="Line-Copy-62" stroke="#000000" stroke-width="1" stroke-linecap="square" fill="none" mask="url(#mask-6)"></path>
                    <path d="M399,36 L721.691803,358.691803" id="Line-Copy-63" stroke="#000000" stroke-width="1" stroke-linecap="square" fill="none" mask="url(#mask-6)"></path>
                    <path d="M409,36 L731.691803,358.691803" id="Line-Copy-64" stroke="#000000" stroke-width="1" stroke-linecap="square" fill="none" mask="url(#mask-6)"></path>
                    <path d="M419,36 L741.691803,358.691803" id="Line-Copy-65" stroke="#000000" stroke-width="1" stroke-linecap="square" fill="none" mask="url(#mask-6)"></path>
                    <path d="M429,36 L751.691803,358.691803" id="Line-Copy-66" stroke="#000000" stroke-width="1" stroke-linecap="square" fill="none" mask="url(#mask-6)"></path>
                    <path d="M439,36 L761.691803,358.691803" id="Line-Copy-67" stroke="#000000" stroke-width="1" stroke-linecap="square" fill="none" mask="url(#mask-6)"></path>
                    <path d="M449,36 L771.691803,358.691803" id="Line-Copy-68" stroke="#000000" stroke-width="1" stroke-linecap="square" fill="none" mask="url(#mask-6)"></path>
                    <path d="M459,36 L781.691803,358.691803" id="Line-Copy-69" stroke="#000000" stroke-width="1" stroke-linecap="square" fill="none" mask="url(#mask-6)"></path>
                    <path d="M469,36 L791.691803,358.691803" id="Line-Copy-70" stroke="#000000" stroke-width="1" stroke-linecap="square" fill="none" mask="url(#mask-6)"></path>
                </g>
            </g>
        </g>
    </g>
</svg>